<?xml version="1.0" encoding="iso-8859-1"?>
<!-- Generator: Adobe Illustrator 18.0.0, SVG Export Plug-In . SVG Version: 6.00 Build 0)  -->
<!DOCTYPE svg PUBLIC "-//W3C//DTD SVG 1.1//EN" "http://www.w3.org/Graphics/SVG/1.1/DTD/svg11.dtd">
<svg version="1.1" id="Capa_1" xmlns="http://www.w3.org/2000/svg" xmlns:xlink="http://www.w3.org/1999/xlink" x="0px" y="0px"
	 viewBox="0 0 297 297" style="enable-background:new 0 0 297 297;" xml:space="preserve">
<path d="M115.467,104.139c-6.395,5.541-9.967,13.572-9.8,22.033c0.166,8.46,4.051,16.344,10.659,21.631l56.58,45.264
	c5.139,4.111,12.524,3.7,17.175-0.951l4.409-4.41c5.028-5.027,5.028-13.209,0-18.238l-17.029-17.028
	c-1.421-1.421-2.168-3.382-2.052-5.388c0.116-2.006,1.083-3.868,2.658-5.116c0.147-0.118,16.148-13.123,17.583-30.376
	c0.759-9.119-2.77-18.121-10.488-26.756c-2.593-2.901-2.342-7.356,0.558-9.949c2.901-2.591,7.355-2.343,9.949,0.558
	c10.429,11.671,15.145,24.265,14.014,37.433c-1.347,15.675-10.803,28.085-17.133,34.755l11.904,11.903
	c10.523,10.524,10.522,27.644,0.001,38.166l-4.409,4.409c-9.735,9.736-25.185,10.594-35.941,1.99l-56.58-45.264
	c-6.867-5.494-11.769-12.865-14.205-21.096L4.824,207.768c-5.277,4.178-6.387,11.771-2.525,17.284l3.527,5.039
	c3.982,5.686,11.639,7.146,17.434,3.328l86.423-56.958c1.185-0.781,2.535-1.163,3.875-1.163c1.818,0,3.622,0.702,4.984,2.063
	c2.365,2.365,2.741,6.066,0.9,8.86l-56.958,86.422c-3.819,5.796-2.357,13.453,3.329,17.436l4.524,3.167
	c5.662,3.966,13.307,2.751,17.461-2.754l53.274-78.747c1.107-1.635,2.848-2.732,4.801-3.021c1.956-0.291,3.938,0.253,5.472,1.497
	l18.711,15.175c6.789,3.069,14.776,1.636,20.078-3.667l8.015-8.015c1.888-1.886,4.68-2.546,7.209-1.701l9.785,3.261
	c8.738,2.909,18.204-1.214,22.016-9.6c0.068-0.149,0.141-0.297,0.218-0.44l33.515-61.865c4.047-9.136,2.036-19.98-5.038-27.054
	l-5.382-5.382c-2.751-2.752-2.751-7.212,0-9.964L297,64.442L233.983,1.425L115.467,104.139z"/>
<g>
</g>
<g>
</g>
<g>
</g>
<g>
</g>
<g>
</g>
<g>
</g>
<g>
</g>
<g>
</g>
<g>
</g>
<g>
</g>
<g>
</g>
<g>
</g>
<g>
</g>
<g>
</g>
<g>
</g>
</svg>
