<?xml version="1.0" encoding="iso-8859-1"?>
<!-- Generator: Adobe Illustrator 18.0.0, SVG Export Plug-In . SVG Version: 6.00 Build 0)  -->
<!DOCTYPE svg PUBLIC "-//W3C//DTD SVG 1.1//EN" "http://www.w3.org/Graphics/SVG/1.1/DTD/svg11.dtd">
<svg version="1.1" id="Capa_1" xmlns="http://www.w3.org/2000/svg" xmlns:xlink="http://www.w3.org/1999/xlink" x="0px" y="0px"
	 viewBox="0 0 297 297" style="enable-background:new 0 0 297 297;" xml:space="preserve">
<g>
	<path d="M187.054,171.778c1.066-1.32,2.07-2.679,3.01-4.075l-2.822-2.285c-2.139-1.733-2.469-4.871-0.737-7.009
		c1.734-2.139,4.872-2.469,7.009-0.737l1.452,1.175c0.591-1.333,1.127-2.688,1.615-4.063l-3.656-2.466
		c-2.282-1.539-2.884-4.637-1.345-6.919c1.54-2.282,4.637-2.884,6.919-1.345l0.7,0.472c0.232-1.454,0.401-2.924,0.524-4.404h-2.733
		c-2.753,0-4.984-2.231-4.984-4.984s2.231-4.984,4.984-4.984h2.733c-0.123-1.48-0.292-2.95-0.524-4.404l-0.7,0.472
		c-0.855,0.576-1.823,0.853-2.782,0.853c-1.601,0-3.173-0.771-4.137-2.198c-1.539-2.282-0.936-5.379,1.345-6.919l3.657-2.467
		c-0.488-1.375-1.024-2.73-1.615-4.062l-1.452,1.176c-0.923,0.748-2.031,1.111-3.133,1.111c-1.452,0-2.891-0.631-3.876-1.847
		c-1.733-2.138-1.403-5.277,0.737-7.009l2.822-2.285c-0.94-1.396-1.944-2.755-3.01-4.075c-8.611,9.787-13.85,22.609-13.85,36.639
		C173.205,149.169,178.444,161.991,187.054,171.778z"/>
	<path d="M185.634,76.814c-0.196-0.257-10.139-14.773-31.137-22.183c-3.115-1.1-4.748-4.515-3.649-7.63
		c1.1-3.114,4.513-4.744,7.63-3.649c24.762,8.74,37.451,27.413,37.929,28.061c9.72-4.953,20.706-7.766,32.342-7.766
		c2.665,0,5.293,0.159,7.884,0.444c-8.099-5.509-18.46-11.626-31.155-17.355c-24.285-10.96-61.018-22.115-110.154-22.387
		c-1.757-0.01-2.259,2.384-0.644,3.077c2.812,1.206,5.652,2.509,8.499,3.917c31.877,15.758,53.371,39.065,63.492,68.405
		C171.867,90.671,177.139,82.842,185.634,76.814z"/>
	<path d="M270.444,98.5c-1.067,1.321-2.07,2.68-3.011,4.076l2.822,2.285c2.139,1.733,2.468,4.871,0.737,7.009
		c-0.985,1.217-2.425,1.847-3.876,1.847c-1.102,0-2.21-0.363-3.133-1.111l-1.452-1.176c-0.59,1.333-1.127,2.688-1.615,4.063
		l3.657,2.467c2.283,1.539,2.884,4.636,1.344,6.918c-0.963,1.427-2.535,2.198-4.136,2.198c-0.959,0-1.927-0.276-2.782-0.854
		l-0.7-0.472c-0.232,1.454-0.401,2.924-0.524,4.404h2.733c2.753,0,4.984,2.231,4.984,4.984s-2.231,4.984-4.984,4.984h-2.733
		c0.123,1.481,0.293,2.951,0.524,4.404l0.7-0.472c2.283-1.539,5.38-0.936,6.919,1.345c1.539,2.282,0.936,5.379-1.345,6.919
		l-3.656,2.466c0.488,1.375,1.025,2.73,1.615,4.063l1.452-1.176c2.139-1.734,5.277-1.403,7.009,0.737
		c1.732,2.138,1.403,5.277-0.737,7.009l-2.822,2.285c0.94,1.396,1.944,2.755,3.01,4.075c8.611-9.787,13.85-22.61,13.85-36.639
		S279.055,108.287,270.444,98.5z"/>
	<path d="M263.2,178.662c-1.25-1.511-2.442-3.058-3.549-4.656l-2.617,2.119c-0.923,0.748-2.031,1.111-3.133,1.111
		c-1.452,0-2.891-0.631-3.876-1.847c-1.732-2.138-1.403-5.277,0.737-7.009l3.774-3.056c-0.773-1.572-1.465-3.182-2.112-4.809
		l-1.954,1.318c-0.855,0.576-1.823,0.853-2.782,0.853c-1.601,0-3.174-0.771-4.137-2.198c-1.539-2.282-0.936-5.379,1.345-6.919
		l4.437-2.993c-0.779-3.412-1.299-6.902-1.55-10.453h-3.153c-2.753,0-4.984-2.231-4.984-4.984s2.231-4.984,4.984-4.984h3.153
		c0.252-3.551,0.772-7.042,1.551-10.454l-4.437-2.993c-2.283-1.539-2.884-4.636-1.344-6.918c1.539-2.282,4.636-2.885,6.918-1.344
		l1.954,1.318c0.648-1.627,1.339-3.236,2.113-4.809l-3.774-3.056c-2.139-1.733-2.468-4.871-0.737-7.009
		c1.733-2.14,4.871-2.468,7.009-0.737l2.616,2.119c1.107-1.597,2.299-3.145,3.549-4.656c-9.476-7.517-21.443-12.022-34.45-12.022
		c-13.007,0-24.975,4.506-34.451,12.023c1.25,1.511,2.442,3.059,3.549,4.656l2.617-2.119c2.139-1.734,5.277-1.403,7.009,0.737
		c1.733,2.138,1.403,5.277-0.737,7.009l-3.774,3.056c0.773,1.572,1.465,3.181,2.112,4.808l1.955-1.319
		c2.282-1.539,5.379-0.936,6.919,1.345c1.539,2.282,0.936,5.379-1.345,6.919l-4.438,2.994c0.779,3.412,1.299,6.902,1.55,10.452
		h3.153c2.753,0,4.984,2.231,4.984,4.984s-2.231,4.984-4.984,4.984h-3.153c-0.252,3.551-0.771,7.041-1.55,10.453l4.438,2.993
		c2.282,1.539,2.884,4.637,1.345,6.919c-0.963,1.427-2.536,2.198-4.137,2.198c-0.959,0-1.927-0.276-2.782-0.853l-1.955-1.319
		c-0.648,1.627-1.339,3.236-2.113,4.809l3.775,3.057c2.139,1.733,2.469,4.871,0.737,7.009c-0.985,1.216-2.425,1.847-3.876,1.847
		c-1.102,0-2.21-0.363-3.133-1.111l-2.617-2.12c-1.107,1.597-2.299,3.145-3.549,4.656c9.476,7.517,21.444,12.023,34.451,12.023
		C241.757,190.685,253.724,186.179,263.2,178.662z"/>
	<path d="M157.267,135.512c0-0.002-0.001-0.005-0.001-0.007c-0.617-13.448-3.312-25.759-8.039-36.915l-34.69,34.69
		c-9.605,9.605-20.924,26.975-31.872,43.773c-8.395,12.882-16.324,25.05-22.785,32.677c-5.861,6.918-23.287,23.686-29.835,29.939
		c-7.521-4.959-17.763-4.133-24.376,2.479c-7.558,7.557-7.558,19.854,0,27.411l21.774,21.774c3.779,3.779,8.742,5.668,13.706,5.668
		c4.963,0,9.926-1.889,13.705-5.668c6.613-6.613,7.439-16.856,2.479-24.376c6.253-6.549,23.021-23.974,29.94-29.835
		c7.626-6.461,19.795-14.391,32.678-22.786c16.797-10.946,34.167-22.266,43.771-31.871l6.435-6.435
		C162.106,164.528,157.344,150.567,157.267,135.512z"/>
	<path d="M272.029,74.158l17.166-17.166c10.407-10.407,10.407-27.342,0-37.749L277.758,7.806c-10.406-10.407-27.341-10.408-37.749,0
		L214.485,33.33C251.716,50.641,271.272,73.304,272.029,74.158z"/>
</g>
<g>
</g>
<g>
</g>
<g>
</g>
<g>
</g>
<g>
</g>
<g>
</g>
<g>
</g>
<g>
</g>
<g>
</g>
<g>
</g>
<g>
</g>
<g>
</g>
<g>
</g>
<g>
</g>
<g>
</g>
</svg>
