<?xml version="1.0" encoding="iso-8859-1"?>
<!-- Generator: Adobe Illustrator 18.0.0, SVG Export Plug-In . SVG Version: 6.00 Build 0)  -->
<!DOCTYPE svg PUBLIC "-//W3C//DTD SVG 1.1//EN" "http://www.w3.org/Graphics/SVG/1.1/DTD/svg11.dtd">
<svg version="1.1" id="Capa_1" xmlns="http://www.w3.org/2000/svg" xmlns:xlink="http://www.w3.org/1999/xlink" x="0px" y="0px"
	 viewBox="0 0 297 297" style="enable-background:new 0 0 297 297;" xml:space="preserve">
<g>
	<path d="M114.969,116.051l2.36-1.911c2.703-2.189,6.667-1.772,8.857,0.931c2.188,2.703,1.772,6.668-0.931,8.857l-3.82,3.093
		c0.657,1.361,1.265,2.744,1.84,4.141l1.48-0.998c2.886-1.944,6.798-1.181,8.742,1.699c1.944,2.884,1.184,6.797-1.699,8.742
		l-4.589,3.095c0.779,3.512,1.313,7.096,1.601,10.738h2.897c3.477,0,6.297,2.819,6.297,6.297c0,3.477-2.819,6.297-6.297,6.297
		h-2.897c-0.288,3.641-0.822,7.226-1.601,10.738l4.589,3.095c2.883,1.945,3.643,5.858,1.699,8.742
		c-1.217,1.803-3.204,2.776-5.227,2.776c-1.21,0-2.435-0.349-3.515-1.077l-1.48-0.998c-0.575,1.398-1.183,2.781-1.84,4.142
		l3.819,3.092c2.704,2.188,3.12,6.153,0.932,8.856c-1.244,1.537-3.063,2.335-4.898,2.335c-1.392,0-2.793-0.459-3.958-1.403
		l-2.36-1.911c-1.133,1.602-2.344,3.157-3.606,4.68c10.566,8.192,23.811,13.087,38.186,13.087s27.62-4.894,38.186-13.087
		c-1.261-1.523-2.472-3.079-3.605-4.68l-2.36,1.911c-1.166,0.944-2.567,1.403-3.959,1.403c-1.835,0-3.654-0.797-4.898-2.334
		c-2.188-2.703-1.772-6.668,0.931-8.857l3.819-3.093c-0.657-1.361-1.265-2.744-1.84-4.141l-1.48,0.998
		c-1.08,0.728-2.305,1.077-3.515,1.077c-2.024,0-4.01-0.974-5.227-2.776c-1.944-2.884-1.184-6.797,1.699-8.742l4.589-3.095
		c-0.779-3.512-1.313-7.096-1.601-10.738h-2.897c-3.477,0-6.297-2.819-6.297-6.297c0-3.477,2.819-6.297,6.297-6.297h2.897
		c0.288-3.641,0.822-7.226,1.601-10.738l-4.589-3.095c-2.883-1.945-3.643-5.858-1.699-8.742c1.944-2.881,5.856-3.642,8.742-1.699
		l1.48,0.998c0.575-1.397,1.183-2.78,1.84-4.141l-3.82-3.093c-2.703-2.189-3.119-6.154-0.931-8.857
		c2.188-2.703,6.153-3.12,8.857-0.931l2.36,1.911c1.133-1.601,2.344-3.157,3.605-4.68c-10.566-8.192-23.812-13.087-38.186-13.087
		s-27.62,4.894-38.186,13.087C112.625,112.894,113.835,114.45,114.969,116.051z"/>
	<path d="M102.212,201.4c1.031-1.28,2.015-2.588,2.939-3.932l-2.678-2.168c-2.704-2.188-3.12-6.153-0.932-8.856
		c2.187-2.704,6.153-3.12,8.856-0.932l0.925,0.749c0.446-1.046,0.86-2.104,1.25-3.172l-3.666-2.473
		c-2.883-1.945-3.643-5.858-1.699-8.742c1.916-2.839,5.738-3.614,8.609-1.779c0.145-1.016,0.27-2.036,0.367-3.063h-2.319
		c-3.477,0-6.297-2.819-6.297-6.297c0-3.477,2.819-6.297,6.297-6.297h2.319c-0.097-1.029-0.222-2.05-0.367-3.067
		c-1.048,0.67-2.22,1.001-3.382,1.001c-2.024,0-4.01-0.974-5.227-2.776c-1.944-2.884-1.184-6.797,1.699-8.742l3.666-2.473
		c-0.389-1.068-0.804-2.126-1.249-3.171l-0.925,0.749c-1.166,0.944-2.567,1.403-3.959,1.403c-1.835,0-3.653-0.797-4.898-2.334
		c-2.188-2.703-1.772-6.668,0.931-8.857l2.679-2.169c-0.924-1.343-1.908-2.652-2.939-3.932
		c-9.407,10.935-15.113,25.142-15.113,40.665C87.099,176.258,92.805,190.464,102.212,201.4z"/>
	<path d="M221.815,125.769l67.056-67.055C294.113,53.472,297,46.503,297,39.09s-2.887-14.383-8.129-19.624L277.536,8.129
		C272.293,2.887,265.324,0,257.91,0c-7.413,0-14.382,2.887-19.623,8.129l-73.74,73.74
		C189.793,86.661,210.896,103.294,221.815,125.769z"/>
	<path d="M196.887,120.07c-1.031,1.28-2.015,2.588-2.939,3.932l2.678,2.169c2.703,2.189,3.119,6.154,0.931,8.857
		c-1.244,1.536-3.063,2.334-4.898,2.334c-1.392,0-2.793-0.459-3.959-1.403l-0.924-0.748c-0.445,1.045-0.86,2.103-1.249,3.17
		l3.666,2.473c2.883,1.945,3.643,5.858,1.699,8.742c-1.217,1.803-3.204,2.776-5.227,2.776c-1.162,0-2.334-0.332-3.382-1.001
		c-0.145,1.017-0.27,2.039-0.367,3.067h2.319c3.477,0,6.297,2.819,6.297,6.297c0,3.477-2.819,6.297-6.297,6.297h-2.319
		c0.097,1.027,0.222,2.048,0.367,3.063c2.873-1.835,6.695-1.057,8.609,1.779c1.944,2.884,1.184,6.797-1.699,8.742l-3.666,2.473
		c0.389,1.068,0.804,2.126,1.249,3.171l0.924-0.748c2.704-2.188,6.668-1.772,8.857,0.931c2.188,2.703,1.772,6.668-0.931,8.857
		l-2.678,2.168c0.924,1.343,1.908,2.652,2.939,3.932C206.294,190.464,212,176.258,212,160.735
		C212,145.212,206.294,131.006,196.887,120.07z"/>
	<path d="M266.084,237.237c-6.956-6.651-23.185-22.31-28.752-28.882c-3.902-4.606-8.366-10.926-13.152-18.064
		c-5.975,15.032-16.347,27.853-29.542,36.842c5.344,3.67,10.073,7.113,13.715,10.198c6.573,5.568,22.231,21.797,28.882,28.753
		c-4.627,7.861-3.57,18.168,3.173,24.91c3.873,3.874,9.023,6.007,14.501,6.007c5.478,0,10.628-2.133,14.501-6.007l21.583-21.583
		c3.874-3.873,6.007-9.023,6.007-14.501c0-5.478-2.133-10.628-6.007-14.501C284.251,233.665,273.943,232.608,266.084,237.237z"/>
	<path d="M74.139,188.315c-5.285,7.945-10.212,15.013-14.469,20.039c-5.568,6.573-21.797,22.231-28.753,28.882
		c-7.861-4.627-18.167-3.573-24.91,3.173C2.133,244.282,0,249.432,0,254.909c0,5.478,2.133,10.628,6.007,14.501l21.583,21.583
		c3.873,3.874,9.023,6.007,14.501,6.007s10.628-2.133,14.501-6.007c6.743-6.742,7.8-17.049,3.173-24.91
		c6.651-6.956,22.309-23.185,28.881-28.752c3.885-3.29,9.002-6.986,14.786-10.932C90.159,217.051,79.821,203.802,74.139,188.315z"/>
	<path d="M76.622,127.206c10.465-22.669,31.179-39.664,56.176-44.992L58.714,8.129C53.472,2.887,46.503,0,39.09,0
		c-7.414,0-14.383,2.887-19.624,8.129L8.129,19.465C2.887,24.707,0,31.677,0,39.09s2.887,14.382,8.129,19.623L76.622,127.206z"/>
</g>
<g>
</g>
<g>
</g>
<g>
</g>
<g>
</g>
<g>
</g>
<g>
</g>
<g>
</g>
<g>
</g>
<g>
</g>
<g>
</g>
<g>
</g>
<g>
</g>
<g>
</g>
<g>
</g>
<g>
</g>
</svg>
