<?xml version="1.0" encoding="iso-8859-1"?>
<!-- Generator: Adobe Illustrator 18.0.0, SVG Export Plug-In . SVG Version: 6.00 Build 0)  -->
<!DOCTYPE svg PUBLIC "-//W3C//DTD SVG 1.1//EN" "http://www.w3.org/Graphics/SVG/1.1/DTD/svg11.dtd">
<svg version="1.1" id="Capa_1" xmlns="http://www.w3.org/2000/svg" xmlns:xlink="http://www.w3.org/1999/xlink" x="0px" y="0px"
	 viewBox="0 0 297 297" style="enable-background:new 0 0 297 297;" xml:space="preserve">
<g>
	<path d="M68.595,204.28c2.452-2.815,4.681-5.775,6.71-8.847l-4.556-3.689c-2.665-2.159-3.075-6.069-0.918-8.734
		s6.068-3.075,8.734-0.918l2.862,2.318c1.101-2.401,2.085-4.852,2.95-7.351l-5.674-3.828c-2.843-1.917-3.593-5.777-1.675-8.62
		c1.916-2.843,5.776-3.594,8.62-1.675l2.026,1.367c0.484-2.766,0.83-5.569,1.036-8.405h-4.734c-3.429,0-6.209-2.78-6.209-6.209
		c0-3.429,2.78-6.209,6.209-6.209h4.734c-0.206-2.835-0.552-5.638-1.036-8.405l-2.026,1.367c-1.065,0.718-2.273,1.062-3.467,1.062
		c-1.995,0-3.955-0.96-5.154-2.738c-1.917-2.843-1.167-6.703,1.676-8.621l5.674-3.827c-0.865-2.498-1.849-4.95-2.95-7.351
		l-2.863,2.318c-1.149,0.931-2.531,1.384-3.903,1.384c-1.809,0-3.603-0.786-4.83-2.302c-2.158-2.665-1.747-6.574,0.919-8.733
		l4.555-3.688c-2.029-3.072-4.258-6.032-6.71-8.846c-13.112,14.437-21.114,33.597-21.114,54.59S55.483,189.843,68.595,204.28z"/>
	<path d="M271.529,84.808c-2.381-2.382-5.546-3.693-8.914-3.693s-6.533,1.311-8.914,3.692l-32.596,32.596
		c3.546,10.114,5.482,20.978,5.482,32.287c0,4.321-0.285,8.575-0.831,12.749l52.788-52.787c4.916-4.915,4.916-12.913,0-17.828
		L271.529,84.808z"/>
	<path d="M293.313,150.161l-7.015-7.015c-2.382-2.382-5.547-3.693-8.915-3.693s-6.533,1.311-8.914,3.693c0,0-0.007,0.006-0.01,0.009
		l-53.835,53.835c-0.153,0.153-0.326,0.272-0.488,0.411c-16.764,29.88-48.751,50.121-85.382,50.121
		c-53.945,0-97.831-43.888-97.831-97.832c0-24.189,8.828-46.351,23.426-63.446L52.05,34.767c-0.005-0.123-0.008-0.247-0.008-0.37
		c0-6.951-5.656-12.607-12.607-12.607h-9.922c-7.6,0-12.109,6.672-12.633,13.264c-1.898,23.84-14.501,91.351-15.288,95.556
		c-6.467,40.571,7.009,82.124,36.062,111.176c50.139,50.141,131.725,50.141,181.863,0l73.796-73.796
		C298.229,163.075,298.229,155.076,293.313,150.161z"/>
	<path d="M179.874,212.812c-2.675-3.037-5.137-6.214-7.381-9.515l-4.374,3.542c-1.15,0.931-2.532,1.384-3.904,1.384
		c-1.809,0-3.603-0.786-4.83-2.301c-2.158-2.665-1.747-6.575,0.918-8.734l5.834-4.724c-1.344-2.686-2.555-5.433-3.635-8.234
		l-3.581,2.416c-1.065,0.719-2.273,1.063-3.467,1.063c-1.995,0-3.955-0.96-5.153-2.738c-1.918-2.843-1.168-6.703,1.675-8.62
		l6.698-4.518c-1.218-5.189-2.001-10.514-2.343-15.933h-5.187c-3.429,0-6.209-2.78-6.209-6.209c0-3.429,2.78-6.209,6.209-6.209
		h5.187c0.342-5.419,1.125-10.744,2.342-15.933l-6.698-4.518c-2.843-1.918-3.593-5.778-1.676-8.621
		c1.918-2.842,5.776-3.592,8.621-1.676l3.581,2.415c1.08-2.801,2.292-5.548,3.635-8.234l-5.833-4.723
		c-2.666-2.159-3.076-6.068-0.919-8.733c2.158-2.666,6.069-3.077,8.733-0.919l4.375,3.543c2.244-3.302,4.706-6.479,7.381-9.516
		c-13.974-11.339-31.763-18.151-51.12-18.151c-19.356,0-37.145,6.812-51.119,18.151c2.675,3.037,5.138,6.214,7.381,9.516
		l4.375-3.543c2.663-2.159,6.574-1.747,8.733,0.919c2.158,2.665,1.747,6.574-0.919,8.733l-5.833,4.723
		c1.344,2.686,2.555,5.433,3.635,8.234l3.581-2.415c2.845-1.917,6.703-1.166,8.621,1.676c1.917,2.843,1.167,6.703-1.676,8.621
		l-6.698,4.518c1.217,5.189,2.001,10.514,2.342,15.933h5.187c3.429,0,6.209,2.78,6.209,6.209c0,3.429-2.78,6.209-6.209,6.209h-5.187
		c-0.342,5.419-1.125,10.744-2.343,15.933l6.698,4.518c2.843,1.917,3.593,5.777,1.675,8.62c-1.199,1.778-3.158,2.738-5.153,2.738
		c-1.195,0-2.401-0.345-3.467-1.063l-3.581-2.416c-1.08,2.801-2.292,5.548-3.635,8.234l5.834,4.724
		c2.665,2.159,3.075,6.069,0.918,8.734c-1.227,1.515-3.021,2.301-4.83,2.301c-1.372,0-2.754-0.453-3.904-1.384l-4.374-3.542
		c-2.244,3.302-4.706,6.479-7.381,9.516c13.974,11.339,31.763,18.151,51.119,18.151C148.111,230.964,165.9,224.151,179.874,212.812z
		"/>
	<path d="M188.914,95.1c-2.452,2.815-4.681,5.775-6.71,8.846l4.555,3.688c2.666,2.159,3.076,6.068,0.919,8.733
		c-1.227,1.516-3.021,2.302-4.83,2.302c-1.372,0-2.754-0.453-3.903-1.384l-2.863-2.318c-1.101,2.401-2.085,4.852-2.95,7.351
		l5.674,3.827c2.843,1.918,3.593,5.778,1.676,8.621c-1.2,1.778-3.159,2.738-5.154,2.738c-1.195,0-2.401-0.345-3.467-1.062
		l-2.026-1.367c-0.484,2.766-0.83,5.569-1.036,8.405h4.734c3.429,0,6.209,2.78,6.209,6.209c0,3.429-2.78,6.209-6.209,6.209h-4.734
		c0.206,2.835,0.552,5.638,1.036,8.405l2.026-1.367c2.845-1.919,6.705-1.166,8.62,1.675c1.918,2.843,1.168,6.703-1.675,8.62
		l-5.674,3.828c0.865,2.499,1.849,4.95,2.95,7.351l2.862-2.318c2.665-2.158,6.575-1.747,8.734,0.918
		c2.158,2.665,1.747,6.575-0.918,8.734l-4.556,3.689c2.029,3.072,4.258,6.032,6.71,8.846c13.112-14.437,21.114-33.596,21.114-54.59
		S202.027,109.538,188.914,95.1z"/>
	<path d="M188.823,21.302c-2.382-2.382-5.547-3.693-8.915-3.693c-3.367,0-6.533,1.311-8.914,3.693l-31.184,31.184
		c13.492,1.524,26.163,5.799,37.432,12.256l18.597-18.597c4.916-4.915,4.916-12.914,0-17.829L188.823,21.302z"/>
	<path d="M234.975,48.255c-2.381-2.382-5.546-3.693-8.914-3.693c-3.367,0-6.533,1.311-8.914,3.692L191.072,74.33
		c8.664,7.177,16.07,15.818,21.845,25.537l29.119-26.818c4.867-4.919,4.855-12.879-0.045-17.778L234.975,48.255z"/>
</g>
<g>
</g>
<g>
</g>
<g>
</g>
<g>
</g>
<g>
</g>
<g>
</g>
<g>
</g>
<g>
</g>
<g>
</g>
<g>
</g>
<g>
</g>
<g>
</g>
<g>
</g>
<g>
</g>
<g>
</g>
</svg>
