<?xml version="1.0" encoding="iso-8859-1"?>
<!-- Generator: Adobe Illustrator 18.0.0, SVG Export Plug-In . SVG Version: 6.00 Build 0)  -->
<!DOCTYPE svg PUBLIC "-//W3C//DTD SVG 1.1//EN" "http://www.w3.org/Graphics/SVG/1.1/DTD/svg11.dtd">
<svg version="1.1" id="Capa_1" xmlns="http://www.w3.org/2000/svg" xmlns:xlink="http://www.w3.org/1999/xlink" x="0px" y="0px"
	 viewBox="0 0 297 297" style="enable-background:new 0 0 297 297;" xml:space="preserve">
<g>
	<path d="M253.608,157.063l4.068,3.294c3.068,2.485,3.542,6.987,1.057,10.055c-1.413,1.744-3.478,2.65-5.56,2.65
		c-1.581,0-3.172-0.521-4.495-1.593l-2.085-1.688c-1.106,2.455-2.103,4.958-2.983,7.505l5.246,3.538
		c3.273,2.208,4.137,6.651,1.93,9.925c-1.381,2.048-3.637,3.153-5.934,3.153c-1.375,0-2.765-0.396-3.99-1.223l-0.975-0.658
		c-0.432,2.616-0.757,5.262-0.962,7.935h3.941c3.949,0,7.149,3.201,7.149,7.149s-3.201,7.149-7.149,7.149h-3.941
		c0.205,2.673,0.53,5.318,0.962,7.935l0.975-0.658c3.274-2.209,7.717-1.343,9.925,1.93c2.207,3.273,1.343,7.717-1.93,9.925
		l-5.246,3.538c0.88,2.548,1.878,5.05,2.983,7.505l2.085-1.688c3.067-2.481,7.569-2.012,10.055,1.057
		c2.484,3.069,2.011,7.57-1.057,10.055l-4.068,3.294c2.154,3.249,4.532,6.374,7.122,9.36c13.986-15.852,22.486-36.652,22.486-59.403
		s-8.5-43.551-22.486-59.403C258.141,150.689,255.763,153.814,253.608,157.063z"/>
	<path d="M137.789,136.464c2.889,3.284,5.556,6.715,7.995,10.276l3.809-3.084c3.068-2.481,7.57-2.011,10.055,1.057
		c2.484,3.068,2.012,7.57-1.057,10.055l-5.467,4.427c1.419,2.835,2.707,5.731,3.863,8.681l2.803-1.891
		c3.273-2.212,7.718-1.344,9.924,1.929c2.208,3.273,1.344,7.717-1.929,9.925l-6.346,4.281c1.374,5.809,2.264,11.77,2.657,17.837
		h4.455c3.949,0,7.149,3.201,7.149,7.149s-3.201,7.149-7.149,7.149h-4.455c-0.393,6.067-1.283,12.028-2.657,17.837l6.346,4.281
		c3.273,2.208,4.137,6.651,1.929,9.925c-1.38,2.048-3.636,3.153-5.933,3.153c-1.375,0-2.765-0.396-3.99-1.224l-2.803-1.891
		c-1.157,2.95-2.445,5.846-3.863,8.681l5.467,4.427c3.069,2.485,3.542,6.988,1.057,10.055c-1.413,1.744-3.478,2.65-5.56,2.65
		c-1.581,0-3.172-0.522-4.495-1.593l-3.809-3.084c-2.439,3.561-5.106,6.991-7.995,10.275C153.087,289.801,172.379,297,193.321,297
		c20.943,0,40.235-7.199,55.534-19.252c-2.889-3.284-5.556-6.715-7.995-10.276l-3.809,3.084c-1.324,1.071-2.914,1.593-4.495,1.593
		c-2.083,0-4.147-0.906-5.56-2.65c-2.484-3.069-2.011-7.57,1.057-10.055l5.468-4.427c-1.418-2.835-2.707-5.731-3.863-8.68
		l-2.804,1.891c-1.226,0.827-2.616,1.223-3.99,1.223c-2.297,0-4.553-1.105-5.934-3.153c-2.207-3.273-1.343-7.717,1.93-9.925
		l6.347-4.281c-1.374-5.809-2.264-11.769-2.657-17.837h-4.455c-3.949,0-7.149-3.201-7.149-7.149s3.201-7.149,7.149-7.149h4.455
		c0.393-6.067,1.283-12.028,2.657-17.837l-6.347-4.281c-3.273-2.208-4.137-6.651-1.93-9.925c2.208-3.273,6.652-4.137,9.925-1.93
		l2.804,1.891c1.156-2.95,2.445-5.845,3.863-8.68l-5.468-4.427c-3.068-2.485-3.542-6.987-1.057-10.055
		c2.486-3.068,6.99-3.542,10.055-1.057l3.809,3.084c2.439-3.561,5.106-6.992,7.995-10.276
		c-15.299-12.053-34.591-19.252-55.534-19.252C172.379,117.213,153.087,124.412,137.789,136.464z"/>
	<path d="M125.913,266.509c2.59-2.985,4.967-6.11,7.122-9.36l-4.068-3.294c-3.069-2.485-3.542-6.988-1.057-10.055
		c2.486-3.069,6.989-3.539,10.055-1.057l2.085,1.688c1.106-2.455,2.103-4.958,2.983-7.506l-5.246-3.538
		c-3.273-2.208-4.137-6.651-1.929-9.925c2.207-3.274,6.651-4.139,9.924-1.929l0.975,0.658c0.432-2.617,0.757-5.263,0.962-7.935
		h-3.941c-3.949,0-7.149-3.201-7.149-7.149s3.201-7.149,7.149-7.149h3.941c-0.205-2.673-0.53-5.319-0.962-7.935l-0.975,0.658
		c-1.226,0.828-2.616,1.224-3.99,1.224c-2.297,0-4.553-1.105-5.933-3.153c-2.208-3.273-1.344-7.717,1.929-9.925l5.246-3.538
		c-0.88-2.548-1.878-5.05-2.983-7.506l-2.085,1.688c-1.324,1.071-2.914,1.593-4.495,1.593c-2.083,0-4.147-0.906-5.56-2.65
		c-2.484-3.068-2.012-7.57,1.057-10.055l4.068-3.294c-2.154-3.249-4.532-6.374-7.122-9.36
		c-13.985,15.851-22.486,36.652-22.486,59.402S111.928,250.657,125.913,266.509z"/>
	<path d="M285.334,150.095c0.066-1.151,1.835-30.505-10.377-59.92c-11.443-27.559-37.291-61.992-95.449-69.526
		c-2.329-0.305-4.678,0.414-6.443,1.966c-1.765,1.551-2.777,3.787-2.777,6.137v13.927c-4.357-4.511-9.795-9.296-16.525-13.961
		C121.693,6.488,76.488-2.908,19.394,0.781c-4.169,0.269-7.463,3.641-7.636,7.816c-0.056,1.36-1.328,33.747,2.977,70.132
		c4.33,36.594,12.663,63.563,24.857,80.572H19.922c-2.415,0-4.705,1.068-6.257,2.917c-1.553,1.849-2.207,4.29-1.789,6.667
		c0.22,1.254,5.592,31.053,22.551,61.08c22.022,38.991,53.437,60.158,91.12,61.515c-24.679-19.863-40.502-50.303-40.502-84.375
		c0-59.704,48.573-108.277,108.277-108.277C232.12,98.829,266.212,119.346,285.334,150.095z"/>
</g>
<g>
</g>
<g>
</g>
<g>
</g>
<g>
</g>
<g>
</g>
<g>
</g>
<g>
</g>
<g>
</g>
<g>
</g>
<g>
</g>
<g>
</g>
<g>
</g>
<g>
</g>
<g>
</g>
<g>
</g>
</svg>
