<?xml version="1.0" encoding="iso-8859-1"?>
<!-- Generator: Adobe Illustrator 18.0.0, SVG Export Plug-In . SVG Version: 6.00 Build 0)  -->
<!DOCTYPE svg PUBLIC "-//W3C//DTD SVG 1.1//EN" "http://www.w3.org/Graphics/SVG/1.1/DTD/svg11.dtd">
<svg version="1.1" id="Capa_1" xmlns="http://www.w3.org/2000/svg" xmlns:xlink="http://www.w3.org/1999/xlink" x="0px" y="0px"
	 viewBox="0 0 297 297" style="enable-background:new 0 0 297 297;" xml:space="preserve">
<path d="M117.23,98.088c-6.03,5.226-9.398,12.798-9.241,20.775c0.157,7.977,3.821,15.411,10.051,20.395l54.171,43.336
	c4.753,3.802,11.586,3.424,15.894-0.881l4.22-4.221c4.654-4.653,4.654-12.224,0-16.877l-16.305-16.305
	c-1.443-1.444-2.202-3.436-2.084-5.474c0.118-2.038,1.1-3.93,2.7-5.198c0.138-0.111,15.324-12.461,16.68-28.797
	c0.715-8.611-2.629-17.124-9.939-25.303c-2.634-2.948-2.38-7.474,0.567-10.108c2.949-2.634,7.473-2.381,10.108,0.567
	c10.064,11.263,14.614,23.425,13.52,36.15c-1.279,14.896-10.142,26.73-16.24,33.229l11.116,11.115
	c10.234,10.235,10.234,26.888,0,37.124l-4.221,4.222c-9.472,9.47-24.501,10.302-34.961,1.935l-54.171-43.336
	c-6.48-5.183-11.15-12.095-13.561-19.822l-84.251,66.701c-4.88,3.865-5.907,10.888-2.336,15.988l3.377,4.824
	c3.683,5.26,10.766,6.609,16.128,3.078l82.742-54.532c2.836-1.869,6.597-1.488,9.001,0.915c2.403,2.403,2.785,6.164,0.915,9.001
	l-54.532,82.743c-3.533,5.361-2.181,12.445,3.079,16.127l4.331,3.033c5.235,3.668,12.301,2.547,16.146-2.54l50.999-75.384
	c1.364-2.017,3.612-3.149,5.932-3.149c0.91,0,1.83,0.174,2.715,0.537c3.137,1.287,4.939,4.599,4.319,7.932l-14.098,75.708
	c-0.007,0.035-0.013,0.069-0.02,0.104c-1.268,6.293,2.639,12.354,8.896,13.799l5.152,1.189c6.267,1.446,12.443-2.299,14.051-8.53
	c0.031-0.119,0.065-0.237,0.102-0.355l25.88-82.494c0.574-1.832,1.861-3.356,3.571-4.231c1.709-0.874,3.699-1.025,5.522-0.416
	l9.369,3.123c8.164,2.724,17.009-1.133,20.571-8.971c0.069-0.151,0.143-0.301,0.222-0.446l32.08-59.218
	c3.798-8.587,1.905-18.778-4.744-25.427l-5.153-5.153c-2.795-2.796-2.795-7.328,0-10.123l34.678-34.679L230.408,0L117.23,98.088z"/>
<g>
</g>
<g>
</g>
<g>
</g>
<g>
</g>
<g>
</g>
<g>
</g>
<g>
</g>
<g>
</g>
<g>
</g>
<g>
</g>
<g>
</g>
<g>
</g>
<g>
</g>
<g>
</g>
<g>
</g>
</svg>
