<?xml version="1.0" encoding="iso-8859-1"?>
<!-- Generator: Adobe Illustrator 18.0.0, SVG Export Plug-In . SVG Version: 6.00 Build 0)  -->
<!DOCTYPE svg PUBLIC "-//W3C//DTD SVG 1.1//EN" "http://www.w3.org/Graphics/SVG/1.1/DTD/svg11.dtd">
<svg version="1.1" id="Capa_1" xmlns="http://www.w3.org/2000/svg" xmlns:xlink="http://www.w3.org/1999/xlink" x="0px" y="0px"
	 viewBox="0 0 297 297" style="enable-background:new 0 0 297 297;" xml:space="preserve">
<g>
	<path d="M156.42,88.816c-4.778,2.751-9.951,5.59-15.376,8.359c7.399,7.165,36.73,38.647,38.917,89.256h21.829
		C198.122,130.571,165.723,97.28,156.42,88.816z"/>
	<path d="M126.517,104.092c-3.229,1.443-6.377,2.842-9.439,4.191l5.659,17.418c1.365,4.201-0.935,8.715-5.137,10.08
		c-0.821,0.267-1.654,0.394-2.474,0.394c-3.372,0-6.508-2.149-7.606-5.53l-5.182-15.949c-5.854,2.509-11.331,4.807-16.431,6.894
		l5.056,15.558c1.365,4.202-0.934,8.716-5.136,10.081c-0.821,0.267-1.655,0.394-2.475,0.394c-3.372,0-6.508-2.148-7.606-5.529
		L71.004,127.5c-9.405,3.588-29.522,9.467-32.785,10.289C11.032,144.625,0,148.223,0,168.864c0,9.687,7.88,17.566,17.566,17.566
		h146.362C161.453,137.17,126.856,104.393,126.517,104.092z"/>
	<path d="M265.873,103.253c-25.433,5.388-54.094-4.553-85.267-29.556c-2.53,1.716-5.917,3.961-9.962,6.523
		c13.83,13.568,43.815,49.265,47.175,106.211h55.059c13.301,0,24.121-10.82,24.121-24.121V86.832
		C289.591,93.7,279.323,100.403,265.873,103.253z"/>
	<path d="M256.415,215.803c0,4.136,3.364,7.5,7.5,7.5h6.221c4.136,0,7.5-3.364,7.5-7.5v-13.721h-21.221V215.803z"/>
	<path d="M139.616,215.803c0,4.136,3.364,7.5,7.5,7.5h6.22c4.136,0,7.5-3.364,7.5-7.5v-13.721h-21.22V215.803z"/>
	<path d="M82.654,215.803c0,4.136,3.364,7.5,7.5,7.5h6.221c4.136,0,7.5-3.364,7.5-7.5v-13.721H82.654V215.803z"/>
	<path d="M25.693,215.803c0,4.136,3.364,7.5,7.5,7.5h6.221c4.136,0,7.5-3.364,7.5-7.5v-13.721H25.693V215.803z"/>
</g>
<g>
</g>
<g>
</g>
<g>
</g>
<g>
</g>
<g>
</g>
<g>
</g>
<g>
</g>
<g>
</g>
<g>
</g>
<g>
</g>
<g>
</g>
<g>
</g>
<g>
</g>
<g>
</g>
<g>
</g>
</svg>
