<?xml version="1.0" encoding="iso-8859-1"?>
<!-- Generator: Adobe Illustrator 19.0.0, SVG Export Plug-In . SVG Version: 6.00 Build 0)  -->
<svg version="1.1" id="Capa_1" xmlns="http://www.w3.org/2000/svg" xmlns:xlink="http://www.w3.org/1999/xlink" x="0px" y="0px"
	 viewBox="0 0 511.999 511.999" style="enable-background:new 0 0 511.999 511.999;" xml:space="preserve">
<g>
	<g>
		<path d="M511.546,493.356l-16.187-64.745c-9.847-39.386-42.461-70.53-82.271-78.492c-7.357-1.471-70.444-14.089-82.09-16.418
			v-35.943c18.891-20.425,29.999-47.709,29.999-76.849v-12.488c4.695,1.665,9.742,2.58,15,2.58
			c24.812,0,44.999-20.187,44.999-44.999v-29.999c0-24.812-20.187-44.999-44.999-44.999c-5.258,0-10.305,0.915-15,2.58v-17.58
			c0-41.462-33.534-75.998-74.998-75.998h-59.998c-41.462,0-74.998,34.534-74.998,75.998v17.58c-4.695-1.665-9.742-2.58-15-2.58
			c-24.812,0-44.999,20.186-44.999,44.999c0,11.31,0,80.754,0,89.998c0,24.812,20.186,44.999,44.999,44.999h25.049
			c4.942,10.407,11.641,20.012,19.95,28.475v34.226c-18.35,3.67-64.372,12.874-82.09,16.418
			c-39.81,7.962-72.424,39.106-82.271,78.492L0.455,493.356c-2.367,9.469,4.811,18.638,14.552,18.638h481.988
			C506.755,511.993,513.907,502.805,511.546,493.356z M360.997,136.003c0-8.271,6.729-15,15-15c8.271,0,15,6.729,15,15v29.999
			c0,8.271-6.729,15-15,15c-8.271,0-15-6.729-15-15V136.003z M121.003,136.003c0-8.271,6.729-15,15-15c8.271,0,15,6.729,15,15
			v29.999c0,8.271-6.729,15-15,15c-8.271,0-15-6.729-15-15V136.003z M136.003,241c-8.271,0-15-6.729-15-15v-17.58
			c4.695,1.665,9.742,2.58,15,2.58s10.305-0.915,15-2.58V226c0,5.071,0.361,10.079,1.057,15H136.003z M330.998,364.294v51.891
			l-47.442-15.814c7.566-7.693,32.717-33.263,37.45-38.075L330.998,364.294z M255.999,385.607l-44.998-45.75v-18.92
			c15.967,7.594,33.271,10.819,50.623,9.913c13.835-0.725,27.16-4.301,39.374-10.42v19.427L255.999,385.607z M226.001,30.005h59.998
			c24.392,0,44.999,21.064,44.999,45.999v15H181.002v-15h0C181.002,51.07,201.608,30.005,226.001,30.005z M319.485,121.003
			c-15.368,18.837-38.412,29.999-63.485,29.999s-48.118-11.163-63.485-29.999H319.485z M181.002,152.201
			c20.401,18.368,46.996,28.8,74.998,28.8c27.082,0,53.913-9.817,74.998-28.8c0,6.821,0,61.561,0,68.706
			c0,42.055-31.824,77.936-70.942,79.984c-20.839,1.091-40.606-6.183-55.672-20.48c-3.091-2.934-5.881-6.088-8.389-9.412h60.005
			c8.284,0,15-6.716,15-15c-0.001-8.284-6.717-15-15.001-15h-73.51c-0.98-4.877-1.488-9.894-1.488-15
			C181.002,218.587,181.002,161.445,181.002,152.201z M181.001,364.294L181.001,364.294l9.992-1.998l37.45,38.075l-47.442,15.814
			V364.294z M34.218,481.994l11.527-46.107c7.011-28.043,30.741-50.69,59.051-56.353l46.208-9.241v66.701
			c0,10.279,10.092,17.446,19.742,14.23L256,422.807l85.254,28.418c9.696,3.234,19.742-3.995,19.742-14.23v-66.701l46.207,9.241
			c28.309,5.663,52.04,28.308,59.051,56.353l11.527,46.107H34.218z"/>
	</g>
</g>
<g>
</g>
<g>
</g>
<g>
</g>
<g>
</g>
<g>
</g>
<g>
</g>
<g>
</g>
<g>
</g>
<g>
</g>
<g>
</g>
<g>
</g>
<g>
</g>
<g>
</g>
<g>
</g>
<g>
</g>
</svg>
