<?xml version="1.0" encoding="iso-8859-1"?>
<!-- Generator: Adobe Illustrator 19.0.0, SVG Export Plug-In . SVG Version: 6.00 Build 0)  -->
<svg version="1.1" id="Capa_1" xmlns="http://www.w3.org/2000/svg" xmlns:xlink="http://www.w3.org/1999/xlink" x="0px" y="0px"
	 viewBox="0 0 219 219" style="enable-background:new 0 0 219 219;" xml:space="preserve">
<path d="M176,109.719V74.5c0-21.31-6.423-39.839-18.892-53.582C144.872,7.429,128.106,0,109.75,0S74.42,7.429,62.183,20.918
	C49.715,34.661,43,53.19,43,74.5v35.219c-7,2.168-13,9.077-13,17.281v74c0,9.941,8.392,18,18.333,18h123
	c9.941,0,17.667-8.059,17.667-18v-74C189,118.796,184,111.887,176,109.719z M109.083,177.333c-7.364,0-13.333-5.97-13.333-13.333
	c0-7.364,5.969-13.333,13.333-13.333s13.333,5.97,13.333,13.333C122.417,171.364,116.447,177.333,109.083,177.333z M151,109H68V74.5
	C68,45.355,85.065,25,109.5,25S151,45.355,151,74.5V109z"/>
<g>
</g>
<g>
</g>
<g>
</g>
<g>
</g>
<g>
</g>
<g>
</g>
<g>
</g>
<g>
</g>
<g>
</g>
<g>
</g>
<g>
</g>
<g>
</g>
<g>
</g>
<g>
</g>
<g>
</g>
</svg>
