<?xml version="1.0" encoding="iso-8859-1"?>
<!-- Generator: Adobe Illustrator 18.0.0, SVG Export Plug-In . SVG Version: 6.00 Build 0)  -->
<!DOCTYPE svg PUBLIC "-//W3C//DTD SVG 1.1//EN" "http://www.w3.org/Graphics/SVG/1.1/DTD/svg11.dtd">
<svg version="1.1" id="Capa_1" xmlns="http://www.w3.org/2000/svg" xmlns:xlink="http://www.w3.org/1999/xlink" x="0px" y="0px"
	 viewBox="0 0 297 297" style="enable-background:new 0 0 297 297;" xml:space="preserve">
<g>
	<path d="M90.766,52.798h115.467c6.558,0,11.894-5.336,11.894-11.894V24.028c0-6.558-5.336-11.894-11.894-11.894H90.766
		c-6.558,0-11.894,5.336-11.894,11.894v16.876C78.873,47.463,84.208,52.798,90.766,52.798z M167.568,24.377h19.068
		c4.468,0,8.089,3.622,8.089,8.09c0,4.468-3.622,8.09-8.089,8.09h-19.068c-4.468,0-8.089-3.622-8.089-8.09
		C159.479,27.998,163.1,24.377,167.568,24.377z M110.364,24.377h19.068c4.468,0,8.089,3.622,8.089,8.09
		c0,4.468-3.621,8.09-8.089,8.09h-19.068c-4.468,0-8.09-3.622-8.09-8.09C102.274,27.998,105.896,24.377,110.364,24.377z"/>
	<path d="M0,83.183v189.789c0,6.558,5.336,11.894,11.894,11.894h125.05V71.289H11.894C5.336,71.289,0,76.624,0,83.183z
		 M91.096,95.756c1.502-1.502,3.582-2.369,5.719-2.369c2.127,0,4.218,0.867,5.721,2.369c1.502,1.515,2.369,3.594,2.369,5.721
		c0,2.139-0.867,4.219-2.369,5.721c-1.513,1.502-3.593,2.369-5.721,2.369c-2.137,0-4.217-0.867-5.719-2.369
		c-1.503-1.502-2.37-3.582-2.37-5.721C88.726,99.35,89.593,97.259,91.096,95.756z M61.511,95.756
		c1.514-1.502,3.594-2.369,5.721-2.369c2.138,0,4.219,0.867,5.721,2.369c1.513,1.515,2.369,3.594,2.369,5.721
		c0,2.139-0.855,4.219-2.369,5.721c-1.502,1.502-3.583,2.369-5.721,2.369c-2.126,0-4.206-0.867-5.721-2.369
		c-1.502-1.502-2.369-3.582-2.369-5.721C59.142,99.35,60.009,97.27,61.511,95.756z M89.346,129.36
		c6.382,0,11.556,5.174,11.556,11.556v59.154c0,6.382-5.174,11.556-11.556,11.556h-27.88v36.042h27.88
		c6.382,0,11.556,5.174,11.556,11.557c0,6.382-5.174,11.556-11.556,11.556H49.909c-6.382,0-11.556-5.174-11.556-11.556V200.07
		c0-6.382,5.174-11.556,11.556-11.556h27.88v-36.042h-27.88c-6.382,0-11.556-5.174-11.556-11.556
		c0-6.382,5.174-11.556,11.556-11.556H89.346z M31.938,95.756c1.502-1.502,3.594-2.369,5.721-2.369c2.126,0,4.217,0.867,5.721,2.369
		c1.502,1.515,2.369,3.594,2.369,5.721c0,2.126-0.867,4.219-2.369,5.721c-1.503,1.502-3.595,2.369-5.721,2.369
		c-2.126,0-4.218-0.867-5.721-2.369c-1.502-1.502-2.369-3.582-2.369-5.721C29.569,99.35,30.436,97.27,31.938,95.756z"/>
	<path d="M285.106,71.289h-125.05v213.577h125.05c6.558,0,11.894-5.336,11.894-11.894V83.183
		C297,76.624,291.664,71.289,285.106,71.289z M219.267,95.756c1.503-1.502,3.583-2.369,5.721-2.369c2.126,0,4.207,0.867,5.709,2.369
		c1.513,1.515,2.38,3.594,2.38,5.721c0,2.139-0.867,4.219-2.38,5.721c-1.502,1.502-3.583,2.369-5.709,2.369
		c-2.137,0-4.217-0.867-5.721-2.369c-1.513-1.502-2.369-3.582-2.369-5.721C216.898,99.35,217.754,97.259,219.267,95.756z
		 M189.683,107.197c-1.502-1.502-2.369-3.582-2.369-5.721c0-2.126,0.867-4.217,2.369-5.721c1.502-1.502,3.594-2.369,5.721-2.369
		c2.137,0,4.217,0.867,5.721,2.369c1.502,1.503,2.369,3.594,2.369,5.721c0,2.139-0.867,4.219-2.369,5.721
		c-1.503,1.502-3.594,2.369-5.721,2.369S191.185,108.699,189.683,107.197z M258.647,259.225c0,6.382-5.174,11.556-11.556,11.556
		s-11.556-5.174-11.556-11.556V152.473h-27.88c-6.382,0-11.556-5.174-11.556-11.556c0-6.382,5.174-11.556,11.556-11.556h39.436
		c6.382,0,11.556,5.174,11.556,11.556V259.225z M260.281,107.197c-1.502,1.502-3.593,2.369-5.721,2.369
		c-2.126,0-4.217-0.867-5.719-2.369c-1.503-1.502-2.37-3.582-2.37-5.721c0-2.126,0.867-4.206,2.37-5.721
		c1.502-1.502,3.593-2.369,5.719-2.369c2.127,0,4.219,0.867,5.721,2.369c1.502,1.503,2.369,3.594,2.369,5.721
		C262.65,103.615,261.783,105.695,260.281,107.197z"/>
</g>
<g>
</g>
<g>
</g>
<g>
</g>
<g>
</g>
<g>
</g>
<g>
</g>
<g>
</g>
<g>
</g>
<g>
</g>
<g>
</g>
<g>
</g>
<g>
</g>
<g>
</g>
<g>
</g>
<g>
</g>
</svg>
