<?xml version="1.0" encoding="iso-8859-1"?>
<!-- Generator: Adobe Illustrator 19.0.0, SVG Export Plug-In . SVG Version: 6.00 Build 0)  -->
<svg version="1.1" id="Capa_1" xmlns="http://www.w3.org/2000/svg" xmlns:xlink="http://www.w3.org/1999/xlink" x="0px" y="0px"
	 viewBox="0 0 54.303 54.303" style="enable-background:new 0 0 54.303 54.303;" xml:space="preserve">
<g>
	<g>
		<path d="M46.159,16.728l2.095-2.095l-5.028-5.028L41.13,11.7c-3.342-2.462-7.355-4.063-11.716-4.478V4.525h4.525V0H20.364v4.525
			h4.525v2.696C12.918,8.361,3.556,18.438,3.556,30.707c0,13.032,10.563,23.596,23.596,23.596c13.032,0,23.596-10.564,23.596-23.596
			C50.747,25.474,49.041,20.641,46.159,16.728z M27.151,49.778c-10.516,0-19.071-8.555-19.071-19.071
			c0-10.516,8.555-19.071,19.071-19.071c10.516,0,19.071,8.555,19.071,19.071C46.221,41.223,37.668,49.778,27.151,49.778z"/>
	</g>
</g>
<g>
	<g>
		<rect x="15.421" y="19.624" transform="matrix(0.707 -0.7072 0.7072 0.707 -10.0291 18.2719)" width="3.232" height="3.232"/>
	</g>
</g>
<g>
	<g>
		<rect x="11.365" y="29.415" width="3.232" height="3.232"/>
	</g>
</g>
<g>
	<g>
		<rect x="15.421" y="39.205" transform="matrix(0.7069 -0.7073 0.7073 0.7069 -23.8798 24.015)" width="3.232" height="3.232"/>
	</g>
</g>
<g>
	<g>
		<rect x="25.21" y="43.26" width="3.232" height="3.232"/>
	</g>
</g>
<g>
	<g>
		<rect x="35.003" y="39.21" transform="matrix(0.7071 -0.7071 0.7071 0.7071 -18.1428 37.8503)" width="3.232" height="3.232"/>
	</g>
</g>
<g>
	<g>
		<circle cx="27.15" cy="30.707" r="3.556"/>
	</g>
</g>
<g>
	<g>
		<path d="M27.151,14.869c-0.326,0-0.649,0.013-0.97,0.033v9.095c0.317-0.046,0.639-0.078,0.97-0.078
			c3.743,0,6.788,3.045,6.788,6.788c0,0.109-0.012,0.215-0.016,0.323h9.059c0.002-0.108,0.008-0.215,0.008-0.323
			C42.99,21.973,35.885,14.869,27.151,14.869z"/>
	</g>
</g>
<g>
</g>
<g>
</g>
<g>
</g>
<g>
</g>
<g>
</g>
<g>
</g>
<g>
</g>
<g>
</g>
<g>
</g>
<g>
</g>
<g>
</g>
<g>
</g>
<g>
</g>
<g>
</g>
<g>
</g>
</svg>
