<?xml version="1.0" encoding="UTF-8"?>
<svg width="70px" height="80px" viewBox="0 0 70 80" version="1.1" xmlns="http://www.w3.org/2000/svg" xmlns:xlink="http://www.w3.org/1999/xlink">
    <!-- Generator: Sketch 41 (35326) - http://www.bohemiancoding.com/sketch -->
    <title>Artboard</title>
    <desc>Created with Sketch.</desc>
    <defs></defs>
    <g id="Page-1" stroke="none" stroke-width="1" fill="none" fill-rule="evenodd">
        <g id="Artboard">
            <path d="M68.3008233,61.2488359 L36.7957623,79.437283 C35.7457285,80.044239 34.4508891,80.044239 33.3998437,79.437283 L1.8957943,61.2488359 C0.844748888,60.6408684 0.197329192,59.5210346 0.197329192,58.3081343 L0.197329192,21.9292169 C0.197329192,20.7163166 0.844748888,19.5944596 1.8957943,18.9885152 L33.3998437,0.799056547 C34.4508891,0.192100581 35.7457285,0.192100581 36.7957623,0.799056547 L68.3008233,18.9885152 C69.3518687,19.5944596 70.0003,20.7163166 70.0003,21.9292169 L70.0003,58.3081343 C70.0003,59.5210346 69.3518687,60.6408684 68.3008233,61.2488359" id="Outer" fill="#FFE52F"></path>
            <path d="M60.2861721,56.111763 L36.441907,69.8775243 C35.6467947,70.3377992 34.6655492,70.3377992 33.8714485,69.8775243 L10.0251602,56.111763 C9.23004787,55.6524996 8.74043672,54.8037728 8.74043672,53.8852462 L8.74043672,26.3517004 C8.74043672,25.4321621 9.23004787,24.5834353 10.0251602,24.124172 L33.8714485,10.3584107 C34.6655492,9.89813574 35.6467947,9.89813574 36.441907,10.3584107 L60.2861721,24.124172 C61.0812844,24.5834353 61.5719071,25.4321621 61.5719071,26.3517004 L61.5719071,53.8852462 C61.5719071,54.8037728 61.0812844,55.6524996 60.2861721,56.111763" id="Inner" fill="#FABD31"></path>
            <path d="M45.1492973,30.3147182 C44.6293383,30.6202194 43.9647215,30.5069209 43.5742465,30.046646 L36.1046418,21.2589352 C35.8396044,20.9493876 35.4693612,20.7946139 35.0991181,20.7946139 C34.7278633,20.7946139 34.3566086,20.9493876 34.0935944,21.2589352 L26.6239896,30.046646 C26.232503,30.5069209 25.5678862,30.6202194 25.0479273,30.3147182 L15.7534083,24.8763927 C15.0564205,24.4677091 14.2036474,25.074665 14.3594327,25.8677542 L19.8766625,53.3618478 C20.9317542,58.2488549 27.2977107,62.0413181 35.0991181,62.2234049 C42.8995138,62.0413181 49.2654703,58.2488549 50.3175273,53.3557782 L55.8377918,25.8677542 C55.9945888,25.074665 55.1408041,24.4677091 54.4438163,24.8763927 L45.1492973,30.3147182 Z" id="Crown" fill="#F68C38"></path>
            <path d="M33.350068,52.2374639 L33.350068,33.2597039 L30.929716,33.2597039 L26.089012,35.2124879 L26.41906,37.0002479 L31.067236,35.5425359 C30.95722,36.0926159 30.929716,36.6426959 30.929716,37.1927759 L30.929716,52.2374639 L33.350068,52.2374639 Z" id="1" fill="#FFFFFF"></path>
            <path d="M39.7504,43.28146 C38.22622,43.25854 37.573,43.52212 37.573,44.8171 C37.573,45.7339 37.92826,46.15792 38.8336,46.37566 L40.438,46.74238 C40.97662,46.86844 41.32042,46.97158 41.32042,47.52166 C41.32042,48.18634 40.93078,48.30094 39.68164,48.30094 C38.95966,48.3124 38.30644,48.28948 37.75636,48.2551 L37.6876,48.96562 C38.63878,49.1146 39.47536,49.12606 39.87646,49.12606 C41.49232,49.12606 42.26014,48.89686 42.26014,47.52166 C42.26014,46.57048 41.84758,46.20376 40.96516,45.98602 L39.33784,45.6193 C38.79922,45.49324 38.52418,45.40156 38.52418,44.8171 C38.52418,44.11804 38.86798,44.09512 39.89938,44.10658 C40.59844,44.10658 41.32042,44.14096 42.01948,44.16388 L42.0997,43.45336 C41.4121,43.35022 40.48384,43.29292 39.7504,43.28146 Z M45.11368,44.1868 L46.88998,44.1868 L46.88998,43.41898 L45.11368,43.41898 L45.11368,41.76874 L44.13958,41.76874 L44.13958,43.41898 L43.1311,43.47628 L43.1311,44.1868 L44.13958,44.1868 L44.13958,47.59042 C44.13958,48.56452 44.63236,49.10314 45.57208,49.10314 C45.84712,49.10314 46.46596,49.0573 46.83268,48.95416 L46.71808,48.20926 L45.87004,48.20926 C45.31996,48.20926 45.11368,48.00298 45.11368,47.46436 L45.11368,44.1868 Z" id="st" fill="#FFFFFF"></path>
        </g>
    </g>
</svg>