<?xml version="1.0" encoding="UTF-8"?>
<svg width="70px" height="80px" viewBox="0 0 70 80" version="1.1" xmlns="http://www.w3.org/2000/svg" xmlns:xlink="http://www.w3.org/1999/xlink">
    <!-- Generator: Sketch 41 (35326) - http://www.bohemiancoding.com/sketch -->
    <title>2nd-Outline</title>
    <desc>Created with Sketch.</desc>
    <defs></defs>
    <g id="Page-1" stroke="none" stroke-width="1" fill="none" fill-rule="evenodd">
        <g id="2nd-Outline">
            <path d="M68.3008233,61.2488359 L36.7957623,79.437283 C35.7457285,80.044239 34.4508891,80.044239 33.3998437,79.437283 L1.8957943,61.2488359 C0.844748888,60.6408684 0.197329192,59.5210346 0.197329192,58.3081343 L0.197329192,21.9292169 C0.197329192,20.7163166 0.844748888,19.5944596 1.8957943,18.9885152 L33.3998437,0.799056547 C34.4508891,0.192100581 35.7457285,0.192100581 36.7957623,0.799056547 L68.3008233,18.9885152 C69.3518687,19.5944596 70.0003,20.7163166 70.0003,21.9292169 L70.0003,58.3081343 C70.0003,59.5210346 69.3518687,60.6408684 68.3008233,61.2488359" id="Outer" fill="#E5E6E7"></path>
            <path d="M60.2861721,56.111763 L36.441907,69.8775243 C35.6467947,70.3377992 34.6655492,70.3377992 33.8714485,69.8775243 L10.0251602,56.111763 C9.23004787,55.6524996 8.74043672,54.8037728 8.74043672,53.8852462 L8.74043672,26.3517004 C8.74043672,25.4321621 9.23004787,24.5834353 10.0251602,24.124172 L33.8714485,10.3584107 C34.6655492,9.89813574 35.6467947,9.89813574 36.441907,10.3584107 L60.2861721,24.124172 C61.0812844,24.5834353 61.5719071,25.4321621 61.5719071,26.3517004 L61.5719071,53.8852462 C61.5719071,54.8037728 61.0812844,55.6524996 60.2861721,56.111763" id="Inner" fill="#CACBCD"></path>
            <path d="M45.1492973,30.3147182 C44.6293383,30.6202194 43.9647215,30.5069209 43.5742465,30.046646 L36.1046418,21.2589352 C35.8396044,20.9493876 35.4693612,20.7946139 35.0991181,20.7946139 C34.7278633,20.7946139 34.3566086,20.9493876 34.0935944,21.2589352 L26.6239896,30.046646 C26.232503,30.5069209 25.5678862,30.6202194 25.0479273,30.3147182 L15.7534083,24.8763927 C15.0564205,24.4677091 14.2036474,25.074665 14.3594327,25.8677542 L19.8766625,53.3618478 C20.9317542,58.2488549 27.2977107,62.0413181 35.0991181,62.2234049 C42.8995138,62.0413181 49.2654703,58.2488549 50.3175273,53.3557782 L55.8377918,25.8677542 C55.9945888,25.074665 55.1408041,24.4677091 54.4438163,24.8763927 L45.1492973,30.3147182 Z" id="Crown" fill="#A9AAAD"></path>
            <g id="Group" transform="translate(22.098815, 32.000000)" fill="#FFFFFF">
                <path d="M6.453584,0.692192 C4.748336,0.692192 3.26312,0.802208 0.677744,1.407296 L0.842768,3.277568 C3.208112,2.892512 4.5008,2.837504 6.28856,2.837504 C8.461376,2.837504 9.781568,3.057536 9.836576,4.900304 C9.919088,6.715568 8.791424,8.613344 6.371072,11.226224 L0.870272,17.442128 C0.595232,17.744672 0.51272,18.07472 0.51272,18.48728 L0.51272,20 L12.972032,20 L12.972032,17.66216 L6.536096,17.66216 C5.545952,17.66216 4.418288,17.689664 3.455648,17.772176 L8.90144,11.693792 C11.431808,8.888384 12.284432,7.183136 12.284432,4.790288 C12.284432,1.352288 10.084112,0.692192 6.453584,0.692192 Z" id="2"></path>
                <path d="M17.28604,8.28146 C16.46092,8.28146 15.6358,8.64818 14.78776,9.3014 L14.719,8.41898 L13.89388,8.41898 L13.89388,14 L14.86798,14 L14.86798,9.97754 C15.76186,9.43892 16.35778,9.10658 17.02246,9.10658 C17.59546,9.10658 17.82466,9.34724 17.82466,10.09214 L17.82466,14 L18.79876,14 L18.79876,9.8171 C18.79876,8.80862 18.2716,8.28146 17.28604,8.28146 Z M25.3195,5.978 L24.3454,5.978 L24.3454,7.697 C24.3454,8.08664 24.35686,8.43044 24.39124,8.7857 C23.7724,8.45336 23.09626,8.28146 22.40866,8.28146 C20.97616,8.28146 20.30002,9.0149 20.30002,11.1923 C20.30002,13.1405 20.8501,14.13752 22.25968,14.13752 C23.11918,14.13752 23.86408,13.72496 24.47146,13.1978 L24.56314,14 L25.3195,14 L25.3195,5.978 Z M21.29704,11.18084 C21.29704,9.5306 21.67522,9.1295 22.63786,9.1295 C23.22232,9.1295 23.69218,9.25556 24.3454,9.43892 L24.3454,12.52166 C23.58904,13.06028 23.1994,13.28948 22.58056,13.28948 C21.67522,13.28948 21.29704,12.83108 21.29704,11.18084 Z" id="nd"></path>
            </g>
        </g>
    </g>
</svg>