<?xml version="1.0" encoding="UTF-8"?>
<svg width="70px" height="80px" viewBox="0 0 70 80" version="1.1" xmlns="http://www.w3.org/2000/svg" xmlns:xlink="http://www.w3.org/1999/xlink">
    <!-- Generator: Sketch 41 (35326) - http://www.bohemiancoding.com/sketch -->
    <title>3rd-Ouline</title>
    <desc>Created with Sketch.</desc>
    <defs></defs>
    <g id="Page-1" stroke="none" stroke-width="1" fill="none" fill-rule="evenodd">
        <g id="3rd-Ouline">
            <path d="M68.3008233,61.2488359 L36.7957623,79.437283 C35.7457285,80.044239 34.4508891,80.044239 33.3998437,79.437283 L1.8957943,61.2488359 C0.844748888,60.6408684 0.197329192,59.5210346 0.197329192,58.3081343 L0.197329192,21.9292169 C0.197329192,20.7163166 0.844748888,19.5944596 1.8957943,18.9885152 L33.3998437,0.799056547 C34.4508891,0.192100581 35.7457285,0.192100581 36.7957623,0.799056547 L68.3008233,18.9885152 C69.3518687,19.5944596 70.0003,20.7163166 70.0003,21.9292169 L70.0003,58.3081343 C70.0003,59.5210346 69.3518687,60.6408684 68.3008233,61.2488359" id="Outer" fill="#DCA570"></path>
            <path d="M60.2861721,56.111763 L36.441907,69.8775243 C35.6467947,70.3377992 34.6655492,70.3377992 33.8714485,69.8775243 L10.0251602,56.111763 C9.23004787,55.6524996 8.74043672,54.8037728 8.74043672,53.8852462 L8.74043672,26.3517004 C8.74043672,25.4321621 9.23004787,24.5834353 10.0251602,24.124172 L33.8714485,10.3584107 C34.6655492,9.89813574 35.6467947,9.89813574 36.441907,10.3584107 L60.2861721,24.124172 C61.0812844,24.5834353 61.5719071,25.4321621 61.5719071,26.3517004 L61.5719071,53.8852462 C61.5719071,54.8037728 61.0812844,55.6524996 60.2861721,56.111763" id="Inner" fill="#D28C47"></path>
            <path d="M45.1492973,30.3147182 C44.6293383,30.6202194 43.9647215,30.5069209 43.5742465,30.046646 L36.1046418,21.2589352 C35.8396044,20.9493876 35.4693612,20.7946139 35.0991181,20.7946139 C34.7278633,20.7946139 34.3566086,20.9493876 34.0935944,21.2589352 L26.6239896,30.046646 C26.232503,30.5069209 25.5678862,30.6202194 25.0479273,30.3147182 L15.7534083,24.8763927 C15.0564205,24.4677091 14.2036474,25.074665 14.3594327,25.8677542 L19.8766625,53.3618478 C20.9317542,58.2488549 27.2977107,62.0413181 35.0991181,62.2234049 C42.8995138,62.0413181 49.2654703,58.2488549 50.3175273,53.3557782 L55.8377918,25.8677542 C55.9945888,25.074665 55.1408041,24.4677091 54.4438163,24.8763927 L45.1492973,30.3147182 Z" id="Crown" fill="#905923"></path>
            <g id="Group" transform="translate(22.098815, 32.000000)" fill="#FFFFFF">
                <path d="M6.096032,0.664688 C4.335776,0.664688 2.630528,0.829712 0.760256,1.15976 L0.952784,3.030032 C2.217968,2.920016 3.978224,2.81 5.765984,2.81 C8.681408,2.81 9.58904,3.22256 9.644048,5.615408 C9.644048,7.375664 9.341504,9.053408 6.316064,9.080912 L2.795552,9.080912 L2.795552,10.978688 L6.316064,10.978688 C9.45152,10.978688 10.084112,12.408896 10.084112,14.471696 C10.084112,17.2496 8.90144,18.184736 5.848496,18.184736 C4.08824,18.184736 2.465504,18.07472 0.595232,17.909696 L0.430208,19.86248 C2.355488,20.13752 4.418288,20.357552 6.453584,20.357552 C10.936736,20.357552 12.531968,18.569792 12.47696,14.719232 C12.421952,12.106352 11.65184,10.3736 9.17648,9.96104 L9.17648,9.851024 C11.349296,9.41096 11.954384,7.513184 11.954384,5.065328 C11.954384,1.70984 10.249136,0.664688 6.096032,0.664688 Z" id="3"></path>
                <path d="M19.38918,8.28146 L19.13706,8.28146 C18.3807,8.28146 17.55558,8.65964 16.75338,9.3014 L16.65024,8.41898 L15.89388,8.41898 L15.89388,14 L16.86798,14 L16.86798,9.90878 C17.7504,9.46184 18.3234,9.19826 18.9537,9.19826 L19.27458,9.19826 L19.38918,8.28146 Z M25.15356,5.978 L24.17946,5.978 L24.17946,7.697 C24.17946,8.08664 24.19092,8.43044 24.2253,8.7857 C23.60646,8.45336 22.93032,8.28146 22.24272,8.28146 C20.81022,8.28146 20.13408,9.0149 20.13408,11.1923 C20.13408,13.1405 20.68416,14.13752 22.09374,14.13752 C22.95324,14.13752 23.69814,13.72496 24.30552,13.1978 L24.3972,14 L25.15356,14 L25.15356,5.978 Z M21.1311,11.18084 C21.1311,9.5306 21.50928,9.1295 22.47192,9.1295 C23.05638,9.1295 23.52624,9.25556 24.17946,9.43892 L24.17946,12.52166 C23.4231,13.06028 23.03346,13.28948 22.41462,13.28948 C21.50928,13.28948 21.1311,12.83108 21.1311,11.18084 Z" id="rd"></path>
            </g>
        </g>
    </g>
</svg>