<?xml version="1.0" encoding="UTF-8" standalone="no"?>
<svg width="500px" height="500px" viewBox="0 0 500 500" version="1.1" xmlns="http://www.w3.org/2000/svg" xmlns:xlink="http://www.w3.org/1999/xlink" xmlns:sketch="http://www.bohemiancoding.com/sketch/ns">
    <!-- Generator: Sketch 3.2.2 (9983) - http://www.bohemiancoding.com/sketch -->
    <title>Predict</title>
    <desc>Created with Sketch.</desc>
    <defs>
        <path id="path-1" d="M0.667,50.272 L50.667,50.272 L50.667,0.062 L0.667,0.062 L0.667,50.272 Z"></path>
    </defs>
    <g id="Page-1" stroke="none" stroke-width="1" fill="none" fill-rule="evenodd" sketch:type="MSPage">
        <g id="Predict" sketch:type="MSArtboardGroup">
            <rect id="Rectangle-1" stroke="#0A2A46" stroke-width="7" stroke-linecap="round" stroke-linejoin="round" fill="#FFFFFF" sketch:type="MSShapeGroup" x="25" y="62" width="450" height="75"></rect>
            <rect id="Rectangle-2" stroke="#0A2A46" stroke-width="7" stroke-linecap="round" stroke-linejoin="round" fill="#FFFFFF" sketch:type="MSShapeGroup" x="25" y="137" width="450" height="75"></rect>
            <rect id="Rectangle-3" stroke="#0A2A46" stroke-width="7" stroke-linecap="round" stroke-linejoin="round" fill="#FECB7B" sketch:type="MSShapeGroup" x="25" y="288" width="450" height="75"></rect>
            <rect id="Rectangle-4" stroke="#0A2A46" stroke-width="7" stroke-linecap="round" stroke-linejoin="round" fill="#FFFFFF" sketch:type="MSShapeGroup" x="25" y="363" width="450" height="75"></rect>
            <rect id="Rectangle-4" stroke="#0A2A46" stroke-width="7" stroke-linecap="round" stroke-linejoin="round" fill="#FFFFFF" sketch:type="MSShapeGroup" x="25" y="212" width="450" height="75"></rect>
            <g id="Fill-2-+-Fill-3-+-Fill-4" sketch:type="MSLayerGroup" transform="translate(67.000000, 149.000000)" fill="#0A2A46">
                <path d="M7.634,35.43 C8.11,34.842 8.974,34.752 9.561,35.227 L10.448,35.945 C10.941,34.926 11.363,33.872 11.71,32.792 L10.192,31.768 C9.564,31.344 9.4,30.493 9.822,29.865 C10.246,29.238 11.097,29.073 11.725,29.495 L12.436,29.975 C12.66,28.829 12.806,27.66 12.87,26.473 L11.5,26.473 C10.743,26.473 10.13,25.86 10.13,25.103 C10.13,24.346 10.743,23.733 11.5,23.733 L12.87,23.733 C12.807,22.546 12.661,21.377 12.436,20.23 L11.725,20.71 C11.49,20.869 11.223,20.944 10.96,20.944 C10.52,20.944 10.087,20.732 9.822,20.34 C9.399,19.712 9.564,18.861 10.192,18.438 L11.71,17.414 C11.363,16.334 10.941,15.281 10.447,14.26 L9.561,14.978 C9.307,15.184 9.003,15.283 8.7,15.283 C8.3,15.283 7.904,15.11 7.634,14.776 C7.158,14.188 7.248,13.324 7.836,12.849 L9.099,11.827 C8.329,10.608 7.449,9.449 6.463,8.363 C2.449,12.794 0,18.668 0,25.103 C0,31.539 2.449,37.412 6.463,41.843 C7.449,40.756 8.329,39.597 9.099,38.379 L7.836,37.357 C7.249,36.881 7.158,36.018 7.634,35.43 L7.634,35.43 Z" id="Fill-2" sketch:type="MSShapeGroup"></path>
                <path d="M36.477,41.894 C36.223,42.099 35.919,42.2 35.615,42.2 C35.216,42.2 34.821,42.026 34.55,41.692 C34.074,41.103 34.164,40.241 34.753,39.765 L36.351,38.47 C35.773,37.367 35.27,36.229 34.843,35.06 L33.746,35.799 C33.512,35.958 33.245,36.034 32.982,36.034 C32.542,36.034 32.109,35.822 31.844,35.429 C31.421,34.802 31.587,33.951 32.214,33.527 L33.995,32.327 C33.511,30.431 33.219,28.473 33.127,26.474 L31.687,26.474 C30.93,26.474 30.317,25.86 30.317,25.103 C30.317,24.346 30.93,23.733 31.687,23.733 L33.127,23.733 C33.219,21.735 33.511,19.776 33.995,17.881 L32.214,16.679 C31.587,16.256 31.421,15.405 31.844,14.777 C32.268,14.149 33.119,13.984 33.746,14.407 L34.843,15.146 C35.27,13.979 35.773,12.84 36.35,11.737 L34.753,10.443 C34.164,9.966 34.073,9.103 34.55,8.515 C35.026,7.927 35.889,7.837 36.477,8.312 L37.755,9.348 C38.599,8.06 39.55,6.832 40.606,5.676 C36.323,2.219 30.878,0.145 24.958,0.145 C19.037,0.145 13.593,2.219 9.309,5.675 C10.366,6.832 11.317,8.06 12.16,9.348 L13.439,8.312 C14.027,7.836 14.89,7.926 15.367,8.515 C15.842,9.102 15.752,9.966 15.164,10.442 L13.565,11.736 C14.143,12.839 14.645,13.978 15.073,15.146 L16.169,14.407 C16.797,13.983 17.648,14.149 18.071,14.776 C18.495,15.404 18.329,16.256 17.701,16.678 L15.92,17.88 C16.405,19.776 16.697,21.734 16.789,23.733 L18.229,23.733 C18.985,23.733 19.599,24.346 19.599,25.103 C19.599,25.86 18.985,26.473 18.229,26.473 L16.789,26.473 C16.697,28.472 16.405,30.43 15.92,32.326 L17.701,33.527 C18.329,33.95 18.495,34.802 18.071,35.429 C17.807,35.822 17.375,36.033 16.934,36.033 C16.671,36.033 16.404,35.957 16.169,35.799 L15.073,35.059 C14.645,36.228 14.143,37.367 13.565,38.47 L15.164,39.764 C15.751,40.24 15.842,41.103 15.367,41.691 C15.096,42.026 14.699,42.199 14.3,42.199 C13.998,42.199 13.692,42.099 13.439,41.894 L12.16,40.858 C11.317,42.145 10.366,43.373 9.309,44.53 C13.593,47.987 19.037,50.061 24.958,50.061 C30.878,50.061 36.323,47.987 40.606,44.53 C39.55,43.374 38.599,42.146 37.756,40.859 L36.477,41.894 Z" id="Fill-3" sketch:type="MSShapeGroup"></path>
                <path d="M43.454,8.363 C42.467,9.449 41.587,10.608 40.818,11.827 L42.079,12.849 C42.668,13.325 42.758,14.188 42.282,14.776 C42.011,15.11 41.616,15.284 41.217,15.284 C40.913,15.284 40.609,15.184 40.355,14.979 L39.468,14.261 C38.975,15.281 38.553,16.334 38.206,17.415 L39.724,18.438 C40.351,18.861 40.517,19.713 40.093,20.34 C39.829,20.733 39.396,20.945 38.956,20.945 C38.692,20.945 38.426,20.869 38.191,20.71 L37.479,20.231 C37.255,21.377 37.109,22.546 37.046,23.733 L38.416,23.733 C39.172,23.733 39.785,24.346 39.785,25.103 C39.785,25.86 39.172,26.474 38.416,26.474 L37.046,26.474 C37.109,27.66 37.255,28.829 37.479,29.975 L38.191,29.496 C38.819,29.073 39.67,29.238 40.093,29.866 C40.517,30.493 40.351,31.345 39.723,31.768 L38.206,32.792 C38.553,33.873 38.975,34.926 39.467,35.945 L40.354,35.227 C40.943,34.752 41.805,34.843 42.282,35.43 C42.758,36.019 42.668,36.881 42.079,37.358 L40.817,38.379 C41.587,39.598 42.467,40.757 43.453,41.843 C47.467,37.412 49.916,31.539 49.916,25.103 C49.916,18.668 47.467,12.794 43.454,8.363 L43.454,8.363 Z" id="Fill-4" sketch:type="MSShapeGroup"></path>
            </g>
            <g id="Fill-5" sketch:type="MSLayerGroup" transform="translate(66.000000, 73.000000)" fill="#0A2A46">
                <path d="M19.789,17.884 C18.726,18.806 18.133,20.14 18.16,21.546 C18.188,22.951 18.834,24.261 19.932,25.14 L29.477,32.776 C30.314,33.446 31.519,33.379 32.278,32.621 L33.021,31.877 C33.841,31.057 33.841,29.723 33.021,28.903 L30.148,26.03 C29.894,25.775 29.76,25.424 29.781,25.066 C29.802,24.706 29.974,24.373 30.257,24.149 C30.281,24.129 32.957,21.953 33.196,19.075 C33.322,17.558 32.733,16.057 31.445,14.616 C30.98,14.097 31.025,13.299 31.545,12.835 C32.064,12.371 32.861,12.416 33.326,12.935 C35.099,14.92 35.901,17.063 35.708,19.305 C35.483,21.93 33.921,24.015 32.846,25.16 L34.805,27.119 C36.608,28.923 36.608,31.857 34.805,33.661 L34.061,34.404 C32.392,36.074 29.744,36.22 27.901,34.746 L18.355,27.109 C17.214,26.196 16.39,24.978 15.965,23.617 L1.12,35.37 C0.259,36.051 0.079,37.288 0.708,38.187 L1.303,39.037 C1.952,39.964 3.2,40.202 4.145,39.58 L18.726,29.971 C19.225,29.641 19.888,29.708 20.311,30.132 C20.735,30.555 20.802,31.218 20.472,31.717 L10.863,46.298 C10.241,47.243 10.479,48.491 11.406,49.14 L12.169,49.674 C13.092,50.32 14.337,50.123 15.014,49.227 L24.001,35.943 C24.241,35.588 24.637,35.388 25.046,35.388 C25.206,35.388 25.369,35.419 25.524,35.482 C26.077,35.71 26.394,36.293 26.286,36.881 L23.801,50.221 C23.8,50.227 23.799,50.233 23.798,50.239 C23.574,51.348 24.263,52.416 25.365,52.671 L26.273,52.881 C27.378,53.136 28.465,52.475 28.749,51.378 C28.754,51.356 28.761,51.336 28.767,51.315 L33.327,36.778 C33.428,36.456 33.655,36.187 33.956,36.033 C34.258,35.879 34.609,35.853 34.929,35.96 L36.581,36.51 C38.019,36.99 39.577,36.31 40.206,34.929 C40.218,34.903 40.231,34.876 40.244,34.851 L45.897,24.416 C46.566,22.903 46.233,21.107 45.062,19.935 L44.153,19.027 C43.661,18.534 43.661,17.736 44.153,17.244 L50.264,11.132 L39.732,0.601 L19.789,17.884 Z" sketch:type="MSShapeGroup"></path>
            </g>
            <g id="Group" sketch:type="MSLayerGroup" transform="translate(66.000000, 378.000000)">
                <path d="M12.528,31.496 C12.94,31.023 13.315,30.526 13.655,30.009 L12.89,29.389 C12.443,29.027 12.374,28.369 12.735,27.921 C13.098,27.473 13.756,27.404 14.204,27.767 L14.685,28.157 C14.87,27.753 15.035,27.341 15.18,26.921 L14.227,26.278 C13.749,25.956 13.623,25.307 13.945,24.829 C14.268,24.352 14.916,24.225 15.394,24.548 L15.735,24.777 C15.816,24.312 15.874,23.841 15.909,23.365 L15.113,23.365 C14.537,23.365 14.07,22.897 14.07,22.321 C14.07,21.745 14.537,21.277 15.113,21.277 L15.909,21.277 C15.874,20.801 15.816,20.33 15.735,19.865 L15.394,20.095 C15.215,20.215 15.012,20.273 14.812,20.273 C14.476,20.273 14.147,20.112 13.945,19.813 C13.623,19.336 13.749,18.687 14.227,18.364 L15.18,17.721 C15.035,17.301 14.87,16.889 14.685,16.486 L14.204,16.876 C14.011,17.031 13.778,17.108 13.548,17.108 C13.243,17.108 12.942,16.976 12.735,16.721 C12.373,16.273 12.443,15.616 12.891,15.253 L13.655,14.634 C13.315,14.117 12.94,13.619 12.528,13.147 C10.324,15.573 8.979,18.793 8.979,22.321 C8.979,25.85 10.324,29.07 12.528,31.496 L12.528,31.496 Z" id="Fill-15" fill="#0A2A46" sketch:type="MSShapeGroup"></path>
                <g id="Group-19" sketch:type="MSShapeGroup">
                    <path d="M46.635,11.417 C46.234,11.017 45.702,10.796 45.137,10.796 C44.57,10.796 44.039,11.017 43.638,11.417 L38.16,16.895 C38.756,18.595 39.081,20.421 39.081,22.321 C39.081,23.048 39.034,23.762 38.942,24.464 L47.814,15.592 C48.64,14.767 48.64,13.422 47.814,12.596 L46.635,11.417 Z" id="Fill-16" fill="#000000"></path>
                    <path d="M50.295,22.401 L49.117,21.222 C48.717,20.821 48.185,20.601 47.618,20.601 C47.052,20.601 46.52,20.821 46.12,21.222 C46.12,21.222 46.119,21.222 46.118,21.223 L37.071,30.271 C37.045,30.297 37.016,30.317 36.989,30.34 C34.171,35.362 28.796,38.764 22.639,38.764 C13.573,38.764 6.197,31.388 6.197,22.321 C6.197,18.256 7.68,14.532 10.134,11.658 L9.748,3.007 C9.747,2.986 9.746,2.965 9.746,2.944 C9.746,1.777 8.796,0.826 7.627,0.826 L5.959,0.826 C4.682,0.826 3.924,1.947 3.836,3.055 C3.517,7.061 1.399,18.408 1.267,19.115 C0.181,25.934 2.445,32.917 7.328,37.799 C15.755,46.227 29.467,46.227 37.893,37.799 L50.295,25.397 C51.122,24.571 51.122,23.226 50.295,22.401 L50.295,22.401 Z" id="Fill-18" fill="#0A2A46"></path>
                </g>
                <path d="M31.23,32.931 C30.781,32.42 30.367,31.886 29.99,31.331 L29.255,31.926 C29.061,32.083 28.829,32.159 28.598,32.159 C28.295,32.159 27.993,32.027 27.787,31.773 C27.424,31.324 27.493,30.667 27.941,30.305 L28.922,29.51 C28.696,29.059 28.493,28.598 28.31,28.127 L27.709,28.533 C27.53,28.653 27.326,28.711 27.126,28.711 C26.791,28.711 26.461,28.55 26.26,28.251 C25.938,27.773 26.064,27.124 26.542,26.802 L27.667,26.043 C27.463,25.171 27.331,24.276 27.274,23.365 L26.402,23.365 C25.826,23.365 25.359,22.898 25.359,22.321 C25.359,21.745 25.826,21.278 26.402,21.278 L27.274,21.278 C27.331,20.367 27.463,19.472 27.667,18.601 L26.541,17.841 C26.064,17.519 25.938,16.87 26.26,16.392 C26.582,15.915 27.23,15.788 27.709,16.111 L28.31,16.516 C28.492,16.046 28.696,15.584 28.922,15.132 L27.941,14.339 C27.493,13.975 27.424,13.319 27.787,12.871 C28.149,12.423 28.807,12.354 29.254,12.717 L29.989,13.311 C30.367,12.757 30.781,12.223 31.23,11.713 C28.882,9.807 25.892,8.662 22.639,8.662 C19.385,8.662 16.395,9.807 14.047,11.713 C14.497,12.223 14.911,12.757 15.288,13.311 L16.023,12.717 C16.47,12.354 17.128,12.423 17.491,12.871 C17.854,13.319 17.784,13.975 17.336,14.339 L16.356,15.132 C16.582,15.584 16.785,16.046 16.967,16.516 L17.569,16.111 C18.047,15.788 18.695,15.915 19.018,16.392 C19.34,16.87 19.214,17.519 18.736,17.841 L17.61,18.601 C17.814,19.472 17.947,20.367 18.004,21.278 L18.876,21.278 C19.452,21.278 19.919,21.745 19.919,22.321 C19.919,22.898 19.452,23.365 18.876,23.365 L18.004,23.365 C17.947,24.276 17.814,25.171 17.61,26.043 L18.736,26.802 C19.214,27.124 19.34,27.773 19.018,28.251 C18.816,28.55 18.486,28.711 18.151,28.711 C17.951,28.711 17.748,28.653 17.568,28.533 L16.967,28.127 C16.785,28.598 16.582,29.059 16.356,29.51 L17.336,30.305 C17.784,30.667 17.853,31.324 17.49,31.773 C17.284,32.027 16.983,32.159 16.679,32.159 C16.448,32.159 16.216,32.083 16.023,31.926 L15.288,31.331 C14.91,31.886 14.497,32.42 14.047,32.931 C16.395,34.836 19.385,35.981 22.638,35.981 C25.892,35.981 28.882,34.836 31.23,32.931 L31.23,32.931 Z" id="Fill-20" fill="#0A2A46" sketch:type="MSShapeGroup"></path>
                <path d="M32.75,13.147 C32.337,13.62 31.963,14.117 31.622,14.634 L32.387,15.253 C32.835,15.616 32.904,16.273 32.542,16.721 C32.336,16.976 32.035,17.108 31.73,17.108 C31.499,17.108 31.267,17.031 31.074,16.876 L30.593,16.486 C30.408,16.889 30.243,17.301 30.097,17.721 L31.051,18.364 C31.529,18.687 31.655,19.336 31.333,19.813 C31.131,20.112 30.802,20.273 30.466,20.273 C30.265,20.273 30.062,20.215 29.884,20.095 L29.543,19.865 C29.462,20.33 29.403,20.801 29.369,21.277 L30.165,21.277 C30.741,21.277 31.208,21.745 31.208,22.321 C31.208,22.897 30.741,23.365 30.165,23.365 L29.369,23.365 C29.403,23.841 29.462,24.312 29.543,24.777 L29.884,24.548 C30.362,24.225 31.01,24.352 31.332,24.829 C31.655,25.307 31.529,25.956 31.051,26.278 L30.097,26.921 C30.243,27.341 30.408,27.753 30.593,28.157 L31.074,27.767 C31.522,27.404 32.179,27.473 32.542,27.921 C32.904,28.369 32.835,29.027 32.387,29.389 L31.622,30.009 C31.963,30.526 32.337,31.023 32.75,31.496 C34.953,29.069 36.298,25.85 36.298,22.321 C36.298,18.793 34.953,15.573 32.75,13.147 L32.75,13.147 Z" id="Fill-21" fill="#0A2A46" sketch:type="MSShapeGroup"></path>
                <path d="M32.735,0.743 C32.334,0.343 31.802,0.123 31.236,0.123 C30.67,0.123 30.138,0.343 29.738,0.743 L24.497,5.985 C26.764,6.241 28.894,6.959 30.788,8.045 L33.914,4.919 C34.74,4.093 34.74,2.748 33.914,1.923 L32.735,0.743 Z" id="Fill-22" fill="#0A2A46" sketch:type="MSShapeGroup"></path>
                <path d="M40.491,5.273 C40.091,4.873 39.559,4.653 38.993,4.653 C38.427,4.653 37.895,4.873 37.495,5.273 L33.113,9.656 C34.569,10.862 35.814,12.314 36.784,13.947 L41.678,9.44 C42.496,8.614 42.494,7.276 41.671,6.453 L40.491,5.273 Z" id="Fill-23" fill="#0A2A46" sketch:type="MSShapeGroup"></path>
            </g>
            <text id="Strike-Out" sketch:type="MSTextLayer" font-family="Open Sans" font-size="26" font-weight="bold" fill="#000000">
                <tspan x="148" y="110">Strike Out</tspan>
            </text>
            <text id="x-1.75" sketch:type="MSTextLayer" font-family="Open Sans" font-size="26" font-weight="bold" fill="#0A2A46">
                <tspan x="376" y="110">x 1.75</tspan>
            </text>
            <text id="Ball" sketch:type="MSTextLayer" font-family="Open Sans" font-size="26" font-weight="bold" fill="#0A2A46">
                <tspan x="148" y="185">Ball</tspan>
            </text>
            <text id="x-1.32" sketch:type="MSTextLayer" font-family="Open Sans" font-size="26" font-weight="bold" fill="#0A2A46">
                <tspan x="376" y="185">x 1.32</tspan>
            </text>
            <g id="Fill-7-+-Fill-9-+-Group-14" sketch:type="MSLayerGroup" transform="translate(66.000000, 300.000000)">
                <path d="M31.866,13.055 C31.833,13.012 30.162,10.572 26.633,9.327 C26.109,9.142 25.834,8.568 26.02,8.045 C26.205,7.521 26.778,7.247 27.302,7.431 C31.463,8.9 33.596,12.039 33.676,12.147 C35.31,11.315 37.157,10.842 39.112,10.842 C39.56,10.842 40.002,10.869 40.437,10.917 C39.076,9.992 37.335,8.963 35.201,8 C31.119,6.158 24.946,4.283 16.688,4.238 C16.392,4.236 16.308,4.638 16.579,4.755 C17.052,4.958 17.53,5.177 18.008,5.413 C23.365,8.061 26.977,11.978 28.679,16.909 C29.552,15.384 30.438,14.068 31.866,13.055 L31.866,13.055 Z" id="Fill-8" fill="#0A2A46" sketch:type="MSShapeGroup"></path>
                <path d="M32.105,29.016 C32.284,28.794 32.452,28.565 32.61,28.33 L32.136,27.947 C31.777,27.656 31.721,27.128 32.012,26.769 C32.304,26.409 32.831,26.354 33.191,26.645 L33.434,26.843 C33.534,26.618 33.624,26.39 33.706,26.16 L33.091,25.745 C32.708,25.486 32.606,24.966 32.865,24.583 C33.124,24.198 33.645,24.097 34.028,24.356 L34.146,24.436 C34.184,24.191 34.213,23.944 34.234,23.695 L33.774,23.695 C33.312,23.695 32.937,23.32 32.937,22.858 C32.937,22.395 33.312,22.02 33.774,22.02 L34.234,22.02 C34.213,21.771 34.184,21.524 34.146,21.28 L34.028,21.359 C33.884,21.456 33.722,21.503 33.561,21.503 C33.292,21.503 33.027,21.373 32.865,21.133 C32.606,20.749 32.708,20.229 33.091,19.971 L33.706,19.555 C33.624,19.325 33.534,19.097 33.434,18.873 L33.191,19.07 C33.035,19.197 32.849,19.257 32.664,19.257 C32.42,19.257 32.178,19.151 32.012,18.947 C31.721,18.588 31.777,18.06 32.136,17.769 L32.61,17.385 C32.453,17.15 32.284,16.922 32.105,16.7 C30.657,18.345 29.777,20.5 29.777,22.858 C29.777,25.216 30.657,27.371 32.105,29.016 L32.105,29.016 Z" id="Fill-7" fill="#0A2A46" sketch:type="MSShapeGroup"></path>
                <path d="M46.12,16.7 C45.94,16.922 45.772,17.151 45.613,17.385 L46.088,17.769 C46.447,18.06 46.503,18.588 46.212,18.947 C46.046,19.151 45.804,19.257 45.56,19.257 C45.375,19.257 45.189,19.197 45.034,19.071 L44.789,18.873 C44.69,19.097 44.6,19.325 44.518,19.556 L45.133,19.971 C45.517,20.229 45.618,20.75 45.359,21.133 C45.197,21.373 44.933,21.503 44.664,21.503 C44.502,21.503 44.34,21.457 44.196,21.359 L44.079,21.28 C44.039,21.524 44.011,21.771 43.99,22.02 L44.45,22.02 C44.913,22.02 45.288,22.395 45.288,22.858 C45.288,23.32 44.913,23.695 44.45,23.695 L43.99,23.695 C44.011,23.944 44.039,24.191 44.079,24.436 L44.196,24.356 C44.579,24.097 45.101,24.198 45.359,24.583 C45.618,24.966 45.517,25.486 45.133,25.745 L44.519,26.16 C44.601,26.39 44.691,26.618 44.789,26.843 L45.034,26.645 C45.393,26.354 45.921,26.409 46.212,26.769 C46.503,27.128 46.448,27.656 46.088,27.946 L45.613,28.33 C45.772,28.565 45.941,28.794 46.12,29.016 C47.567,27.37 48.447,25.215 48.447,22.858 C48.447,20.5 47.567,18.345 46.12,16.7 L46.12,16.7 Z" id="Fill-9" fill="#0A2A46" sketch:type="MSShapeGroup"></path>
                <g id="Group-14">
                    <mask id="mask-2" sketch:name="Clip 11" fill="white">
                        <use xlink:href="#path-1"></use>
                    </mask>
                    <g id="Clip-11"></g>
                    <path d="M44.902,30.173 C44.692,29.918 44.492,29.659 44.305,29.39 L43.866,29.746 C43.71,29.872 43.525,29.933 43.339,29.933 C43.095,29.933 42.854,29.827 42.688,29.623 C42.397,29.263 42.452,28.736 42.812,28.444 L43.446,27.931 C43.317,27.667 43.2,27.396 43.091,27.122 L42.763,27.344 C42.619,27.441 42.456,27.488 42.295,27.488 C42.026,27.488 41.761,27.358 41.6,27.118 C41.341,26.735 41.442,26.214 41.826,25.955 L42.571,25.452 C42.441,24.879 42.353,24.292 42.311,23.695 L41.781,23.695 C41.318,23.695 40.943,23.32 40.943,22.858 C40.943,22.396 41.318,22.021 41.781,22.021 L42.311,22.021 C42.353,21.423 42.441,20.836 42.572,20.263 L41.826,19.76 C41.442,19.502 41.341,18.981 41.601,18.598 C41.859,18.214 42.379,18.113 42.763,18.372 L43.092,18.593 C43.2,18.319 43.317,18.049 43.446,17.785 L42.812,17.271 C42.452,16.98 42.397,16.452 42.688,16.093 C42.979,15.734 43.507,15.679 43.866,15.969 L44.306,16.325 C44.492,16.057 44.692,15.797 44.902,15.543 C43.31,14.279 41.298,13.523 39.112,13.523 C36.926,13.523 34.915,14.28 33.323,15.543 C33.533,15.797 33.733,16.058 33.918,16.326 L34.358,15.97 C34.718,15.679 35.246,15.734 35.537,16.094 C35.828,16.452 35.772,16.98 35.413,17.271 L34.779,17.785 C34.908,18.049 35.025,18.319 35.133,18.593 L35.462,18.371 C35.845,18.113 36.366,18.214 36.625,18.598 C36.884,18.981 36.783,19.502 36.398,19.76 L35.652,20.263 C35.784,20.837 35.872,21.424 35.913,22.021 L36.444,22.021 C36.906,22.021 37.281,22.396 37.281,22.858 C37.281,23.32 36.906,23.695 36.444,23.695 L35.913,23.695 C35.871,24.292 35.784,24.879 35.652,25.452 L36.398,25.955 C36.783,26.214 36.884,26.735 36.625,27.118 C36.463,27.358 36.198,27.488 35.93,27.488 C35.768,27.488 35.606,27.441 35.462,27.344 L35.133,27.122 C35.025,27.396 34.908,27.667 34.779,27.931 L35.413,28.444 C35.772,28.736 35.827,29.263 35.537,29.623 C35.371,29.827 35.129,29.933 34.885,29.933 C34.7,29.933 34.513,29.872 34.358,29.746 L33.918,29.39 C33.733,29.658 33.533,29.918 33.323,30.173 C34.915,31.436 36.926,32.193 39.112,32.193 C41.298,32.193 43.31,31.436 44.902,30.173 L44.902,30.173 Z" id="Fill-10" fill="#0A2A46" sketch:type="MSShapeGroup" mask="url(#mask-2)"></path>
                    <path d="M27.098,22.921 L27.098,22.919 C26.995,20.659 26.542,18.59 25.747,16.715 L19.917,22.546 C18.302,24.16 16.4,27.079 14.56,29.902 C13.149,32.068 11.817,34.113 10.73,35.394 C9.746,36.556 6.817,39.375 5.716,40.426 C4.453,39.593 2.731,39.731 1.62,40.843 C0.349,42.113 0.349,44.179 1.62,45.45 L5.279,49.109 C5.914,49.744 6.749,50.062 7.583,50.062 C8.417,50.062 9.251,49.744 9.886,49.109 C10.997,47.998 11.137,46.276 10.303,45.012 C11.353,43.911 14.171,40.983 15.334,39.998 C16.616,38.912 18.661,37.579 20.827,36.168 C23.65,34.328 26.569,32.426 28.183,30.812 L29.265,29.73 C27.912,27.797 27.111,25.451 27.098,22.921 L27.098,22.921 Z" id="Fill-12" fill="#0A2A46" sketch:type="MSShapeGroup" mask="url(#mask-2)"></path>
                    <path d="M46.386,12.609 L49.271,9.724 C51.02,7.975 51.02,5.128 49.271,3.38 L47.349,1.458 C45.6,-0.292 42.754,-0.292 41.005,1.458 L36.714,5.747 C42.972,8.656 46.259,12.466 46.386,12.609 L46.386,12.609 Z" id="Fill-13" fill="#0A2A46" sketch:type="MSShapeGroup" mask="url(#mask-2)"></path>
                </g>
            </g>
            <text id="Hit" sketch:type="MSTextLayer" font-family="Open Sans" font-size="26" font-weight="bold" fill="#0A2A46">
                <tspan x="148" y="336">Hit</tspan>
            </text>
            <text id="x-2.75" sketch:type="MSTextLayer" font-family="Open Sans" font-size="26" font-weight="bold" fill="#0A2A46">
                <tspan x="376" y="336">x 2.75</tspan>
            </text>
            <rect id="Rectangle-6" fill="#FFFFFF" sketch:type="MSShapeGroup" x="114" y="356" width="18" height="17"></rect>
            <rect id="Rectangle-6" fill="#FECB7B" sketch:type="MSShapeGroup" x="114" y="346" width="18" height="17"></rect>
            <circle id="Oval-2" fill="#0A2A46" sketch:type="MSShapeGroup" cx="132" cy="363" r="3.5"></circle>
            <circle id="Oval-3" fill="#0A2A46" sketch:type="MSShapeGroup" cx="114" cy="363" r="3.5"></circle>
            <rect id="Rectangle-8" fill="#FFFFFF" sketch:type="MSShapeGroup" transform="translate(333.000000, 279.500000) scale(-1, 1) translate(-333.000000, -279.500000) " x="324" y="271" width="18" height="17"></rect>
            <rect id="Rectangle-7" fill="#FECB7B" sketch:type="MSShapeGroup" transform="translate(333.000000, 296.500000) scale(-1, 1) translate(-333.000000, -296.500000) " x="324" y="288" width="18" height="17"></rect>
            <ellipse id="Oval-4" fill="#0A2A46" sketch:type="MSShapeGroup" cx="342" cy="287.5" rx="3.5" ry="3.5"></ellipse>
            <ellipse id="Oval-5" fill="#0A2A46" sketch:type="MSShapeGroup" cx="324" cy="287.5" rx="3.5" ry="3.5"></ellipse>
            <text id="Out" sketch:type="MSTextLayer" font-family="Open Sans" font-size="26" font-weight="bold" fill="#0A2A46">
                <tspan x="148" y="411">Out</tspan>
            </text>
            <text id="Foul-Ball" sketch:type="MSTextLayer" font-family="Open Sans" font-size="26" font-weight="bold" fill="#0A2A46">
                <tspan x="148" y="260">Foul Ball</tspan>
            </text>
            <text id="x-2.17" sketch:type="MSTextLayer" font-family="Open Sans" font-size="26" font-weight="bold" fill="#0A2A46">
                <tspan x="376" y="411">x 2.17</tspan>
            </text>
            <text id="x-2.17" sketch:type="MSTextLayer" font-family="Open Sans" font-size="26" font-weight="bold" fill="#0A2A46">
                <tspan x="376" y="260">x 2.17</tspan>
            </text>
            <g id="Rectangle-5-+-Oval-1-+-Oval-1" sketch:type="MSLayerGroup" transform="translate(224.000000, 129.000000)">
                <rect id="Rectangle-5" fill="#FFFFFF" sketch:type="MSShapeGroup" x="4" y="0" width="18" height="17"></rect>
                <ellipse id="Oval-1" fill="#0A2A46" sketch:type="MSShapeGroup" cx="22" cy="8" rx="3.5" ry="3.5"></ellipse>
                <ellipse id="Oval-1" fill="#0A2A46" sketch:type="MSShapeGroup" cx="4" cy="8" rx="3.5" ry="3.5"></ellipse>
            </g>
            <path d="M86.4389288,241.959427 C85.3623309,242.901292 84.7609849,244.266409 84.7890993,245.704618 C84.8170454,247.142657 85.471085,248.482787 86.5835414,249.381477 L96.1087815,257.075496 C96.9739319,257.774288 98.2171963,257.704426 99.0001919,256.913844 L99.7424468,256.164228 C100.58891,255.309734 100.58891,253.918949 99.7424468,253.064115 L96.8756155,250.169678 C96.6363902,249.928136 96.5106328,249.594803 96.5301614,249.253821 C96.54969,248.912839 96.7124844,248.596334 96.9776356,248.384198 C97.002383,248.36414 99.6961506,246.153538 99.9377327,243.220856 C100.06551,241.670799 99.4714034,240.14063 98.1720785,238.672845 C97.7355471,238.17973 97.7778029,237.422464 98.2660177,236.981704 C98.7544009,236.541283 99.5042316,236.583438 99.9409314,237.076553 C101.696653,239.060401 102.490591,241.201142 102.300188,243.439451 C102.07342,246.103903 100.481503,248.213367 99.4158479,249.347141 L101.419886,251.370424 C103.191432,253.159304 103.191264,256.069379 101.420054,257.857918 L100.677799,258.607365 C99.0389124,260.2623 96.4379057,260.408143 94.6271336,258.945627 L85.1018935,251.251607 C83.9458344,250.317732 83.120583,249.064802 82.7104825,247.665689 L67.8121855,259.574386 C66.9238028,260.284567 66.7369344,261.575233 67.3871019,262.512338 L67.9808721,263.368872 C68.6512416,264.335384 69.9402972,264.583556 70.9158851,263.934569 L85.4651927,254.252792 C85.6646874,254.120037 85.8919598,254.055104 86.1175488,254.055104 C86.423609,254.055104 86.7273123,254.174431 86.9566049,254.405775 C87.3547525,254.80778 87.4180521,255.436879 87.1081199,255.911806 L77.5192435,270.601903 C76.8763151,271.587113 77.1224427,272.888657 78.0796805,273.565691 L78.8412957,274.104021 C79.7944931,274.778166 81.0815284,274.571639 81.7808541,273.635893 L90.7495293,260.250401 C90.9358926,259.972482 91.2289899,259.786013 91.5577774,259.736888 C91.8870699,259.687424 92.2207395,259.779893 92.4789883,259.99135 L95.6289842,262.570811 C96.771912,263.092483 98.116523,262.8489 99.0091144,261.947491 L100.358439,260.585093 C100.676284,260.264509 101.146317,260.152322 101.572074,260.295956 L103.219378,260.850264 C104.69042,261.344738 106.284021,260.643907 106.925771,259.218446 C106.937219,259.193119 106.949508,259.167962 106.962471,259.143655 L112.60472,248.627781 C113.286032,247.074835 112.94748,245.231561 111.756573,244.029115 L110.850513,243.114278 C110.387382,242.64649 110.387382,241.888375 110.850513,241.420587 L117,235.211692 L106.391091,224.5 L86.4389288,241.959427 L86.4389288,241.959427 Z" id="Shape" fill="#0A2A46" sketch:type="MSShapeGroup"></path>
        </g>
    </g>
</svg>