<?xml version="1.0" encoding="UTF-8" standalone="no"?>
<svg width="500px" height="500px" viewBox="0 0 500 500" version="1.1" xmlns="http://www.w3.org/2000/svg" xmlns:xlink="http://www.w3.org/1999/xlink" xmlns:sketch="http://www.bohemiancoding.com/sketch/ns">
    <!-- Generator: Sketch 3.2.2 (9983) - http://www.bohemiancoding.com/sketch -->
    <title>Tv Screen</title>
    <desc>Created with Sketch.</desc>
    <defs>
        <path id="path-1" d="M115.531502,1 L132,115.160344 L16.4672314,132 L0,17.8396564 L115.531502,1 Z"></path>
    </defs>
    <g id="Page-1" stroke="none" stroke-width="1" fill="none" fill-rule="evenodd" sketch:type="MSPage">
        <g id="Tv-Screen" sketch:type="MSArtboardGroup">
            <g id="Imported-Layers" sketch:type="MSLayerGroup" transform="translate(30.000000, 59.000000)">
                <path d="M237.874548,297 L242,335 L199,335 L203.135644,297 L237.874548,297 L237.874548,297 Z" id="Fill-1" fill="#E55A42" sketch:type="MSShapeGroup"></path>
                <path d="M307.787713,350 L317,366 L124,366 L133.212287,350 L307.787713,350 L307.787713,350 Z" id="Fill-2" fill="#E2C744" sketch:type="MSShapeGroup"></path>
                <path d="M15,15 L425,15 L425,282 L15,282 L15,15 Z M416,265.408267 L416,31.5917334 C416,27.4010966 412.597701,24 408.402757,24 L31.5972428,24 C27.4035648,24 24,27.4010966 24,31.5917334 L24,265.408267 C24,269.600169 27.4035648,273 31.5972428,273 L408.402757,273 C412.597701,273 416,269.600169 416,265.408267 L416,265.408267 Z" id="Fill-3" fill="#E2C744" sketch:type="MSShapeGroup"></path>
                <path d="M9,9 L433,9 L433,287 L9,287 L9,9 Z" id="Fill-4" fill="#FFFFFF" sketch:type="MSShapeGroup"></path>
                <path d="M440,7.59004462 L440,289.92832 C440,294.119289 436.602487,297.518364 432.413444,297.518364 L252.49954,297.518364 L256.598809,335.04481 L311.552025,335.04481 C314.243988,335.04481 316.723528,336.462883 318.086579,338.770257 L336.257644,369.555478 C337.640926,371.902067 337.661157,374.807789 336.317072,377.174618 C334.959079,379.541446 332.4454,381 329.724355,381 L110.266794,381 C107.545749,381 105.025748,379.541446 103.682928,377.174618 C102.329992,374.807789 102.348959,371.902067 103.732241,369.555478 L121.898248,338.770257 C123.266357,336.462883 125.756012,335.04481 128.432802,335.04481 L183.391075,335.04481 L187.50046,297.518364 L7.5865557,297.518364 C3.39877696,297.518364 0,294.119289 0,289.92832 L0,7.59004462 C0,3.39907498 3.39877696,0 7.5865557,0 L432.413444,0 C436.602487,0 440,3.39907498 440,7.59004462 L440,7.59004462 Z M15,282 L425,282 L425,15 L15,15 L15,282 Z M317,366 L307.787713,350 L133.212287,350 L124,366 L317,366 L317,366 Z M242,336 L237.874548,298 L203.135644,298 L199,336 L242,336 L242,336 Z" id="Fill-5" fill="#092A46" sketch:type="MSShapeGroup"></path>
                <path d="M415,31.5917334 L415,265.408267 C415,269.600169 411.606381,273 407.422138,273 L31.577862,273 C27.3948822,273 24,269.600169 24,265.408267 L24,31.5917334 C24,27.4010966 27.3948822,24 31.577862,24 L407.422138,24 C411.606381,24 415,27.4010966 415,31.5917334 L415,31.5917334 Z M400,258 L400,39 L310.402468,39 L148,258 L400,258 L400,258 Z M128.591837,258 L291,39 L39,39 L39,258 L128.591837,258 L128.591837,258 Z" id="Fill-6" fill="#000000" sketch:type="MSShapeGroup"></path>
                <path d="M23,23 L417,23 L417,275 L23,275 L23,23 Z" id="Fill-7" fill="#9AD9D5" sketch:type="MSShapeGroup"></path>
                <path d="M261.11083,260.06146 L248,200.328408 L249.638379,38.8469844 L261.11083,29 L272.091134,32.8561972 L276.18898,40.159409 L276.18898,93.9865502 L292.708145,88.4062123 L305.2952,96.2832931 L307.654719,104.883728 L322.077518,98.5813028 L334.860672,104.883728 L336.763469,112.760808 L354.201139,104.883728 L363.706269,112.760808 L366,160.285525 L359.117542,171.115561 L355.510577,260.06146 L342.399747,264 L267.010261,264 L261.11083,260.06146" id="Fill-8" fill="#EF4B50" sketch:type="MSShapeGroup"></path>
                <path d="M350.434332,100.576507 C345.990684,100.576507 341.906615,102.152785 338.706987,104.776116 C336.201284,97.4581358 329.27969,92.1785547 321.144357,92.1785547 C316.765054,92.1785547 312.739023,93.7105195 309.560843,96.2667483 C307.182571,89.0361278 300.147425,83.7831345 291.855643,83.7831345 C287.864939,83.7831345 284.166946,85.0061741 281.136383,87.0724274 L281.136383,43.6304642 C281.136383,33.3574376 272.804227,25 262.56693,25 C252.329632,25 244,33.3574376 244,43.6304642 L244,201.082259 C244,201.343073 244.025234,201.598822 244.076963,201.855838 L255.283233,258.086542 C256.430103,263.829511 261.495761,268 267.336092,268 L348.342461,268 C355.116438,268 360.631255,262.465935 360.631255,255.66705 L360.631255,172.554796 C365.670418,169.219924 369,163.492148 369,156.995858 L369,119.209503 C369,108.935211 360.671629,100.576507 350.434332,100.576507 L350.434332,100.576507 Z M320.5,100 C326.289951,100 331,104.865169 331,110.844235 L331,153.158317 C331,159.137383 326.289951,164 320.5,164 C314.711285,164 310,159.137383 310,153.158317 L310,110.844235 C310,104.865169 314.711285,100 320.5,100 L320.5,100 Z M291.497529,92 C297.286244,92 302,96.5067531 302,102.045295 L302,150.068074 C302,155.120019 298.078254,159.30195 292.997529,160 C291.645799,154.437255 287.848847,149.573834 282.322076,147.214731 C281.883443,147.028754 281.441104,146.86698 281,146.71667 L281,102.045295 C281,96.5067531 285.707578,92 291.497529,92 L291.497529,92 Z M262.498764,33 C268.287479,33 273,37.817952 273,43.7420986 L273,145.20354 C266.647858,145.953224 260.865321,150.102402 258.249588,156.565107 C258.249588,156.565107 255.155684,164.204804 252,172 L252,43.7420986 C252,37.817952 256.707578,33 262.498764,33 L262.498764,33 Z M353,255.54602 C353,258.001905 351.00535,260 348.553697,260 L267.498938,260 C265.385618,260 263.551297,258.495106 263.137218,256.418605 L252,200.635092 L252,195.462809 C252.00505,194.846941 252.162854,192.207686 252.878656,190.47769 C255.072771,185.162505 265.636843,159.623568 265.636843,159.621039 C267.390368,155.387102 271.547573,152.878102 275.870156,153.004564 C276.335996,153.199315 276.844758,153.306807 277.381293,153.306807 C277.565609,153.306807 277.746138,153.291632 277.922879,153.265075 C278.506125,153.399124 279.085583,153.569848 279.654942,153.805066 C285.118769,156.073789 287.725701,162.372845 285.462152,167.847372 L273.754312,196.157084 C273.558635,196.63258 273.456377,197.14475 273.456377,197.660713 L273.456377,219.897736 C273.456377,222.070347 275.213689,223.828165 277.381293,223.828165 C279.547635,223.828165 281.307472,222.070347 281.307472,219.897736 L281.307472,198.440982 L292.713589,170.855895 C293.218564,169.631746 293.580883,168.383569 293.814434,167.129069 C298.238013,166.724392 302.210902,164.824937 305.182678,161.963109 C308.379169,167.596977 314.422454,171.406003 321.339346,171.406003 C326.429491,171.406003 331.04496,169.344678 334.405567,166.012413 C337.579334,171.725951 343.668067,175.602002 350.646818,175.602002 C351.443415,175.602002 352.227389,175.5413 353,175.445189 L353,255.54602 L353,255.54602 Z M361,156.295284 C361,162.197425 356.292422,167 350.502471,167 C344.712521,167 340,162.197425 340,156.295284 L340,118.704716 C340,112.803834 344.712521,108 350.502471,108 C356.292422,108 361,112.803834 361,118.704716 L361,156.295284 L361,156.295284 Z" id="Fill-9" fill="#072A46" sketch:type="MSShapeGroup"></path>
                <path d="M260.914001,113 L265.087257,113 C267.248138,113 269,111.207784 269,109.001287 C269,106.789643 267.248138,105 265.087257,105 L260.914001,105 C258.75312,105 257,106.789643 257,109.001287 C257,111.207784 258.75312,113 260.914001,113" id="Fill-10" fill="#072A46" sketch:type="MSShapeGroup"></path>
                <path d="M289.913563,142 L294.087695,142 C296.251547,142 298,140.211644 298,138 C298,135.792216 296.251547,134 294.087695,134 L289.913563,134 C287.754747,134 286,135.792216 286,138 C286,140.211644 287.754747,142 289.913563,142" id="Fill-11" fill="#072A46" sketch:type="MSShapeGroup"></path>
                <path d="M319.913153,147 L324.088106,147 C326.249213,147 328,145.207784 328,143 C328,140.788356 326.249213,139 324.088106,139 L319.913153,139 C317.750787,139 316,140.788356 316,143 C316,145.207784 317.750787,147 319.913153,147" id="Fill-12" fill="#072A46" sketch:type="MSShapeGroup"></path>
                <path d="M353.087695,147 L348.913563,147 C346.749712,147 345,148.789643 345,151 C345,153.20907 346.749712,155 348.913563,155 L353.087695,155 C355.246512,155 357,153.20907 357,151 C357,148.789643 355.246512,147 353.087695,147" id="Fill-13" fill="#072A46" sketch:type="MSShapeGroup"></path>
                <path d="M345.010215,239.13467 L340.48786,239.13467 L340.48786,196.932033 C340.48786,194.761763 338.704071,193 336.498075,193 C334.295929,193 324,203.14816 324,205.320959 C324,207.491229 325.782506,209.252992 327.988502,209.252992 L332.509573,209.252992 L332.509573,239.13467 L327.988502,239.13467 C325.782506,239.13467 324,240.896433 324,243.066703 C324,245.240766 325.782506,247 327.988502,247 L345.010215,247 C347.216211,247 349,245.240766 349,243.066703 C349,240.896433 347.216211,239.13467 345.010215,239.13467" id="Fill-14" fill="#ECECED" sketch:type="MSShapeGroup"></path>
                <path id="Fill-15" fill="#ECECED" sketch:type="MSShapeGroup"></path>
                <path d="M260.914001,75 L265.087257,75 C267.248138,75 269,73.2090704 269,71 C269,68.7922161 267.248138,67 265.087257,67 L260.914001,67 C258.75312,67 257,68.7922161 257,71 C257,73.2090704 258.75312,75 260.914001,75" id="Fill-16" fill="#072A46" sketch:type="MSShapeGroup"></path>
                <path d="M301.999975,236.994413 C301.999975,236.994413 302.043202,241 298.499988,241 C295.044577,241 295,236.994413 295,236.994413 L295,210.745977 C295,210.745977 295,207 298.499988,207 C301.999975,207 301.999975,210.745977 301.999975,210.745977 L301.999975,236.994413" id="Fill-17" fill="#ECECED" sketch:type="MSShapeGroup"></path>
                <path d="M313.999975,236.994413 C313.999975,236.994413 314.043202,241 310.501339,241 C307.043226,241 307,236.994413 307,236.994413 L307,210.745977 C307,210.745977 307,207 310.501339,207 C313.999975,207 313.999975,210.745977 313.999975,210.745977 L313.999975,236.994413" id="Fill-18" fill="#ECECED" sketch:type="MSShapeGroup"></path>
                <path d="M292.006853,221.999975 C292.006853,221.999975 288,222.043202 288,218.501339 C288,215.044577 292.006853,215 292.006853,215 L318.255289,215 C318.255289,215 322,215 322,218.501339 C322,221.999975 318.255289,221.999975 318.255289,221.999975 L292.006853,221.999975" id="Fill-19" fill="#ECECED" sketch:type="MSShapeGroup"></path>
                <path d="M292.006853,233.999975 C292.006853,233.999975 288,234.043194 288,230.500663 C288,227.044569 292.006853,227 292.006853,227 L318.255289,227 C318.255289,227 322,227 322,230.500663 C322,233.999975 318.255289,233.999975 318.255289,233.999975 L292.006853,233.999975" id="Fill-20" fill="#ECECED" sketch:type="MSShapeGroup"></path>
                <path d="M265,258.999192 C265,257.343657 263.593377,255.998384 261.865167,255.998384 L172.212232,255.998384 C170.484022,255.998384 169.078665,254.655535 169.077399,253 L162.807733,253 C162.807733,254.655535 161.403641,255.998384 159.672899,255.998384 L147.134833,255.998384 C145.405357,255.998384 144,257.343657 144,258.999192 C144,260.653515 145.405357,262 147.134833,262 L261.865167,262 C263.593377,262 265,260.653515 265,258.999192 L265,258.999192 Z" id="Fill-21" fill="#FF6E1D" sketch:type="MSShapeGroup"></path>
                <path d="M143.383997,146.055217 L134.50343,182.278303 C134.205517,183.493137 134.038888,184.732064 134.006067,185.962115 C133.918966,189.205897 134.771046,192.431927 136.472681,195.254703 C138.831996,199.174379 142.568525,201.936286 146.995554,203.031919 L154.9584,205 L156.451749,198.903007 L148.491428,196.934926 C145.685244,196.240011 143.317093,194.490042 141.821219,192.007116 C140.7861,190.287581 140.254654,188.360079 140.254654,186.399607 C140.254654,185.528427 140.360691,184.650906 140.572764,183.780994 L149.454594,147.555371 C150.146357,144.7364 151.888387,142.356189 154.36005,140.854766 C156.348237,139.646273 158.612876,139.118746 160.911599,139.325446 C162.629644,139.480153 163.897035,141.005669 163.744291,142.732812 C163.734193,142.863426 163.71147,142.990235 163.684961,143.114509 L169.75682,144.617199 L172,135.472978 L164.042204,133.503629 C159.613912,132.409265 155.027828,133.111788 151.124671,135.480587 C147.224038,137.851921 144.474659,141.606746 143.383997,146.055217 L143.383997,146.055217 Z" id="Fill-22" fill="#F2ECD9" sketch:type="MSShapeGroup"></path>
                <path d="M196.63225,86.9975771 C196.63225,85.342711 198.046746,83.9991924 199.789037,83.9991924 L220.841937,83.9991924 C222.584229,83.9991924 224,82.6532508 224,80.9995962 C224,79.3447301 222.584229,78 220.841937,78 L187.158063,78 C185.417047,78 184,79.3447301 184,80.9995962 C184,82.6532508 185.417047,83.9991924 187.158063,83.9991924 C188.128695,83.9991924 189.045757,84.4219949 189.643953,85.148876 C190.08399,85.6819222 190.313574,86.3361152 190.313574,87 C190.313574,87 196.63225,87 196.63225,86.9975771 L196.63225,86.9975771 Z" id="Fill-23" fill="#F2ECD9" sketch:type="MSShapeGroup"></path>
                <path d="M168.986287,252.998102 C168.986287,251.268339 170.393964,249.865042 172.129127,249.865042 L258,249.865042 L218.798273,91.1305288 L200.308066,91.1305288 C198.574172,91.1305288 197.167764,89.7297627 197.166495,88 L190.878276,88 C190.878276,88.2480128 190.850351,88.4998217 190.790692,88.7465691 L163.995314,197.242043 C163.994045,197.244573 160.99083,209.409854 160.99083,209.409854 C160.99083,209.412385 151,249.865042 151,249.865042 L159.557766,249.865042 C161.295467,249.865042 162.700606,251.267074 162.700606,252.998102 C162.700606,253.000633 168.986287,253.000633 168.986287,252.998102 L168.986287,252.998102 Z M228.761399,200.625392 L205.093322,105.866955 C205.030681,105.616191 205,105.365428 205,105.118444 C205,103.715932 205.966461,102.441951 207.41104,102.090378 C209.106182,101.680839 210.821779,102.701536 211.239812,104.374974 L234.907889,199.134672 C235.324643,200.804329 234.287871,202.496669 232.592728,202.908728 C230.89375,203.320787 229.179432,202.298831 228.761399,200.625392 L228.761399,200.625392 Z M236.946169,237.579358 L231.090563,212.943971 C231.028534,212.686977 231,212.432554 231,212.179415 C231,210.750532 231.937889,209.450145 233.338521,209.092925 C234.98603,208.67274 236.649667,209.717419 237.055342,211.421285 L242.910948,236.057957 C243.314141,237.760538 242.3105,239.486249 240.66299,239.906433 C239.015481,240.327902 237.351844,239.285794 236.946169,237.579358 L236.946169,237.579358 Z" id="Fill-24" fill="#FFCC75" sketch:type="MSShapeGroup"></path>
                <path d="M234.907889,198.134672 L211.239812,103.374974 C210.821779,101.701536 209.106182,100.680839 207.409762,101.090378 C205.966461,101.441951 205,102.715932 205,104.118444 C205,104.365428 205.030681,104.616191 205.093322,104.866955 L228.761399,199.625392 C229.179432,201.298831 230.89375,202.320787 232.592728,201.908728 C234.287871,201.496669 235.324643,199.804329 234.907889,198.134672 L234.907889,198.134672 Z" id="Fill-25" fill="#FFFFFF" sketch:type="MSShapeGroup"></path>
                <path d="M242.910948,236.057851 L237.055342,211.420517 C236.649667,209.716605 234.983549,208.674468 233.338521,209.092094 C231.936649,209.450609 231,210.749746 231,212.178667 C231,212.431813 231.028534,212.687528 231.088082,212.943243 L236.946169,237.579293 C237.351844,239.285775 239.015481,240.327911 240.66299,239.90643 C242.3105,239.486235 243.314141,237.760478 242.910948,236.057851 L242.910948,236.057851 Z" id="Fill-26" fill="#FFFFFF" sketch:type="MSShapeGroup"></path>
                <path d="M271,258.617821 C271,254.322761 268.08761,250.695962 264.129194,249.586826 L224.685771,89.9634559 C227.98741,88.5056621 230.295006,85.2073088 230.295006,81.3834424 C230.295006,76.2091586 226.070329,72 220.876968,72 L187.392724,72 C182.199363,72 177.974686,76.2091586 177.974686,81.3834424 C177.974686,85.2073088 180.284819,88.5056621 183.585189,89.9634559 L173.945267,128.977758 L165.953628,127.017189 C159.877802,125.526551 153.585163,126.48157 148.230777,129.706655 C142.875124,132.934266 139.103091,138.04286 137.606957,144.097631 L128.688475,180.184976 C128.281476,181.827205 128.051984,183.508595 128.007607,185.182405 C128.003804,185.388315 128,185.594225 128,185.800135 C128,190.030769 129.166478,194.183081 131.387856,197.843988 C134.624832,203.177442 139.754797,206.935619 145.830623,208.426258 L153.828602,210.389353 L144.140499,249.586826 C140.182083,250.695962 137.272228,254.322761 137.272228,258.617821 C137.272228,263.792105 141.496906,268 146.688998,268 L261.58323,268 C266.776591,268 271,263.792105 271,258.617821 L271,258.617821 Z M147.134833,261 C145.405357,261 144,259.600274 144,257.880539 C144,256.159543 145.405357,254.761077 147.134833,254.761077 L159.672899,254.761077 C161.403641,254.761077 162.807733,253.365131 162.807733,251.644136 C162.807733,249.919361 161.406173,248.522155 159.672899,248.522155 L151.136936,248.522155 L161.09978,208.245071 C161.102312,208.242551 164.097876,196.13007 164.097876,196.13007 C164.099142,196.127551 190.826253,88.1029728 190.826253,88.1029728 C190.887025,87.8572963 190.913613,87.6065803 190.913613,87.3596439 C190.913613,86.66923 190.685717,85.9888952 190.248917,85.4345482 C189.655122,84.6786206 188.744805,84.2389227 187.781312,84.2389227 C186.053102,84.2389227 184.646479,82.8391967 184.646479,81.1194613 C184.646479,79.3984661 186.053102,78 187.781312,78 L221.217422,78 C222.946898,78 224.352255,79.3984661 224.352255,81.1194613 C224.352255,82.8391967 222.946898,84.2389227 221.217422,84.2389227 L200.319378,84.2389227 C198.589903,84.2389227 197.185811,85.6361289 197.185811,87.3571242 C197.187078,89.081899 198.589903,90.4765855 200.319378,90.4765855 L218.762478,90.4765855 L257.86433,248.522155 L172.213498,248.522155 C170.48149,248.522155 169.078665,249.919361 169.078665,251.641616 C169.078665,253.365131 170.484022,254.761077 172.213498,254.761077 L261.865167,254.761077 C263.593377,254.761077 265,256.159543 265,257.880539 C265,259.600274 263.593377,261 261.865167,261 L147.134833,261 Z M164.042204,133.504125 L172,135.473461 L157.947623,192.806099 L149.984777,190.838032 C148.800701,190.542568 147.80219,189.805811 147.168495,188.754569 C146.538587,187.705863 146.35176,186.473285 146.642099,185.283822 L155.523928,149.057182 C155.816791,147.866451 156.551474,146.862128 157.595429,146.226818 C158.436148,145.717048 159.390478,145.492597 160.352382,145.580094 C161.942931,145.723388 163.358015,144.641712 163.684961,143.11367 C163.71147,142.990666 163.734193,142.863857 163.744291,142.733245 C163.898297,141.006113 162.632169,139.480608 160.911599,139.325901 C158.612876,139.119204 156.348237,139.646727 154.362575,140.855211 C151.888387,142.355355 150.146357,144.736818 149.454594,147.55577 L140.572764,183.781141 C140.360691,184.651047 140.254654,185.527294 140.254654,186.399736 C140.254654,188.357658 140.7861,190.285147 141.821219,192.00467 C143.317093,194.490115 145.685244,196.240072 148.491428,196.932446 L156.451749,198.90305 L154.9584,205 L146.995554,203.029397 C142.568525,201.93504 138.831996,199.173152 136.472681,195.25477 C134.771046,192.432014 133.918966,189.206007 134.006067,185.962247 C134.038888,184.732205 134.205517,183.492018 134.50343,182.278461 L143.383997,146.05309 C144.474659,141.604649 147.224038,137.852387 151.127195,135.481069 C155.027828,133.109751 159.615175,132.409768 164.042204,133.504125 L164.042204,133.504125 Z" id="Fill-27" fill="#072947" sketch:type="MSShapeGroup"></path>
                <path d="M440,260.5 C440,264.6425 436.64125,268 432.5,268 C428.35875,268 425,264.6425 425,260.5 C425,256.3575 428.35875,253 432.5,253 C436.64125,253 440,256.3575 440,260.5" id="Fill-28" fill="#092A46" sketch:type="MSShapeGroup"></path>
                <path d="M244,373.5 C244,377.6425 240.64125,381 236.5,381 C232.3575,381 229,377.6425 229,373.5 C229,369.35875 232.3575,366 236.5,366 C240.64125,366 244,369.35875 244,373.5" id="Fill-29" fill="#092A46" sketch:type="MSShapeGroup"></path>
                <path d="M212,373.5 C212,377.6425 208.6425,381 204.5,381 C200.3575,381 197,377.6425 197,373.5 C197,369.35875 200.3575,366 204.5,366 C208.6425,366 212,369.35875 212,373.5" id="Fill-30" fill="#092A46" sketch:type="MSShapeGroup"></path>
                <path d="M432,289.5 C432,293.64125 428.64125,297 424.5,297 C420.3575,297 417,293.64125 417,289.5 C417,285.35875 420.3575,282 424.5,282 C428.64125,282 432,285.35875 432,289.5" id="Fill-31" fill="#092A46" sketch:type="MSShapeGroup"></path>
                <g id="Group-49" transform="translate(66.000000, 140.000000)">
                    <mask id="mask-2" sketch:name="Clip 33" fill="white">
                        <use xlink:href="#path-1"></use>
                    </mask>
                    <g id="Clip-33"></g>
                    <path d="M16.3203051,87 C16.1779473,88.4687465 16.0699078,89.9413546 16,91.4178246 L55.827137,121 C57.2329202,120.515996 58.624722,119.995949 60,119.445008 L16.3203051,87 Z" id="Fill-32" fill="#FFFFFF" sketch:type="MSShapeGroup" mask="url(#mask-2)"></path>
                    <path d="M109.033164,41.0658034 L115.679686,46 C115.823319,44.5324852 115.93009,43.0598213 116,41.5845828 L76.1717125,12 C74.7658886,12.4853097 73.3740467,13.0028018 72,13.5550507 L103.053963,36.623353 C103.880171,37.2373921 104.046684,38.4023929 103.426392,39.2275481 C104.419113,39.9651673 105.423272,40.7117977 106.415993,41.4494169 C107.036284,40.6242617 108.208227,40.4517643 109.033164,41.0658034 L109.033164,41.0658034 Z" id="Fill-34" fill="#FFFFFF" sketch:type="MSShapeGroup" mask="url(#mask-2)"></path>
                    <path d="M98.757617,24 L101.001635,20.9740072 C100.175226,20.350817 100.008673,19.1709275 100.627844,18.333923 L103.583844,14.3483737 C104.203015,13.5113693 105.375244,13.3379711 106.200381,13.9585539 L108.444399,10.9312574 C107.619262,10.3106746 107.451437,9.12817765 108.071879,8.29247693 L109,7.03957772 C103.70717,6.88182454 98.3876402,7.19602716 93.1418517,7.97566683 C89.0034509,8.5910346 84.9515052,9.48931509 81,10.6457372 L98.757617,24 Z" id="Fill-35" fill="#FF6E1D" sketch:type="MSShapeGroup" mask="url(#mask-2)"></path>
                    <path d="M42.4044951,94.4794639 L45.3544325,90.5971822 C45.9738686,89.7818649 47.1429273,89.6116897 47.9679958,90.2174628 L50.2083742,87.268605 C49.3833057,86.6641018 49.2170226,85.512244 49.8351894,84.6981967 L50.2083742,84.2067204 L45.7314254,80.920052 C44.9063568,80.3155488 44.7400738,79.1649609 45.3582405,78.3496437 C45.9776766,77.5355964 47.1480046,77.3654211 47.9718038,77.9711942 L52.450022,81.2565926 L59.1724266,72.4100193 L54.6942084,69.1233509 C53.8691399,68.5175778 53.7028569,67.3682598 54.3210236,66.5529426 C54.9404597,65.7388953 56.1095183,65.56872 56.9345869,66.1744931 L61.4128051,69.4598915 L68.1352097,60.6133182 L63.6569915,57.3266498 C62.8331923,56.7208767 62.6656399,55.5715588 63.285076,54.7562415 C63.9032427,53.9421942 65.0735707,53.7720189 65.8973699,54.3777921 L70.3755881,57.6631904 L77.0979928,48.8166171 L72.6210439,45.5299488 C71.7959754,44.9254456 71.628423,43.7748577 72.2478591,42.9595404 C72.8672951,42.1454931 74.0363538,41.9765878 74.8614223,42.581091 L79.3396405,45.8677593 L79.7128254,45.376283 C80.3322614,44.5622357 81.5025894,44.3920605 82.3263887,44.9965636 L84.5667671,42.0477058 C83.7429679,41.4432027 83.5754155,40.2913448 84.1935822,39.4772975 L87.1435196,35.5950158 C87.764225,34.7809685 88.9332837,34.6107932 89.7583522,35.2152963 L92,32.2651686 L68.4728531,15 C54.9925025,21.1072597 43.1851369,30.4605489 34.0459161,42.4883836 C24.8762313,54.5555871 19.1350235,68.3893114 17,82.7284816 L40.5347629,100 L42.7764107,97.0498723 C41.9526114,96.4440991 41.7850591,95.2935112 42.4044951,94.4794639 L42.4044951,94.4794639 Z M32.5994574,83.1908867 C31.9358578,84.0798484 30.6834494,84.2637239 29.7995565,83.6056433 C28.9156635,82.9461803 28.7375251,81.6936152 29.4011247,80.8074185 C30.0633645,79.9212218 31.3171327,79.7359638 32.2010257,80.3940444 C33.0291654,81.0106492 33.2372202,82.15123 32.7136836,83.022219 C32.7028049,83.0401918 32.6892066,83.056782 32.6783279,83.0747548 C32.652491,83.1134655 32.628014,83.1535586 32.5994574,83.1908867 L32.5994574,83.1908867 Z M31.6003594,72.1915014 C30.9354104,73.07917 29.6830217,73.2644467 28.7991426,72.6049171 C27.9166233,71.9467703 27.7371279,70.6940789 28.4007171,69.8077929 C29.0629465,68.9215069 30.3180548,68.7362302 31.2005741,69.3929944 C32.0830934,70.052524 32.2625888,71.306598 31.6003594,72.1915014 L31.6003594,72.1915014 Z" id="Fill-36" fill="#FF6E1D" sketch:type="MSShapeGroup" mask="url(#mask-2)"></path>
                    <path d="M26.089213,115.976466 L29.0795625,112.142599 C29.7074845,111.340482 30.8938452,111.172539 31.7289299,111.769113 L34,108.860187 L16,96 C16.0386018,105.052639 17.5607978,114.157917 20.6077632,123 L21.545786,121.796825 C22.1737079,120.994708 23.3600686,120.826765 24.1964401,121.422086 L26.4675102,118.511906 C25.6311388,117.915332 25.4625777,116.779836 26.089213,115.976466 L26.089213,115.976466 Z" id="Fill-37" fill="#FF6E1D" sketch:type="MSShapeGroup" mask="url(#mask-2)"></path>
                    <path d="M105.53249,13.4870486 C106.368861,14.0849039 106.537422,15.2191997 105.910787,16.0238604 L102.920437,19.8553988 C102.606477,20.2577291 102.153549,20.500882 101.673601,20.5685637 C101.193652,20.6362455 100.689256,20.528456 100.27107,20.230155 L98,23.1404698 L116,36 C115.961398,26.9469409 114.439202,17.8424937 111.392237,9 L110.454214,10.2019775 C110.140253,10.6030545 109.686039,10.8462074 109.20609,10.9138891 C108.727429,10.9815709 108.221746,10.8750348 107.80356,10.5754805 L105.53249,13.4870486 Z" id="Fill-38" fill="#F2484B" sketch:type="MSShapeGroup" mask="url(#mask-2)"></path>
                    <path d="M34.242383,109 L31.9996367,112.026209 C32.8247741,112.648139 32.9913272,113.829417 32.3734278,114.665177 L29.4161558,118.652315 C29.1059347,119.070847 28.6584026,119.322488 28.1854425,119.392895 C27.711211,119.463302 27.212823,119.352476 26.7996186,119.040858 L24.555601,122.068371 C25.3807383,122.690302 25.5485629,123.871579 24.9281206,124.70734 L24,125.960328 C29.2928302,126.118093 34.6123598,125.805171 39.8581483,125.024172 C43.9965491,124.408761 48.0497662,123.51172 52,122.355215 L34.242383,109 Z" id="Fill-39" fill="#F2484B" sketch:type="MSShapeGroup" mask="url(#mask-2)"></path>
                    <path d="M106.645229,43.1402958 C105.82016,42.5345137 105.653877,41.3839086 106.272044,40.5711191 C105.281962,39.8434185 104.277917,39.106828 103.286565,38.3791274 C102.976847,38.7855222 102.530041,39.031899 102.057848,39.1004781 C101.584385,39.1690572 101.086806,39.0598386 100.674271,38.7588525 L91.4652371,32 L89.2235893,34.9501718 C90.0486579,35.554684 90.2149409,36.7052891 89.5955049,37.5193486 L86.6455675,41.4029583 C86.3358494,41.810623 85.8890431,42.0557299 85.4155807,42.124309 C84.9433876,42.1928881 84.4445385,42.0849395 84.0320042,41.7814134 L81.7916258,44.7315852 C82.6166943,45.3360974 82.7829774,46.4867025 82.1648106,47.300762 L81.7916258,47.7935156 L86.269844,51.0789631 C87.0936432,51.6847453 87.2599262,52.8353504 86.6417595,53.6494098 C86.3320414,54.0570746 85.8852351,54.3034514 85.4117727,54.3720305 C84.9395796,54.4406096 84.4394611,54.331391 84.0269269,54.0291349 L79.549978,50.7424175 L72.8275734,59.589123 L77.3057916,62.8771104 C78.1308601,63.4816226 78.2971431,64.6322277 77.6789764,65.4462872 C77.3692584,65.8539519 76.922452,66.1003287 76.4489896,66.1689078 C75.9767965,66.2374869 75.4766781,66.1282683 75.0641438,65.8260123 L70.5859256,62.5392948 L63.8647903,71.3860003 L68.3430085,74.6739877 C69.168077,75.2784999 69.3343601,76.429105 68.714924,77.2431645 C68.405206,77.6508292 67.9583996,77.897206 67.4862065,77.9657851 C67.0127441,78.0343643 66.513895,77.9251457 66.1013607,77.6228896 L61.6231425,74.3361721 L54.9007379,83.1841476 L59.3789561,86.4695951 C60.2040246,87.0741073 60.371577,88.2259824 59.7521409,89.0400418 C59.4424229,89.4464366 58.9943472,89.6928134 58.5208848,89.7613925 C58.0486917,89.8299716 57.5498426,89.720753 57.1373083,89.4197669 L52.6603595,86.1330495 L52.2859053,86.6245331 C51.9774566,87.0309278 51.5293809,87.2773046 51.0571878,87.3458838 C50.5837254,87.4144629 50.0848763,87.3052443 49.672342,87.0029882 L47.4332329,89.95316 C48.2583015,90.5589422 48.4245845,91.7082773 47.8051484,92.5236068 L44.855211,96.4059465 C44.545493,96.8136112 44.0986867,97.059988 43.6264936,97.1285672 C43.1530312,97.1971463 42.654182,97.0879277 42.2416478,96.7856716 L40,99.7358434 L63.5284162,117 C77.0074975,110.893919 88.8148631,101.54049 97.9540839,89.5124757 C107.123769,77.4438219 112.864976,63.6098909 115,49.2705065 L106.645229,43.1402958 Z" id="Fill-40" fill="#F2484B" sketch:type="MSShapeGroup" mask="url(#mask-2)"></path>
                    <path d="M79.2658402,45.1682852 L78.8976218,45.661536 L74.4790008,42.3642751 C73.6649124,41.7563148 72.5114119,41.9271045 71.9002194,42.744091 C71.289027,43.5623522 71.4543495,44.7170945 72.2684378,45.3225057 L76.6858064,48.6223157 L70.0528651,57.5008311 L65.6342441,54.2035702 C64.8214082,53.5956099 63.6666553,53.7663996 63.0567152,54.5833861 C62.4455228,55.4016472 62.6108453,56.555115 63.4236812,57.1630754 L67.8423022,60.4603363 L61.2106134,69.3401262 L56.7907399,66.0428653 C55.9766516,65.434905 54.8231511,65.6056947 54.2119586,66.4226812 C53.6020186,67.2409423 53.7660887,68.3944101 54.580177,69.0023705 L58.998798,72.2996313 L52.3658567,81.1794213 L47.9484882,77.8821604 C47.1343998,77.2742001 45.9796469,77.4449898 45.3684544,78.2619763 C44.7585144,79.0802374 44.9225845,80.2349797 45.7366728,80.8416655 L50.1540413,84.140201 L49.7858229,84.6334518 C49.1771353,85.4504384 49.3412055,86.6051807 50.1540413,87.2118665 C50.5610855,87.5152094 51.0532958,87.6248207 51.5204573,87.555995 C51.9863663,87.4871693 52.4272265,87.2399066 52.7328227,86.8320506 L53.1010411,86.3387998 L57.5196621,89.6373352 C57.9267063,89.9394035 58.4189166,90.0490149 58.8848256,89.9801891 C59.3519871,89.9113634 59.7940997,89.6641007 60.0996959,89.2562447 C60.7096359,88.4379836 60.5455658,87.2832413 59.7314775,86.6765555 L55.3141089,83.3780201 L61.9457978,74.4995047 L66.3644187,77.7980401 C66.7714629,78.101383 67.2636732,78.2109943 67.7308347,78.1421686 C68.1967437,78.0733429 68.6376039,77.8260802 68.9432001,77.4169497 C69.5543926,76.5999631 69.38907,75.4439462 68.5762341,74.838535 L64.1576131,71.538725 L70.789302,62.6602096 L75.2079229,65.958745 C75.6149671,66.2620879 76.1084299,66.3704247 76.5743389,66.301599 C77.0415004,66.2327733 77.4823605,65.9867851 77.7879567,65.5776546 C78.3978968,64.7593935 78.2338267,63.6059257 77.4197383,62.9992399 L73.0011173,59.6994299 L79.6340586,50.8209145 L84.0514271,54.1194499 C84.4584713,54.4227928 84.9519341,54.5311296 85.4178431,54.4623039 C85.8850046,54.3934782 86.3258647,54.14749 86.6314609,53.7383595 C87.241401,52.9200984 87.0773309,51.7666306 86.264495,51.1586702 L81.845874,47.8614094 L82.2140924,47.366884 C82.8240324,46.5486228 82.6599623,45.3951551 81.845874,44.7871947 C81.0317856,44.1817835 79.8770327,44.3525732 79.2658402,45.1682852 L79.2658402,45.1682852 Z" id="Fill-41" fill="#FFFFFF" sketch:type="MSShapeGroup" mask="url(#mask-2)"></path>
                    <path d="M31.9799382,70.7075267 C32.1349492,71.801363 31.3748515,72.8177596 30.2816162,72.9781705 C29.1897406,73.1399642 28.1767302,72.3849267 28.0203595,71.2924733 C27.8639888,70.198637 28.6254462,69.1822404 29.7173218,69.0218295 C30.8105572,68.8600358 31.8235675,69.6150733 31.9799382,70.7075267 L31.9799382,70.7075267 Z" id="Fill-42" fill="#072947" sketch:type="MSShapeGroup" mask="url(#mask-2)"></path>
                    <path d="M32.1997201,80.3951542 C31.3158121,79.7356579 30.0633826,79.9209252 29.4011315,80.8071665 C28.7375206,81.6934079 28.9156621,82.946036 29.79957,83.6055322 C30.683478,84.2636459 31.9359076,84.0797612 32.5995185,83.1921373 C32.6280755,83.1534247 32.6525529,83.1147122 32.6783902,83.074617 C32.6892691,83.0566433 32.7028677,83.0400522 32.7137466,83.0220785 C33.2372921,82.1510457 33.0292337,81.0117901 32.1997201,80.3951542 L32.1997201,80.3951542 Z" id="Fill-43" fill="#072947" sketch:type="MSShapeGroup" mask="url(#mask-2)"></path>
                    <path d="M119.183401,48.7995858 C119.578864,45.8838567 119.828094,42.9528754 119.937451,40.020623 C119.941265,39.9735951 119.942537,39.9291093 119.942537,39.8833524 C120.371061,27.8378579 118.400105,15.7402515 114.121221,4.43703501 C114.116135,4.42305375 114.111049,4.41161453 114.107234,4.39890429 C114.103419,4.3887361 114.098333,4.38110996 114.094518,4.37348381 C114.069086,4.30739056 114.038568,4.24256834 114.005507,4.18028816 C113.999149,4.16884895 113.992791,4.15613871 113.986433,4.14469949 C113.947014,4.0760642 113.902509,4.00869992 113.854189,3.9438777 C113.847831,3.93498053 113.840201,3.92735439 113.833843,3.91845722 C113.790609,3.86507421 113.746104,3.81296223 113.697784,3.76466332 C113.683796,3.75068205 113.672352,3.73797181 113.657093,3.72526157 C113.602415,3.67060754 113.54265,3.61976658 113.476528,3.57146767 C113.411677,3.52443978 113.344283,3.48376701 113.275618,3.44563629 C113.259087,3.43673912 113.242556,3.42784196 113.226026,3.41894479 C113.16499,3.38716919 113.102682,3.35920666 113.040374,3.3350572 C113.02893,3.33124413 113.016214,3.32488901 113.006042,3.32107594 C112.929746,3.29438443 112.85218,3.271506 112.773342,3.25498269 C112.759354,3.25116962 112.744095,3.24989859 112.730108,3.24608552 C112.661442,3.23337528 112.591505,3.22447811 112.521568,3.21685197 C112.511395,3.21685197 112.502494,3.21430992 112.49105,3.2130389 C105.796155,2.76436743 99.0249661,3.02492735 92.3682194,3.98963456 C80.3364835,5.7334795 68.9329105,9.67619595 58.4753966,15.7059338 C47.64658,21.9517458 38.3131472,30.172729 30.7306867,40.1426413 C21.1492948,52.7410312 14.9630345,67.5764234 12.8369446,83.0447855 C12.8293151,83.0943554 12.8242287,83.1464674 12.8165992,83.1973084 C12.4211363,86.1155795 12.1719057,89.0465608 12.0625494,91.9800842 C12.0587346,92.0245701 12.0587346,92.0715979 12.0574631,92.1160838 C11.628939,104.161578 13.5998955,116.259185 17.8787785,127.562401 C17.8838649,127.576382 17.8889512,127.589093 17.892766,127.601803 C17.8965807,127.6107 17.9016671,127.618326 17.9054818,127.627223 C17.9309135,127.693317 17.9614315,127.756868 17.9944927,127.820419 C18.0008507,127.831858 18.0072086,127.844568 18.0135665,127.854737 C18.0529857,127.924643 18.0974911,127.992007 18.1458113,128.055558 C18.1521693,128.064456 18.1610704,128.073353 18.1661567,128.08225 C18.2093906,128.135633 18.2551676,128.186474 18.3034879,128.234773 C18.3162037,128.248754 18.3289196,128.261464 18.342907,128.274175 C18.3988567,128.328829 18.4586212,128.380941 18.523472,128.427969 C18.5883229,128.474996 18.6557169,128.51694 18.7243825,128.555071 C18.7409131,128.563968 18.7587152,128.571594 18.7739743,128.580491 C18.8350103,128.612267 18.897318,128.641501 18.9608972,128.664379 C18.9723415,128.668192 18.9837858,128.673276 18.99523,128.677089 C19.0715251,128.705052 19.1490918,128.72793 19.2266585,128.744453 C19.2406459,128.748267 19.2559049,128.749538 19.2698924,128.75208 C19.3385579,128.767332 19.4097667,128.776229 19.4809754,128.782584 C19.488605,128.782584 19.4987776,128.786397 19.5089503,128.786397 C26.2051162,129.23634 32.9750339,128.974509 39.6317806,128.009802 C51.6647881,126.265957 63.0683611,122.32324 73.5246034,116.293502 C84.35342,110.048961 93.6868528,101.826707 101.270585,91.8580659 C110.850705,79.258405 117.038237,64.4242838 119.163055,48.9559217 C119.170685,48.9050808 119.175771,48.8542398 119.183401,48.7995858 L119.183401,48.7995858 Z M23.6398755,125.960823 L24.5798905,124.723453 C25.2082842,123.898111 25.0383088,122.731559 24.2025968,122.11738 C23.3655972,121.50449 22.1783453,121.677026 21.5512394,122.502368 L20.6112244,123.73845 C17.5619702,114.654536 16.0386308,105.300229 16,96 L52,122.399362 C47.9978538,123.542737 43.8926923,124.428596 39.7012555,125.036336 C34.3882391,125.8076 29.0005365,126.11662 23.6398755,125.960823 L23.6398755,125.960823 Z M55.827137,121 L16,91.4178246 C16.0699078,89.9413546 16.1779473,88.4687465 16.3203051,87 L60,119.445008 C58.624722,119.995949 57.2329202,120.515996 55.827137,121 L55.827137,121 Z M64.3579339,118 L17,83.2949831 C19.1483951,68.8853947 24.9255598,54.9837345 34.152674,42.8572701 C43.3491334,30.7703681 55.2304479,21.3711458 68.7952255,15.233894 L101.736432,39.3745169 C102.15155,39.6782528 102.652246,39.7880061 103.128674,39.7190912 C103.603824,39.6501764 104.053429,39.4025933 104.365087,38.9942089 C104.988402,38.1748877 104.821078,37.0199256 103.990842,36.4111776 L72.785467,13.5416511 C74.1674905,12.9941608 75.5648414,12.4811279 76.9787971,12 L117,41.3296572 C116.929749,42.7921839 116.822457,44.2521581 116.678124,45.7070275 L110.000473,40.8153481 C109.170237,40.2066001 107.992579,40.3776111 107.370541,41.1956561 C106.748502,42.0149773 106.915827,43.1699394 107.746063,43.7786874 L116.153159,49.9389109 C114.003487,64.3484993 108.226322,78.2501595 98.9992081,90.3779 C89.8027487,102.464802 77.9214341,111.864024 64.3579339,118 L64.3579339,118 Z M109.359851,7.0390856 L108.419803,8.2764057 C107.791386,9.10300248 107.961368,10.2695082 108.79711,10.8823744 C109.215625,11.1888074 109.721706,11.2995353 110.200744,11.2300085 C110.68107,11.1604817 111.135642,10.9107001 111.44985,10.4986892 L112.388611,9.26265668 C115.437974,18.3462085 116.961368,27.6988549 117,37 L81,10.6004044 C85.0022893,9.45836184 89.1063099,8.57125097 93.2978967,7.96353495 C98.6111032,7.19358967 103.998998,6.88329399 109.359851,7.0390856 L109.359851,7.0390856 Z" id="Fill-44" fill="#072947" sketch:type="MSShapeGroup" mask="url(#mask-2)"></path>
                    <path d="M45.4811927,90.7860374 L42.3917447,94.8954074 C41.7430138,95.7570712 41.9184902,96.974961 42.7812491,97.6161679 C43.2132933,97.9360992 43.7357343,98.0517047 44.2315881,97.9791152 C44.7261125,97.9065257 45.1940495,97.6457414 45.518415,97.2142374 L48.607863,93.1048674 C49.2565939,92.2418594 49.0824468,91.0253138 48.2183585,90.3841069 C47.3542703,89.7429 46.1299236,89.9230294 45.4811927,90.7860374 L45.4811927,90.7860374 Z" id="Fill-45" fill="#072947" sketch:type="MSShapeGroup" mask="url(#mask-2)"></path>
                    <path d="M29.4805408,112.78515 L26.3910852,116.896302 C25.7436821,117.758057 25.9178295,118.976076 26.7819199,119.616007 C27.2139652,119.937317 27.7350782,120.05159 28.2309331,119.978993 C28.7254587,119.906396 29.1933969,119.646928 29.5177632,119.215378 L32.6098775,115.104227 C33.2559513,114.242471 33.0818038,113.024452 32.2190427,112.383177 C31.3549523,111.743246 30.1292733,111.923394 29.4805408,112.78515 L29.4805408,112.78515 Z" id="Fill-46" fill="#072947" sketch:type="MSShapeGroup" mask="url(#mask-2)"></path>
                    <path d="M87.4811927,35.7848934 L84.3917447,39.8961912 C83.7430138,40.7579773 83.9184902,41.97604 84.7812491,42.6159935 C85.2132933,42.9373147 85.7357343,43.0515921 86.2302587,42.9789924 C86.7261125,42.9063926 87.1940495,42.6469157 87.518415,42.2153504 L90.607863,38.1040525 C91.2565939,37.2422664 91.0824468,36.0242037 90.2183585,35.3842502 C89.3542703,34.7429523 88.1299236,34.9231073 87.4811927,35.7848934 L87.4811927,35.7848934 Z" id="Fill-47" fill="#072947" sketch:type="MSShapeGroup" mask="url(#mask-2)"></path>
                    <path d="M102.23105,20.9791043 C102.726931,20.9065097 103.194894,20.6457068 103.519277,20.2155164 L106.608894,16.1045097 C107.256331,15.2414402 107.082175,14.0248081 106.218039,13.3835556 C105.355233,12.7436474 104.12949,12.9224452 103.482053,13.7855147 L100.391106,17.8951771 C99.7436686,18.7582465 99.9178252,19.976223 100.781961,20.6174755 C101.214029,20.9360853 101.735169,21.0516989 102.23105,20.9791043 L102.23105,20.9791043 Z" id="Fill-48" fill="#072947" sketch:type="MSShapeGroup" mask="url(#mask-2)"></path>
                </g>
                <path d="M119,348 L319,348 L319,367 L119,367 L119,348 Z" id="Fill-50" fill="#092A46" sketch:type="MSShapeGroup"></path>
            </g>
        </g>
    </g>
</svg>