<svg id="Layer_1" data-name="Layer 1" xmlns="http://www.w3.org/2000/svg" viewBox="0 0 250 250"><defs><style>.cls-1{fill:#f3c161;}.cls-2{fill:#1a3b5e;}</style></defs><title>Emoji-Party-Pack</title><circle class="cls-1" cx="125" cy="125" r="120.67"/><circle class="cls-2" cx="55.6" cy="117.33" r="18.67"/><circle class="cls-2" cx="194.4" cy="117.33" r="18.67"/><path class="cls-2" d="M165.63,187a7.77,7.77,0,0,0,7.58-9.28,49.1,49.1,0,0,0-96.43,0A7.77,7.77,0,0,0,84.37,187h81.26Z"/><path class="cls-2" d="M74,90.61a7.51,7.51,0,0,1-2.12-.31l-37.35-11a7.5,7.5,0,0,1,4.24-14.39l37.35,11A7.5,7.5,0,0,1,74,90.61Z"/><path class="cls-2" d="M176,90.61a7.5,7.5,0,0,1-2.12-14.7l37.35-11a7.5,7.5,0,1,1,4.24,14.39l-37.35,11A7.52,7.52,0,0,1,176,90.61Z"/></svg>