<svg id="Layer_1" data-name="Layer 1" xmlns="http://www.w3.org/2000/svg" viewBox="0 0 250 250"><defs><style>.cls-1{fill:#f3c161;}.cls-2{fill:#1a3b5e;}.cls-3{opacity:0.8;}.cls-4{fill:#06442b;}.cls-5{fill:#ef933b;}</style></defs><title>Emoji-Party-Pack</title><circle class="cls-1" cx="125.15" cy="125" r="120.67"/><circle class="cls-2" cx="55.74" cy="117.33" r="18.67"/><circle class="cls-2" cx="194.55" cy="117.33" r="18.67"/><path class="cls-2" d="M156.67,174.59h-63a8.45,8.45,0,1,1,0-16.9h63A8.45,8.45,0,1,1,156.67,174.59Z"/><g class="cls-3"><path class="cls-4" d="M55.53,160h0A49.17,49.17,0,0,1,6.36,110.87V92.21a12.14,12.14,0,0,1,10.36-12h0a264.81,264.81,0,0,1,77.61,0h0a12.14,12.14,0,0,1,10.36,12v18.66A49.17,49.17,0,0,1,55.53,160Z"/></g><g class="cls-3"><path class="cls-4" d="M194.46,160h0a49.17,49.17,0,0,1-49.17-49.17V92.21a12.14,12.14,0,0,1,10.36-12h0a264.81,264.81,0,0,1,77.61,0h0a12.14,12.14,0,0,1,10.36,12v18.66A49.17,49.17,0,0,1,194.46,160Z"/></g><path class="cls-5" d="M233.74,77a267.58,267.58,0,0,0-78.55,0,15.5,15.5,0,0,0-12.75,12H107.56a15.57,15.57,0,0,0-6.13-9.27C91.31,72.52,41.7,73.26,16.26,77,3.53,78.91-.24,95.41,6.36,95.41a3.2,3.2,0,0,0,3.2-3.2,9,9,0,0,1,7.63-8.84,261.43,261.43,0,0,1,76.68,0,9,9,0,0,1,7.63,8.84v18.66c0,4.23,6.4,4.24,6.4,0V95.41h34.19v15.46c0,4.23,6.4,4.24,6.4,0V92.21a9,9,0,0,1,7.63-8.84,261.3,261.3,0,0,1,76.68,0,9,9,0,0,1,7.63,8.84,3.2,3.2,0,0,0,6.4,0A15.43,15.43,0,0,0,233.74,77Z"/></svg>