<svg id="Layer_1" data-name="Layer 1" xmlns="http://www.w3.org/2000/svg" viewBox="0 0 250 250"><defs><style>.cls-1{fill:#f3c161;}.cls-2{fill:#1a3b5e;}</style></defs><title>Emoji-Party-Pack</title><circle class="cls-1" cx="125" cy="125" r="120.67"/><circle class="cls-2" cx="55.6" cy="117.33" r="18.67"/><circle class="cls-2" cx="194.4" cy="117.33" r="18.67"/><path class="cls-2" d="M34.08,84.84a7.5,7.5,0,0,1-3.31-14.23L62.29,55.13A7.5,7.5,0,0,1,68.9,68.6L37.38,84.07A7.46,7.46,0,0,1,34.08,84.84Z"/><path class="cls-2" d="M208.39,92.1H173.28a7.5,7.5,0,0,1,0-15h35.11A7.5,7.5,0,0,1,208.39,92.1Z"/><path class="cls-2" d="M151.27,177.33a5,5,0,0,0,4.9-6,31.75,31.75,0,0,0-62.36,0,5,5,0,0,0,4.9,6h52.55Z"/></svg>