<svg id="Layer_1" data-name="Layer 1" xmlns="http://www.w3.org/2000/svg" viewBox="0 0 250 250"><defs><style>.cls-1{fill:#f3c161;}.cls-2{fill:#1a3b5e;}.cls-3{fill:#e54c66;}</style></defs><title>Emoji-Party-Pack</title><circle class="cls-1" cx="125" cy="125" r="120.67"/><path class="cls-2" d="M98.41,137.91a5,5,0,0,0-4.9,6,31.75,31.75,0,0,0,62.36,0,5,5,0,0,0-4.9-6H98.41Z"/><path id="_Path_" data-name="&lt;Path&gt;" class="cls-3" d="M94.12,103.22a20.6,20.6,0,0,0-38.72-9.8,20.6,20.6,0,0,0-38.72,9.8s-2.59,17.48,35.08,45a6,6,0,0,0,7,0C97,121,94.12,103.22,94.12,103.22Z"/><path id="_Path_2" data-name="&lt;Path&gt;" class="cls-3" d="M233.12,103.22a20.6,20.6,0,0,0-38.72-9.8,20.6,20.6,0,0,0-38.72,9.8s-2.59,17.48,35.08,45a6,6,0,0,0,7,0C236,121,233.12,103.22,233.12,103.22Z"/></svg>