<svg id="Layer_1" data-name="Layer 1" xmlns="http://www.w3.org/2000/svg" xmlns:xlink="http://www.w3.org/1999/xlink" viewBox="0 0 250 250"><defs><style>.cls-1{fill:none;}.cls-2{fill:#f3c161;}.cls-3{fill:#1a3b5e;}.cls-4{clip-path:url(#clip-path);}.cls-5{fill:#fff;}.cls-6{fill:#f1f1f2;}.cls-7{opacity:0.5;}.cls-8{fill:#db6649;}</style><clipPath id="clip-path"><path class="cls-1" d="M177.09,157.85a54.54,54.54,0,0,1-104.18,0,9,9,0,0,1,5.9-11.22,7.6,7.6,0,0,1,1.65-.33v-0.08h88.71v0a9.49,9.49,0,0,1,2,.38A9,9,0,0,1,177.09,157.85Z"/></clipPath></defs><title>Emoji-Party-Pack</title><circle class="cls-2" cx="125" cy="125" r="120.67"/><circle class="cls-3" cx="55.6" cy="117.33" r="18.67"/><circle class="cls-3" cx="194.4" cy="117.33" r="18.67"/><g class="cls-4"><path class="cls-3" d="M177.09,157.85a54.54,54.54,0,0,1-104.18,0,9,9,0,0,1,5.9-11.22,7.6,7.6,0,0,1,1.65-.33v-0.08h88.71v0a9.49,9.49,0,0,1,2,.38A9,9,0,0,1,177.09,157.85Z"/><rect class="cls-5" x="101.58" y="136.42" width="46.84" height="34.18" rx="10.13" ry="10.13"/><path class="cls-6" d="M125,164.9a2.53,2.53,0,0,1-2.53-2.53V139a2.53,2.53,0,0,1,5.06,0v23.42A2.53,2.53,0,0,1,125,164.9Z"/></g><g class="cls-7"><circle class="cls-8" cx="199.33" cy="152.62" r="4.17"/></g><g class="cls-7"><circle class="cls-8" cx="221.37" cy="152.62" r="4.17"/></g><g class="cls-7"><circle class="cls-8" cx="210.35" cy="166.11" r="4.17"/></g><g class="cls-7"><circle class="cls-8" cx="29.91" cy="152.62" r="4.17"/></g><g class="cls-7"><circle class="cls-8" cx="51.94" cy="152.62" r="4.17"/></g><g class="cls-7"><circle class="cls-8" cx="40.92" cy="166.11" r="4.17"/></g></svg>