<svg id="Layer_1" data-name="Layer 1" xmlns="http://www.w3.org/2000/svg" xmlns:xlink="http://www.w3.org/1999/xlink" viewBox="0 0 250 250"><defs><style>.cls-1,.cls-7{fill:none;}.cls-2{fill:#f3c161;}.cls-3{fill:#1a3b5e;}.cls-4{clip-path:url(#clip-path);}.cls-5{fill:#e54c66;}.cls-6{fill:#fff;}.cls-7{stroke:#1a3b5e;stroke-linecap:round;stroke-linejoin:round;stroke-width:15px;}</style><clipPath id="clip-path"><path class="cls-1" d="M177.09,159.08a54.54,54.54,0,0,1-104.18,0,9,9,0,0,1,5.9-11.22,7.6,7.6,0,0,1,1.65-.33v-0.08h88.71v0a9.49,9.49,0,0,1,2,.38A9,9,0,0,1,177.09,159.08Z"/></clipPath></defs><title>Emoji-Party-Pack</title><circle class="cls-2" cx="125" cy="125" r="120.67"/><path class="cls-3" d="M177.09,159.08a54.54,54.54,0,0,1-104.18,0,9,9,0,0,1,5.9-11.22,7.6,7.6,0,0,1,1.65-.33v-0.08h88.71v0a9.49,9.49,0,0,1,2,.38A9,9,0,0,1,177.09,159.08Z"/><g class="cls-4"><path class="cls-5" d="M72.91,211.15a54.54,54.54,0,0,1,104.18,0,9,9,0,0,1-5.9,11.22,7.6,7.6,0,0,1-1.65.33v0.08H80.84v0a9.49,9.49,0,0,1-2-.38A9,9,0,0,1,72.91,211.15Z"/></g><path class="cls-6" d="M81.66,147.45h86.69a0,0,0,0,1,0,0v0A14.53,14.53,0,0,1,153.81,162H96.19a14.53,14.53,0,0,1-14.53-14.53v0A0,0,0,0,1,81.66,147.45Z"/><path class="cls-7" d="M33.44,73.49a30.49,30.49,0,0,1,41.12-13"/><path class="cls-7" d="M216.56,73.49a30.49,30.49,0,0,0-41.12-13"/><path class="cls-3" d="M218.75,92.52a3.07,3.07,0,1,0-6.14,0,11.9,11.9,0,0,1-1.73,6.17,12.07,12.07,0,0,1-1.77,2.29,18.21,18.21,0,0,0,1.23-2.9,18,18,0,0,0,.88-5.55,3.07,3.07,0,1,0-6.14,0,11.83,11.83,0,0,1-.47,3.31,12.06,12.06,0,0,1-1.35,3,20.08,20.08,0,0,0-2.93-1.51,19.6,19.6,0,0,0-7.57-1.53,19.89,19.89,0,1,0,18.31,12.25c-0.08-.19-0.15-0.38-0.24-0.57,0.36-.24.7-0.5,1-0.77A18.1,18.1,0,0,0,218.75,92.52Z"/><path class="cls-3" d="M64.84,97.33a19.75,19.75,0,0,0-18.1,1.52,11.9,11.9,0,0,1-1.82-6.33,3.07,3.07,0,0,0-6.14,0,18,18,0,0,0,2.1,8.45,12,12,0,0,1-3.5-8.45,3.07,3.07,0,0,0-6.14,0,18.13,18.13,0,0,0,7.94,15A19.82,19.82,0,1,0,64.84,97.33Z"/></svg>