<svg id="Layer_1" data-name="Layer 1" xmlns="http://www.w3.org/2000/svg" viewBox="0 0 250 250"><defs><style>.cls-1{fill:#f3c161;}.cls-2{fill:#1a3b5e;}.cls-3{fill:#e54c66;}</style></defs><title>Emoji-Party-Pack</title><circle class="cls-1" cx="127.92" cy="125" r="119.58"/><path class="cls-2" d="M77.52,130.95a6,6,0,0,1-5.91-5.32,12.56,12.56,0,0,0-25,0,5.95,5.95,0,0,1-11.83-1.26,24.45,24.45,0,0,1,48.62,0A6,6,0,0,1,77.52,130.95Z"/><path class="cls-2" d="M215.09,130.95a6,6,0,0,1-5.91-5.32,12.56,12.56,0,0,0-25,0,5.95,5.95,0,0,1-11.83-1.26,24.45,24.45,0,0,1,48.62,0A6,6,0,0,1,215.09,130.95Z"/><path class="cls-2" d="M127.36,182.52h-9.62a19.81,19.81,0,0,1,0-39.63H140.8a5.95,5.95,0,1,1,0,11.89H117.74a7.92,7.92,0,0,0,0,15.84h9.62A5.95,5.95,0,0,1,127.36,182.52Z"/><path class="cls-2" d="M132.45,205.27h-7.64a17.32,17.32,0,1,1,0-34.64h16.47a5.95,5.95,0,0,1,0,11.89H124.82a5.43,5.43,0,0,0,0,10.86h7.64A5.95,5.95,0,0,1,132.45,205.27Z"/><g id="_Group_" data-name="&lt;Group&gt;"><path class="cls-3" d="M79.29,168.06a20.42,20.42,0,0,0-38.37-9.71,20.42,20.42,0,0,0-38.37,9.71S0,185.38,37.31,212.61a6,6,0,0,0,6.94,0C82.14,185.66,79.29,168.06,79.29,168.06Z"/></g></svg>