<svg id="Layer_1" data-name="Layer 1" xmlns="http://www.w3.org/2000/svg" xmlns:xlink="http://www.w3.org/1999/xlink" viewBox="0 0 250 250"><defs><style>.cls-1{fill:none;}.cls-2{fill:#f3c161;}.cls-3{fill:#1a3b5e;}.cls-4{clip-path:url(#clip-path);}.cls-5{fill:#e54c66;}</style><clipPath id="clip-path"><path class="cls-1" d="M77.37,173a49.87,49.87,0,0,1,95.26,0,8.18,8.18,0,0,1-5.39,10.25,7,7,0,0,1-1.5.3v0.07H84.61v0a8.68,8.68,0,0,1-1.85-.35A8.18,8.18,0,0,1,77.37,173Z"/></clipPath></defs><title>Emoji-Party-Pack</title><circle class="cls-2" cx="125" cy="125" r="120.67"/><circle class="cls-3" cx="55.6" cy="117.33" r="18.67"/><circle class="cls-3" cx="194.4" cy="117.33" r="18.67"/><path class="cls-3" d="M77.37,173a49.87,49.87,0,0,1,95.26,0,8.18,8.18,0,0,1-5.39,10.25,7,7,0,0,1-1.5.3v0.07H84.61v0a8.68,8.68,0,0,1-1.85-.35A8.18,8.18,0,0,1,77.37,173Z"/><g class="cls-4"><path class="cls-5" d="M88.31,190.41a38.41,38.41,0,0,1,73.38,0,6.3,6.3,0,0,1-4.15,7.9,5.35,5.35,0,0,1-1.16.23v0.05H93.89v0a6.68,6.68,0,0,1-1.43-.27A6.3,6.3,0,0,1,88.31,190.41Z"/></g><path class="cls-3" d="M74,88.08a7.51,7.51,0,0,1-2.12-.31l-37.35-11a7.5,7.5,0,0,1,4.24-14.39l37.35,11A7.5,7.5,0,0,1,74,88.08Z"/><path class="cls-3" d="M176,88.08a7.5,7.5,0,0,1-2.12-14.7l37.35-11a7.5,7.5,0,1,1,4.24,14.39l-37.35,11A7.52,7.52,0,0,1,176,88.08Z"/></svg>