<svg id="Layer_1" data-name="Layer 1" xmlns="http://www.w3.org/2000/svg" viewBox="0 0 250 250"><defs><style>.cls-1{fill:#f3c161;}.cls-2{fill:#1a3b5e;}.cls-3{fill:#e54c66;}.cls-4{fill:#375576;opacity:0.25;}.cls-5{fill:none;stroke:#1a3b5e;stroke-linecap:round;stroke-linejoin:round;stroke-width:12px;}</style></defs><title>Emoji-Party-Pack</title><circle class="cls-1" cx="116.33" cy="125" r="120.67"/><path class="cls-2" d="M72.86,147.23a8.31,8.31,0,0,0-8.11,9.93,52.52,52.52,0,0,0,103.15,0,8.31,8.31,0,0,0-8.11-9.93H72.86Z"/><path class="cls-3" d="M148.82,147.23v47.39a32.5,32.5,0,0,1-65,0V147.23h65Z"/><path class="cls-4" d="M111.38,194.62a4.94,4.94,0,0,0,9.87,0V147.23h-9.87v47.39Z"/><polyline class="cls-5" points="28.42 93.83 65.77 115.67 28.42 134.34"/><polyline class="cls-5" points="204.25 134.34 166.9 112.5 204.25 93.83"/></svg>