<svg id="Layer_1" data-name="Layer 1" xmlns="http://www.w3.org/2000/svg" xmlns:xlink="http://www.w3.org/1999/xlink" viewBox="0 0 250 250"><defs><style>.cls-1{fill:none;}.cls-2{fill:#f3c161;}.cls-3{fill:#1a3b5e;}.cls-4{clip-path:url(#clip-path);}.cls-5{fill:#e54c66;}.cls-6{fill:#fff;}.cls-7{fill:#81dbf4;}</style><clipPath id="clip-path"><path class="cls-1" d="M177.25,156.89a51,51,0,0,1-97.49,0,8.38,8.38,0,0,1,5.52-10.49,7.11,7.11,0,0,1,1.54-.31V146h83v0a8.88,8.88,0,0,1,1.89.36A8.38,8.38,0,0,1,177.25,156.89Z"/></clipPath></defs><title>Emoji-Party-Pack</title><circle class="cls-2" cx="128.5" cy="125" r="112.92"/><path class="cls-3" d="M177.25,156.89a51,51,0,0,1-97.49,0,8.38,8.38,0,0,1,5.52-10.49,7.11,7.11,0,0,1,1.54-.31V146h83v0a8.88,8.88,0,0,1,1.89.36A8.38,8.38,0,0,1,177.25,156.89Z"/><g class="cls-4"><path class="cls-5" d="M79.76,205.62a51,51,0,0,1,97.49,0,8.38,8.38,0,0,1-5.52,10.49,7.11,7.11,0,0,1-1.54.31v0.07h-83v0a8.88,8.88,0,0,1-1.89-.36A8.38,8.38,0,0,1,79.76,205.62Z"/></g><path class="cls-6" d="M87.94,146h81.12a0,0,0,0,1,0,0v0a13.6,13.6,0,0,1-13.6,13.6H101.54A13.6,13.6,0,0,1,87.94,146v0A0,0,0,0,1,87.94,146Z"/><path class="cls-3" d="M80.92,129.68a5.62,5.62,0,0,1-5.58-5,11.86,11.86,0,0,0-23.58,0,5.61,5.61,0,0,1-11.17-1.19,23.09,23.09,0,0,1,45.91,0A5.63,5.63,0,0,1,80.92,129.68Z"/><path class="cls-3" d="M210.82,129.68a5.62,5.62,0,0,1-5.58-5,11.86,11.86,0,0,0-23.58,0,5.61,5.61,0,0,1-11.17-1.19,23.09,23.09,0,0,1,45.91,0A5.63,5.63,0,0,1,210.82,129.68Z"/><g id="_Group_" data-name="&lt;Group&gt;"><g id="_Group_2" data-name="&lt;Group&gt;"><path class="cls-7" d="M41.23,184.37a21.23,21.23,0,0,1-40-14.25c2.54-7.14,17.26-22,27.36-31.69a6.82,6.82,0,0,1,11.48,4.09C41.8,156.38,43.77,177.24,41.23,184.37Z"/></g></g><g id="_Group_3" data-name="&lt;Group&gt;"><g id="_Group_4" data-name="&lt;Group&gt;"><path class="cls-7" d="M219.08,172.51a15.92,15.92,0,1,0,30-10.69c-1.91-5.35-12.94-16.53-20.52-23.77a5.11,5.11,0,0,0-8.61,3.07C218.66,151.52,217.17,167.16,219.08,172.51Z"/></g></g></svg>