<svg id="Layer_1" data-name="Layer 1" xmlns="http://www.w3.org/2000/svg" viewBox="0 0 250 250"><defs><style>.cls-1{fill:#f3c161;}.cls-2{fill:#1a3b5e;}.cls-3{fill:#e54c66;}.cls-4{opacity:0.25;}.cls-5{fill:#375576;}</style></defs><title>Emoji-Party-Pack</title><circle class="cls-1" cx="125" cy="125" r="120.67"/><circle class="cls-2" cx="55.6" cy="117.33" r="18.67"/><circle class="cls-2" cx="194.4" cy="117.33" r="18.67"/><path class="cls-2" d="M72.9,176.25a54.54,54.54,0,0,1,104.18,0,9,9,0,0,1-5.9,11.22,7.6,7.6,0,0,1-1.65.33v0.08H80.82v0a9.49,9.49,0,0,1-2-.38A9,9,0,0,1,72.9,176.25Z"/><path class="cls-3" d="M165.4,180.25a42.31,42.31,0,0,1-80.83,0,6.94,6.94,0,0,1,4.58-8.7,5.9,5.9,0,0,1,1.28-.26v-0.06h68.83v0a7.36,7.36,0,0,1,1.57.29A6.94,6.94,0,0,1,165.4,180.25Z"/><path class="cls-3" d="M125,193a3.8,3.8,0,0,1-3.8-3.8V172.77a3.8,3.8,0,1,1,7.59,0v16.41A3.8,3.8,0,0,1,125,193Z"/><g class="cls-4"><path class="cls-5" d="M125,193a3.8,3.8,0,0,1-3.8-3.8V172.77a3.8,3.8,0,1,1,7.59,0v16.41A3.8,3.8,0,0,1,125,193Z"/></g></svg>