<svg id="Layer_1" data-name="Layer 1" xmlns="http://www.w3.org/2000/svg" xmlns:xlink="http://www.w3.org/1999/xlink" viewBox="0 0 250 250"><defs><style>.cls-1,.cls-6{fill:none;}.cls-2{fill:#f3c161;}.cls-3{clip-path:url(#clip-path);}.cls-4,.cls-5{fill:#81dbf4;stroke:#81dbf4;}.cls-4,.cls-5,.cls-6{stroke-linecap:round;stroke-linejoin:round;}.cls-4,.cls-6{stroke-width:12px;}.cls-5{stroke-width:11.66px;}.cls-6{stroke:#1a3b5e;}.cls-7{fill:#1a3b5e;}.cls-8{clip-path:url(#clip-path-2);}.cls-9{fill:#e54c66;}</style><clipPath id="clip-path"><circle class="cls-1" cx="125" cy="125" r="120.67"/></clipPath><clipPath id="clip-path-2"><path class="cls-1" d="M77.37,178.67a49.87,49.87,0,0,1,95.26,0,8.18,8.18,0,0,1-5.39,10.25,7,7,0,0,1-1.5.3v0.07H84.62v0a8.68,8.68,0,0,1-1.85-.35A8.18,8.18,0,0,1,77.37,178.67Z"/></clipPath></defs><title>Emoji-Party-Pack</title><circle class="cls-2" cx="125" cy="125" r="120.67"/><g class="cls-3"><path class="cls-4" d="M74.1,125.34c-0.63-9.68-8.66-1-18.5-1s-17.87-8.68-18.5,1H37V246.67H74.16V125.34H74.1Z"/><path class="cls-5" d="M212.38,124.85c-0.62-9.41-8.42-.51-18-0.51s-17.36-8.9-18,.51h-0.06v117.9h36.08V124.85h-0.06Z"/></g><path class="cls-6" d="M175.84,107.67a18.67,18.67,0,0,0,37.13,0"/><path class="cls-6" d="M37,107.67a18.67,18.67,0,0,0,37.13,0"/><path class="cls-7" d="M77.37,178.67a49.87,49.87,0,0,1,95.26,0,8.18,8.18,0,0,1-5.39,10.25,7,7,0,0,1-1.5.3v0.07H84.62v0a8.68,8.68,0,0,1-1.85-.35A8.18,8.18,0,0,1,77.37,178.67Z"/><g class="cls-8"><path class="cls-9" d="M88.31,196.07a38.41,38.41,0,0,1,73.38,0,6.3,6.3,0,0,1-4.15,7.9,5.35,5.35,0,0,1-1.16.23v0.05H93.89v0a6.68,6.68,0,0,1-1.43-.27A6.3,6.3,0,0,1,88.31,196.07Z"/></g></svg>