<svg id="Layer_1" data-name="Layer 1" xmlns="http://www.w3.org/2000/svg" xmlns:xlink="http://www.w3.org/1999/xlink" viewBox="0 0 250 250"><defs><style>.cls-1{fill:none;}.cls-2{fill:#f3c161;}.cls-3{fill:#1a3b5e;}.cls-4{clip-path:url(#clip-path);}.cls-5{fill:#e54c66;}.cls-6{fill:#fff;}</style><clipPath id="clip-path"><path class="cls-1" d="M175.4,164.08a54.54,54.54,0,0,1-104.18,0,9,9,0,0,1,5.9-11.22,7.6,7.6,0,0,1,1.65-.33v-0.08h88.71v0a9.49,9.49,0,0,1,2,.38A9,9,0,0,1,175.4,164.08Z"/></clipPath></defs><title>Emoji-Party-Pack</title><circle class="cls-2" cx="123.31" cy="125" r="120.67"/><circle class="cls-3" cx="53.9" cy="117.33" r="18.67"/><path class="cls-3" d="M175.4,164.08a54.54,54.54,0,0,1-104.18,0,9,9,0,0,1,5.9-11.22,7.6,7.6,0,0,1,1.65-.33v-0.08h88.71v0a9.49,9.49,0,0,1,2,.38A9,9,0,0,1,175.4,164.08Z"/><g class="cls-4"><path class="cls-5" d="M71.22,216.15a54.54,54.54,0,0,1,104.18,0,9,9,0,0,1-5.9,11.22,7.6,7.6,0,0,1-1.65.33v0.08H79.14v0a9.49,9.49,0,0,1-2-.38A9,9,0,0,1,71.22,216.15Z"/></g><path class="cls-6" d="M80,152.45h86.69a0,0,0,0,1,0,0v0A14.53,14.53,0,0,1,152.12,167H94.5A14.53,14.53,0,0,1,80,152.46v0A0,0,0,0,1,80,152.45Z"/><path class="cls-3" d="M243.76,86.82L222.47,89.6a9.1,9.1,0,0,0-6.33-4.11h0a198.75,198.75,0,0,0-58.39,0,9.08,9.08,0,0,0-4.59,2.11L23.54,46.54c-4-1.3-6,4.84-1.94,6.12L150.06,93.35C149.9,94.63,150,93,150,108.56a37,37,0,0,0,74,0V95.88l20.65-2.69C248.81,92.64,247.95,86.25,243.76,86.82Z"/></svg>