<svg id="Layer_1" data-name="Layer 1" xmlns="http://www.w3.org/2000/svg" xmlns:xlink="http://www.w3.org/1999/xlink" viewBox="0 0 250 250"><defs><style>.cls-1{fill:none;}.cls-2{clip-path:url(#clip-path);}.cls-3{opacity:0.2;}.cls-4{fill:#1a3b5e;}.cls-5{fill:#f3c161;}.cls-6{clip-path:url(#clip-path-2);}.cls-7{fill:#e54c66;}.cls-8{fill:#fff;}.cls-9{opacity:0.8;}.cls-10{fill:#06442b;}.cls-11{fill:#ef933b;}</style><clipPath id="clip-path"><circle class="cls-1" cx="123.31" cy="-175" r="120.67"/></clipPath><clipPath id="clip-path-2"><path class="cls-1" d="M177.09,159.08a54.54,54.54,0,0,1-104.18,0,9,9,0,0,1,5.9-11.22,7.6,7.6,0,0,1,1.65-.33v-0.08h88.71v0a9.49,9.49,0,0,1,2,.38A9,9,0,0,1,177.09,159.08Z"/></clipPath></defs><title>Emoji-Party-Pack</title><g class="cls-2"><g class="cls-3"><circle class="cls-4" cx="123.31" cy="-51" r="120.67"/></g></g><circle class="cls-5" cx="125" cy="125" r="120.67"/><circle class="cls-4" cx="55.6" cy="117.33" r="18.67"/><circle class="cls-4" cx="194.4" cy="117.33" r="18.67"/><path class="cls-4" d="M177.09,159.08a54.54,54.54,0,0,1-104.18,0,9,9,0,0,1,5.9-11.22,7.6,7.6,0,0,1,1.65-.33v-0.08h88.71v0a9.49,9.49,0,0,1,2,.38A9,9,0,0,1,177.09,159.08Z"/><g class="cls-6"><path class="cls-7" d="M72.91,211.15a54.54,54.54,0,0,1,104.18,0,9,9,0,0,1-5.9,11.22,7.6,7.6,0,0,1-1.65.33v0.08H80.84v0a9.49,9.49,0,0,1-2-.38A9,9,0,0,1,72.91,211.15Z"/></g><path class="cls-8" d="M81.66,147.45h86.69a0,0,0,0,1,0,0v0A14.53,14.53,0,0,1,153.81,162H96.19a14.53,14.53,0,0,1-14.53-14.53v0A0,0,0,0,1,81.66,147.45Z"/><g class="cls-9"><path class="cls-10" d="M55.53,160h0A49.17,49.17,0,0,1,6.36,110.87V92.21a12.14,12.14,0,0,1,10.36-12h0a264.81,264.81,0,0,1,77.61,0h0a12.14,12.14,0,0,1,10.36,12v18.66A49.17,49.17,0,0,1,55.53,160Z"/></g><g class="cls-9"><path class="cls-10" d="M194.46,160h0a49.17,49.17,0,0,1-49.17-49.17V92.21a12.14,12.14,0,0,1,10.36-12h0a264.81,264.81,0,0,1,77.61,0h0a12.14,12.14,0,0,1,10.36,12v18.66A49.17,49.17,0,0,1,194.46,160Z"/></g><path class="cls-11" d="M233.74,77a267.58,267.58,0,0,0-78.55,0,15.5,15.5,0,0,0-12.75,12H107.56a15.57,15.57,0,0,0-6.13-9.27C91.31,72.52,41.7,73.26,16.26,77,3.53,78.91-.24,95.41,6.36,95.41a3.2,3.2,0,0,0,3.2-3.2,9,9,0,0,1,7.63-8.84,261.43,261.43,0,0,1,76.68,0,9,9,0,0,1,7.63,8.84v18.66c0,4.23,6.4,4.24,6.4,0V95.41h34.19v15.46c0,4.23,6.4,4.24,6.4,0V92.21a9,9,0,0,1,7.63-8.84,261.3,261.3,0,0,1,76.68,0,9,9,0,0,1,7.63,8.84,3.2,3.2,0,0,0,6.4,0A15.43,15.43,0,0,0,233.74,77Z"/></svg>