<svg id="Layer_1" data-name="Layer 1" xmlns="http://www.w3.org/2000/svg" xmlns:xlink="http://www.w3.org/1999/xlink" viewBox="0 0 250 250"><defs><style>.cls-1,.cls-6{fill:none;}.cls-2{fill:#f3c161;}.cls-3{fill:#1a3b5e;}.cls-4{clip-path:url(#clip-path);}.cls-5{fill:#e54c66;}.cls-6{stroke:#1a3b5e;stroke-linecap:round;stroke-linejoin:round;stroke-width:15px;}</style><clipPath id="clip-path"><path class="cls-1" d="M173,160.13a50.24,50.24,0,0,1-96,0,8.24,8.24,0,0,1,5.43-10.33,7,7,0,0,1,1.52-.3v-0.07h81.72v0a8.74,8.74,0,0,1,1.87.35A8.24,8.24,0,0,1,173,160.13Z"/></clipPath></defs><title>Emoji-Party-Pack</title><circle class="cls-2" cx="125" cy="125" r="120.67"/><path class="cls-3" d="M173,160.13a50.24,50.24,0,0,1-96,0,8.24,8.24,0,0,1,5.43-10.33,7,7,0,0,1,1.52-.3v-0.07h81.72v0a8.74,8.74,0,0,1,1.87.35A8.24,8.24,0,0,1,173,160.13Z"/><g class="cls-4"><path class="cls-5" d="M77,208.1a50.24,50.24,0,0,1,96,0,8.24,8.24,0,0,1-5.43,10.33,7,7,0,0,1-1.52.3v0.07H84.32v0a8.74,8.74,0,0,1-1.87-.35A8.24,8.24,0,0,1,77,208.1Z"/></g><path class="cls-6" d="M33.44,73.49a30.49,30.49,0,0,1,41.12-13"/><path class="cls-6" d="M216.56,73.49a30.49,30.49,0,0,0-41.12-13"/><path class="cls-3" d="M218.75,92.52a3.07,3.07,0,1,0-6.14,0,11.9,11.9,0,0,1-1.73,6.17,12.07,12.07,0,0,1-1.77,2.29,18.21,18.21,0,0,0,1.23-2.9,18,18,0,0,0,.88-5.55,3.07,3.07,0,1,0-6.14,0,11.83,11.83,0,0,1-.47,3.31,12.06,12.06,0,0,1-1.35,3,20.08,20.08,0,0,0-2.93-1.51,19.6,19.6,0,0,0-7.57-1.53,19.89,19.89,0,1,0,18.31,12.25c-0.08-.19-0.15-0.38-0.24-0.57,0.36-.24.7-0.5,1-0.77A18.1,18.1,0,0,0,218.75,92.52Z"/><path class="cls-3" d="M64.84,97.33a19.75,19.75,0,0,0-18.1,1.52,11.9,11.9,0,0,1-1.82-6.33,3.07,3.07,0,0,0-6.14,0,18,18,0,0,0,2.1,8.45,12,12,0,0,1-3.5-8.45,3.07,3.07,0,0,0-6.14,0,18.13,18.13,0,0,0,7.94,15A19.82,19.82,0,1,0,64.84,97.33Z"/></svg>