<svg id="Layer_1" data-name="Layer 1" xmlns="http://www.w3.org/2000/svg" viewBox="0 0 250 250"><defs><style>.cls-1{fill:#f3c161;}.cls-2{fill:#1a3b5e;}.cls-3{fill:#fff;}.cls-4{fill:#81dbf4;}</style></defs><title>Emoji-Party-Pack</title><circle class="cls-1" cx="120.03" cy="125" r="119.03"/><circle class="cls-2" cx="51.57" cy="117.43" r="18.42"/><circle class="cls-2" cx="188.49" cy="117.43" r="18.42"/><path class="cls-3" d="M167.36,159.65a49.56,49.56,0,0,1-94.66,0,8.13,8.13,0,0,1,5.36-10.19,6.91,6.91,0,0,1,1.5-.3v-0.07h80.61v0a8.62,8.62,0,0,1,1.84.35A8.13,8.13,0,0,1,167.36,159.65Z"/><path class="cls-2" d="M204.05,88.58a7.36,7.36,0,0,1-3.62-1L163.59,66.92A7.4,7.4,0,1,1,170.84,54l36.84,20.71A7.4,7.4,0,0,1,204.05,88.58Z"/><path class="cls-2" d="M29.8,88.58a7.4,7.4,0,0,1-3.63-13.85L63,54a7.4,7.4,0,1,1,7.25,12.9L33.42,87.63A7.37,7.37,0,0,1,29.8,88.58Z"/><g id="_Group_" data-name="&lt;Group&gt;"><g id="_Group_2" data-name="&lt;Group&gt;"><path class="cls-4" d="M249,75.5a23.51,23.51,0,1,1-47,0c0-8.39,9.81-29.41,16.76-43.24a7.55,7.55,0,0,1,13.5,0C239.19,46.09,249,67.11,249,75.5Z"/></g></g></svg>