<svg id="Layer_1" data-name="Layer 1" xmlns="http://www.w3.org/2000/svg" xmlns:xlink="http://www.w3.org/1999/xlink" viewBox="0 0 250 250"><defs><style>.cls-1{fill:none;}.cls-2{fill:#f3c161;}.cls-3{fill:#1a3b5e;}.cls-4{clip-path:url(#clip-path);}.cls-5{fill:#e54c66;}.cls-6{fill:#fff;}.cls-7{fill:#81dbf4;}</style><clipPath id="clip-path"><path class="cls-1" d="M171.06,157.27a51.65,51.65,0,0,1-98.67,0A8.48,8.48,0,0,1,78,146.65a7.2,7.2,0,0,1,1.56-.31v-0.07h84v0a9,9,0,0,1,1.92.36A8.48,8.48,0,0,1,171.06,157.27Z"/></clipPath></defs><title>Emoji-Party-Pack</title><circle class="cls-2" cx="121.72" cy="125" r="114.29"/><path class="cls-3" d="M171.06,157.27a51.65,51.65,0,0,1-98.67,0A8.48,8.48,0,0,1,78,146.65a7.2,7.2,0,0,1,1.56-.31v-0.07h84v0a9,9,0,0,1,1.92.36A8.48,8.48,0,0,1,171.06,157.27Z"/><g class="cls-4"><path class="cls-5" d="M72.39,206.6a51.65,51.65,0,0,1,98.67,0,8.48,8.48,0,0,1-5.59,10.62,7.2,7.2,0,0,1-1.56.31v0.07h-84v0a9,9,0,0,1-1.92-.36A8.48,8.48,0,0,1,72.39,206.6Z"/></g><path class="cls-6" d="M80.67,146.27h82.11a0,0,0,0,1,0,0v0A13.76,13.76,0,0,1,149,160H94.43a13.76,13.76,0,0,1-13.76-13.76v0A0,0,0,0,1,80.67,146.27Z"/><path class="cls-3" d="M73.56,129.74a5.68,5.68,0,0,1-5.64-5.08,12,12,0,0,0-23.86,0,5.68,5.68,0,0,1-11.3-1.2,23.37,23.37,0,0,1,46.47,0A5.69,5.69,0,0,1,73.56,129.74Z"/><path class="cls-3" d="M205,129.74a5.68,5.68,0,0,1-5.64-5.08,12,12,0,0,0-23.86,0,5.68,5.68,0,0,1-11.3-1.2,23.37,23.37,0,0,1,46.47,0A5.69,5.69,0,0,1,205,129.74Z"/><g id="_Group_" data-name="&lt;Group&gt;"><g id="_Group_2" data-name="&lt;Group&gt;"><path class="cls-7" d="M250,70.68a22.58,22.58,0,1,1-45.15,0c0-8.06,9.42-28.24,16.09-41.51a7.25,7.25,0,0,1,13,0C240.58,42.45,250,62.63,250,70.68Z"/></g></g><g id="_Group_3" data-name="&lt;Group&gt;"><g id="_Group_4" data-name="&lt;Group&gt;"><path class="cls-7" d="M35.16,169.45a17.58,17.58,0,1,1-35.16,0c0-6.27,7.34-22,12.53-32.33a5.65,5.65,0,0,1,10.1,0C27.82,147.46,35.16,163.18,35.16,169.45Z"/></g></g><g id="_Group_5" data-name="&lt;Group&gt;"><g id="_Group_6" data-name="&lt;Group&gt;"><path class="cls-7" d="M198.71,36.63a11.25,11.25,0,1,1-22.5,0c0-4,4.7-14.07,8-20.69a3.61,3.61,0,0,1,6.46,0C194,22.56,198.71,32.62,198.71,36.63Z"/></g></g></svg>