<svg id="Layer_1" data-name="Layer 1" xmlns="http://www.w3.org/2000/svg" xmlns:xlink="http://www.w3.org/1999/xlink" viewBox="0 0 250 250"><defs><style>.cls-1{fill:none;}.cls-2{fill:#f3c161;}.cls-3{fill:#1a3b5e;}.cls-4{clip-path:url(#clip-path);}.cls-5{fill:#e54c66;}.cls-6{fill:#fff;}.cls-7{fill:#81dbf4;}</style><clipPath id="clip-path"><path class="cls-1" d="M171.74,158.68a53.9,53.9,0,0,1-103,0,8.85,8.85,0,0,1,5.83-11.08,7.51,7.51,0,0,1,1.63-.33v-0.07h87.68v0a9.38,9.38,0,0,1,2,.38A8.85,8.85,0,0,1,171.74,158.68Z"/></clipPath></defs><title>Emoji-Party-Pack</title><circle class="cls-2" cx="120.26" cy="125" r="119.26"/><circle class="cls-3" cx="51.67" cy="117.42" r="18.46"/><circle class="cls-3" cx="188.86" cy="117.42" r="18.46"/><path class="cls-3" d="M171.74,158.68a53.9,53.9,0,0,1-103,0,8.85,8.85,0,0,1,5.83-11.08,7.51,7.51,0,0,1,1.63-.33v-0.07h87.68v0a9.38,9.38,0,0,1,2,.38A8.85,8.85,0,0,1,171.74,158.68Z"/><g class="cls-4"><path class="cls-5" d="M68.78,210.15a53.9,53.9,0,0,1,103,0,8.85,8.85,0,0,1-5.83,11.08,7.51,7.51,0,0,1-1.63.33v0.07H76.61v0a9.38,9.38,0,0,1-2-.38A8.85,8.85,0,0,1,68.78,210.15Z"/></g><path class="cls-6" d="M77.42,147.19H163.1a0,0,0,0,1,0,0v0a14.36,14.36,0,0,1-14.36,14.36h-57A14.36,14.36,0,0,1,77.42,147.2v0A0,0,0,0,1,77.42,147.19Z"/><path class="cls-3" d="M207.56,88.51a7.37,7.37,0,0,1-3.63-1L167,66.8a7.41,7.41,0,1,1,7.27-12.92L211.2,74.64A7.41,7.41,0,0,1,207.56,88.51Z"/><path class="cls-3" d="M33,88.51a7.41,7.41,0,0,1-3.64-13.87L66.24,53.88A7.41,7.41,0,1,1,73.5,66.8L36.59,87.56A7.38,7.38,0,0,1,33,88.51Z"/><g id="_Group_" data-name="&lt;Group&gt;"><g id="_Group_2" data-name="&lt;Group&gt;"><path class="cls-7" d="M249,75.4a23.56,23.56,0,1,1-47.12,0c0-8.41,9.83-29.47,16.79-43.32a7.57,7.57,0,0,1,13.53,0C239.17,45.94,249,67,249,75.4Z"/></g></g></svg>