<svg id="Layer_1" data-name="Layer 1" xmlns="http://www.w3.org/2000/svg" xmlns:xlink="http://www.w3.org/1999/xlink" viewBox="0 0 250 250"><defs><style>.cls-1{fill:none;}.cls-2{fill:#f3c161;}.cls-3{fill:#1a3b5e;}.cls-4{clip-path:url(#clip-path);}.cls-5{fill:#e54c66;}.cls-6{fill:#fff;}</style><clipPath id="clip-path"><path class="cls-1" d="M177.09,159.08a54.54,54.54,0,0,1-104.18,0,9,9,0,0,1,5.9-11.22,7.6,7.6,0,0,1,1.65-.33v-0.08h88.71v0a9.49,9.49,0,0,1,2,.38A9,9,0,0,1,177.09,159.08Z"/></clipPath></defs><title>Emoji-Party-Pack</title><circle class="cls-2" cx="125" cy="125" r="120.67"/><circle class="cls-3" cx="55.6" cy="117.33" r="18.67"/><circle class="cls-3" cx="194.4" cy="117.33" r="18.67"/><path class="cls-3" d="M177.09,159.08a54.54,54.54,0,0,1-104.18,0,9,9,0,0,1,5.9-11.22,7.6,7.6,0,0,1,1.65-.33v-0.08h88.71v0a9.49,9.49,0,0,1,2,.38A9,9,0,0,1,177.09,159.08Z"/><g class="cls-4"><path class="cls-5" d="M72.91,211.15a54.54,54.54,0,0,1,104.18,0,9,9,0,0,1-5.9,11.22,7.6,7.6,0,0,1-1.65.33v0.08H80.84v0a9.49,9.49,0,0,1-2-.38A9,9,0,0,1,72.91,211.15Z"/></g><path class="cls-6" d="M81.66,147.45h86.69a0,0,0,0,1,0,0v0A14.53,14.53,0,0,1,153.81,162H96.19a14.53,14.53,0,0,1-14.53-14.53v0a0,0,0,0,1,0,0Z"/><path class="cls-3" d="M213.33,88.08a7.46,7.46,0,0,1-3.67-1l-37.35-21A7.5,7.5,0,1,1,179.66,53L217,74A7.5,7.5,0,0,1,213.33,88.08Z"/><path class="cls-3" d="M36.67,88.08A7.5,7.5,0,0,1,33,74L70.34,53a7.5,7.5,0,1,1,7.35,13.07l-37.35,21A7.47,7.47,0,0,1,36.67,88.08Z"/></svg>