<svg id="Layer_1" data-name="Layer 1" xmlns="http://www.w3.org/2000/svg" xmlns:xlink="http://www.w3.org/1999/xlink" viewBox="0 0 250 250"><defs><style>.cls-1,.cls-6{fill:none;}.cls-2{fill:#f3c161;}.cls-3{clip-path:url(#clip-path);}.cls-4{fill:#1a3b5e;}.cls-5{fill:#fff;}.cls-6{stroke:#f1f1f2;stroke-linecap:round;stroke-miterlimit:10;stroke-width:5.06px;}.cls-7{fill:#db6649;opacity:0.5;}</style><clipPath id="clip-path"><path class="cls-1" d="M177.09,157.85a54.54,54.54,0,0,1-104.18,0,9,9,0,0,1,5.9-11.22,7.6,7.6,0,0,1,1.65-.33v-0.08h88.71v0a9.49,9.49,0,0,1,2,.38A9,9,0,0,1,177.09,157.85Z"/></clipPath></defs><title>Emoji-Party-Pack</title><circle class="cls-2" cx="125" cy="125" r="120.67"/><g class="cls-3"><path class="cls-4" d="M177.09,157.85a54.54,54.54,0,0,1-104.18,0,9,9,0,0,1,5.9-11.22,7.6,7.6,0,0,1,1.65-.33v-0.08h88.71v0a9.49,9.49,0,0,1,2,.38A9,9,0,0,1,177.09,157.85Z"/><rect class="cls-5" x="101.58" y="136.42" width="46.84" height="34.18" rx="10.13" ry="10.13"/><line class="cls-6" x1="125" y1="138.95" x2="125" y2="162.37"/></g><circle class="cls-7" cx="199.33" cy="152.62" r="4.17"/><circle class="cls-7" cx="221.37" cy="152.62" r="4.17"/><circle class="cls-7" cx="210.35" cy="166.11" r="4.17"/><circle class="cls-7" cx="29.91" cy="152.62" r="4.17"/><circle class="cls-7" cx="51.94" cy="152.62" r="4.17"/><circle class="cls-7" cx="40.92" cy="166.11" r="4.17"/><path class="cls-4" d="M218.75,92.52a3.07,3.07,0,1,0-6.14,0,11.9,11.9,0,0,1-1.73,6.17,12.07,12.07,0,0,1-1.77,2.29,18.21,18.21,0,0,0,1.23-2.9,18,18,0,0,0,.88-5.55,3.07,3.07,0,1,0-6.14,0,11.83,11.83,0,0,1-.47,3.31,12.06,12.06,0,0,1-1.35,3,20.08,20.08,0,0,0-2.93-1.51,19.6,19.6,0,0,0-7.57-1.53,19.89,19.89,0,1,0,18.31,12.25c-0.08-.19-0.15-0.38-0.24-0.57,0.36-.24.7-0.5,1-0.77A18.1,18.1,0,0,0,218.75,92.52Z"/><path class="cls-4" d="M64.84,97.33a19.75,19.75,0,0,0-18.1,1.52,11.9,11.9,0,0,1-1.82-6.33,3.07,3.07,0,0,0-6.14,0,18,18,0,0,0,2.1,8.45,12,12,0,0,1-3.5-8.45,3.07,3.07,0,0,0-6.14,0,18.13,18.13,0,0,0,7.94,15A19.82,19.82,0,1,0,64.84,97.33Z"/></svg>