<svg id="Layer_1" data-name="Layer 1" xmlns="http://www.w3.org/2000/svg" xmlns:xlink="http://www.w3.org/1999/xlink" viewBox="0 0 250 250"><defs><style>.cls-1{fill:none;}.cls-2{fill:#f3c161;}.cls-3{fill:#1a3b5e;}.cls-4{clip-path:url(#clip-path);}.cls-5{fill:#e54c66;}</style><clipPath id="clip-path"><path class="cls-1" d="M173,160.13a50.24,50.24,0,0,1-96,0,8.24,8.24,0,0,1,5.43-10.33,7,7,0,0,1,1.52-.3v-0.07h81.72v0a8.74,8.74,0,0,1,1.87.35A8.24,8.24,0,0,1,173,160.13Z"/></clipPath></defs><title>Emoji-Party-Pack</title><circle class="cls-2" cx="125" cy="125" r="120.67"/><circle class="cls-3" cx="55.6" cy="117.33" r="18.67"/><circle class="cls-3" cx="194.4" cy="117.33" r="18.67"/><path class="cls-3" d="M173,160.13a50.24,50.24,0,0,1-96,0,8.24,8.24,0,0,1,5.43-10.33,7,7,0,0,1,1.52-.3v-0.07h81.72v0a8.74,8.74,0,0,1,1.87.35A8.24,8.24,0,0,1,173,160.13Z"/><g class="cls-4"><path class="cls-5" d="M77,208.1a50.24,50.24,0,0,1,96,0,8.24,8.24,0,0,1-5.43,10.33,7,7,0,0,1-1.52.3v0.07H84.32v0a8.74,8.74,0,0,1-1.87-.35A8.24,8.24,0,0,1,77,208.1Z"/></g></svg>