<svg id="Layer_1" data-name="Layer 1" xmlns="http://www.w3.org/2000/svg" viewBox="0 0 250 250"><defs><style>.cls-1{fill:#f1f2f2;}.cls-2{fill:#1a3b5e;}</style></defs><title>Emoji-Party-Pack</title><ellipse class="cls-1" cx="125" cy="94.7" rx="120.67" ry="90.63"/><circle class="cls-1" cx="92.03" cy="225.92" r="20"/><circle class="cls-1" cx="126.03" cy="225.92" r="20"/><circle class="cls-1" cx="160.03" cy="225.92" r="20"/><rect class="cls-1" x="72.03" y="149.92" width="108" height="76"/><path class="cls-2" d="M111.83,109.72c0,14.37-32.49,26-46.86,26a26,26,0,0,1,0-52C79.34,83.7,111.83,95.35,111.83,109.72Z"/><path class="cls-2" d="M216.07,109.72a26,26,0,0,1-26,26c-14.37,0-46.86-11.65-46.86-26s32.49-26,46.86-26A26,26,0,0,1,216.07,109.72Z"/><path class="cls-2" d="M127,171.2c-9.25,0-16.74.5-16.74-8.74s7.5-30.16,16.74-30.16,16.74,20.91,16.74,30.16S136.28,171.2,127,171.2Z"/><circle class="cls-1" cx="65.08" cy="174.42" r="27"/><circle class="cls-1" cx="187.39" cy="174.42" r="27"/></svg>