<svg id="Layer_1" data-name="Layer 1" xmlns="http://www.w3.org/2000/svg" viewBox="0 0 250 250"><defs><style>.cls-1{fill:#f3c161;}.cls-2{fill:#1a3b5e;}.cls-3{fill:#ffedbc;}</style></defs><title>Emoji-Party-Pack</title><circle class="cls-1" cx="125" cy="125" r="120.67"/><path class="cls-2" d="M98.41,137.91a5,5,0,0,0-4.9,6,31.75,31.75,0,0,0,62.36,0,5,5,0,0,0-4.9-6H98.41Z"/><path class="cls-3" d="M55.6,141.07L35.5,151.64a4.68,4.68,0,0,1-6.78-4.93l3.84-22.38L16.29,108.47a4.68,4.68,0,0,1,2.59-8l22.47-3.27L51.4,76.86a4.68,4.68,0,0,1,8.39,0L69.84,97.23l22.47,3.27a4.68,4.68,0,0,1,2.59,8L78.64,124.32l3.84,22.38a4.68,4.68,0,0,1-6.78,4.93Z"/><path class="cls-3" d="M194.4,141.07l-20.1,10.57a4.68,4.68,0,0,1-6.78-4.93l3.84-22.38-16.26-15.85a4.68,4.68,0,0,1,2.59-8l22.47-3.27,10.05-20.37a4.68,4.68,0,0,1,8.39,0l10.05,20.37,22.47,3.27a4.68,4.68,0,0,1,2.59,8l-16.26,15.85,3.84,22.38a4.68,4.68,0,0,1-6.78,4.93Z"/></svg>