<svg id="Layer_1" data-name="Layer 1" xmlns="http://www.w3.org/2000/svg" xmlns:xlink="http://www.w3.org/1999/xlink" viewBox="0 0 250 250"><defs><style>.cls-1,.cls-7{fill:none;}.cls-2{fill:#1a3b5e;}.cls-3{fill:#a73e5c;}.cls-4{clip-path:url(#clip-path);}.cls-5{fill:#e54c66;}.cls-6{fill:#fff;}.cls-7{stroke:#1a3b5e;stroke-linecap:round;stroke-linejoin:round;stroke-width:14.03px;}</style><clipPath id="clip-path"><path id="SVGID" class="cls-1" d="M173.76,156.88a51,51,0,0,1-97.47,0,8.37,8.37,0,0,1,5.52-10.49,7.11,7.11,0,0,1,1.54-.31V146h83v0a8.88,8.88,0,0,1,1.89.36A8.37,8.37,0,0,1,173.76,156.88Z"/></clipPath></defs><title>Emoji-Party-Pack</title><path class="cls-2" d="M26.59,97.21a1.54,1.54,0,0,1-2.47.66,25.65,25.65,0,0,0-3.59-2.69C3,82.66-6.71,56.21,8.65,34.22L9.9,34.57C11.63,44,14.67,49.78,22.82,54.85L23,55c4.33,2,7.62,2.94,12.84,1.59A1.42,1.42,0,0,0,36.56,56a1.59,1.59,0,0,1,1.16-.68l0.75-.06a1.53,1.53,0,0,1,1.57,2Z"/><path class="cls-2" d="M211.62,55.21l0.74,0.05a1.55,1.55,0,0,1,1.17.69,1.52,1.52,0,0,0,1.24.72c4.86,1.18,8.12.21,12.31-1.73l0.19-.1c8.17-5.08,11.19-10.86,12.91-20.27l1.25-.35c4.32,6.18,6.25,10.31,7.45,18.91,0,0.05,0,.11,0,0.16,1.61,28.75-17.69,40-22.76,44.42l-0.18.16a1.53,1.53,0,0,1-2.46-.67l-13.45-40A1.53,1.53,0,0,1,211.62,55.21Z"/><circle class="cls-3" cx="125.03" cy="125" r="112.9"/><circle class="cls-2" cx="60.09" cy="117.82" r="17.47"/><circle class="cls-2" cx="189.96" cy="117.82" r="17.47"/><path class="cls-2" d="M173.76,156.88a51,51,0,0,1-97.47,0,8.37,8.37,0,0,1,5.52-10.49,7.11,7.11,0,0,1,1.54-.31V146h83v0a8.88,8.88,0,0,1,1.89.36A8.37,8.37,0,0,1,173.76,156.88Z"/><g class="cls-4"><path class="cls-5" d="M76.29,205.6a51,51,0,0,1,97.47,0,8.37,8.37,0,0,1-5.52,10.49,7.11,7.11,0,0,1-1.54.31v0.07h-83v0a8.88,8.88,0,0,1-1.89-.36A8.37,8.37,0,0,1,76.29,205.6Z"/></g><path class="cls-6" d="M84.47,146h81.11a0,0,0,0,1,0,0v0a13.6,13.6,0,0,1-13.6,13.6H98.07A13.6,13.6,0,0,1,84.47,146v0A0,0,0,0,1,84.47,146Z"/><line class="cls-7" x1="42.38" y1="80.5" x2="77.32" y2="90.79"/><line class="cls-7" x1="207.67" y1="80.5" x2="172.73" y2="90.79"/></svg>