<svg id="Layer_1" data-name="Layer 1" xmlns="http://www.w3.org/2000/svg" viewBox="0 0 250 250"><defs><style>.cls-1{fill:#f3c161;}.cls-2{fill:#1a3b5e;}.cls-3{fill:#e54c66;}.cls-4{fill:#375576;opacity:0.25;}</style></defs><title>Emoji-Party-Pack</title><circle class="cls-1" cx="125" cy="125" r="120.67"/><path class="cls-2" d="M125,183.88A43.52,43.52,0,0,1,83.22,153.1,7.19,7.19,0,1,1,97,148.85a29.37,29.37,0,0,0,56.09,0,7.19,7.19,0,0,1,13.73,4.25A43.52,43.52,0,0,1,125,183.88Z"/><path class="cls-3" d="M174.41,171.9L163.48,161A43.43,43.43,0,0,1,151,175.36l10,10a3.4,3.4,0,1,1-4.81,4.81L145.1,179a43.83,43.83,0,0,1-20.1,4.84c-0.65,0-1.3,0-1.94,0l19.71,19.71A22.38,22.38,0,1,0,174.41,171.9Z"/><path class="cls-3" d="M156.19,190.13a3.4,3.4,0,1,0,4.81-4.81l-10-10A43.39,43.39,0,0,1,145.1,179Z"/><path class="cls-4" d="M156.19,190.13a3.4,3.4,0,1,0,4.81-4.81l-10-10A43.39,43.39,0,0,1,145.1,179Z"/><path class="cls-2" d="M218.75,94.59a3.07,3.07,0,1,0-6.14,0,11.9,11.9,0,0,1-1.73,6.17,12.07,12.07,0,0,1-1.77,2.29,18.21,18.21,0,0,0,1.23-2.9,18,18,0,0,0,.88-5.55,3.07,3.07,0,1,0-6.14,0,11.83,11.83,0,0,1-.47,3.31,12.06,12.06,0,0,1-1.35,3,20.08,20.08,0,0,0-2.93-1.51,19.6,19.6,0,0,0-7.57-1.53,19.89,19.89,0,1,0,18.31,12.25c-0.08-.19-0.15-0.38-0.24-0.57,0.36-.24.7-0.5,1-0.77A18.1,18.1,0,0,0,218.75,94.59Z"/><path class="cls-2" d="M64.84,99.39a19.75,19.75,0,0,0-18.1,1.52,11.9,11.9,0,0,1-1.82-6.33,3.07,3.07,0,0,0-6.14,0,18,18,0,0,0,2.1,8.45,12,12,0,0,1-3.5-8.45,3.07,3.07,0,0,0-6.14,0,18.13,18.13,0,0,0,7.94,15A19.82,19.82,0,1,0,64.84,99.39Z"/></svg>