<svg id="Layer_1" data-name="Layer 1" xmlns="http://www.w3.org/2000/svg" xmlns:xlink="http://www.w3.org/1999/xlink" viewBox="0 0 250 250"><defs><style>.cls-1,.cls-4{fill:none;}.cls-2{fill:#f3c161;}.cls-3{fill:#1a3b5e;}.cls-4{stroke:#1a3b5e;stroke-linecap:round;stroke-linejoin:round;stroke-width:15px;}.cls-5{clip-path:url(#clip-path);}.cls-6{fill:#e54c66;}.cls-7{fill:#fff;}</style><clipPath id="clip-path"><path id="SVGID" class="cls-1" d="M177.09,159.08a54.54,54.54,0,0,1-104.18,0,9,9,0,0,1,5.9-11.22,7.6,7.6,0,0,1,1.65-.33v-0.08h88.71v0a9.49,9.49,0,0,1,2,.38A9,9,0,0,1,177.09,159.08Z"/></clipPath></defs><title>Emoji-Party-Pack</title><circle class="cls-2" cx="125" cy="125" r="120.67"/><circle class="cls-3" cx="55.6" cy="117.33" r="18.67"/><circle class="cls-3" cx="194.4" cy="117.33" r="18.67"/><line class="cls-4" x1="37.84" y1="76.03" x2="69.36" y2="60.55"/><line class="cls-4" x1="177.05" y1="83.29" x2="212.16" y2="83.29"/><g class="cls-5"><path class="cls-3" d="M177.09,159.08a54.54,54.54,0,0,1-104.18,0,9,9,0,0,1,5.9-11.22,7.6,7.6,0,0,1,1.65-.33v-0.08h88.71v0a9.49,9.49,0,0,1,2,.38A9,9,0,0,1,177.09,159.08Z"/><g class="cls-5"><path class="cls-6" d="M72.91,211.15a54.54,54.54,0,0,1,104.18,0,9,9,0,0,1-5.9,11.22,7.6,7.6,0,0,1-1.65.33v0.08H80.84v0a9.49,9.49,0,0,1-2-.38A9,9,0,0,1,72.91,211.15Z"/></g><circle class="cls-7" cx="93.65" cy="148.58" r="12.48"/><circle class="cls-7" cx="114.55" cy="148.58" r="12.48"/><circle class="cls-7" cx="135.45" cy="148.58" r="12.48"/><circle class="cls-7" cx="156.35" cy="148.58" r="12.48"/></g></svg>