<svg id="Layer_1" data-name="Layer 1" xmlns="http://www.w3.org/2000/svg" viewBox="0 0 250 250"><defs><style>.cls-1{fill:#f3c161;}.cls-2{fill:#1a3b5e;}</style></defs><title>Emoji-Party-Pack</title><circle class="cls-1" cx="125" cy="125" r="120.67"/><path class="cls-2" d="M71.6,140.83a7.48,7.48,0,0,1-5.3-2.2l-32-32A7.5,7.5,0,0,1,44.9,96l32,32A7.5,7.5,0,0,1,71.6,140.83Z"/><path class="cls-2" d="M39.59,140.83a7.5,7.5,0,0,1-5.3-12.8l32-32A7.5,7.5,0,0,1,76.9,106.63l-32,32A7.48,7.48,0,0,1,39.59,140.83Z"/><path class="cls-2" d="M210.41,140.83a7.48,7.48,0,0,1-5.3-2.2l-32-32A7.5,7.5,0,0,1,183.7,96l32,32A7.5,7.5,0,0,1,210.41,140.83Z"/><path class="cls-2" d="M178.4,140.83a7.5,7.5,0,0,1-5.3-12.8l32-32a7.5,7.5,0,0,1,10.61,10.61l-32,32A7.48,7.48,0,0,1,178.4,140.83Z"/><path class="cls-2" d="M141.52,178.59h-33a8.45,8.45,0,1,1,0-16.9h33A8.45,8.45,0,1,1,141.52,178.59Z"/></svg>