<svg id="Layer_1" data-name="Layer 1" xmlns="http://www.w3.org/2000/svg" viewBox="0 0 250 250"><defs><style>.cls-1{fill:#f3c161;}.cls-2{fill:#1a3b5e;}.cls-3{fill:#e54c66;}.cls-4{opacity:0.25;}.cls-5{fill:#375576;}</style></defs><title>Emoji-Party-Pack</title><circle class="cls-1" cx="125" cy="125" r="120.67"/><circle class="cls-2" cx="55.6" cy="117.33" r="18.67"/><circle class="cls-2" cx="194.4" cy="117.33" r="18.67"/><path class="cls-2" d="M125,183.88A43.52,43.52,0,0,1,83.22,153.1,7.19,7.19,0,1,1,97,148.85a29.37,29.37,0,0,0,56.09,0,7.19,7.19,0,0,1,13.73,4.25A43.52,43.52,0,0,1,125,183.88Z"/><path class="cls-3" d="M174.41,171.9L163.48,161A43.43,43.43,0,0,1,151,175.36l10,10a3.4,3.4,0,1,1-4.81,4.81L145.1,179a43.83,43.83,0,0,1-20.1,4.84c-0.65,0-1.3,0-1.94,0l19.71,19.71A22.38,22.38,0,1,0,174.41,171.9Z"/><path class="cls-3" d="M156.19,190.13a3.4,3.4,0,1,0,4.81-4.81l-10-10A43.39,43.39,0,0,1,145.1,179Z"/><g class="cls-4"><path class="cls-5" d="M156.19,190.13a3.4,3.4,0,1,0,4.81-4.81l-10-10A43.39,43.39,0,0,1,145.1,179Z"/></g></svg>