<svg id="Layer_1" data-name="Layer 1" xmlns="http://www.w3.org/2000/svg" xmlns:xlink="http://www.w3.org/1999/xlink" viewBox="0 0 250 250"><defs><style>.cls-1{fill:none;}.cls-2{fill:#f3c161;}.cls-3{fill:#1a3b5e;}.cls-4{clip-path:url(#clip-path);}.cls-5{fill:#e54c66;}.cls-6{fill:#ffedbc;}</style><clipPath id="clip-path"><path id="SVGID" class="cls-1" d="M173,160.13a50.24,50.24,0,0,1-96,0,8.24,8.24,0,0,1,5.43-10.33,7,7,0,0,1,1.52-.3v-0.07h81.72v0a8.74,8.74,0,0,1,1.87.35A8.24,8.24,0,0,1,173,160.13Z"/></clipPath></defs><title>Emoji-Party-Pack</title><circle class="cls-2" cx="125" cy="125" r="120.67"/><path class="cls-3" d="M173,160.13a50.24,50.24,0,0,1-96,0,8.24,8.24,0,0,1,5.43-10.33,7,7,0,0,1,1.52-.3v-0.07h81.72v0a8.74,8.74,0,0,1,1.87.35A8.24,8.24,0,0,1,173,160.13Z"/><g class="cls-4"><path class="cls-5" d="M77,208.1a50.24,50.24,0,0,1,96,0,8.24,8.24,0,0,1-5.43,10.33,7,7,0,0,1-1.52.3v0.07H84.32v0a8.74,8.74,0,0,1-1.87-.35A8.24,8.24,0,0,1,77,208.1Z"/></g><path class="cls-6" d="M55.6,131.07L35.5,141.64a4.68,4.68,0,0,1-6.78-4.93l3.84-22.38L16.29,98.47a4.68,4.68,0,0,1,2.59-8l22.47-3.27L51.4,66.86a4.68,4.68,0,0,1,8.39,0L69.84,87.23l22.47,3.27a4.68,4.68,0,0,1,2.59,8L78.64,114.32l3.84,22.38a4.68,4.68,0,0,1-6.78,4.93Z"/><path class="cls-6" d="M194.4,131.07l-20.1,10.57a4.68,4.68,0,0,1-6.78-4.93l3.84-22.38L155.09,98.47a4.68,4.68,0,0,1,2.59-8l22.47-3.27,10.05-20.37a4.68,4.68,0,0,1,8.39,0l10.05,20.37,22.47,3.27a4.68,4.68,0,0,1,2.59,8l-16.26,15.85,3.84,22.38a4.68,4.68,0,0,1-6.78,4.93Z"/></svg>