<svg id="Layer_1" data-name="Layer 1" xmlns="http://www.w3.org/2000/svg" xmlns:xlink="http://www.w3.org/1999/xlink" viewBox="0 0 250 250"><defs><style>.cls-1{fill:none;}.cls-2{fill:#f3c161;}.cls-3{clip-path:url(#clip-path);}.cls-4{opacity:0.2;}.cls-5{fill:#1a3b5e;}.cls-6{clip-path:url(#clip-path-2);}.cls-7{fill:#e54c66;}</style><clipPath id="clip-path"><circle class="cls-1" cx="123.31" cy="125" r="120.67"/></clipPath><clipPath id="clip-path-2"><path class="cls-1" d="M75.68,173a49.87,49.87,0,0,1,95.26,0,8.18,8.18,0,0,1-5.39,10.25,7,7,0,0,1-1.5.3v0.07H82.92v0a8.68,8.68,0,0,1-1.85-.35A8.18,8.18,0,0,1,75.68,173Z"/></clipPath></defs><title>Emoji-Party-Pack</title><circle class="cls-2" cx="123.31" cy="125" r="120.67"/><g class="cls-3"><g class="cls-4"><circle class="cls-5" cx="123.31" cy="249" r="120.67"/></g></g><circle class="cls-5" cx="53.9" cy="117.33" r="18.67"/><path class="cls-5" d="M243.76,87.82L222.47,90.6a9.1,9.1,0,0,0-6.33-4.11h0a198.75,198.75,0,0,0-58.39,0,9.08,9.08,0,0,0-4.59,2.11L23.54,47.54c-4-1.3-6,4.84-1.94,6.12L150.06,94.35C149.9,95.63,150,94,150,109.56a37,37,0,0,0,74,0V96.88l20.65-2.69C248.81,93.64,247.95,87.25,243.76,87.82Z"/><path class="cls-5" d="M75.68,173a49.87,49.87,0,0,1,95.26,0,8.18,8.18,0,0,1-5.39,10.25,7,7,0,0,1-1.5.3v0.07H82.92v0a8.68,8.68,0,0,1-1.85-.35A8.18,8.18,0,0,1,75.68,173Z"/><g class="cls-6"><path class="cls-7" d="M86.62,190.41a38.41,38.41,0,0,1,73.38,0,6.3,6.3,0,0,1-4.15,7.9,5.35,5.35,0,0,1-1.16.23v0.05H92.2v0a6.68,6.68,0,0,1-1.43-.27A6.3,6.3,0,0,1,86.62,190.41Z"/></g><path class="cls-5" d="M72.58,97.35A7.51,7.51,0,0,1,70.46,97L33.11,86a7.5,7.5,0,1,1,4.24-14.39l37.35,11A7.5,7.5,0,0,1,72.58,97.35Z"/></svg>