<svg id="Layer_1" data-name="Layer 1" xmlns="http://www.w3.org/2000/svg" xmlns:xlink="http://www.w3.org/1999/xlink" viewBox="0 0 250 250"><defs><style>.cls-1{fill:none;}.cls-2{fill:#f3c161;}.cls-3{fill:#1a3b5e;}.cls-4{clip-path:url(#clip-path);}.cls-5{fill:#e54c66;}.cls-6{fill:#fff;}</style><clipPath id="clip-path"><path class="cls-1" d="M125,135h0a33.66,33.66,0,0,1,33.66,33.66v40.67a15,15,0,0,1-15,15H106.34a15,15,0,0,1-15-15V168.66A33.66,33.66,0,0,1,125,135Z"/></clipPath></defs><title>Emoji-Party-Pack</title><circle class="cls-2" cx="125" cy="125" r="120.67"/><path class="cls-3" d="M125,135h0a33.66,33.66,0,0,1,33.66,33.66v40.67a15,15,0,0,1-15,15H106.34a15,15,0,0,1-15-15V168.66A33.66,33.66,0,0,1,125,135Z"/><g class="cls-4"><path class="cls-5" d="M88.31,217.41a38.41,38.41,0,0,1,73.38,0,6.3,6.3,0,0,1-4.15,7.9,5.35,5.35,0,0,1-1.16.23v0.05H93.89v0a6.68,6.68,0,0,1-1.43-.27A6.3,6.3,0,0,1,88.31,217.41Z"/></g><circle class="cls-6" cx="55.53" cy="115.66" r="33.98"/><circle class="cls-6" cx="194.47" cy="115.66" r="33.98"/><circle class="cls-3" cx="55.53" cy="115.66" r="13.3"/><circle class="cls-3" cx="194.47" cy="115.66" r="13.3"/></svg>