<svg id="Layer_1" data-name="Layer 1" xmlns="http://www.w3.org/2000/svg" xmlns:xlink="http://www.w3.org/1999/xlink" viewBox="0 0 250 250"><defs><style>.cls-1{fill:none;}.cls-2{fill:#f3c161;}.cls-3{fill:#1a3b5e;}.cls-4{clip-path:url(#clip-path);}.cls-5{fill:#e54c66;}.cls-6{fill:#fff;}.cls-7{opacity:0.5;}.cls-8{fill:#f0788c;}.cls-9{fill:#81dbf4;}</style><clipPath id="clip-path"><path class="cls-1" d="M168.16,158a52.77,52.77,0,0,1-100.8,0,8.66,8.66,0,0,1,5.71-10.85,7.35,7.35,0,0,1,1.59-.32v-0.07h85.83v0a9.18,9.18,0,0,1,2,.37A8.66,8.66,0,0,1,168.16,158Z"/></clipPath></defs><title>Emoji-Party-Pack</title><circle class="cls-2" cx="117.76" cy="125" r="116.76"/><path class="cls-3" d="M168.16,158a52.77,52.77,0,0,1-100.8,0,8.66,8.66,0,0,1,5.71-10.85,7.35,7.35,0,0,1,1.59-.32v-0.07h85.83v0a9.18,9.18,0,0,1,2,.37A8.66,8.66,0,0,1,168.16,158Z"/><g class="cls-4"><path class="cls-5" d="M67.36,208.36a52.77,52.77,0,0,1,100.8,0,8.66,8.66,0,0,1-5.71,10.85,7.35,7.35,0,0,1-1.59.32v0.07H75v0a9.18,9.18,0,0,1-2-.37A8.66,8.66,0,0,1,67.36,208.36Z"/></g><path class="cls-6" d="M75.82,146.73H159.7a0,0,0,0,1,0,0v0a14.06,14.06,0,0,1-14.06,14.06H89.88a14.06,14.06,0,0,1-14.06-14.06v0A0,0,0,0,1,75.82,146.73Z"/><g class="cls-7"><ellipse class="cls-8" cx="40.67" cy="157.4" rx="17.42" ry="8.77"/></g><g class="cls-7"><ellipse class="cls-8" cx="194.84" cy="157.4" rx="17.42" ry="8.77"/></g><g id="_Group_" data-name="&lt;Group&gt;"><g id="_Group_2" data-name="&lt;Group&gt;"><path class="cls-9" d="M249,76.45a23.06,23.06,0,0,1-46.13,0c0-8.23,9.63-28.85,16.44-42.41a7.41,7.41,0,0,1,13.24,0C239.37,47.6,249,68.22,249,76.45Z"/></g></g><path class="cls-3" d="M68.56,130.81a5.81,5.81,0,0,1-5.77-5.19,12.26,12.26,0,0,0-24.38,0,5.81,5.81,0,0,1-11.55-1.23,23.87,23.87,0,0,1,47.47,0A5.82,5.82,0,0,1,68.56,130.81Z"/><path class="cls-3" d="M202.87,130.81a5.81,5.81,0,0,1-5.77-5.19,12.26,12.26,0,0,0-24.38,0,5.81,5.81,0,0,1-11.55-1.23,23.87,23.87,0,0,1,47.47,0A5.82,5.82,0,0,1,202.87,130.81Z"/></svg>