<svg id="Layer_1" data-name="Layer 1" xmlns="http://www.w3.org/2000/svg" viewBox="0 0 250 250"><defs><style>.cls-1{fill:#f3c161;}.cls-2{fill:none;stroke:#1a3b5e;stroke-linecap:round;stroke-linejoin:round;stroke-width:12px;}.cls-3{fill:#1a3b5e;}.cls-4{fill:#e54c66;}.cls-5{fill:#375576;opacity:0.25;}</style></defs><title>Emoji-Party-Pack</title><circle class="cls-1" cx="125" cy="125" r="120.67"/><path class="cls-2" d="M74.16,124A18.67,18.67,0,0,0,37,124"/><path class="cls-2" d="M213,124a18.67,18.67,0,0,0-37.13,0"/><path class="cls-3" d="M81.52,147.23a8.31,8.31,0,0,0-8.11,9.93,52.52,52.52,0,0,0,103.15,0,8.31,8.31,0,0,0-8.11-9.93H81.52Z"/><path class="cls-4" d="M157.49,147.23v47.39a32.5,32.5,0,0,1-65,0V147.23h65Z"/><path class="cls-5" d="M120,194.62a4.94,4.94,0,1,0,9.87,0V147.23H120v47.39Z"/></svg>