<svg id="Layer_1" data-name="Layer 1" xmlns="http://www.w3.org/2000/svg" xmlns:xlink="http://www.w3.org/1999/xlink" viewBox="0 0 250 250"><defs><style>.cls-1,.cls-7{fill:none;}.cls-2{fill:#f3c161;}.cls-3{fill:#1a3b5e;}.cls-4{clip-path:url(#clip-path);}.cls-5{fill:#e54c66;}.cls-6{fill:#fff;}.cls-7{stroke:#1a3b5e;stroke-linecap:round;stroke-linejoin:round;stroke-width:14.83px;}.cls-8{fill:#81dbf4;}</style><clipPath id="clip-path"><path class="cls-1" d="M171.74,158.68a53.9,53.9,0,0,1-103,0,8.85,8.85,0,0,1,5.83-11.08,7.51,7.51,0,0,1,1.63-.33v-0.07h87.68v0a9.38,9.38,0,0,1,2,.38A8.85,8.85,0,0,1,171.74,158.68Z"/></clipPath></defs><title>Emoji-Party-Pack</title><circle class="cls-2" cx="120.26" cy="125" r="119.26"/><path class="cls-3" d="M171.74,158.68a53.9,53.9,0,0,1-103,0,8.85,8.85,0,0,1,5.83-11.08,7.51,7.51,0,0,1,1.63-.33v-0.07h87.68v0a9.38,9.38,0,0,1,2,.38A8.85,8.85,0,0,1,171.74,158.68Z"/><g class="cls-4"><path class="cls-5" d="M68.78,210.15a53.9,53.9,0,0,1,103,0,8.85,8.85,0,0,1-5.83,11.08,7.51,7.51,0,0,1-1.63.33v0.07H76.61v0a9.38,9.38,0,0,1-2-.38A8.85,8.85,0,0,1,68.78,210.15Z"/></g><path class="cls-6" d="M77.42,147.19H163.1a0,0,0,0,1,0,0v0a14.36,14.36,0,0,1-14.36,14.36h-57A14.36,14.36,0,0,1,77.42,147.2v0A0,0,0,0,1,77.42,147.19Z"/><line class="cls-7" x1="207.57" y1="71.21" x2="170.65" y2="50.46"/><line class="cls-7" x1="32.96" y1="71.21" x2="69.87" y2="50.46"/><g id="_Group_" data-name="&lt;Group&gt;"><path id="_Path_" data-name="&lt;Path&gt;" class="cls-8" d="M249,65.52a23.56,23.56,0,1,1-47.12,0c0-8.41,9.83-29.47,16.79-43.32a7.57,7.57,0,0,1,13.53,0C239.17,36.05,249,57.11,249,65.52Z"/></g><path class="cls-3" d="M212.92,94.94a3,3,0,1,0-6.07,0,11.76,11.76,0,0,1-1.71,6.09,11.93,11.93,0,0,1-1.75,2.26,18,18,0,0,0,1.21-2.87,17.77,17.77,0,0,0,.87-5.49,3,3,0,1,0-6.07,0,11.69,11.69,0,0,1-.47,3.27,11.92,11.92,0,0,1-1.34,3,19.85,19.85,0,0,0-2.9-1.49,19.38,19.38,0,0,0-7.49-1.51,19.66,19.66,0,1,0,18.09,12.11c-0.08-.19-0.15-0.38-0.24-0.56,0.35-.24.69-0.5,1-0.76A17.89,17.89,0,0,0,212.92,94.94Z"/><path class="cls-3" d="M60.81,99.69a19.52,19.52,0,0,0-17.89,1.5,11.76,11.76,0,0,1-1.8-6.25,3,3,0,0,0-6.07,0,17.81,17.81,0,0,0,2.08,8.36,11.82,11.82,0,0,1-3.45-8.36,3,3,0,0,0-6.07,0,17.92,17.92,0,0,0,7.84,14.81A19.59,19.59,0,1,0,60.81,99.69Z"/></svg>