<svg id="Layer_1" data-name="Layer 1" xmlns="http://www.w3.org/2000/svg" viewBox="0 0 250 250"><defs><style>.cls-1{fill:#1a3b5e;}.cls-2{fill:#a73e5c;}.cls-3{fill:none;stroke:#1a3b5e;stroke-linecap:round;stroke-linejoin:round;stroke-width:14.03px;}</style></defs><title>Emoji-Party-Pack</title><path class="cls-1" d="M25.87,99.4l-2.93-2.56C8.85,87.5,1.39,72.26,1.09,59.74c-0.53-6.3,1.48-15,3.62-19a33.75,33.75,0,0,1,3.57-5.89,1,1,0,0,1,1.06-.38h0a1,1,0,0,1,.69.77,28.69,28.69,0,0,0,4,11.21,25.22,25.22,0,0,0,5.49,6.24c2.85,2.51,9,5.7,15.76,4,0.79-.21.94-0.06,1.6-1.35l3.84-.28Z"/><path class="cls-1" d="M209.23,55.09l3.84,0.28a5.7,5.7,0,0,0,.68,1c0.89,0.76,6.36,1.3,9.78,0,6.59-1.75,13.95-8.62,16.43-21.19a1,1,0,0,1,.69-0.76h0a1,1,0,0,1,1.08.39c4,5.88,5.89,10,7.06,18.4A43.44,43.44,0,0,1,248,66.7a47.88,47.88,0,0,1-5.26,13.63c-7.68,12.48-12,13.26-18.63,19.07Z"/><circle class="cls-2" cx="124.99" cy="125" r="112.84"/><circle class="cls-1" cx="60.09" cy="117.83" r="17.46"/><circle class="cls-1" cx="189.89" cy="117.83" r="17.46"/><line class="cls-3" x1="42.39" y1="80.52" x2="77.31" y2="90.8"/><line class="cls-3" x1="207.59" y1="80.52" x2="172.67" y2="90.8"/><path class="cls-1" d="M100.44,144.29a4.7,4.7,0,0,0-4.59,5.61,29.69,29.69,0,0,0,58.31,0,4.7,4.7,0,0,0-4.59-5.61H100.44Z"/></svg>