<svg id="Layer_1" data-name="Layer 1" xmlns="http://www.w3.org/2000/svg" viewBox="0 0 250 250"><defs><style>.cls-1{fill:#f3c161;}.cls-2{fill:#1a3b5e;}</style></defs><title>Emoji-Party-Pack</title><circle class="cls-1" cx="125" cy="125" r="120.67"/><path class="cls-2" d="M84.06,147.91a7.77,7.77,0,0,0-7.58,9.28,49.1,49.1,0,0,0,96.43,0,7.77,7.77,0,0,0-7.58-9.28H84.06Z"/><path class="cls-2" d="M74.46,132a6,6,0,0,1-6-5.37,12.67,12.67,0,0,0-25.19,0,6,6,0,0,1-11.93-1.27,24.67,24.67,0,0,1,49.06,0A6,6,0,0,1,74.46,132Z"/><path class="cls-2" d="M213.27,132a6,6,0,0,1-6-5.37,12.67,12.67,0,0,0-25.19,0,6,6,0,0,1-11.93-1.27,24.67,24.67,0,0,1,49.06,0A6,6,0,0,1,213.27,132Z"/></svg>