<svg id="Layer_1" data-name="Layer 1" xmlns="http://www.w3.org/2000/svg" viewBox="0 0 250 250"><defs><style>.cls-1{fill:#f3c161;}.cls-2{fill:#1a3b5e;}.cls-3{fill:#e54c66;}.cls-4{fill:#375576;opacity:0.25;}</style></defs><title>Emoji-Party-Pack</title><circle class="cls-1" cx="125" cy="125" r="120.67"/><path class="cls-2" d="M81.52,147.23a8.31,8.31,0,0,0-8.11,9.93,52.52,52.52,0,0,0,103.15,0,8.31,8.31,0,0,0-8.11-9.93H81.52Z"/><path class="cls-3" d="M157.49,147.23v47.39a32.5,32.5,0,0,1-65,0V147.23h65Z"/><path class="cls-4" d="M120,194.62a4.94,4.94,0,1,0,9.87,0V147.23H120v47.39Z"/><path class="cls-2" d="M216.79,93.06a3.07,3.07,0,1,0-6.14,0,11.9,11.9,0,0,1-1.73,6.17,12.07,12.07,0,0,1-1.77,2.29,18.21,18.21,0,0,0,1.23-2.9,18,18,0,0,0,.88-5.55,3.07,3.07,0,1,0-6.14,0,11.83,11.83,0,0,1-.47,3.31,12.06,12.06,0,0,1-1.35,3,20.08,20.08,0,0,0-2.93-1.51,19.6,19.6,0,0,0-7.57-1.53,19.89,19.89,0,1,0,18.31,12.25c-0.08-.19-0.15-0.38-0.24-0.57,0.36-.24.7-0.5,1-0.77A18.1,18.1,0,0,0,216.79,93.06Z"/><path class="cls-2" d="M62.88,97.87a19.75,19.75,0,0,0-18.1,1.52A11.9,11.9,0,0,1,43,93.06a3.07,3.07,0,0,0-6.14,0,18,18,0,0,0,2.1,8.45,12,12,0,0,1-3.5-8.45,3.07,3.07,0,0,0-6.14,0,18.13,18.13,0,0,0,7.94,15A19.82,19.82,0,1,0,62.88,97.87Z"/></svg>