<svg id="Layer_1" data-name="Layer 1" xmlns="http://www.w3.org/2000/svg" xmlns:xlink="http://www.w3.org/1999/xlink" viewBox="0 0 250 250"><defs><style>.cls-1,.cls-3,.cls-7{fill:none;}.cls-2{fill:#f3c161;}.cls-3,.cls-7{stroke:#1a3b5e;}.cls-3,.cls-5,.cls-6,.cls-7{stroke-linecap:round;stroke-linejoin:round;}.cls-3{stroke-width:15px;}.cls-4{clip-path:url(#clip-path);}.cls-5,.cls-6{fill:#81dbf4;stroke:#81dbf4;}.cls-5,.cls-7{stroke-width:12px;}.cls-6{stroke-width:11.66px;}.cls-8{fill:#1a3b5e;}.cls-9{clip-path:url(#clip-path-2);}.cls-10{fill:#e54c66;}</style><clipPath id="clip-path"><circle class="cls-1" cx="125" cy="125" r="120.67"/></clipPath><clipPath id="clip-path-2"><path class="cls-1" d="M173,160.13a50.24,50.24,0,0,1-96,0,8.24,8.24,0,0,1,5.43-10.33,7,7,0,0,1,1.52-.3v-0.07h81.72v0a8.74,8.74,0,0,1,1.87.35A8.24,8.24,0,0,1,173,160.13Z"/></clipPath></defs><title>Emoji-Party-Pack</title><circle class="cls-2" cx="125" cy="125" r="120.67"/><line class="cls-3" x1="213.33" y1="80.58" x2="175.99" y2="59.58"/><line class="cls-3" x1="36.67" y1="80.58" x2="74.01" y2="59.58"/><g class="cls-4"><path class="cls-5" d="M74.1,125.34a18.54,18.54,0,0,0-37,0H37V246.67H74.16V125.34H74.1Z"/><path class="cls-6" d="M212.38,124.85a18,18,0,0,0-36,0h-0.06v117.9h36.08V124.85h-0.06Z"/></g><path class="cls-7" d="M74.16,124.34a18.67,18.67,0,0,0-37.13,0"/><path class="cls-7" d="M213,124.34a18.67,18.67,0,0,0-37.13,0"/><path class="cls-8" d="M173,160.13a50.24,50.24,0,0,1-96,0,8.24,8.24,0,0,1,5.43-10.33,7,7,0,0,1,1.52-.3v-0.07h81.72v0a8.74,8.74,0,0,1,1.87.35A8.24,8.24,0,0,1,173,160.13Z"/><g class="cls-9"><path class="cls-10" d="M77,208.1a50.24,50.24,0,0,1,96,0,8.24,8.24,0,0,1-5.43,10.33,7,7,0,0,1-1.52.3v0.07H84.32v0a8.74,8.74,0,0,1-1.87-.35A8.24,8.24,0,0,1,77,208.1Z"/></g></svg>