<svg id="Layer_1" data-name="Layer 1" xmlns="http://www.w3.org/2000/svg" xmlns:xlink="http://www.w3.org/1999/xlink" viewBox="0 0 250 250"><defs><style>.cls-1{fill:none;}.cls-2{fill:#f6b1c3;}.cls-3{fill:#9fbd7c;}.cls-4{fill:#fff;}.cls-5{fill:#81dbf4;}.cls-6{fill:#1a3b5e;}.cls-7{clip-path:url(#clip-path);}.cls-8{fill:#e54c66;}</style><clipPath id="clip-path"><path class="cls-1" d="M77.37,176.39a49.87,49.87,0,0,1,95.26,0,8.18,8.18,0,0,1-5.39,10.25,7,7,0,0,1-1.5.3V187H84.62v0a8.68,8.68,0,0,1-1.85-.35A8.18,8.18,0,0,1,77.37,176.39Z"/></clipPath></defs><title>Emoji-Party-Pack</title><circle class="cls-2" cx="125" cy="125" r="111.34"/><path class="cls-3" d="M231.91,69a22.12,22.12,0,0,1-34.78-15.64,22.1,22.1,0,0,1-24.2-15.53A22.12,22.12,0,0,1,146.29,6.21,120.68,120.68,0,1,0,245.67,125,120.13,120.13,0,0,0,231.91,69Z"/><circle class="cls-4" cx="66.43" cy="106.49" r="29.51"/><circle class="cls-4" cx="194.4" cy="117.33" r="18.67"/><path class="cls-5" d="M82.5,215.34a6,6,0,0,1-6-6V180.79a6,6,0,0,1,12,0v28.55A6,6,0,0,1,82.5,215.34Z"/><path class="cls-5" d="M93.94,235.34a6,6,0,0,1-6-6V180.79a6,6,0,0,1,12,0v48.55A6,6,0,0,1,93.94,235.34Z"/><path class="cls-6" d="M77.37,176.39a49.87,49.87,0,0,1,95.26,0,8.18,8.18,0,0,1-5.39,10.25,7,7,0,0,1-1.5.3V187H84.62v0a8.68,8.68,0,0,1-1.85-.35A8.18,8.18,0,0,1,77.37,176.39Z"/><g class="cls-7"><path class="cls-8" d="M88.31,193.79a38.41,38.41,0,0,1,73.38,0,6.3,6.3,0,0,1-4.15,7.9,5.35,5.35,0,0,1-1.16.23V202H93.89v0a6.68,6.68,0,0,1-1.43-.27A6.3,6.3,0,0,1,88.31,193.79Z"/></g></svg>