<svg id="Layer_1" data-name="Layer 1" xmlns="http://www.w3.org/2000/svg" xmlns:xlink="http://www.w3.org/1999/xlink" viewBox="0 0 250 250"><defs><style>.cls-1,.cls-3,.cls-4{fill:none;}.cls-2{fill:#f3c161;}.cls-3{stroke:#1a3b5e;stroke-linejoin:round;stroke-width:15px;}.cls-3,.cls-4{stroke-linecap:round;}.cls-4{stroke:#81dbf4;stroke-miterlimit:10;stroke-width:12px;}.cls-5{fill:#1a3b5e;}.cls-6{clip-path:url(#clip-path);}.cls-7{fill:#e54c66;}</style><clipPath id="clip-path"><path class="cls-1" d="M77.37,179.92a49.87,49.87,0,0,1,95.26,0,8.18,8.18,0,0,1-5.39,10.25,7,7,0,0,1-1.5.3v0.07H84.62v0a8.68,8.68,0,0,1-1.85-.35A8.18,8.18,0,0,1,77.37,179.92Z"/></clipPath></defs><title>Emoji-Party-Pack</title><circle class="cls-2" cx="125" cy="125" r="120.67"/><line class="cls-3" x1="39.59" y1="101.32" x2="71.6" y2="133.33"/><line class="cls-3" x1="71.6" y1="101.32" x2="39.59" y2="133.33"/><line class="cls-3" x1="178.4" y1="101.32" x2="210.41" y2="133.33"/><line class="cls-3" x1="210.41" y1="101.32" x2="178.4" y2="133.33"/><line class="cls-4" x1="93.58" y1="181.23" x2="93.58" y2="209.78"/><line class="cls-4" x1="105.02" y1="181.23" x2="105.02" y2="229.78"/><path class="cls-5" d="M77.37,179.92a49.87,49.87,0,0,1,95.26,0,8.18,8.18,0,0,1-5.39,10.25,7,7,0,0,1-1.5.3v0.07H84.62v0a8.68,8.68,0,0,1-1.85-.35A8.18,8.18,0,0,1,77.37,179.92Z"/><g class="cls-6"><path class="cls-7" d="M88.31,197.33a38.41,38.41,0,0,1,73.38,0,6.3,6.3,0,0,1-4.15,7.9,5.35,5.35,0,0,1-1.16.23v0.05H93.89v0a6.68,6.68,0,0,1-1.43-.27A6.3,6.3,0,0,1,88.31,197.33Z"/></g></svg>