<svg id="Layer_1" data-name="Layer 1" xmlns="http://www.w3.org/2000/svg" viewBox="0 0 250 250"><defs><style>.cls-1{fill:#f3c161;}.cls-2{fill:#1a3b5e;}.cls-3{fill:#81dbf4;}</style></defs><title>Emoji-Party-Pack</title><circle class="cls-1" cx="125" cy="125" r="120.67"/><circle class="cls-2" cx="55.6" cy="117.33" r="18.67"/><circle class="cls-2" cx="194.4" cy="117.33" r="18.67"/><path class="cls-2" d="M125,143.78a43.52,43.52,0,0,1,41.78,30.78A7.19,7.19,0,0,1,153,178.82a29.37,29.37,0,0,0-56.09,0,7.19,7.19,0,0,1-13.73-4.25A43.52,43.52,0,0,1,125,143.78Z"/><g id="_Group_" data-name="&lt;Group&gt;"><path id="_Path_" data-name="&lt;Path&gt;" class="cls-3" d="M243.33,196.37a23.84,23.84,0,1,1-47.67,0c0-8.51,10-29.81,17-43.83a7.65,7.65,0,0,1,13.69,0C233.38,166.55,243.33,187.86,243.33,196.37Z"/></g></svg>