<svg id="Layer_1" data-name="Layer 1" xmlns="http://www.w3.org/2000/svg" xmlns:xlink="http://www.w3.org/1999/xlink" viewBox="0 0 250 250"><defs><style>.cls-1{fill:none;}.cls-2{fill:#f3c161;}.cls-3{fill:#1a3b5e;}.cls-4{clip-path:url(#clip-path);}.cls-5{fill:#fff;}.cls-6{fill:#f1f1f2;}.cls-7{opacity:0.5;}.cls-8{fill:#db6649;}.cls-9{opacity:0.3;}</style><clipPath id="clip-path"><path class="cls-1" d="M173.5,155.59a50.78,50.78,0,0,1-97,0A8.33,8.33,0,0,1,82,145.14a7.08,7.08,0,0,1,1.53-.31v-0.07h82.6v0a8.84,8.84,0,0,1,1.89.35A8.33,8.33,0,0,1,173.5,155.59Z"/></clipPath></defs><title>Emoji-Party-Pack</title><circle class="cls-2" cx="125" cy="125" r="112.36"/><circle class="cls-3" cx="60.38" cy="114.13" r="17.39"/><circle class="cls-3" cx="189.62" cy="114.13" r="17.39"/><g class="cls-4"><path class="cls-3" d="M173.5,155.59a50.78,50.78,0,0,1-97,0A8.33,8.33,0,0,1,82,145.14a7.08,7.08,0,0,1,1.53-.31v-0.07h82.6v0a8.84,8.84,0,0,1,1.89.35A8.33,8.33,0,0,1,173.5,155.59Z"/><rect class="cls-5" x="103.19" y="135.63" width="43.61" height="31.82" rx="9.43" ry="9.43"/><path class="cls-6" d="M125,162.15a2.36,2.36,0,0,1-2.36-2.36V138a2.36,2.36,0,0,1,4.71,0V159.8A2.36,2.36,0,0,1,125,162.15Z"/></g><g class="cls-7"><circle class="cls-8" cx="194.21" cy="150.72" r="3.88"/></g><g class="cls-7"><circle class="cls-8" cx="214.73" cy="150.72" r="3.88"/></g><g class="cls-7"><circle class="cls-8" cx="204.47" cy="163.28" r="3.88"/></g><g class="cls-7"><circle class="cls-8" cx="36.45" cy="150.72" r="3.88"/></g><g class="cls-7"><circle class="cls-8" cx="56.97" cy="150.72" r="3.88"/></g><g class="cls-7"><circle class="cls-8" cx="46.71" cy="163.28" r="3.88"/></g><g class="cls-9"><path class="cls-5" d="M15.88,89.62H94.26a6.06,6.06,0,0,1,6.06,6.06V117a20.21,20.21,0,0,1-20.21,20.21H21.94A12.12,12.12,0,0,1,9.82,125.13V95.68A6.06,6.06,0,0,1,15.88,89.62Z"/></g><g class="cls-9"><path class="cls-5" d="M155.63,89.62H234a6.06,6.06,0,0,1,6.06,6.06v29.44a12.12,12.12,0,0,1-12.12,12.12H169.78A20.21,20.21,0,0,1,149.57,117V95.68A6.06,6.06,0,0,1,155.63,89.62Z"/></g><path class="cls-3" d="M80.11,140.51H21.95A15.4,15.4,0,0,1,6.56,125.13V95.68a9.33,9.33,0,0,1,9.32-9.32H94.26a9.33,9.33,0,0,1,9.32,9.32V117A23.49,23.49,0,0,1,80.11,140.51ZM15.88,92.88a2.81,2.81,0,0,0-2.8,2.8v29.44A8.87,8.87,0,0,0,21.95,134H80.11A17,17,0,0,0,97.06,117V95.68a2.81,2.81,0,0,0-2.8-2.8H15.88Z"/><path class="cls-3" d="M227.94,140.51H169.78A23.49,23.49,0,0,1,146.31,117V95.68a9.33,9.33,0,0,1,9.32-9.32H234a9.33,9.33,0,0,1,9.32,9.32v29.44A15.4,15.4,0,0,1,227.94,140.51ZM155.63,92.88a2.81,2.81,0,0,0-2.8,2.8V117A17,17,0,0,0,169.78,134h58.17a8.87,8.87,0,0,0,8.86-8.86V95.68a2.81,2.81,0,0,0-2.8-2.8H155.63Z"/><path class="cls-3" d="M242.67,93.48A9.23,9.23,0,0,0,234,86.59H155.63c-7,0-10.28,8.23-8.76,11.27H103c1.51-3-1.69-11.27-8.76-11.27H15.88a9.23,9.23,0,0,0-8.66,6.89H4c-4,0-4,6.06,0,6.06H9.82a3,3,0,0,0,3-3c0-2.09,1.39-3.86,3-3.86,95.9,0,78.3-1.54,81.74,5.22C91,98.09,91.21,108,97.78,108h54.05c6.4,0,6.83-9.53.42-10.06a3,3,0,0,0,.35-1.39c0-2.09,1.39-3.86,3-3.86H234c1.64,0,3,1.77,3,3.86a3,3,0,0,0,3,3H246a3,3,0,0,0,3-3C249,92.87,244.86,93.48,242.67,93.48Z"/></svg>