<svg id="Layer_1" data-name="Layer 1" xmlns="http://www.w3.org/2000/svg" xmlns:xlink="http://www.w3.org/1999/xlink" viewBox="0 0 250 250"><defs><style>.cls-1{fill:none;stroke:#1a3b5e;stroke-linecap:round;stroke-linejoin:round;stroke-width:13.67px;}.cls-2{clip-path:url(#clip-path);}.cls-3{fill:#1a3b5e;}</style><clipPath id="clip-path"><path class="cls-1" d="M168.74,166.14a45.8,45.8,0,0,1-87.48,0,7.52,7.52,0,0,1,5-9.42,6.38,6.38,0,0,1,1.38-.28v-0.06h74.49v0a8,8,0,0,1,1.7.32A7.52,7.52,0,0,1,168.74,166.14Z"/></clipPath></defs><title>Emoji-Party-Pack_Line</title><circle class="cls-1" cx="125" cy="125" r="110"/><path class="cls-1" d="M168.74,166.14a45.8,45.8,0,0,1-87.48,0,7.52,7.52,0,0,1,5-9.42,6.38,6.38,0,0,1,1.38-.28v-0.06h74.49v0a8,8,0,0,1,1.7.32A7.52,7.52,0,0,1,168.74,166.14Z"/><g class="cls-2"><path class="cls-1" d="M81.26,209.87a45.8,45.8,0,0,1,87.48,0,7.52,7.52,0,0,1-5,9.42,6.38,6.38,0,0,1-1.38.28v0.06H87.91v0a8,8,0,0,1-1.7-.32A7.52,7.52,0,0,1,81.26,209.87Z"/></g><path class="cls-1" d="M168.74,166.14a45.8,45.8,0,0,1-87.48,0,7.52,7.52,0,0,1,5-9.42,6.38,6.38,0,0,1,1.38-.28v-0.06h74.49v0a8,8,0,0,1,1.7.32A7.52,7.52,0,0,1,168.74,166.14Z"/><path class="cls-3" d="M68.28,130.67l-16.43,8.64a3.82,3.82,0,0,1-5.55-4L49.44,117,36.15,104a3.82,3.82,0,0,1,2.12-6.52l18.37-2.67L64.85,78.2a3.82,3.82,0,0,1,6.85,0l8.21,16.64,18.37,2.67a3.82,3.82,0,0,1,2.12,6.52L87.12,117l3.14,18.29a3.82,3.82,0,0,1-5.55,4Z"/><path class="cls-3" d="M181.72,130.67l-16.43,8.64a3.82,3.82,0,0,1-5.55-4L162.88,117l-13.29-13a3.82,3.82,0,0,1,2.12-6.52l18.37-2.67,8.21-16.64a3.82,3.82,0,0,1,6.85,0l8.21,16.64,18.37,2.67a3.82,3.82,0,0,1,2.12,6.52l-13.29,13,3.14,18.29a3.82,3.82,0,0,1-5.55,4Z"/></svg>