<svg id="Layer_1" data-name="Layer 1" xmlns="http://www.w3.org/2000/svg" xmlns:xlink="http://www.w3.org/1999/xlink" viewBox="0 0 250 250"><defs><style>.cls-1{fill:none;stroke:#1a3b5e;stroke-linecap:round;stroke-linejoin:round;stroke-width:13.49px;}.cls-2{fill:#1a3b5e;}.cls-3{clip-path:url(#clip-path);}</style><clipPath id="clip-path"><path class="cls-1" d="M168.16,150.42a45.19,45.19,0,0,1-86.33,0,7.42,7.42,0,0,1,4.89-9.29,6.3,6.3,0,0,1,1.36-.27V140.8H161.6v0a7.86,7.86,0,0,1,1.68.31A7.42,7.42,0,0,1,168.16,150.42Z"/></clipPath></defs><title>Emoji-Party-Pack_Line</title><circle class="cls-1" cx="125" cy="118.82" r="108.55"/><circle class="cls-2" cx="62.57" cy="111.92" r="16.8"/><circle class="cls-2" cx="187.43" cy="111.92" r="16.8"/><path class="cls-1" d="M168.16,150.42a45.19,45.19,0,0,1-86.33,0,7.42,7.42,0,0,1,4.89-9.29,6.3,6.3,0,0,1,1.36-.27V140.8H161.6v0a7.86,7.86,0,0,1,1.68.31A7.42,7.42,0,0,1,168.16,150.42Z"/><g class="cls-3"><path class="cls-1" d="M81.84,193.58a45.19,45.19,0,0,1,86.33,0,7.42,7.42,0,0,1-4.89,9.29,6.3,6.3,0,0,1-1.36.27v0.06H88.4v0a7.86,7.86,0,0,1-1.68-.31A7.42,7.42,0,0,1,81.84,193.58Z"/></g><path class="cls-1" d="M168.16,150.42a45.19,45.19,0,0,1-86.33,0,7.42,7.42,0,0,1,4.89-9.29,6.3,6.3,0,0,1,1.36-.27V140.8H161.6v0a7.86,7.86,0,0,1,1.68.31A7.42,7.42,0,0,1,168.16,150.42Z"/><path class="cls-1" d="M42.64,81.48a27.43,27.43,0,0,1,37-11.67"/><path class="cls-1" d="M207.36,81.48a27.43,27.43,0,0,0-37-11.67"/></svg>