<svg id="Layer_1" data-name="Layer 1" xmlns="http://www.w3.org/2000/svg" xmlns:xlink="http://www.w3.org/1999/xlink" viewBox="0 0 250 250"><defs><style>.cls-1{fill:none;stroke:#1a3b5e;stroke-linecap:round;stroke-linejoin:round;stroke-width:13.15px;}.cls-2{fill:#1a3b5e;}.cls-3{clip-path:url(#clip-path);}</style><clipPath id="clip-path"><path class="cls-1" d="M166.47,155.06a47.82,47.82,0,0,1-91.34,0,7.85,7.85,0,0,1,5.17-9.83,6.66,6.66,0,0,1,1.44-.29v-0.07h77.78v0a8.32,8.32,0,0,1,1.78.33A7.85,7.85,0,0,1,166.47,155.06Z"/></clipPath></defs><title>Emoji-Party-Pack_Line</title><path class="cls-1" d="M225.66,111.06A105.8,105.8,0,1,1,120.8,19.39,105.43,105.43,0,0,1,193.21,48"/><circle class="cls-2" cx="59.95" cy="118.46" r="16.37"/><circle class="cls-2" cx="181.65" cy="118.46" r="16.37"/><path class="cls-1" d="M166.47,155.06a47.82,47.82,0,0,1-91.34,0,7.85,7.85,0,0,1,5.17-9.83,6.66,6.66,0,0,1,1.44-.29v-0.07h77.78v0a8.32,8.32,0,0,1,1.78.33A7.85,7.85,0,0,1,166.47,155.06Z"/><g class="cls-3"><path class="cls-1" d="M75.13,200.72a47.82,47.82,0,0,1,91.34,0,7.85,7.85,0,0,1-5.17,9.83,6.66,6.66,0,0,1-1.44.29v0.07H82.07v0a8.32,8.32,0,0,1-1.78-.33A7.85,7.85,0,0,1,75.13,200.72Z"/></g><path class="cls-1" d="M166.47,155.06a47.82,47.82,0,0,1-91.34,0,7.85,7.85,0,0,1,5.17-9.83,6.66,6.66,0,0,1,1.44-.29v-0.07h77.78v0a8.32,8.32,0,0,1,1.78.33A7.85,7.85,0,0,1,166.47,155.06Z"/><line class="cls-1" x1="184.37" y1="78.44" x2="165.5" y2="67.82"/><line class="cls-1" x1="43.35" y1="86.24" x2="76.09" y2="67.82"/><g id="_Group_" data-name="&lt;Group&gt;"><g id="_Group_2" data-name="&lt;Group&gt;"><path class="cls-2" d="M214.1,39.05a6.64,6.64,0,0,1,6,3.7C226.28,55,235,73.73,235,81.19a20.9,20.9,0,0,1-41.8,0c0-7.46,8.72-26.14,14.9-38.43a6.64,6.64,0,0,1,6-3.7m0-13.15a19.76,19.76,0,0,0-17.75,11c-16.3,32.44-16.3,41.08-16.3,44.33a34,34,0,0,0,68.1,0c0-3.25,0-11.89-16.3-44.33a19.76,19.76,0,0,0-17.75-11h0Z"/></g></g><line class="cls-1" x1="82.61" y1="166.19" x2="158.96" y2="166.19"/></svg>