<svg id="Layer_1" data-name="Layer 1" xmlns="http://www.w3.org/2000/svg" viewBox="0 0 250 250"><defs><style>.cls-1{fill:#1a3b5e;}.cls-2{fill:none;stroke:#1a3b5e;stroke-linecap:round;stroke-linejoin:round;stroke-width:13.95px;}</style></defs><title>Emoji-Party-Pack_Line</title><path class="cls-1" d="M113.16,110.79c0,13.37-30.23,24.21-43.6,24.21a24.21,24.21,0,0,1,0-48.42C82.94,86.58,113.16,97.42,113.16,110.79Z"/><path class="cls-1" d="M210.14,110.79A24.21,24.21,0,0,1,185.93,135c-13.37,0-43.6-10.84-43.6-24.21s30.23-24.21,43.6-24.21A24.21,24.21,0,0,1,210.14,110.79Z"/><path class="cls-1" d="M127.3,168c-8.6,0-15.58.47-15.58-8.14s7-28.06,15.58-28.06,15.58,19.45,15.58,28.06S135.9,168,127.3,168Z"/><path class="cls-2" d="M237.67,96.81c0-46.57-50.26-84.31-112.26-84.31S13.15,50.25,13.15,96.81c0,24.09,13.45,45.81,35,61.18a25.13,25.13,0,0,0,28,37.27v23.64a18.59,18.59,0,0,0,34.42,9.77,18.57,18.57,0,0,0,31.63,0,18.59,18.59,0,0,0,34.42-9.77V195.15a25.12,25.12,0,0,0,27.62-38.3C224.87,141.56,237.67,120.31,237.67,96.81Z"/></svg>