<svg id="Layer_1" data-name="Layer 1" xmlns="http://www.w3.org/2000/svg" xmlns:xlink="http://www.w3.org/1999/xlink" viewBox="0 0 250 250"><defs><style>.cls-1{fill:none;stroke:#1a3b5e;stroke-linecap:round;stroke-linejoin:round;stroke-width:13.74px;}.cls-2{clip-path:url(#clip-path);}.cls-3{fill:#1a3b5e;}</style><clipPath id="clip-path"><path class="cls-1" d="M168.95,157.36a46,46,0,0,1-87.89,0,7.55,7.55,0,0,1,5-9.46,6.41,6.41,0,0,1,1.39-.28v-0.06h74.84v0a8,8,0,0,1,1.71.32A7.55,7.55,0,0,1,168.95,157.36Z"/></clipPath></defs><title>Emoji-Party-Pack_Line</title><circle class="cls-1" cx="125" cy="125.18" r="110.52"/><path class="cls-1" d="M168.95,157.36a46,46,0,0,1-87.89,0,7.55,7.55,0,0,1,5-9.46,6.41,6.41,0,0,1,1.39-.28v-0.06h74.84v0a8,8,0,0,1,1.71.32A7.55,7.55,0,0,1,168.95,157.36Z"/><g class="cls-2"><path class="cls-1" d="M81.05,201.29a46,46,0,0,1,87.89,0,7.55,7.55,0,0,1-5,9.46,6.41,6.41,0,0,1-1.39.28v0.06H87.74v0a8,8,0,0,1-1.71-.32A7.55,7.55,0,0,1,81.05,201.29Z"/></g><path class="cls-1" d="M168.95,157.36a46,46,0,0,1-87.89,0,7.55,7.55,0,0,1,5-9.46,6.41,6.41,0,0,1,1.39-.28v-0.06h74.84v0a8,8,0,0,1,1.71.32A7.55,7.55,0,0,1,168.95,157.36Z"/><path id="_Path_" data-name="&lt;Path&gt;" class="cls-3" d="M99.56,104.62a18.87,18.87,0,0,0-35.46-9,18.87,18.87,0,0,0-35.46,9s-2.38,16,32.13,41.18a5.5,5.5,0,0,0,6.42,0C102.2,120.89,99.56,104.62,99.56,104.62Z"/><path id="_Path_2" data-name="&lt;Path&gt;" class="cls-3" d="M221.36,104.62a18.87,18.87,0,0,0-35.46-9,18.87,18.87,0,0,0-35.46,9s-2.38,16,32.13,41.18a5.5,5.5,0,0,0,6.42,0C224,120.89,221.36,104.62,221.36,104.62Z"/></svg>