<svg id="Layer_1" data-name="Layer 1" xmlns="http://www.w3.org/2000/svg" xmlns:xlink="http://www.w3.org/1999/xlink" viewBox="0 0 250 250"><defs><style>.cls-1{fill:none;stroke:#1a3b5e;stroke-linecap:round;stroke-linejoin:round;stroke-width:13.74px;}.cls-2{clip-path:url(#clip-path);}.cls-3{clip-path:url(#clip-path-2);}</style><clipPath id="clip-path"><circle class="cls-1" cx="125" cy="129.15" r="110.52"/></clipPath><clipPath id="clip-path-2"><path class="cls-1" d="M168.95,161.33a46,46,0,0,1-87.89,0,7.55,7.55,0,0,1,5-9.46,6.41,6.41,0,0,1,1.39-.28v-0.06h74.84v0a8,8,0,0,1,1.71.32A7.55,7.55,0,0,1,168.95,161.33Z"/></clipPath></defs><title>Emoji-Party-Pack_Line</title><circle class="cls-1" cx="125" cy="129.15" r="110.52"/><line class="cls-1" x1="205.9" y1="88.47" x2="171.7" y2="69.23"/><line class="cls-1" x1="44.1" y1="88.47" x2="78.3" y2="69.23"/><g class="cls-2"><path class="cls-1" d="M78.38,129.46a17,17,0,0,0-33.89,0H44.43V240.58h34V129.46H78.38Z"/><path class="cls-1" d="M205,129a16.5,16.5,0,0,0-32.93,0H172V237h33V129H205Z"/></g><circle class="cls-1" cx="125" cy="129.15" r="110.52"/><path class="cls-1" d="M168.95,161.33a46,46,0,0,1-87.89,0,7.55,7.55,0,0,1,5-9.46,6.41,6.41,0,0,1,1.39-.28v-0.06h74.84v0a8,8,0,0,1,1.71.32A7.55,7.55,0,0,1,168.95,161.33Z"/><g class="cls-3"><path class="cls-1" d="M81.05,205.26a46,46,0,0,1,87.89,0,7.55,7.55,0,0,1-5,9.46,6.41,6.41,0,0,1-1.39.28v0.06H87.74v0a8,8,0,0,1-1.71-.32A7.55,7.55,0,0,1,81.05,205.26Z"/></g><path class="cls-1" d="M168.95,161.33a46,46,0,0,1-87.89,0,7.55,7.55,0,0,1,5-9.46,6.41,6.41,0,0,1,1.39-.28v-0.06h74.84v0a8,8,0,0,1,1.71.32A7.55,7.55,0,0,1,168.95,161.33Z"/></svg>