<svg id="Layer_1" data-name="Layer 1" xmlns="http://www.w3.org/2000/svg" xmlns:xlink="http://www.w3.org/1999/xlink" viewBox="0 0 250 250"><defs><style>.cls-1{fill:none;stroke:#1a3b5e;stroke-linecap:round;stroke-linejoin:round;stroke-width:13.74px;}.cls-2{clip-path:url(#clip-path);}.cls-3{fill:#1a3b5e;}</style><clipPath id="clip-path"><path class="cls-1" d="M172.71,161.89a49.95,49.95,0,0,1-95.41,0,8.2,8.2,0,0,1,5.4-10.27,7,7,0,0,1,1.51-.3v-0.07h81.25v0a8.69,8.69,0,0,1,1.85.35A8.2,8.2,0,0,1,172.71,161.89Z"/></clipPath></defs><title>Emoji-Party-Pack_Line</title><circle class="cls-1" cx="125" cy="125.18" r="110.52"/><path class="cls-1" d="M172.71,161.89a49.95,49.95,0,0,1-95.41,0,8.2,8.2,0,0,1,5.4-10.27,7,7,0,0,1,1.51-.3v-0.07h81.25v0a8.69,8.69,0,0,1,1.85.35A8.2,8.2,0,0,1,172.71,161.89Z"/><g class="cls-2"><path class="cls-1" d="M77.29,209.58a49.95,49.95,0,0,1,95.41,0,8.2,8.2,0,0,1-5.4,10.27,7,7,0,0,1-1.51.3v0.07H84.55v0a8.69,8.69,0,0,1-1.85-.35A8.2,8.2,0,0,1,77.29,209.58Z"/></g><path class="cls-1" d="M172.71,161.89a49.95,49.95,0,0,1-95.41,0,8.2,8.2,0,0,1,5.4-10.27,7,7,0,0,1,1.51-.3v-0.07h81.25v0a8.69,8.69,0,0,1,1.85.35A8.2,8.2,0,0,1,172.71,161.89Z"/><path id="_Path_" data-name="&lt;Path&gt;" class="cls-3" d="M99.56,104.62a18.87,18.87,0,0,0-35.46-9,18.87,18.87,0,0,0-35.46,9s-2.38,16,32.13,41.18a5.5,5.5,0,0,0,6.42,0C102.2,120.89,99.56,104.62,99.56,104.62Z"/><path id="_Path_2" data-name="&lt;Path&gt;" class="cls-3" d="M221.36,104.62a18.87,18.87,0,0,0-35.46-9,18.87,18.87,0,0,0-35.46,9s-2.38,16,32.13,41.18a5.5,5.5,0,0,0,6.42,0C224,120.89,221.36,104.62,221.36,104.62Z"/><line class="cls-1" x1="84.78" y1="172.6" x2="165.2" y2="172.6"/></svg>