<svg id="Layer_1" data-name="Layer 1" xmlns="http://www.w3.org/2000/svg" xmlns:xlink="http://www.w3.org/1999/xlink" viewBox="0 0 250 250"><defs><style>.cls-1,.cls-2{fill:none;}.cls-2{stroke:#1a3b5e;stroke-linecap:round;stroke-linejoin:round;stroke-width:13.49px;}.cls-3{clip-path:url(#clip-path);}</style><clipPath id="clip-path"><path class="cls-1" d="M82.16,174a44.86,44.86,0,0,1,85.69,0,7.36,7.36,0,0,1-4.85,9.22,6.25,6.25,0,0,1-1.35.27v0.06h-73v0a7.81,7.81,0,0,1-1.67-.31A7.36,7.36,0,0,1,82.16,174Z"/></clipPath></defs><title>Emoji-Party-Pack_Line</title><circle class="cls-2" cx="125" cy="124.56" r="108.55"/><line class="cls-2" x1="48.17" y1="103.26" x2="76.96" y2="132.05"/><line class="cls-2" x1="76.96" y1="103.26" x2="48.17" y2="132.05"/><line class="cls-2" x1="173.04" y1="103.26" x2="201.83" y2="132.05"/><line class="cls-2" x1="201.83" y1="103.26" x2="173.04" y2="132.05"/><line class="cls-2" x1="96.73" y1="184.14" x2="96.73" y2="198.12"/><line class="cls-2" x1="107.02" y1="184.14" x2="107.02" y2="212.52"/><path class="cls-2" d="M82.16,174a44.86,44.86,0,0,1,85.69,0,7.36,7.36,0,0,1-4.85,9.22,6.25,6.25,0,0,1-1.35.27v0.06h-73v0a7.81,7.81,0,0,1-1.67-.31A7.36,7.36,0,0,1,82.16,174Z"/><g class="cls-3"><path class="cls-2" d="M92,189.62a34.56,34.56,0,0,1,66,0,5.67,5.67,0,0,1-3.74,7.11,4.82,4.82,0,0,1-1,.21v0H97v0a6,6,0,0,1-1.28-.24A5.67,5.67,0,0,1,92,189.62Z"/></g></svg>