<svg id="Layer_1" data-name="Layer 1" xmlns="http://www.w3.org/2000/svg" xmlns:xlink="http://www.w3.org/1999/xlink" viewBox="0 0 250 250"><defs><style>.cls-1{fill:none;stroke:#1a3b5e;stroke-linecap:round;stroke-linejoin:round;stroke-width:13.72px;}.cls-2{clip-path:url(#clip-path);}</style><clipPath id="clip-path"><path class="cls-1" d="M81.44,169.4a45.61,45.61,0,0,1,87.12,0,7.48,7.48,0,0,1-4.93,9.38,6.36,6.36,0,0,1-1.38.28v0.06H88.06v0a7.94,7.94,0,0,1-1.69-.32A7.48,7.48,0,0,1,81.44,169.4Z"/></clipPath></defs><title>Emoji-Party-Pack_Line</title><circle class="cls-1" cx="125" cy="125.5" r="110.36"/><path class="cls-1" d="M81.44,169.4a45.61,45.61,0,0,1,87.12,0,7.48,7.48,0,0,1-4.93,9.38,6.36,6.36,0,0,1-1.38.28v0.06H88.06v0a7.94,7.94,0,0,1-1.69-.32A7.48,7.48,0,0,1,81.44,169.4Z"/><g class="cls-2"><path class="cls-1" d="M91.44,185.32a35.13,35.13,0,0,1,67.11,0,5.77,5.77,0,0,1-3.8,7.22,4.9,4.9,0,0,1-1.06.21v0H96.55v0a6.11,6.11,0,0,1-1.3-.24A5.77,5.77,0,0,1,91.44,185.32Z"/></g><path class="cls-1" d="M81.44,169.4a45.61,45.61,0,0,1,87.12,0,7.48,7.48,0,0,1-4.93,9.38,6.36,6.36,0,0,1-1.38.28v0.06H88.06v0a7.94,7.94,0,0,1-1.69-.32A7.48,7.48,0,0,1,81.44,169.4Z"/><polyline class="cls-1" points="44.6 96.99 78.75 116.96 44.6 134.04"/><polyline class="cls-1" points="205.4 134.04 171.25 114.07 205.4 96.99"/></svg>