<svg id="Layer_1" data-name="Layer 1" xmlns="http://www.w3.org/2000/svg" xmlns:xlink="http://www.w3.org/1999/xlink" viewBox="0 0 250 250"><defs><style>.cls-1{fill:none;stroke:#1a3b5e;stroke-linecap:round;stroke-linejoin:round;stroke-width:13.72px;}.cls-2{clip-path:url(#clip-path);}.cls-3{fill:#1a3b5e;}</style><clipPath id="clip-path"><path class="cls-1" d="M125,134.64h0a30.79,30.79,0,0,1,30.79,30.79v37.2a13.72,13.72,0,0,1-13.72,13.72H107.93a13.72,13.72,0,0,1-13.72-13.72v-37.2A30.79,30.79,0,0,1,125,134.64Z"/></clipPath></defs><title>Emoji-Party-Pack_Line</title><circle class="cls-1" cx="125" cy="125.5" r="110.36"/><path class="cls-1" d="M125,134.64h0a30.79,30.79,0,0,1,30.79,30.79v37.2a13.72,13.72,0,0,1-13.72,13.72H107.93a13.72,13.72,0,0,1-13.72-13.72v-37.2A30.79,30.79,0,0,1,125,134.64Z"/><g class="cls-2"><path class="cls-1" d="M91.44,210a35.13,35.13,0,0,1,67.11,0,5.77,5.77,0,0,1-3.8,7.22,4.9,4.9,0,0,1-1.06.21v0H96.55v0a6.11,6.11,0,0,1-1.3-.24A5.77,5.77,0,0,1,91.44,210Z"/></g><path class="cls-1" d="M125,134.64h0a30.79,30.79,0,0,1,30.79,30.79v37.2a13.72,13.72,0,0,1-13.72,13.72H107.93a13.72,13.72,0,0,1-13.72-13.72v-37.2A30.79,30.79,0,0,1,125,134.64Z"/><circle class="cls-1" cx="61.46" cy="116.96" r="31.08"/><circle class="cls-1" cx="188.54" cy="116.96" r="31.08"/><circle class="cls-3" cx="61.46" cy="116.96" r="12.17"/><circle class="cls-3" cx="188.54" cy="116.96" r="12.17"/></svg>