<svg id="Layer_1" data-name="Layer 1" xmlns="http://www.w3.org/2000/svg" viewBox="0 0 250 250"><defs><style>.cls-1,.cls-2{fill:none;stroke:#1a3b5e;stroke-linecap:round;stroke-linejoin:round;stroke-width:13.98px;}.cls-2{opacity:0.25;}</style></defs><title>Emoji-Party-Pack_Line</title><circle class="cls-1" cx="125" cy="125" r="112.5"/><line class="cls-1" x1="45.37" y1="102.93" x2="75.21" y2="132.77"/><line class="cls-1" x1="75.21" y1="102.93" x2="45.37" y2="132.77"/><line class="cls-1" x1="174.79" y1="102.93" x2="204.63" y2="132.77"/><line class="cls-1" x1="204.63" y1="102.93" x2="174.79" y2="132.77"/><path class="cls-1" d="M83.82,180.48v0a8.85,8.85,0,0,1-1.89-.35,8.34,8.34,0,0,1-5.5-10.46,50.85,50.85,0,0,1,97.13,0,8.34,8.34,0,0,1-5.5,10.46,7.09,7.09,0,0,1-1.53.31v0.07"/><path class="cls-1" d="M162.68,173.37a39.45,39.45,0,0,1-75.36,0,6.47,6.47,0,0,1,4.27-8.11,5.5,5.5,0,0,1,1.19-.24V165h64.17v0a6.86,6.86,0,0,1,1.46.27A6.47,6.47,0,0,1,162.68,173.37Z"/><line class="cls-1" x1="125" y1="166.41" x2="125" y2="181.71"/><line class="cls-2" x1="125" y1="166.41" x2="125" y2="181.71"/></svg>