<svg id="Layer_1" data-name="Layer 1" xmlns="http://www.w3.org/2000/svg" xmlns:xlink="http://www.w3.org/1999/xlink" viewBox="0 0 250 250"><defs><style>.cls-1{fill:none;stroke:#1a3b5e;stroke-linecap:round;stroke-linejoin:round;stroke-width:10.3px;}.cls-2{clip-path:url(#clip-path);}.cls-3{fill:#1a3b5e;}</style><clipPath id="clip-path"><path class="cls-1" d="M163.29,154.43a46.81,46.81,0,0,1-89.42,0,7.68,7.68,0,0,1,5.06-9.63,6.52,6.52,0,0,1,1.41-.28v-0.07h76.14v0a8.15,8.15,0,0,1,1.74.33A7.68,7.68,0,0,1,163.29,154.43Z"/></clipPath></defs><title>Emoji-Party-Pack_Line</title><path class="cls-1" d="M220.84,108.69a103.61,103.61,0,1,1-25.59-53.14"/><path class="cls-1" d="M163.29,154.43a46.81,46.81,0,0,1-89.42,0,7.68,7.68,0,0,1,5.06-9.63,6.52,6.52,0,0,1,1.41-.28v-0.07h76.14v0a8.15,8.15,0,0,1,1.74.33A7.68,7.68,0,0,1,163.29,154.43Z"/><g class="cls-2"><path class="cls-1" d="M73.86,199.13a46.81,46.81,0,0,1,89.42,0,7.68,7.68,0,0,1-5.06,9.63,6.52,6.52,0,0,1-1.41.28v0.07H80.67v0a8.15,8.15,0,0,1-1.74-.33A7.68,7.68,0,0,1,73.86,199.13Z"/></g><path class="cls-1" d="M163.29,154.43a46.81,46.81,0,0,1-89.42,0,7.68,7.68,0,0,1,5.06-9.63,6.52,6.52,0,0,1,1.41-.28v-0.07h76.14v0a8.15,8.15,0,0,1,1.74.33A7.68,7.68,0,0,1,163.29,154.43Z"/><ellipse class="cls-3" cx="49.33" cy="153.93" rx="15.45" ry="7.78"/><ellipse class="cls-3" cx="186.96" cy="153.93" rx="15.45" ry="7.78"/><g id="_Group_" data-name="&lt;Group&gt;"><g id="_Group_2" data-name="&lt;Group&gt;"><path class="cls-3" d="M214.54,40.86a6.5,6.5,0,0,1,5.87,3.63c6,12,14.59,30.32,14.59,37.62a20.46,20.46,0,1,1-40.92,0c0-7.3,8.54-25.59,14.59-37.62a6.5,6.5,0,0,1,5.87-3.63m0-10.3a16.79,16.79,0,0,0-15.08,9.3c-15.68,31.21-15.68,39.23-15.68,42.25a30.76,30.76,0,1,0,61.52,0c0-3,0-11-15.68-42.25a16.79,16.79,0,0,0-15.08-9.3h0Z"/></g></g><path class="cls-1" d="M74.94,125.18a16,16,0,0,0-31.87,0"/><path class="cls-1" d="M194.08,125.18a16,16,0,0,0-31.87,0"/><line class="cls-1" x1="79.33" y1="161.71" x2="157.82" y2="161.71"/></svg>