<svg id="Layer_1" data-name="Layer 1" xmlns="http://www.w3.org/2000/svg" xmlns:xlink="http://www.w3.org/1999/xlink" viewBox="0 0 250 250"><defs><style>.cls-1{fill:none;stroke:#1a3b5e;stroke-linecap:round;stroke-linejoin:round;stroke-width:13.49px;}.cls-2{fill:#1a3b5e;}.cls-3{clip-path:url(#clip-path);}</style><clipPath id="clip-path"><path class="cls-1" d="M171.86,149.48a49.06,49.06,0,0,1-93.71,0,8.05,8.05,0,0,1,5.31-10.09,6.84,6.84,0,0,1,1.48-.3V139h79.8v0a8.54,8.54,0,0,1,1.82.34A8.05,8.05,0,0,1,171.86,149.48Z"/></clipPath></defs><title>Emoji-Party-Pack_Line</title><circle class="cls-1" cx="125" cy="118.82" r="108.55"/><circle class="cls-2" cx="62.57" cy="111.92" r="16.8"/><circle class="cls-2" cx="187.43" cy="111.92" r="16.8"/><path class="cls-1" d="M171.86,149.48a49.06,49.06,0,0,1-93.71,0,8.05,8.05,0,0,1,5.31-10.09,6.84,6.84,0,0,1,1.48-.3V139h79.8v0a8.54,8.54,0,0,1,1.82.34A8.05,8.05,0,0,1,171.86,149.48Z"/><g class="cls-3"><path class="cls-1" d="M78.14,196.32a49.06,49.06,0,0,1,93.71,0,8.05,8.05,0,0,1-5.31,10.09,6.84,6.84,0,0,1-1.48.3v0.07H85.27v0a8.54,8.54,0,0,1-1.82-.34A8.05,8.05,0,0,1,78.14,196.32Z"/></g><path class="cls-1" d="M171.86,149.48a49.06,49.06,0,0,1-93.71,0,8.05,8.05,0,0,1,5.31-10.09,6.84,6.84,0,0,1,1.48-.3V139h79.8v0a8.54,8.54,0,0,1,1.82.34A8.05,8.05,0,0,1,171.86,149.48Z"/><path class="cls-1" d="M42.64,81.48a27.43,27.43,0,0,1,37-11.67"/><path class="cls-1" d="M207.36,81.48a27.43,27.43,0,0,0-37-11.67"/><line class="cls-1" x1="83.23" y1="160.18" x2="164.14" y2="160.18"/></svg>