<svg id="Layer_1" data-name="Layer 1" xmlns="http://www.w3.org/2000/svg" viewBox="0 0 250 250"><defs><style>.cls-1{fill:none;stroke:#1a3b5e;stroke-linecap:round;stroke-linejoin:round;stroke-width:13.67px;}.cls-2{fill:#1a3b5e;}</style></defs><title>Emoji-Party-Pack_Line</title><circle class="cls-1" cx="125" cy="125" r="110"/><polyline class="cls-1" points="73.39 170.41 90.31 153.49 108.25 171.42 125.34 154.33 141.44 170.44 158.96 152.93 176.61 170.58"/><path class="cls-2" d="M210.47,95.87a2.8,2.8,0,1,0-5.6,0,10.85,10.85,0,0,1-1.57,5.62,11,11,0,0,1-1.61,2.09,16.6,16.6,0,0,0,1.12-2.64,16.39,16.39,0,0,0,.8-5.06,2.8,2.8,0,1,0-5.6,0,10.78,10.78,0,0,1-.43,3,11,11,0,0,1-1.23,2.75,18.31,18.31,0,0,0-2.67-1.37,17.87,17.87,0,0,0-6.9-1.39A18.13,18.13,0,1,0,203.45,110c-0.07-.17-0.14-0.35-0.22-0.52,0.32-.22.64-0.46,0.95-0.7A16.5,16.5,0,0,0,210.47,95.87Z"/><path class="cls-2" d="M70.16,100.25a18,18,0,0,0-16.5,1.39A10.85,10.85,0,0,1,52,95.87a2.8,2.8,0,0,0-5.6,0,16.42,16.42,0,0,0,1.92,7.71,10.9,10.9,0,0,1-3.19-7.71,2.8,2.8,0,0,0-5.6,0,16.53,16.53,0,0,0,7.23,13.66A18.07,18.07,0,1,0,70.16,100.25Z"/></svg>