<svg id="Layer_1" data-name="Layer 1" xmlns="http://www.w3.org/2000/svg" xmlns:xlink="http://www.w3.org/1999/xlink" viewBox="0 0 250 250"><defs><style>.cls-1{fill:none;stroke:#1a3b5e;stroke-linecap:round;stroke-linejoin:round;stroke-width:13.02px;}.cls-2{fill:#1a3b5e;}.cls-3{clip-path:url(#clip-path);}</style><clipPath id="clip-path"><path class="cls-1" d="M170.43,154.57a47.32,47.32,0,0,1-90.4,0,7.77,7.77,0,0,1,5.12-9.73,6.59,6.59,0,0,1,1.43-.29v-0.07h77v0a8.23,8.23,0,0,1,1.76.33A7.77,7.77,0,0,1,170.43,154.57Z"/></clipPath></defs><title>Emoji-Party-Pack_Line</title><path class="cls-1" d="M24.1,93.89C10.63,81.33,4.35,59.35,17.3,40.81l1.16,0.33c1.6,8.74,4.42,14.11,12,18.8L30.62,60c3.56,1.64,6.36,2.51,10.31,1.82"/><path class="cls-1" d="M210.5,62c3.44,0.41,6.1-.47,9.37-2l0.18-.1c7.58-4.71,10.38-10.08,12-18.8l1.16-.33c4,5.73,5.8,9.56,6.91,17.54,0,0,0,.1,0,0.15,1.07,19.13-7.84,29.91-14.7,36"/><circle class="cls-1" cx="125.23" cy="125" r="104.7"/><circle class="cls-2" cx="65.01" cy="118.34" r="16.2"/><circle class="cls-2" cx="185.45" cy="118.34" r="16.2"/><path class="cls-1" d="M170.43,154.57a47.32,47.32,0,0,1-90.4,0,7.77,7.77,0,0,1,5.12-9.73,6.59,6.59,0,0,1,1.43-.29v-0.07h77v0a8.23,8.23,0,0,1,1.76.33A7.77,7.77,0,0,1,170.43,154.57Z"/><g class="cls-3"><path class="cls-1" d="M80,199.75a47.32,47.32,0,0,1,90.4,0,7.77,7.77,0,0,1-5.12,9.73,6.59,6.59,0,0,1-1.43.29v0.07h-77v0a8.23,8.23,0,0,1-1.76-.33A7.77,7.77,0,0,1,80,199.75Z"/></g><path class="cls-1" d="M170.43,154.57a47.32,47.32,0,0,1-90.4,0,7.77,7.77,0,0,1,5.12-9.73,6.59,6.59,0,0,1,1.43-.29v-0.07h77v0a8.23,8.23,0,0,1,1.76.33A7.77,7.77,0,0,1,170.43,154.57Z"/><line class="cls-1" x1="48.58" y1="83.73" x2="80.99" y2="93.27"/><line class="cls-1" x1="201.88" y1="83.73" x2="169.47" y2="93.27"/><line class="cls-1" x1="85.39" y1="166.45" x2="165.05" y2="166.45"/></svg>