<svg id="Layer_1" data-name="Layer 1" xmlns="http://www.w3.org/2000/svg" xmlns:xlink="http://www.w3.org/1999/xlink" viewBox="0 0 250 250"><defs><style>.cls-1{fill:none;stroke:#1a3b5e;stroke-linecap:round;stroke-linejoin:round;stroke-width:13.72px;}.cls-2{clip-path:url(#clip-path);}</style><clipPath id="clip-path"><path class="cls-1" d="M168.88,157.63a45.95,45.95,0,0,1-87.77,0,7.54,7.54,0,0,1,5-9.45,6.4,6.4,0,0,1,1.39-.28v-0.06h74.74v0a8,8,0,0,1,1.71.32A7.54,7.54,0,0,1,168.88,157.63Z"/></clipPath></defs><title>Emoji-Party-Pack_Line</title><circle class="cls-1" cx="125" cy="125.5" r="110.36"/><path class="cls-1" d="M168.88,157.63a45.95,45.95,0,0,1-87.77,0,7.54,7.54,0,0,1,5-9.45,6.4,6.4,0,0,1,1.39-.28v-0.06h74.74v0a8,8,0,0,1,1.71.32A7.54,7.54,0,0,1,168.88,157.63Z"/><g class="cls-2"><path class="cls-1" d="M81.12,201.5a45.95,45.95,0,0,1,87.77,0,7.54,7.54,0,0,1-5,9.45,6.4,6.4,0,0,1-1.39.28v0.06H87.79v0a8,8,0,0,1-1.71-.32A7.54,7.54,0,0,1,81.12,201.5Z"/></g><path class="cls-1" d="M168.88,157.63a45.95,45.95,0,0,1-87.77,0,7.54,7.54,0,0,1,5-9.45,6.4,6.4,0,0,1,1.39-.28v-0.06h74.74v0a8,8,0,0,1,1.71.32A7.54,7.54,0,0,1,168.88,157.63Z"/><polyline class="cls-1" points="44.6 96.99 78.75 116.96 44.6 134.04"/><polyline class="cls-1" points="205.4 134.04 171.25 114.07 205.4 96.99"/></svg>