<svg id="Layer_1" data-name="Layer 1" xmlns="http://www.w3.org/2000/svg" xmlns:xlink="http://www.w3.org/1999/xlink" viewBox="0 0 250 250"><defs><style>.cls-1{fill:none;stroke:#1a3b5e;stroke-linecap:round;stroke-linejoin:round;stroke-width:13.95px;}.cls-2{fill:#1a3b5e;}.cls-3{clip-path:url(#clip-path);}</style><clipPath id="clip-path"><path class="cls-1" d="M174.28,156.7a50.74,50.74,0,0,1-96.92,0,8.33,8.33,0,0,1,5.49-10.43,7.07,7.07,0,0,1,1.53-.31v-0.07h82.53v0a8.83,8.83,0,0,1,1.88.35A8.33,8.33,0,0,1,174.28,156.7Z"/></clipPath></defs><title>Emoji-Party-Pack_Line</title><circle class="cls-1" cx="125.82" cy="125" r="112.26"/><circle class="cls-2" cx="61.25" cy="117.86" r="17.37"/><circle class="cls-2" cx="190.39" cy="117.86" r="17.37"/><path class="cls-1" d="M174.28,156.7a50.74,50.74,0,0,1-96.92,0,8.33,8.33,0,0,1,5.49-10.43,7.07,7.07,0,0,1,1.53-.31v-0.07h82.53v0a8.83,8.83,0,0,1,1.88.35A8.33,8.33,0,0,1,174.28,156.7Z"/><g class="cls-3"><path class="cls-1" d="M77.36,205.15a50.74,50.74,0,0,1,96.92,0,8.33,8.33,0,0,1-5.49,10.43,7.07,7.07,0,0,1-1.53.31V216H84.73v0a8.83,8.83,0,0,1-1.88-.35A8.33,8.33,0,0,1,77.36,205.15Z"/></g><path class="cls-1" d="M174.28,156.7a50.74,50.74,0,0,1-96.92,0,8.33,8.33,0,0,1,5.49-10.43,7.07,7.07,0,0,1,1.53-.31v-0.07h82.53v0a8.83,8.83,0,0,1,1.88.35A8.33,8.33,0,0,1,174.28,156.7Z"/><line class="cls-1" x1="44.74" y1="79.44" x2="74.06" y2="65.04"/><line class="cls-1" x1="174.24" y1="86.2" x2="206.91" y2="86.2"/></svg>