<svg id="Layer_1" data-name="Layer 1" xmlns="http://www.w3.org/2000/svg" viewBox="0 0 250 250"><defs><style>.cls-1{fill:none;stroke:#1a3b5e;stroke-linecap:round;stroke-linejoin:round;stroke-width:13.98px;}.cls-2{fill:#1a3b5e;}</style></defs><title>Emoji-Party-Pack_Line</title><circle class="cls-1" cx="125" cy="125" r="112.5"/><path class="cls-1" d="M171.07,168.73l-10.19-10.19A40.49,40.49,0,0,1,149.27,172l-5.53,3.43A40.86,40.86,0,0,1,125,179.9c-0.61,0-1.21,0-1.81,0l18.38,18.38A20.86,20.86,0,1,0,171.07,168.73Z"/><path class="cls-2" d="M154.07,185.72a3.17,3.17,0,0,0,4.48-4.48L149.27,172a40.45,40.45,0,0,1-5.53,3.43Z"/><path class="cls-2" d="M212.41,96.65a2.86,2.86,0,1,0-5.73,0,11.09,11.09,0,0,1-1.61,5.75,11.25,11.25,0,0,1-1.65,2.13,17,17,0,0,0,1.14-2.7,16.77,16.77,0,0,0,.82-5.18,2.86,2.86,0,1,0-5.73,0,11,11,0,0,1-.44,3.09,11.25,11.25,0,0,1-1.26,2.81,18.72,18.72,0,0,0-2.73-1.4,18.28,18.28,0,0,0-7.06-1.42,18.55,18.55,0,1,0,17.07,11.43c-0.07-.18-0.14-0.35-0.22-0.53,0.33-.23.65-0.47,1-0.72A16.88,16.88,0,0,0,212.41,96.65Z"/><path class="cls-2" d="M68.92,101.13A18.42,18.42,0,0,0,52,102.55a11.1,11.1,0,0,1-1.7-5.9,2.86,2.86,0,0,0-5.73,0,16.8,16.8,0,0,0,2,7.88,11.15,11.15,0,0,1-3.26-7.88,2.86,2.86,0,0,0-5.73,0,16.9,16.9,0,0,0,7.4,14A18.48,18.48,0,1,0,68.92,101.13Z"/><path class="cls-1" d="M163.95,151.2a40.78,40.78,0,0,1-77.9,0"/></svg>