<svg id="Layer_1" data-name="Layer 1" xmlns="http://www.w3.org/2000/svg" xmlns:xlink="http://www.w3.org/1999/xlink" viewBox="0 0 250 250"><defs><style>.cls-1{fill:none;stroke:#1a3b5e;stroke-linecap:round;stroke-linejoin:round;stroke-width:10.99px;}.cls-2{clip-path:url(#clip-path);}.cls-3{fill:#1a3b5e;}</style><clipPath id="clip-path"><path class="cls-1" d="M172.71,156.39a49.95,49.95,0,0,1-95.41,0,8.2,8.2,0,0,1,5.4-10.27,7,7,0,0,1,1.51-.3v-0.07h81.25v0a8.69,8.69,0,0,1,1.85.35A8.2,8.2,0,0,1,172.71,156.39Z"/></clipPath></defs><title>Emoji-Party-Pack_Line</title><circle class="cls-1" cx="125" cy="125.18" r="110.52"/><g class="cls-2"><path class="cls-1" d="M172.71,156.39a49.95,49.95,0,0,1-95.41,0,8.2,8.2,0,0,1,5.4-10.27,7,7,0,0,1,1.51-.3v-0.07h81.25v0a8.69,8.69,0,0,1,1.85.35A8.2,8.2,0,0,1,172.71,156.39Z"/><g class="cls-2"><path class="cls-1" d="M77.29,204.09a49.95,49.95,0,0,1,95.41,0,8.2,8.2,0,0,1-5.4,10.27,7,7,0,0,1-1.51.3v0.07H84.55v0a8.69,8.69,0,0,1-1.85-.35A8.2,8.2,0,0,1,77.29,204.09Z"/></g><path class="cls-1" d="M172.71,156.39a49.95,49.95,0,0,1-95.41,0,8.2,8.2,0,0,1,5.4-10.27,7,7,0,0,1,1.51-.3v-0.07h81.25v0a8.69,8.69,0,0,1,1.85.35A8.2,8.2,0,0,1,172.71,156.39Z"/><path class="cls-3" d="M153.71,140.85a11.43,11.43,0,1,1-9.57,17.67,11.42,11.42,0,0,1-19.14,0,11.42,11.42,0,0,1-19.14,0,11.43,11.43,0,1,1,0-12.48A11.42,11.42,0,0,1,125,146a11.42,11.42,0,0,1,19.14,0,11.41,11.41,0,0,1,9.57-5.19m0-11a22.39,22.39,0,0,0-9.57,2.14A22.48,22.48,0,0,0,125,132a22.48,22.48,0,0,0-19.14,0,22.42,22.42,0,1,0,0,40.57,22.48,22.48,0,0,0,19.14,0,22.48,22.48,0,0,0,19.14,0,22.42,22.42,0,1,0,9.57-42.7h0Z"/></g><path class="cls-1" d="M172.71,156.39a49.95,49.95,0,0,1-95.41,0,8.2,8.2,0,0,1,5.4-10.27,7,7,0,0,1,1.51-.3v-0.07h81.25v0a8.69,8.69,0,0,1,1.85.35A8.2,8.2,0,0,1,172.71,156.39Z"/><path class="cls-1" d="M78.44,124.27a17.1,17.1,0,0,0-34,0"/><path class="cls-1" d="M205.57,124.27a17.1,17.1,0,0,0-34,0"/></svg>