<svg id="Layer_1" data-name="Layer 1" xmlns="http://www.w3.org/2000/svg" xmlns:xlink="http://www.w3.org/1999/xlink" viewBox="0 0 250 250"><defs><style>.cls-1{fill:none;stroke:#1a3b5e;stroke-linecap:round;stroke-linejoin:round;stroke-width:13.74px;}.cls-2{clip-path:url(#clip-path);}.cls-3{fill:#1a3b5e;}</style><clipPath id="clip-path"><path class="cls-1" d="M172.71,156.39a49.95,49.95,0,0,1-95.41,0,8.2,8.2,0,0,1,5.4-10.27,7,7,0,0,1,1.51-.3v-0.07h81.25v0a8.69,8.69,0,0,1,1.85.35A8.2,8.2,0,0,1,172.71,156.39Z"/></clipPath></defs><title>Emoji-Party-Pack_Line</title><circle class="cls-1" cx="125" cy="125.18" r="110.52"/><path class="cls-1" d="M172.71,156.39a49.95,49.95,0,0,1-95.41,0,8.2,8.2,0,0,1,5.4-10.27,7,7,0,0,1,1.51-.3v-0.07h81.25v0a8.69,8.69,0,0,1,1.85.35A8.2,8.2,0,0,1,172.71,156.39Z"/><g class="cls-2"><path class="cls-1" d="M77.29,204.09a49.95,49.95,0,0,1,95.41,0,8.2,8.2,0,0,1-5.4,10.27,7,7,0,0,1-1.51.3v0.07H84.55v0a8.69,8.69,0,0,1-1.85-.35A8.2,8.2,0,0,1,77.29,204.09Z"/></g><path class="cls-1" d="M172.71,156.39a49.95,49.95,0,0,1-95.41,0,8.2,8.2,0,0,1,5.4-10.27,7,7,0,0,1,1.51-.3v-0.07h81.25v0a8.69,8.69,0,0,1,1.85.35A8.2,8.2,0,0,1,172.71,156.39Z"/><path class="cls-3" d="M210.87,95.44a2.81,2.81,0,1,0-5.62,0,10.9,10.9,0,0,1-1.58,5.65,11.05,11.05,0,0,1-1.62,2.1,16.67,16.67,0,0,0,1.12-2.66,16.47,16.47,0,0,0,.8-5.09,2.81,2.81,0,1,0-5.62,0,10.83,10.83,0,0,1-.43,3,11,11,0,0,1-1.24,2.76A18.39,18.39,0,0,0,194,99.85a18,18,0,0,0-6.94-1.4,18.22,18.22,0,1,0,16.77,11.22c-0.07-.17-0.14-0.35-0.22-0.52,0.33-.22.64-0.46,1-0.7A16.58,16.58,0,0,0,210.87,95.44Z"/><path class="cls-3" d="M69.9,99.84a18.09,18.09,0,0,0-16.58,1.39,10.9,10.9,0,0,1-1.67-5.8,2.81,2.81,0,0,0-5.62,0A16.5,16.5,0,0,0,48,103.18a11,11,0,0,1-3.2-7.74,2.81,2.81,0,0,0-5.62,0,16.6,16.6,0,0,0,7.27,13.72A18.16,18.16,0,1,0,69.9,99.84Z"/><circle class="cls-3" cx="192.5" cy="150.48" r="3.81"/><circle class="cls-3" cx="212.68" cy="150.48" r="3.81"/><circle class="cls-3" cx="202.59" cy="162.84" r="3.81"/><circle class="cls-3" cx="37.32" cy="150.48" r="3.81"/><circle class="cls-3" cx="57.5" cy="150.48" r="3.81"/><circle class="cls-3" cx="47.41" cy="162.84" r="3.81"/><line class="cls-1" x1="87.37" y1="168.02" x2="162.61" y2="168.02"/></svg>