<svg id="Layer_1" data-name="Layer 1" xmlns="http://www.w3.org/2000/svg" viewBox="0 0 250 250"><defs><style>.cls-1{fill:none;stroke:#1a3b5e;stroke-linecap:round;stroke-linejoin:round;stroke-width:13.67px;}.cls-2{fill:#1a3b5e;}</style></defs><title>Emoji-Party-Pack_Line</title><path class="cls-1" d="M179.05,220.83a109.88,109.88,0,1,1,46.56-51.3"/><circle class="cls-2" cx="61.73" cy="118.01" r="17.02"/><circle class="cls-2" cx="188.27" cy="118.01" r="17.02"/><path class="cls-1" d="M148.67,165.71a4.58,4.58,0,0,0,4.47-5.47,28.95,28.95,0,0,0-56.84,0,4.58,4.58,0,0,0,4.47,5.47h47.9Z"/><g id="_Group_" data-name="&lt;Group&gt;"><g id="_Group_2" data-name="&lt;Group&gt;"><path class="cls-2" d="M205.29,155.37a6.9,6.9,0,0,1,6.24,3.85c6.42,12.78,15.49,32.2,15.49,40a21.73,21.73,0,1,1-43.46,0c0-7.75,9.07-27.18,15.49-40a6.9,6.9,0,0,1,6.24-3.85m0-13.67a20.55,20.55,0,0,0-18.46,11.39c-16.95,33.73-16.95,42.71-16.95,46.09a35.4,35.4,0,0,0,70.81,0c0-3.38,0-12.37-16.95-46.09a20.55,20.55,0,0,0-18.46-11.39h0Z"/></g></g></svg>