<svg id="Layer_1" data-name="Layer 1" xmlns="http://www.w3.org/2000/svg" xmlns:xlink="http://www.w3.org/1999/xlink" viewBox="0 0 250 250"><defs><style>.cls-1{fill:none;stroke:#1a3b5e;stroke-linecap:round;stroke-linejoin:round;stroke-width:13.67px;}.cls-2{fill:#1a3b5e;}.cls-3{clip-path:url(#clip-path);}</style><clipPath id="clip-path"><path class="cls-1" d="M81.58,168.76a45.46,45.46,0,0,1,86.84,0,7.46,7.46,0,0,1-4.92,9.35,6.33,6.33,0,0,1-1.37.27v0.06H88.18v0a7.91,7.91,0,0,1-1.69-.32A7.46,7.46,0,0,1,81.58,168.76Z"/></clipPath></defs><title>Emoji-Party-Pack_Line</title><path class="cls-1" d="M190.6,213.31a109.75,109.75,0,1,1,38.27-52"/><circle class="cls-2" cx="61.73" cy="118.01" r="17.02"/><circle class="cls-2" cx="188.27" cy="118.01" r="17.02"/><path class="cls-1" d="M81.58,168.76a45.46,45.46,0,0,1,86.84,0,7.46,7.46,0,0,1-4.92,9.35,6.33,6.33,0,0,1-1.37.27v0.06H88.18v0a7.91,7.91,0,0,1-1.69-.32A7.46,7.46,0,0,1,81.58,168.76Z"/><g class="cls-3"><path class="cls-1" d="M91.55,184.62a35,35,0,0,1,66.89,0,5.75,5.75,0,0,1-3.79,7.2,4.88,4.88,0,0,1-1.06.21v0h-57v0a6.09,6.09,0,0,1-1.3-.24A5.75,5.75,0,0,1,91.55,184.62Z"/></g><path class="cls-1" d="M81.58,168.76a45.46,45.46,0,0,1,86.84,0,7.46,7.46,0,0,1-4.92,9.35,6.33,6.33,0,0,1-1.37.27v0.06H88.18v0a7.91,7.91,0,0,1-1.69-.32A7.46,7.46,0,0,1,81.58,168.76Z"/><g id="_Group_" data-name="&lt;Group&gt;"><g id="_Group_2" data-name="&lt;Group&gt;"><path class="cls-2" d="M210,146.25a6.9,6.9,0,0,1,6.24,3.85c6.42,12.78,15.49,32.2,15.49,40a21.73,21.73,0,1,1-43.46,0c0-7.75,9.07-27.18,15.49-40a6.9,6.9,0,0,1,6.24-3.85m0-13.67A20.55,20.55,0,0,0,191.54,144c-16.95,33.73-16.95,42.71-16.95,46.09a35.4,35.4,0,0,0,70.81,0c0-3.38,0-12.37-16.95-46.09A20.55,20.55,0,0,0,210,132.58h0Z"/></g></g></svg>