<svg id="Layer_1" data-name="Layer 1" xmlns="http://www.w3.org/2000/svg" xmlns:xlink="http://www.w3.org/1999/xlink" viewBox="0 0 250 250"><defs><style>.cls-1{fill:none;}.cls-1,.cls-4{stroke:#1a3b5e;stroke-linecap:round;stroke-linejoin:round;stroke-width:13.48px;}.cls-2{clip-path:url(#clip-path);}.cls-3,.cls-4{fill:#1a3b5e;}.cls-5{clip-path:url(#clip-path-2);}</style><clipPath id="clip-path"><circle class="cls-1" cx="123.48" cy="125" r="108.48"/></clipPath><clipPath id="clip-path-2"><path class="cls-1" d="M80.66,177.14a44.83,44.83,0,0,1,85.63,0,7.36,7.36,0,0,1-4.85,9.22,6.25,6.25,0,0,1-1.35.27v0.06H87.17v0a7.8,7.8,0,0,1-1.66-.31A7.36,7.36,0,0,1,80.66,177.14Z"/></clipPath></defs><title>Emoji-Party-Pack_Line</title><circle class="cls-1" cx="123.48" cy="125" r="108.48"/><g class="cls-2"><circle class="cls-1" cx="123.48" cy="236.48" r="108.48"/></g><circle class="cls-1" cx="123.48" cy="125" r="108.48"/><circle class="cls-3" cx="61.09" cy="118.1" r="16.79"/><path class="cls-4" d="M231.76,91.58l-19.13,2.5a8.19,8.19,0,0,0-5.69-3.7h0a178.68,178.68,0,0,0-52.5,0,8.17,8.17,0,0,0-4.13,1.9L33.79,55.36c-3.63-1.17-5.39,4.35-1.74,5.5L147.53,97.45c-0.15,1.15-.1-0.27-0.1,13.67a33.26,33.26,0,0,0,66.51,0V99.72l18.56-2.42C236.3,96.81,235.53,91.07,231.76,91.58Z"/><path class="cls-1" d="M80.66,177.14a44.83,44.83,0,0,1,85.63,0,7.36,7.36,0,0,1-4.85,9.22,6.25,6.25,0,0,1-1.35.27v0.06H87.17v0a7.8,7.8,0,0,1-1.66-.31A7.36,7.36,0,0,1,80.66,177.14Z"/><g class="cls-5"><path class="cls-1" d="M90.5,192.79a34.53,34.53,0,0,1,66,0,5.67,5.67,0,0,1-3.74,7.1,4.81,4.81,0,0,1-1,.21v0H95.51v0a6,6,0,0,1-1.28-.24A5.67,5.67,0,0,1,90.5,192.79Z"/></g><path class="cls-1" d="M80.66,177.14a44.83,44.83,0,0,1,85.63,0,7.36,7.36,0,0,1-4.85,9.22,6.25,6.25,0,0,1-1.35.27v0.06H87.17v0a7.8,7.8,0,0,1-1.66-.31A7.36,7.36,0,0,1,80.66,177.14Z"/><line class="cls-1" x1="44.3" y1="83.51" x2="77.87" y2="93.4"/></svg>