<svg id="Layer_1" data-name="Layer 1" xmlns="http://www.w3.org/2000/svg" viewBox="0 0 250 250"><defs><style>.cls-1{fill:none;stroke:#1a3b5e;stroke-linecap:round;stroke-linejoin:round;stroke-width:13.74px;}.cls-2{fill:#1a3b5e;}</style></defs><title>Emoji-Party-Pack_Line</title><circle class="cls-1" cx="125" cy="125.18" r="110.52"/><circle class="cls-2" cx="61.44" cy="118.16" r="17.1"/><circle class="cls-2" cx="188.56" cy="118.16" r="17.1"/><path class="cls-1" d="M81.38,169.15a45.67,45.67,0,0,1,87.24,0,7.5,7.5,0,0,1-4.94,9.39,6.36,6.36,0,0,1-1.38.28v0.06H88v0a8,8,0,0,1-1.7-.32A7.5,7.5,0,0,1,81.38,169.15Z"/><path class="cls-1" d="M81.38,169.15a45.67,45.67,0,0,1,87.24,0,7.5,7.5,0,0,1-4.94,9.39,6.36,6.36,0,0,1-1.38.28v0.06H88v0a8,8,0,0,1-1.7-.32A7.5,7.5,0,0,1,81.38,169.15Z"/><line class="cls-1" x1="47.76" y1="74.42" x2="81.97" y2="84.5"/><line class="cls-1" x1="202.24" y1="74.42" x2="168.03" y2="84.5"/></svg>