<svg id="Layer_1" data-name="Layer 1" xmlns="http://www.w3.org/2000/svg" viewBox="0 0 250 250"><defs><style>.cls-1{fill:none;stroke:#1a3b5e;stroke-linecap:round;stroke-linejoin:round;stroke-width:13.67px;}.cls-2{fill:#1a3b5e;}</style></defs><title>Emoji-Party-Pack_Line</title><circle class="cls-1" cx="125" cy="125" r="110"/><path class="cls-1" d="M100.76,145.88a4.58,4.58,0,0,0-4.47,5.47,28.95,28.95,0,0,0,56.84,0,4.58,4.58,0,0,0-4.47-5.47h-47.9Z"/><path class="cls-2" d="M65.61,137.36l-16.67,8.77A3.88,3.88,0,0,1,43.3,142l3.18-18.57L33,110.32a3.88,3.88,0,0,1,2.15-6.62L53.79,101,62.13,84.1a3.88,3.88,0,0,1,7,0L77.42,101l18.64,2.71a3.88,3.88,0,0,1,2.15,6.62L84.72,123.47,87.91,142a3.88,3.88,0,0,1-5.63,4.09Z"/><path class="cls-2" d="M186.22,137.36l-16.67,8.77a3.88,3.88,0,0,1-5.63-4.09l3.18-18.57-13.49-13.15a3.88,3.88,0,0,1,2.15-6.62L174.4,101l8.34-16.89a3.88,3.88,0,0,1,7,0L198,101l18.64,2.71a3.88,3.88,0,0,1,2.15,6.62l-13.49,13.15L208.52,142a3.88,3.88,0,0,1-5.63,4.09Z"/></svg>