<svg id="Layer_1" data-name="Layer 1" xmlns="http://www.w3.org/2000/svg" viewBox="0 0 250 250"><defs><style>.cls-1{fill:none;stroke:#1a3b5e;stroke-linecap:round;stroke-linejoin:round;stroke-width:13.67px;}.cls-2{fill:#1a3b5e;}</style></defs><title>Emoji-Party-Pack_Line</title><path class="cls-1" d="M192.59,211.79a109.72,109.72,0,1,1,37.93-55.63"/><circle class="cls-2" cx="61.73" cy="118.01" r="17.02"/><circle class="cls-2" cx="188.27" cy="118.01" r="17.02"/><g id="_Group_" data-name="&lt;Group&gt;"><g id="_Group_2" data-name="&lt;Group&gt;"><path class="cls-2" d="M211.14,146.25a6.9,6.9,0,0,1,6.24,3.85c6.42,12.78,15.49,32.2,15.49,40a21.73,21.73,0,0,1-43.46,0c0-7.75,9.07-27.18,15.49-40a6.9,6.9,0,0,1,6.24-3.85m0-13.67A20.55,20.55,0,0,0,192.68,144c-16.95,33.73-16.95,42.71-16.95,46.09a35.4,35.4,0,0,0,70.81,0c0-3.38,0-12.37-16.95-46.09a20.55,20.55,0,0,0-18.46-11.39h0Z"/></g></g><path class="cls-1" d="M86.92,170.18a39.87,39.87,0,0,1,76.17,0"/></svg>