<svg id="Layer_1" data-name="Layer 1" xmlns="http://www.w3.org/2000/svg" xmlns:xlink="http://www.w3.org/1999/xlink" viewBox="0 0 250 250"><defs><style>.cls-1,.cls-3{fill:none;stroke:#1a3b5e;stroke-linecap:round;stroke-linejoin:round;}.cls-1{stroke-width:12.35px;}.cls-2{clip-path:url(#clip-path);}.cls-3{stroke-width:9.88px;}.cls-4{fill:#1a3b5e;}</style><clipPath id="clip-path"><path id="SVGID" class="cls-1" d="M171,153.06a44.91,44.91,0,0,1-85.79,0A7.37,7.37,0,0,1,90,143.82a6.26,6.26,0,0,1,1.35-.27v-0.06h73.05v0a7.81,7.81,0,0,1,1.67.31A7.37,7.37,0,0,1,171,153.06Z"/></clipPath></defs><title>Emoji-Party-Pack_Line</title><path class="cls-1" d="M203.14,190.12A99.37,99.37,0,0,1,58.57,196"/><path class="cls-1" d="M31.67,149.14a99.37,99.37,0,1,1,193.13-1.26"/><path class="cls-1" d="M171,153.06a44.91,44.91,0,0,1-85.79,0A7.37,7.37,0,0,1,90,143.82a6.26,6.26,0,0,1,1.35-.27v-0.06h73.05v0a7.81,7.81,0,0,1,1.67.31A7.37,7.37,0,0,1,171,153.06Z"/><g class="cls-2"><path class="cls-1" d="M85.19,195.94a44.91,44.91,0,0,1,85.79,0,7.37,7.37,0,0,1-4.86,9.24,6.26,6.26,0,0,1-1.35.27v0.06H91.71v0a7.81,7.81,0,0,1-1.67-.31A7.37,7.37,0,0,1,85.19,195.94Z"/></g><path id="SVGID-2" data-name="SVGID" class="cls-1" d="M171,153.06a44.91,44.91,0,0,1-85.79,0A7.37,7.37,0,0,1,90,143.82a6.26,6.26,0,0,1,1.35-.27v-0.06h73.05v0a7.81,7.81,0,0,1,1.67.31A7.37,7.37,0,0,1,171,153.06Z"/><path class="cls-3" d="M86.22,124.18a15.37,15.37,0,0,0-30.57,0"/><path class="cls-3" d="M200.52,124.18a15.37,15.37,0,0,0-30.57,0"/><g id="_Group_" data-name="&lt;Group&gt;"><g id="_Group_2" data-name="&lt;Group&gt;"><path class="cls-4" d="M44.28,149.14a6,6,0,0,1,6,5.27c1.51,12.2,3.25,30.55,1,36.83A18.68,18.68,0,0,1,16.09,178.7c2.24-6.28,15.19-19.39,24.08-27.89a5.91,5.91,0,0,1,4.12-1.67m0-12.35h0a18.25,18.25,0,0,0-12.65,5.1C8.07,164.41,5.54,171.52,4.45,174.56a31,31,0,1,0,58.46,20.83c1.08-3,3.62-10.15-.39-42.49a18.4,18.4,0,0,0-18.24-16.11h0Z"/></g></g><g id="_Group_3" data-name="&lt;Group&gt;"><g id="_Group_4" data-name="&lt;Group&gt;"><path class="cls-4" d="M213,149.23a4.43,4.43,0,0,1,3.09,1.25c6.66,6.37,16.38,16.21,18.06,20.91a14,14,0,1,1-26.39,9.41c-1.68-4.71-.37-18.47.76-27.62a4.49,4.49,0,0,1,4.49-4m0-12.35a16.89,16.89,0,0,0-16.75,14.79c-2.73,22-1.6,29.18-.14,33.29a26.36,26.36,0,0,0,49.67-17.7c-1.46-4.11-5.12-10.37-21.16-25.7A16.76,16.76,0,0,0,213,136.88h0Z"/></g></g><line class="cls-1" x1="92.74" y1="164.34" x2="164.23" y2="164.34"/></svg>