<svg id="Layer_1" data-name="Layer 1" xmlns="http://www.w3.org/2000/svg" viewBox="0 0 250 250"><defs><style>.cls-1{fill:none;stroke:#1a3b5e;stroke-linecap:round;stroke-linejoin:round;stroke-width:13.74px;}.cls-2{fill:#1a3b5e;}</style></defs><title>Emoji-Party-Pack_Line</title><circle class="cls-1" cx="125" cy="125.18" r="110.52"/><path class="cls-1" d="M155.34,182.85a48.07,48.07,0,0,0,16.88-28.21,7.61,7.61,0,0,0-7.43-9.1H85.18a7.61,7.61,0,0,0-7.43,9.1,48.06,48.06,0,0,0,16.42,27.83"/><path class="cls-1" d="M154.76,145.54v43.4a29.77,29.77,0,0,1-59.53,0v-43.4h59.53Z"/><path class="cls-2" d="M120.47,188.94a4.52,4.52,0,1,0,9,0v-43.4h-9v43.4Z"/><circle class="cls-2" cx="61.44" cy="116.63" r="17.1"/><circle class="cls-2" cx="188.56" cy="116.63" r="17.1"/></svg>