<svg id="Layer_1" data-name="Layer 1" xmlns="http://www.w3.org/2000/svg" viewBox="0 0 250 250"><defs><style>.cls-1{fill:none;stroke:#1a3b5e;stroke-linecap:round;stroke-linejoin:round;stroke-width:13.98px;}.cls-2{fill:#1a3b5e;}.cls-3{fill:#e54c66;}</style></defs><title>Emoji-Party-Pack_Line</title><circle class="cls-1" cx="125" cy="125" r="112.5"/><circle class="cls-2" cx="60.29" cy="117.85" r="17.41"/><circle class="cls-2" cx="189.71" cy="117.85" r="17.41"/><path class="cls-1" d="M171.07,168.73l-10.19-10.19A40.49,40.49,0,0,1,149.27,172l-5.53,3.43A40.86,40.86,0,0,1,125,179.9c-0.61,0-1.21,0-1.81,0l18.38,18.38A20.86,20.86,0,1,0,171.07,168.73Z"/><path class="cls-3" d="M154.07,185.72a3.17,3.17,0,0,0,4.48-4.48L149.27,172a40.45,40.45,0,0,1-5.53,3.43Z"/><path class="cls-2" d="M154.07,185.72a3.17,3.17,0,0,0,4.48-4.48L149.27,172a40.45,40.45,0,0,1-5.53,3.43Z"/><path class="cls-1" d="M163.95,151.2a40.78,40.78,0,0,1-77.9,0"/></svg>