<svg id="Layer_1" data-name="Layer 1" xmlns="http://www.w3.org/2000/svg" viewBox="0 0 250 250"><defs><style>.cls-1{fill:none;stroke:#1a3b5e;stroke-linecap:round;stroke-linejoin:round;stroke-width:13.95px;}.cls-2{fill:#1a3b5e;}</style></defs><title>Emoji-Party-Pack_Line</title><path class="cls-1" d="M235.16,96.94a112.28,112.28,0,1,1-46-65"/><g id="_Group_" data-name="&lt;Group&gt;"><g id="_Group_2" data-name="&lt;Group&gt;"><path class="cls-2" d="M210.93,25.53a7,7,0,0,1,6.37,3.93c6.55,13,15.81,32.86,15.81,40.78a22.17,22.17,0,0,1-44.35,0c0-7.91,9.26-27.74,15.81-40.78a7,7,0,0,1,6.37-3.93m0-14A21,21,0,0,0,192.09,23.2c-17.29,34.42-17.29,43.59-17.29,47a36.13,36.13,0,0,0,72.26,0c0-3.45,0-12.62-17.29-47a21,21,0,0,0-18.84-11.62h0Z"/></g></g><circle class="cls-2" cx="61.87" cy="131.82" r="17.37"/><circle class="cls-2" cx="191.01" cy="131.82" r="17.37"/><line class="cls-1" x1="34.1" y1="120.03" x2="216.45" y2="120.03"/><line class="cls-1" x1="141.81" y1="154.39" x2="111.06" y2="154.39"/></svg>