<svg id="Layer_1" data-name="Layer 1" xmlns="http://www.w3.org/2000/svg" viewBox="0 0 250 250"><defs><style>.cls-1{fill:none;stroke:#1a3b5e;stroke-linecap:round;stroke-linejoin:round;stroke-width:13.95px;}.cls-2{fill:#1a3b5e;}</style></defs><title>Emoji-Party-Pack_Line</title><circle class="cls-1" cx="126.64" cy="125" r="112.26"/><path class="cls-1" d="M87,157.42a17.37,17.37,0,0,0,17.37,17.37H164.5"/><line class="cls-1" x1="45.67" y1="78.23" x2="74.99" y2="63.83"/><line class="cls-1" x1="175.17" y1="74.75" x2="207.84" y2="74.75"/><path class="cls-2" d="M213.87,95.27a2.86,2.86,0,1,0-5.71,0,11.07,11.07,0,0,1-1.61,5.74,11.23,11.23,0,0,1-1.65,2.13,16.94,16.94,0,0,0,1.14-2.7,16.73,16.73,0,0,0,.82-5.17,2.86,2.86,0,1,0-5.71,0,11,11,0,0,1-.44,3.08,11.22,11.22,0,0,1-1.26,2.81,18.68,18.68,0,0,0-2.73-1.4,18.24,18.24,0,0,0-7-1.42,18.51,18.51,0,1,0,17,11.4c-0.07-.18-0.14-0.35-0.22-0.53,0.33-.23.65-0.47,1-0.72A16.84,16.84,0,0,0,213.87,95.27Z"/><path class="cls-2" d="M70.68,99.74a18.38,18.38,0,0,0-16.84,1.42,11.07,11.07,0,0,1-1.7-5.89,2.86,2.86,0,0,0-5.71,0,16.76,16.76,0,0,0,2,7.86,11.12,11.12,0,0,1-3.25-7.86,2.86,2.86,0,0,0-5.71,0,16.86,16.86,0,0,0,7.38,13.94A18.44,18.44,0,1,0,70.68,99.74Z"/></svg>