<svg id="Layer_1" data-name="Layer 1" xmlns="http://www.w3.org/2000/svg" xmlns:xlink="http://www.w3.org/1999/xlink" viewBox="0 0 250 250"><defs><style>.cls-1{fill:none;stroke:#1a3b5e;stroke-linecap:round;stroke-linejoin:round;stroke-width:13.95px;}.cls-2{fill:#1a3b5e;}.cls-3{clip-path:url(#clip-path);}</style><clipPath id="clip-path"><path class="cls-1" d="M174.08,156.7a50.74,50.74,0,0,1-96.92,0,8.33,8.33,0,0,1,5.49-10.43,7.07,7.07,0,0,1,1.53-.31v-0.07H166.7v0a8.83,8.83,0,0,1,1.88.35A8.33,8.33,0,0,1,174.08,156.7Z"/></clipPath></defs><title>Emoji-Party-Pack_Line</title><circle class="cls-1" cx="125.62" cy="125" r="112.26"/><circle class="cls-2" cx="61.05" cy="117.86" r="17.37"/><circle class="cls-2" cx="190.18" cy="117.86" r="17.37"/><path class="cls-1" d="M174.08,156.7a50.74,50.74,0,0,1-96.92,0,8.33,8.33,0,0,1,5.49-10.43,7.07,7.07,0,0,1,1.53-.31v-0.07H166.7v0a8.83,8.83,0,0,1,1.88.35A8.33,8.33,0,0,1,174.08,156.7Z"/><line class="cls-1" x1="44.53" y1="79.44" x2="73.85" y2="65.04"/><line class="cls-1" x1="174.04" y1="86.2" x2="206.7" y2="86.2"/><g class="cls-3"><path class="cls-1" d="M174.08,156.7a50.74,50.74,0,0,1-96.92,0,8.33,8.33,0,0,1,5.49-10.43,7.07,7.07,0,0,1,1.53-.31v-0.07H166.7v0a8.83,8.83,0,0,1,1.88.35A8.33,8.33,0,0,1,174.08,156.7Z"/><g class="cls-3"><path class="cls-1" d="M77.16,205.15a50.74,50.74,0,0,1,96.92,0,8.33,8.33,0,0,1-5.49,10.43,7.07,7.07,0,0,1-1.53.31V216H84.53v0a8.83,8.83,0,0,1-1.88-.35A8.33,8.33,0,0,1,77.16,205.15Z"/></g><path class="cls-1" d="M174.08,156.7a50.74,50.74,0,0,1-96.92,0,8.33,8.33,0,0,1,5.49-10.43,7.07,7.07,0,0,1,1.53-.31v-0.07H166.7v0a8.83,8.83,0,0,1,1.88.35A8.33,8.33,0,0,1,174.08,156.7Z"/><path class="cls-2" d="M154.78,139A11.61,11.61,0,1,1,145.06,157a11.6,11.6,0,0,1-19.44,0,11.6,11.6,0,0,1-19.44,0,11.61,11.61,0,1,1,0-12.68,11.6,11.6,0,0,1,19.44,0,11.6,11.6,0,0,1,19.44,0,11.59,11.59,0,0,1,9.72-5.27m0-14a25.56,25.56,0,0,0-9.72,1.91,25.66,25.66,0,0,0-19.44,0,25.66,25.66,0,0,0-19.44,0,25.57,25.57,0,1,0,0,47.31,25.66,25.66,0,0,0,19.44,0,25.66,25.66,0,0,0,19.44,0,25.57,25.57,0,1,0,9.72-49.22h0Z"/></g><path class="cls-1" d="M174.08,156.7a50.74,50.74,0,0,1-96.92,0,8.33,8.33,0,0,1,5.49-10.43,7.07,7.07,0,0,1,1.53-.31v-0.07H166.7v0a8.83,8.83,0,0,1,1.88.35A8.33,8.33,0,0,1,174.08,156.7Z"/></svg>