<svg id="Layer_1" data-name="Layer 1" xmlns="http://www.w3.org/2000/svg" xmlns:xlink="http://www.w3.org/1999/xlink" viewBox="0 0 250 250"><defs><style>.cls-1{fill:none;stroke:#1a3b5e;stroke-linecap:round;stroke-linejoin:round;stroke-width:13.13px;}.cls-2{fill:#1a3b5e;}.cls-3{clip-path:url(#clip-path);}</style><clipPath id="clip-path"><path class="cls-1" d="M162.58,155.92a44,44,0,0,1-84,0,7.21,7.21,0,0,1,4.75-9,6.13,6.13,0,0,1,1.33-.27v-0.06h71.51v0a7.65,7.65,0,0,1,1.63.31A7.21,7.21,0,0,1,162.58,155.92Z"/></clipPath></defs><title>Emoji-Party-Pack_Line</title><path class="cls-1" d="M224.93,108.86A105.6,105.6,0,1,1,120.59,19.59a105.23,105.23,0,0,1,72.7,29"/><circle class="cls-2" cx="59.86" cy="118.47" r="16.34"/><circle class="cls-2" cx="181.32" cy="118.47" r="16.34"/><path class="cls-1" d="M162.58,155.92a44,44,0,0,1-84,0,7.21,7.21,0,0,1,4.75-9,6.13,6.13,0,0,1,1.33-.27v-0.06h71.51v0a7.65,7.65,0,0,1,1.63.31A7.21,7.21,0,0,1,162.58,155.92Z"/><g class="cls-3"><path class="cls-1" d="M78.6,197.9a44,44,0,0,1,84,0,7.21,7.21,0,0,1-4.75,9,6.13,6.13,0,0,1-1.33.27v0.06H85v0a7.65,7.65,0,0,1-1.63-.31A7.21,7.21,0,0,1,78.6,197.9Z"/></g><path class="cls-1" d="M162.58,155.92a44,44,0,0,1-84,0,7.21,7.21,0,0,1,4.75-9,6.13,6.13,0,0,1,1.33-.27v-0.06h71.51v0a7.65,7.65,0,0,1,1.63.31A7.21,7.21,0,0,1,162.58,155.92Z"/><line class="cls-1" x1="186.67" y1="81.55" x2="162.45" y2="67.94"/><line class="cls-1" x1="40.54" y1="86.31" x2="73.22" y2="67.94"/><g id="_Group_" data-name="&lt;Group&gt;"><g id="_Group_2" data-name="&lt;Group&gt;"><path class="cls-2" d="M214.14,39.22a6.63,6.63,0,0,1,6,3.7C226.29,55.18,235,73.83,235,81.27a20.86,20.86,0,1,1-41.71,0c0-7.44,8.71-26.09,14.87-38.35a6.63,6.63,0,0,1,6-3.7m0-13.13A19.73,19.73,0,0,0,196.43,37c-16.27,32.38-16.27,41-16.27,44.25a34,34,0,1,0,68,0c0-3.25,0-11.87-16.27-44.25A19.73,19.73,0,0,0,214.14,26.1h0Z"/></g></g></svg>