<svg id="Layer_1" data-name="Layer 1" xmlns="http://www.w3.org/2000/svg" viewBox="0 0 250 250"><defs><style>.cls-1{fill:none;stroke:#1a3b5e;stroke-linecap:round;stroke-linejoin:round;stroke-width:13.74px;}</style></defs><title>Emoji-Party-Pack_Line</title><path class="cls-1" d="M19.42,151.42a110.57,110.57,0,1,1,32,57.67"/><path class="cls-1" d="M81.13,129.15a17.1,17.1,0,0,0-34,0"/><path class="cls-1" d="M208.26,129.15a17.1,17.1,0,0,0-34,0"/><path class="cls-1" d="M139.6,151.18H118.29a12.81,12.81,0,1,0,0,25.63h8.89"/><path class="cls-1" d="M140.05,176.81H124.83a10.51,10.51,0,0,0,0,21h7.06"/><path id="_Path_" data-name="&lt;Path&gt;" class="cls-1" d="M82.75,168.94a18.87,18.87,0,0,0-35.46-9,18.87,18.87,0,0,0-35.46,9s-2.38,16,32.13,41.18a5.5,5.5,0,0,0,6.42,0C85.39,185.21,82.75,168.94,82.75,168.94Z"/></svg>