<svg id="Layer_1" data-name="Layer 1" xmlns="http://www.w3.org/2000/svg" xmlns:xlink="http://www.w3.org/1999/xlink" viewBox="0 0 250 250"><defs><style>.cls-1,.cls-4{fill:none;stroke:#1a3b5e;stroke-linecap:round;stroke-linejoin:round;}.cls-1{stroke-width:13.02px;}.cls-2{fill:#1a3b5e;}.cls-3{clip-path:url(#clip-path);}.cls-4{stroke-width:10.42px;}</style><clipPath id="clip-path"><path class="cls-1" d="M170.22,153.52a47.34,47.34,0,0,1-90.44,0,7.77,7.77,0,0,1,5.12-9.74,6.6,6.6,0,0,1,1.43-.29v-0.07h77v0a8.24,8.24,0,0,1,1.76.33A7.77,7.77,0,0,1,170.22,153.52Z"/></clipPath></defs><title>Emoji-Party-Pack_Line</title><path class="cls-1" d="M228.48,141.39a104.77,104.77,0,0,1-206.82.85"/><path class="cls-1" d="M27.58,86.43A104.8,104.8,0,0,1,223.94,90.5"/><circle class="cls-2" cx="64.75" cy="114.87" r="16.21"/><circle class="cls-2" cx="185.25" cy="114.87" r="16.21"/><g class="cls-3"><rect class="cls-1" x="104.67" y="134.91" width="40.66" height="29.67" rx="8.79" ry="8.79"/></g><path class="cls-1" d="M170.22,153.52a47.34,47.34,0,0,1-90.44,0,7.77,7.77,0,0,1,5.12-9.74,6.6,6.6,0,0,1,1.43-.29v-0.07h77v0a8.24,8.24,0,0,1,1.76.33A7.77,7.77,0,0,1,170.22,153.52Z"/><circle class="cls-2" cx="189.53" cy="155.92" r="3.62"/><circle class="cls-2" cx="208.66" cy="155.92" r="3.62"/><circle class="cls-2" cx="199.09" cy="167.64" r="3.62"/><circle class="cls-2" cx="42.45" cy="155.92" r="3.62"/><circle class="cls-2" cx="61.58" cy="155.92" r="3.62"/><circle class="cls-2" cx="52.01" cy="167.64" r="3.62"/><path class="cls-2" d="M96.34,92A5.65,5.65,0,0,1,102,97.67v19.91a18.84,18.84,0,0,1-18.84,18.84H28.92a11.3,11.3,0,0,1-11.3-11.3V97.67A5.65,5.65,0,0,1,23.27,92H96.34m0-10.42H23.27A16.09,16.09,0,0,0,7.2,97.67v27.45a21.75,21.75,0,0,0,21.72,21.72H83.15a29.29,29.29,0,0,0,29.26-29.26V97.67A16.09,16.09,0,0,0,96.34,81.6h0Z"/><path class="cls-2" d="M226.63,92a5.65,5.65,0,0,1,5.65,5.65v27.45a11.3,11.3,0,0,1-11.3,11.3H166.75a18.84,18.84,0,0,1-18.84-18.84V97.67A5.65,5.65,0,0,1,153.56,92h73.07m0-10.42H153.56a16.09,16.09,0,0,0-16.07,16.07v19.91a29.29,29.29,0,0,0,29.26,29.26H221a21.75,21.75,0,0,0,21.72-21.72V97.67A16.09,16.09,0,0,0,226.63,81.6h0Z"/><path class="cls-4" d="M234.7,95.62a8.61,8.61,0,0,0-8.07-6.43H153.56c-6.56,0-9.59,7.67-8.17,10.51H104.51c1.4-2.81-1.58-10.51-8.17-10.51H23.27a8.61,8.61,0,0,0-8.07,6.43h-3c-3.73,0-3.74,5.65,0,5.65h5.42a2.83,2.83,0,0,0,2.83-2.83c0-2,1.29-3.6,2.83-3.6,89.41,0,73-1.43,76.21,4.87-6.14.2-6,9.4,0.15,9.4H150c6,0,6.36-8.88.39-9.38a2.79,2.79,0,0,0,.33-1.29c0-2,1.29-3.6,2.83-3.6h73.07c1.53,0,2.83,1.65,2.83,3.6a2.83,2.83,0,0,0,2.83,2.83h5.5a2.83,2.83,0,0,0,2.83-2.83C240.61,95,236.75,95.62,234.7,95.62Z"/></svg>