<svg id="Layer_1" data-name="Layer 1" xmlns="http://www.w3.org/2000/svg" xmlns:xlink="http://www.w3.org/1999/xlink" viewBox="0 0 250 250"><defs><style>.cls-1{fill:none;stroke:#1a3b5e;stroke-linecap:round;stroke-linejoin:round;stroke-width:13.98px;}.cls-2{fill:#1a3b5e;}.cls-3{clip-path:url(#clip-path);}</style><clipPath id="clip-path"><path id="SVGID" class="cls-1" d="M169.73,157.75a46.84,46.84,0,0,1-89.47,0,7.69,7.69,0,0,1,5.07-9.63,6.53,6.53,0,0,1,1.41-.28v-0.07h76.19v0a8.15,8.15,0,0,1,1.74.33A7.69,7.69,0,0,1,169.73,157.75Z"/></clipPath></defs><title>Emoji-Party-Pack_Line</title><circle class="cls-1" cx="125" cy="125" r="112.5"/><circle class="cls-2" cx="60.29" cy="117.85" r="17.41"/><circle class="cls-2" cx="189.71" cy="117.85" r="17.41"/><path class="cls-1" d="M169.73,157.75a46.84,46.84,0,0,1-89.47,0,7.69,7.69,0,0,1,5.07-9.63,6.53,6.53,0,0,1,1.41-.28v-0.07h76.19v0a8.15,8.15,0,0,1,1.74.33A7.69,7.69,0,0,1,169.73,157.75Z"/><g class="cls-3"><path class="cls-1" d="M80.27,202.48a46.84,46.84,0,0,1,89.47,0,7.69,7.69,0,0,1-5.07,9.63,6.53,6.53,0,0,1-1.41.28v0.07H87.07v0a8.15,8.15,0,0,1-1.74-.33A7.69,7.69,0,0,1,80.27,202.48Z"/></g><path id="SVGID-2" data-name="SVGID" class="cls-1" d="M169.73,157.75a46.84,46.84,0,0,1-89.47,0,7.69,7.69,0,0,1,5.07-9.63,6.53,6.53,0,0,1,1.41-.28v-0.07h76.19v0a8.15,8.15,0,0,1,1.74.33A7.69,7.69,0,0,1,169.73,157.75Z"/></svg>