<svg id="Layer_1" data-name="Layer 1" xmlns="http://www.w3.org/2000/svg" viewBox="0 0 250 250"><defs><style>.cls-1{fill:none;stroke:#1a3b5e;stroke-linecap:round;stroke-linejoin:round;stroke-width:13.01px;}.cls-2{fill:#1a3b5e;}</style></defs><title>Emoji-Party-Pack_Line</title><path class="cls-1" d="M24.83,94.6C15.33,86,10.32,74.33,10.08,64.48c-0.5-5.84,1.37-13.94,3.36-17.63a31.3,31.3,0,0,1,3.31-5.47,0.91,0.91,0,0,1,1-.35h0a0.91,0.91,0,0,1,.64.71,26.61,26.61,0,0,0,3.74,10.39,23.39,23.39,0,0,0,5.09,5.79,17.42,17.42,0,0,0,11.89,4.15"/><path class="cls-1" d="M208.64,61.82a16.37,16.37,0,0,0,7.75-.44c6.12-1.62,12.93-8,15.24-19.65a0.91,0.91,0,0,1,.64-0.7h0a0.92,0.92,0,0,1,1,.36c3.75,5.45,5.47,9.29,6.54,17.07a40.29,40.29,0,0,1-.7,12.47,44.41,44.41,0,0,1-4.88,12.64c-3.56,5.79-6.34,8.86-9,11.16"/><circle class="cls-1" cx="124.99" cy="125" r="104.65"/><circle class="cls-2" cx="64.8" cy="118.35" r="16.19"/><circle class="cls-2" cx="185.18" cy="118.35" r="16.19"/><line class="cls-1" x1="48.38" y1="83.75" x2="80.77" y2="93.29"/><line class="cls-1" x1="201.6" y1="83.75" x2="169.21" y2="93.29"/><path class="cls-1" d="M102.22,142.89A4.35,4.35,0,0,0,98,148.09a27.54,27.54,0,0,0,54.08,0,4.35,4.35,0,0,0-4.25-5.21H102.22Z"/></svg>