<svg id="Layer_1" data-name="Layer 1" xmlns="http://www.w3.org/2000/svg" xmlns:xlink="http://www.w3.org/1999/xlink" viewBox="0 0 250 250"><defs><style>.cls-1{fill:none;stroke:#1a3b5e;stroke-linecap:round;stroke-linejoin:round;stroke-width:10.99px;}.cls-2{fill:#1a3b5e;}.cls-3{clip-path:url(#clip-path);}</style><clipPath id="clip-path"><path class="cls-1" d="M172.71,169.52a49.95,49.95,0,0,1-95.41,0,8.2,8.2,0,0,1,5.4-10.27,7,7,0,0,1,1.51-.3v-0.07h81.25v0a8.69,8.69,0,0,1,1.85.35A8.2,8.2,0,0,1,172.71,169.52Z"/></clipPath></defs><title>Emoji-Party-Pack_Line</title><circle class="cls-1" cx="125" cy="129.15" r="110.52"/><circle class="cls-2" cx="61.44" cy="122.12" r="17.1"/><circle class="cls-2" cx="188.56" cy="122.12" r="17.1"/><path class="cls-1" d="M172.71,169.52a49.95,49.95,0,0,1-95.41,0,8.2,8.2,0,0,1,5.4-10.27,7,7,0,0,1,1.51-.3v-0.07h81.25v0a8.69,8.69,0,0,1,1.85.35A8.2,8.2,0,0,1,172.71,169.52Z"/><g class="cls-3"><path class="cls-1" d="M77.29,217.21a49.95,49.95,0,0,1,95.41,0,8.2,8.2,0,0,1-5.4,10.27,7,7,0,0,1-1.51.3v0.07H84.55v0a8.69,8.69,0,0,1-1.85-.35A8.2,8.2,0,0,1,77.29,217.21Z"/></g><path class="cls-1" d="M172.71,169.52a49.95,49.95,0,0,1-95.41,0,8.2,8.2,0,0,1,5.4-10.27,7,7,0,0,1,1.51-.3v-0.07h81.25v0a8.69,8.69,0,0,1,1.85.35A8.2,8.2,0,0,1,172.71,169.52Z"/><path class="cls-1" d="M61.38,161.24h0a45,45,0,0,1-45-45V99.12a11.12,11.12,0,0,1,9.49-11h0a242.53,242.53,0,0,1,71.09,0h0a11.12,11.12,0,0,1,9.49,11v17.09A45,45,0,0,1,61.38,161.24Z"/><path class="cls-1" d="M188.62,161.24h0a45,45,0,0,1-45-45V99.12a11.12,11.12,0,0,1,9.49-11h0a242.53,242.53,0,0,1,71.09,0h0a11.12,11.12,0,0,1,9.49,11v17.09A45,45,0,0,1,188.62,161.24Z"/><path class="cls-1" d="M224.59,85.22a245.07,245.07,0,0,0-71.94,0,14.19,14.19,0,0,0-11.68,11H109a14.26,14.26,0,0,0-5.61-8.49c-9.27-6.61-54.71-5.93-78-2.47C13.75,86.94,10.3,102,16.34,102a2.93,2.93,0,0,0,2.93-2.93,8.23,8.23,0,0,1,7-8.1,239.44,239.44,0,0,1,70.23,0,8.23,8.23,0,0,1,7,8.1v17.09c0,3.87,5.86,3.88,5.86,0V102h31.31v14.16c0,3.87,5.86,3.88,5.86,0V99.12a8.23,8.23,0,0,1,7-8.1,239.31,239.31,0,0,1,70.23,0,8.23,8.23,0,0,1,7,8.1,2.93,2.93,0,1,0,5.86,0A14.13,14.13,0,0,0,224.59,85.22Z"/><line class="cls-1" x1="81.47" y1="178.35" x2="168.81" y2="178.35"/></svg>