<svg id="Layer_1" data-name="Layer 1" xmlns="http://www.w3.org/2000/svg" xmlns:xlink="http://www.w3.org/1999/xlink" viewBox="0 0 250 250"><defs><style>.cls-1{fill:none;stroke:#1a3b5e;stroke-linecap:round;stroke-linejoin:round;stroke-width:13.98px;}.cls-2{clip-path:url(#clip-path);}.cls-3{fill:#1a3b5e;}</style><clipPath id="clip-path"><path class="cls-1" d="M169.73,157.75a46.84,46.84,0,0,1-89.47,0,7.69,7.69,0,0,1,5.07-9.63,6.53,6.53,0,0,1,1.41-.28v-0.07h76.19v0a8.15,8.15,0,0,1,1.74.33A7.69,7.69,0,0,1,169.73,157.75Z"/></clipPath></defs><title>Emoji-Party-Pack_Line</title><circle class="cls-1" cx="125" cy="125" r="112.5"/><path class="cls-1" d="M169.73,157.75a46.84,46.84,0,0,1-89.47,0,7.69,7.69,0,0,1,5.07-9.63,6.53,6.53,0,0,1,1.41-.28v-0.07h76.19v0a8.15,8.15,0,0,1,1.74.33A7.69,7.69,0,0,1,169.73,157.75Z"/><g class="cls-2"><path class="cls-1" d="M80.27,202.48a46.84,46.84,0,0,1,89.47,0,7.69,7.69,0,0,1-5.07,9.63,6.53,6.53,0,0,1-1.41.28v0.07H87.07v0a8.15,8.15,0,0,1-1.74-.33A7.69,7.69,0,0,1,80.27,202.48Z"/></g><path class="cls-1" d="M169.73,157.75a46.84,46.84,0,0,1-89.47,0,7.69,7.69,0,0,1,5.07-9.63,6.53,6.53,0,0,1,1.41-.28v-0.07h76.19v0a8.15,8.15,0,0,1,1.74.33A7.69,7.69,0,0,1,169.73,157.75Z"/><path class="cls-3" d="M212.41,96.46a2.86,2.86,0,1,0-5.73,0,11.09,11.09,0,0,1-1.61,5.75,11.25,11.25,0,0,1-1.65,2.13,17,17,0,0,0,1.14-2.7,16.77,16.77,0,0,0,.82-5.18,2.86,2.86,0,1,0-5.73,0,11,11,0,0,1-.44,3.09,11.25,11.25,0,0,1-1.26,2.81,18.72,18.72,0,0,0-2.73-1.4,18.28,18.28,0,0,0-7.06-1.42A18.55,18.55,0,1,0,205.23,111c-0.07-.18-0.14-0.35-0.22-0.53,0.33-.23.65-0.47,1-0.72A16.88,16.88,0,0,0,212.41,96.46Z"/><path class="cls-3" d="M68.92,100.94A18.42,18.42,0,0,0,52,102.36a11.1,11.1,0,0,1-1.7-5.9,2.86,2.86,0,0,0-5.73,0,16.8,16.8,0,0,0,2,7.88,11.15,11.15,0,0,1-3.26-7.88,2.86,2.86,0,0,0-5.73,0,16.9,16.9,0,0,0,7.4,14A18.48,18.48,0,1,0,68.92,100.94Z"/></svg>