<svg id="Layer_1" data-name="Layer 1" xmlns="http://www.w3.org/2000/svg" xmlns:xlink="http://www.w3.org/1999/xlink" viewBox="0 0 250 250"><defs><style>.cls-1{fill:none;stroke:#1a3b5e;stroke-linecap:round;stroke-linejoin:round;stroke-width:12.18px;}.cls-2{clip-path:url(#clip-path);}.cls-3{fill:#1a3b5e;}</style><clipPath id="clip-path"><path class="cls-1" d="M167.33,152.67a44.28,44.28,0,0,1-84.59,0,7.27,7.27,0,0,1,4.79-9.11,6.17,6.17,0,0,1,1.34-.27v-0.06h72v0a7.7,7.7,0,0,1,1.64.31A7.27,7.27,0,0,1,167.33,152.67Z"/></clipPath></defs><title>Emoji-Party-Pack_Line</title><path class="cls-1" d="M220.81,104.27a98,98,0,0,1-175,78.33"/><path class="cls-1" d="M27.06,125a98,98,0,0,1,139.1-89"/><path class="cls-1" d="M167.33,152.67a44.28,44.28,0,0,1-84.59,0,7.27,7.27,0,0,1,4.79-9.11,6.17,6.17,0,0,1,1.34-.27v-0.06h72v0a7.7,7.7,0,0,1,1.64.31A7.27,7.27,0,0,1,167.33,152.67Z"/><g class="cls-2"><path class="cls-1" d="M82.74,195a44.28,44.28,0,0,1,84.59,0,7.27,7.27,0,0,1-4.79,9.11,6.17,6.17,0,0,1-1.34.27v0.06h-72v0a7.7,7.7,0,0,1-1.64-.31A7.27,7.27,0,0,1,82.74,195Z"/></g><path class="cls-1" d="M167.33,152.67a44.28,44.28,0,0,1-84.59,0,7.27,7.27,0,0,1,4.79-9.11,6.17,6.17,0,0,1,1.34-.27v-0.06h72v0a7.7,7.7,0,0,1,1.64.31A7.27,7.27,0,0,1,167.33,152.67Z"/><path class="cls-1" d="M83.75,124.19a15.16,15.16,0,0,0-30.14,0"/><path class="cls-1" d="M196.46,124.19a15.16,15.16,0,0,0-30.14,0"/><g id="_Group_" data-name="&lt;Group&gt;"><g id="_Group_2" data-name="&lt;Group&gt;"><path class="cls-3" d="M215.65,39.42a6.15,6.15,0,0,1,5.56,3.43C226.92,54.23,235,71.53,235,78.44a19.35,19.35,0,0,1-38.71,0c0-6.91,8.08-24.21,13.8-35.59a6.15,6.15,0,0,1,5.56-3.43m0-12.18a18.3,18.3,0,0,0-16.44,10.14c-15.09,30-15.09,38-15.09,41.06a31.53,31.53,0,0,0,63.07,0c0-3,0-11-15.09-41.06a18.3,18.3,0,0,0-16.44-10.14h0Z"/></g></g><g id="_Group_3" data-name="&lt;Group&gt;"><g id="_Group_4" data-name="&lt;Group&gt;"><path class="cls-3" d="M30.07,132.72a4.79,4.79,0,0,1,4.33,2.67c4.45,8.86,10.75,22.34,10.75,27.72a15.07,15.07,0,1,1-30.15,0c0-5.38,6.29-18.85,10.75-27.72a4.79,4.79,0,0,1,4.33-2.67m0-12.18a16.93,16.93,0,0,0-15.21,9.38c-12,24-12,30.43-12,33.18a27.25,27.25,0,1,0,54.5,0c0-2.76,0-9.22-12-33.18a16.93,16.93,0,0,0-15.21-9.38h0Z"/></g></g><g id="_Group_5" data-name="&lt;Group&gt;"><g id="_Group_6" data-name="&lt;Group&gt;"><path class="cls-3" d="M181.38,29.8a3.06,3.06,0,0,1,2.77,1.71C187,37.18,191,45.8,191,49.25a9.64,9.64,0,1,1-19.29,0c0-3.44,4-12.06,6.88-17.73a3.06,3.06,0,0,1,2.77-1.71m0-12.18A15.2,15.2,0,0,0,167.73,26c-7.18,14.29-8.17,19.6-8.17,23.2a21.82,21.82,0,1,0,43.65,0c0-3.6-1-8.91-8.17-23.2a15.2,15.2,0,0,0-13.65-8.42h0Z"/></g></g></svg>