<svg id="Layer_1" data-name="Layer 1" xmlns="http://www.w3.org/2000/svg" xmlns:xlink="http://www.w3.org/1999/xlink" viewBox="0 0 250 250"><defs><style>.cls-1{fill:none;stroke:#1a3b5e;stroke-linecap:round;stroke-linejoin:round;stroke-width:13.67px;}.cls-2{clip-path:url(#clip-path);}.cls-3{fill:#1a3b5e;}</style><clipPath id="clip-path"><path class="cls-1" d="M172.48,156.06a49.72,49.72,0,0,1-95,0,8.16,8.16,0,0,1,5.38-10.22,6.93,6.93,0,0,1,1.5-.3v-0.07h80.87v0a8.65,8.65,0,0,1,1.85.35A8.16,8.16,0,0,1,172.48,156.06Z"/></clipPath></defs><title>Emoji-Party-Pack_Line</title><circle class="cls-1" cx="125" cy="125" r="110"/><path class="cls-1" d="M172.48,156.06a49.72,49.72,0,0,1-95,0,8.16,8.16,0,0,1,5.38-10.22,6.93,6.93,0,0,1,1.5-.3v-0.07h80.87v0a8.65,8.65,0,0,1,1.85.35A8.16,8.16,0,0,1,172.48,156.06Z"/><g class="cls-2"><path class="cls-1" d="M77.52,203.54a49.72,49.72,0,0,1,95,0,8.16,8.16,0,0,1-5.38,10.22,6.93,6.93,0,0,1-1.5.3v0.07H84.74v0a8.65,8.65,0,0,1-1.85-.35A8.16,8.16,0,0,1,77.52,203.54Z"/></g><path class="cls-1" d="M172.48,156.06a49.72,49.72,0,0,1-95,0,8.16,8.16,0,0,1,5.38-10.22,6.93,6.93,0,0,1,1.5-.3v-0.07h80.87v0a8.65,8.65,0,0,1,1.85.35A8.16,8.16,0,0,1,172.48,156.06Z"/><path class="cls-3" d="M66.1,127l-15.74,8.28A3.66,3.66,0,0,1,45,131.37l3-17.53L35.31,101.43a3.66,3.66,0,0,1,2-6.25l17.6-2.56,7.87-15.95a3.66,3.66,0,0,1,6.57,0l7.87,15.95,17.6,2.56a3.66,3.66,0,0,1,2,6.25L84.14,113.84l3,17.53a3.66,3.66,0,0,1-5.31,3.86Z"/><path class="cls-3" d="M183.9,127l-15.74,8.28a3.66,3.66,0,0,1-5.31-3.86l3-17.53-12.73-12.41a3.66,3.66,0,0,1,2-6.25l17.6-2.56,7.87-15.95a3.66,3.66,0,0,1,6.57,0l7.87,15.95,17.6,2.56a3.66,3.66,0,0,1,2,6.25L202,113.84l3,17.53a3.66,3.66,0,0,1-5.31,3.86Z"/><line class="cls-1" x1="86.14" y1="168.55" x2="163.83" y2="168.55"/></svg>