<svg id="Layer_1" data-name="Layer 1" xmlns="http://www.w3.org/2000/svg" xmlns:xlink="http://www.w3.org/1999/xlink" viewBox="0 0 250 250"><defs><style>.cls-1{fill:none;stroke:#1a3b5e;stroke-linecap:round;stroke-linejoin:round;stroke-width:10.99px;}.cls-2{clip-path:url(#clip-path);}.cls-3{clip-path:url(#clip-path-2);}</style><clipPath id="clip-path"><circle class="cls-1" cx="125" cy="125.18" r="110.52"/></clipPath><clipPath id="clip-path-2"><path class="cls-1" d="M81.38,174.34a45.67,45.67,0,0,1,87.24,0,7.5,7.5,0,0,1-4.94,9.39,6.36,6.36,0,0,1-1.38.28v0.06H88v0a8,8,0,0,1-1.7-.32A7.5,7.5,0,0,1,81.38,174.34Z"/></clipPath></defs><title>Emoji-Party-Pack_Line</title><circle class="cls-1" cx="125" cy="125.18" r="110.52"/><g class="cls-2"><polyline class="cls-1" points="44.49 110.84 44.43 125.49 44.43 236.61 78.44 236.61 78.44 125.49 78.38 110.84"/><polyline class="cls-1" points="172.1 112.22 172.04 125.04 172.04 233.03 205.09 233.03 205.09 112.22 205.03 125.04"/></g><circle class="cls-1" cx="125" cy="125.18" r="110.52"/><path class="cls-1" d="M171.56,109.31a17.1,17.1,0,0,0,34,0"/><path class="cls-1" d="M44.43,109.31a17.1,17.1,0,0,0,34,0"/><path class="cls-1" d="M81.38,174.34a45.67,45.67,0,0,1,87.24,0,7.5,7.5,0,0,1-4.94,9.39,6.36,6.36,0,0,1-1.38.28v0.06H88v0a8,8,0,0,1-1.7-.32A7.5,7.5,0,0,1,81.38,174.34Z"/><g class="cls-3"><path class="cls-1" d="M91.4,190.28a35.18,35.18,0,0,1,67.2,0,5.77,5.77,0,0,1-3.81,7.23,4.9,4.9,0,0,1-1.06.21v0H96.51v0a6.12,6.12,0,0,1-1.31-.25A5.77,5.77,0,0,1,91.4,190.28Z"/></g><path class="cls-1" d="M81.38,174.34a45.67,45.67,0,0,1,87.24,0,7.5,7.5,0,0,1-4.94,9.39,6.36,6.36,0,0,1-1.38.28v0.06H88v0a8,8,0,0,1-1.7-.32A7.5,7.5,0,0,1,81.38,174.34Z"/></svg>