<svg id="Layer_1" data-name="Layer 1" xmlns="http://www.w3.org/2000/svg" viewBox="0 0 250 250"><defs><style>.cls-1,.cls-2{fill:none;stroke:#1a3b5e;stroke-linecap:round;stroke-linejoin:round;stroke-width:13.74px;}.cls-2{opacity:0.25;}</style></defs><title>Emoji-Party-Pack_Line</title><circle class="cls-1" cx="125" cy="125.18" r="110.52"/><line class="cls-1" x1="46.78" y1="103.5" x2="76.09" y2="132.81"/><line class="cls-1" x1="76.09" y1="103.5" x2="46.78" y2="132.81"/><line class="cls-1" x1="173.91" y1="103.5" x2="203.22" y2="132.81"/><line class="cls-1" x1="203.22" y1="103.5" x2="173.91" y2="132.81"/><path class="cls-1" d="M84.55,179.68v0a8.69,8.69,0,0,1-1.85-.35A8.2,8.2,0,0,1,77.29,169a49.95,49.95,0,0,1,95.41,0,8.2,8.2,0,0,1-5.4,10.27,7,7,0,0,1-1.51.3v0.07"/><path class="cls-1" d="M162,172.7a38.75,38.75,0,0,1-74,0,6.36,6.36,0,0,1,4.19-8,5.4,5.4,0,0,1,1.17-.23v-0.05h63v0a6.74,6.74,0,0,1,1.44.27A6.36,6.36,0,0,1,162,172.7Z"/><line class="cls-1" x1="125" y1="165.86" x2="125" y2="180.89"/><line class="cls-2" x1="125" y1="165.86" x2="125" y2="180.89"/></svg>