<svg id="Layer_1" data-name="Layer 1" xmlns="http://www.w3.org/2000/svg" xmlns:xlink="http://www.w3.org/1999/xlink" viewBox="0 0 250 250"><defs><style>.cls-1{fill:none;stroke:#1a3b5e;stroke-linecap:round;stroke-linejoin:round;stroke-width:13.98px;}.cls-2{fill:#1a3b5e;}.cls-3{clip-path:url(#clip-path);}</style><clipPath id="clip-path"><path class="cls-1" d="M80.59,169.75a46.49,46.49,0,0,1,88.81,0,7.63,7.63,0,0,1-5,9.56,6.48,6.48,0,0,1-1.4.28v0.06H87.35v0a8.09,8.09,0,0,1-1.73-.32A7.63,7.63,0,0,1,80.59,169.75Z"/></clipPath></defs><title>Emoji-Party-Pack_Line</title><circle class="cls-1" cx="125" cy="125" r="112.5"/><circle class="cls-2" cx="60.29" cy="117.85" r="17.41"/><circle class="cls-2" cx="189.71" cy="117.85" r="17.41"/><path class="cls-1" d="M80.59,169.75a46.49,46.49,0,0,1,88.81,0,7.63,7.63,0,0,1-5,9.56,6.48,6.48,0,0,1-1.4.28v0.06H87.35v0a8.09,8.09,0,0,1-1.73-.32A7.63,7.63,0,0,1,80.59,169.75Z"/><g class="cls-3"><path class="cls-1" d="M90.79,186a35.81,35.81,0,0,1,68.41,0,5.88,5.88,0,0,1-3.87,7.36,5,5,0,0,1-1.08.22v0H96v0a6.23,6.23,0,0,1-1.33-.25A5.88,5.88,0,0,1,90.79,186Z"/></g><path class="cls-1" d="M80.59,169.75a46.49,46.49,0,0,1,88.81,0,7.63,7.63,0,0,1-5,9.56,6.48,6.48,0,0,1-1.4.28v0.06H87.35v0a8.09,8.09,0,0,1-1.73-.32A7.63,7.63,0,0,1,80.59,169.75Z"/><line class="cls-1" x1="42.64" y1="79.86" x2="77.46" y2="90.11"/><line class="cls-1" x1="207.36" y1="79.86" x2="172.54" y2="90.11"/></svg>