<svg id="Layer_1" data-name="Layer 1" xmlns="http://www.w3.org/2000/svg" viewBox="0 0 250 250"><defs><style>.cls-1{fill:none;stroke:#1a3b5e;stroke-linecap:round;stroke-linejoin:round;stroke-width:13.72px;}.cls-2{fill:#1a3b5e;}</style></defs><title>Emoji-Party-Pack_Line</title><circle class="cls-1" cx="125" cy="125.5" r="110.36"/><path class="cls-1" d="M155.3,183.08a48,48,0,0,0,16.86-28.17,7.6,7.6,0,0,0-7.42-9.08H85.24a7.6,7.6,0,0,0-7.42,9.08A48,48,0,0,0,94.21,182.7"/><path class="cls-1" d="M154.71,145.83v43.34a29.72,29.72,0,0,1-59.45,0V145.83h59.45Z"/><path class="cls-2" d="M120.47,189.17a4.52,4.52,0,0,0,9,0V145.83h-9v43.34Z"/><polyline class="cls-1" points="44.6 96.99 78.75 116.96 44.6 134.04"/><polyline class="cls-1" points="205.4 134.04 171.25 114.07 205.4 96.99"/></svg>