<svg id="Layer_1" data-name="Layer 1" xmlns="http://www.w3.org/2000/svg" viewBox="0 0 250 250"><defs><style>.cls-1,.cls-3{fill:none;stroke:#1a3b5e;stroke-linecap:round;stroke-linejoin:round;stroke-width:13.98px;}.cls-2{fill:#1a3b5e;}.cls-3{opacity:0.25;}</style></defs><title>Emoji-Party-Pack_Line</title><circle class="cls-1" cx="125" cy="125" r="112.5"/><circle class="cls-2" cx="60.29" cy="117.85" r="17.41"/><circle class="cls-2" cx="189.71" cy="117.85" r="17.41"/><path class="cls-1" d="M83.81,183.61v0a8.85,8.85,0,0,1-1.89-.35,8.34,8.34,0,0,1-5.5-10.46,50.85,50.85,0,0,1,97.13,0,8.34,8.34,0,0,1-5.5,10.46,7.09,7.09,0,0,1-1.53.31v0.07"/><path class="cls-1" d="M162.67,176.51a39.45,39.45,0,0,1-75.36,0,6.47,6.47,0,0,1,4.27-8.11,5.5,5.5,0,0,1,1.19-.24V168.1h64.17v0a6.86,6.86,0,0,1,1.46.27A6.47,6.47,0,0,1,162.67,176.51Z"/><line class="cls-1" x1="124.99" y1="169.54" x2="124.99" y2="184.84"/><line class="cls-3" x1="124.99" y1="169.54" x2="124.99" y2="184.84"/></svg>