<svg id="Layer_1" data-name="Layer 1" xmlns="http://www.w3.org/2000/svg" xmlns:xlink="http://www.w3.org/1999/xlink" viewBox="0 0 250 250"><defs><style>.cls-1{fill:none;stroke:#1a3b5e;stroke-linecap:round;stroke-linejoin:round;stroke-width:13.15px;}.cls-2{clip-path:url(#clip-path);}.cls-3{fill:#1a3b5e;}</style><clipPath id="clip-path"><path class="cls-1" d="M166.47,154.88a47.82,47.82,0,0,1-91.34,0A7.85,7.85,0,0,1,80.3,145a6.66,6.66,0,0,1,1.44-.29v-0.07h77.78v0a8.32,8.32,0,0,1,1.78.33A7.85,7.85,0,0,1,166.47,154.88Z"/></clipPath></defs><title>Emoji-Party-Pack_Line</title><path class="cls-1" d="M224.07,102a105.85,105.85,0,1,1-33.43-56.41"/><path class="cls-1" d="M166.47,154.88a47.82,47.82,0,0,1-91.34,0A7.85,7.85,0,0,1,80.3,145a6.66,6.66,0,0,1,1.44-.29v-0.07h77.78v0a8.32,8.32,0,0,1,1.78.33A7.85,7.85,0,0,1,166.47,154.88Z"/><g class="cls-2"><path class="cls-1" d="M75.13,200.53a47.82,47.82,0,0,1,91.34,0,7.85,7.85,0,0,1-5.17,9.83,6.66,6.66,0,0,1-1.44.29v0.07H82.07v0a8.32,8.32,0,0,1-1.78-.33A7.85,7.85,0,0,1,75.13,200.53Z"/></g><path class="cls-1" d="M166.47,154.88a47.82,47.82,0,0,1-91.34,0A7.85,7.85,0,0,1,80.3,145a6.66,6.66,0,0,1,1.44-.29v-0.07h77.78v0a8.32,8.32,0,0,1,1.78.33A7.85,7.85,0,0,1,166.47,154.88Z"/><line class="cls-1" x1="185.46" y1="70.1" x2="165.5" y2="58.87"/><line class="cls-1" x1="43.35" y1="77.29" x2="76.09" y2="58.87"/><g id="_Group_" data-name="&lt;Group&gt;"><g id="_Group_2" data-name="&lt;Group&gt;"><path class="cls-3" d="M214.1,30.1a6.64,6.64,0,0,1,6,3.7c6.17,12.29,14.9,31,14.9,38.43a20.9,20.9,0,0,1-41.8,0c0-7.46,8.72-26.14,14.9-38.43a6.64,6.64,0,0,1,6-3.7m0-13.15a19.76,19.76,0,0,0-17.75,11c-16.3,32.44-16.3,41.08-16.3,44.33a34,34,0,0,0,68.1,0c0-3.25,0-11.89-16.3-44.33A19.76,19.76,0,0,0,214.1,17h0Z"/></g></g><path class="cls-3" d="M203,98.34a2.69,2.69,0,1,0-5.38,0,10.43,10.43,0,0,1-1.51,5.41,10.58,10.58,0,0,1-1.55,2,16,16,0,0,0,1.07-2.54,15.77,15.77,0,0,0,.77-4.87,2.69,2.69,0,1,0-5.38,0,10.37,10.37,0,0,1-.41,2.9,10.58,10.58,0,0,1-1.19,2.65,17.61,17.61,0,0,0-2.57-1.32,17.19,17.19,0,0,0-6.64-1.34A17.44,17.44,0,1,0,196.25,112c-0.07-.17-0.14-0.33-0.21-0.5,0.31-.21.61-0.44,0.91-0.67A15.87,15.87,0,0,0,203,98.34Z"/><path class="cls-3" d="M68.05,102.55a17.32,17.32,0,0,0-15.87,1.33,10.44,10.44,0,0,1-1.6-5.55,2.69,2.69,0,0,0-5.38,0A15.8,15.8,0,0,0,47,105.75,10.48,10.48,0,0,1,44,98.34a2.69,2.69,0,0,0-5.38,0,15.89,15.89,0,0,0,7,13.14A17.38,17.38,0,1,0,68.05,102.55Z"/><line class="cls-1" x1="83.19" y1="166.88" x2="158.37" y2="166.88"/></svg>