<svg id="Layer_1" data-name="Layer 1" xmlns="http://www.w3.org/2000/svg" xmlns:xlink="http://www.w3.org/1999/xlink" viewBox="0 0 250 250"><defs><style>.cls-1{fill:none;stroke:#1a3b5e;stroke-linecap:round;stroke-linejoin:round;stroke-width:13.72px;}.cls-2{clip-path:url(#clip-path);}.cls-3{fill:#1a3b5e;}</style><clipPath id="clip-path"><path class="cls-1" d="M172.64,156.67a49.88,49.88,0,0,1-95.28,0,8.19,8.19,0,0,1,5.4-10.26,7,7,0,0,1,1.5-.3V146h81.13v0a8.68,8.68,0,0,1,1.85.35A8.19,8.19,0,0,1,172.64,156.67Z"/></clipPath></defs><title>Emoji-Party-Pack_Line</title><circle class="cls-1" cx="125" cy="125.5" r="110.36"/><g class="cls-2"><path class="cls-1" d="M172.64,156.67a49.88,49.88,0,0,1-95.28,0,8.19,8.19,0,0,1,5.4-10.26,7,7,0,0,1,1.5-.3V146h81.13v0a8.68,8.68,0,0,1,1.85.35A8.19,8.19,0,0,1,172.64,156.67Z"/><g class="cls-2"><path class="cls-1" d="M77.36,204.29a49.88,49.88,0,0,1,95.28,0,8.19,8.19,0,0,1-5.4,10.26,7,7,0,0,1-1.5.3v0.07H84.61v0a8.68,8.68,0,0,1-1.85-.35A8.19,8.19,0,0,1,77.36,204.29Z"/></g><path class="cls-1" d="M172.64,156.67a49.88,49.88,0,0,1-95.28,0,8.19,8.19,0,0,1,5.4-10.26,7,7,0,0,1,1.5-.3V146h81.13v0a8.68,8.68,0,0,1,1.85.35A8.19,8.19,0,0,1,172.64,156.67Z"/><path class="cls-3" d="M153.67,140.23a11.41,11.41,0,1,1-9.56,17.65,11.4,11.4,0,0,1-19.11,0,11.4,11.4,0,0,1-19.11,0,11.41,11.41,0,1,1,0-12.46,11.4,11.4,0,0,1,19.11,0,11.4,11.4,0,0,1,19.11,0,11.4,11.4,0,0,1,9.56-5.18m0-13.72a25.12,25.12,0,0,0-9.56,1.88,25.23,25.23,0,0,0-19.11,0,25.23,25.23,0,0,0-19.11,0,25.13,25.13,0,1,0,0,46.51,25.23,25.23,0,0,0,19.11,0,25.23,25.23,0,0,0,19.11,0,25.14,25.14,0,1,0,9.56-48.39h0Z"/></g><path class="cls-1" d="M172.64,156.67a49.88,49.88,0,0,1-95.28,0,8.19,8.19,0,0,1,5.4-10.26,7,7,0,0,1,1.5-.3V146h81.13v0a8.68,8.68,0,0,1,1.85.35A8.19,8.19,0,0,1,172.64,156.67Z"/><polyline class="cls-1" points="43.41 96.99 77.56 116.96 43.41 134.04"/><polyline class="cls-1" points="204.21 134.04 170.06 114.07 204.21 96.99"/></svg>