<svg id="Layer_1" data-name="Layer 1" xmlns="http://www.w3.org/2000/svg" viewBox="0 0 250 250"><defs><style>.cls-1{fill:none;stroke:#1a3b5e;stroke-linecap:round;stroke-linejoin:round;stroke-width:10.99px;}.cls-2{fill:#1a3b5e;}</style></defs><title>Emoji-Party-Pack_Line</title><circle class="cls-1" cx="125.13" cy="125.18" r="110.52"/><circle class="cls-2" cx="61.57" cy="118.16" r="17.1"/><circle class="cls-2" cx="188.7" cy="118.16" r="17.1"/><path class="cls-1" d="M61.38,157.27h0a45,45,0,0,1-45-45V95.15a11.12,11.12,0,0,1,9.49-11h0a242.53,242.53,0,0,1,71.09,0h0a11.12,11.12,0,0,1,9.49,11v17.09A45,45,0,0,1,61.38,157.27Z"/><path class="cls-1" d="M188.62,157.27h0a45,45,0,0,1-45-45V95.15a11.12,11.12,0,0,1,9.49-11h0a242.53,242.53,0,0,1,71.09,0h0a11.12,11.12,0,0,1,9.49,11v17.09A45,45,0,0,1,188.62,157.27Z"/><path class="cls-1" d="M224.59,81.25a245.07,245.07,0,0,0-71.94,0,14.19,14.19,0,0,0-11.68,11H109a14.26,14.26,0,0,0-5.61-8.49c-9.27-6.61-54.71-5.93-78-2.47C13.75,83,10.3,98.08,16.34,98.08a2.93,2.93,0,0,0,2.93-2.93,8.23,8.23,0,0,1,7-8.1,239.44,239.44,0,0,1,70.23,0,8.23,8.23,0,0,1,7,8.1v17.09c0,3.87,5.86,3.88,5.86,0V98.08h31.31v14.16c0,3.87,5.86,3.88,5.86,0V95.15a8.23,8.23,0,0,1,7-8.1,239.31,239.31,0,0,1,70.23,0,8.23,8.23,0,0,1,7,8.1,2.93,2.93,0,1,0,5.86,0A14.13,14.13,0,0,0,224.59,81.25Z"/><line class="cls-1" x1="154.01" y1="170.6" x2="96.26" y2="170.6"/></svg>