<svg id="Layer_1" data-name="Layer 1" xmlns="http://www.w3.org/2000/svg" viewBox="0 0 250 250"><defs><style>.cls-1{fill:none;stroke:#1a3b5e;stroke-linecap:round;stroke-linejoin:round;stroke-width:13.74px;}.cls-2{fill:#1a3b5e;}</style></defs><title>Emoji-Party-Pack_Line</title><circle class="cls-1" cx="125" cy="125.18" r="110.52"/><path class="cls-1" d="M148.78,166.08a4.6,4.6,0,0,0,4.49-5.5,29.08,29.08,0,0,0-57.11,0,4.6,4.6,0,0,0,4.49,5.5h48.13Z"/><path class="cls-2" d="M210.87,97.65a2.81,2.81,0,1,0-5.62,0,10.9,10.9,0,0,1-1.58,5.65,11.05,11.05,0,0,1-1.62,2.1,16.67,16.67,0,0,0,1.12-2.66,16.47,16.47,0,0,0,.8-5.09,2.81,2.81,0,1,0-5.62,0,10.83,10.83,0,0,1-.43,3,11,11,0,0,1-1.24,2.76,18.39,18.39,0,0,0-2.69-1.38,18,18,0,0,0-6.94-1.4,18.22,18.22,0,1,0,16.77,11.22c-0.07-.17-0.14-0.35-0.22-0.52,0.33-.22.64-0.46,1-0.7A16.58,16.58,0,0,0,210.87,97.65Z"/><path class="cls-2" d="M69.9,102.05a18.09,18.09,0,0,0-16.58,1.39,10.9,10.9,0,0,1-1.67-5.8,2.81,2.81,0,0,0-5.62,0A16.5,16.5,0,0,0,48,105.39a11,11,0,0,1-3.2-7.74,2.81,2.81,0,0,0-5.62,0,16.6,16.6,0,0,0,7.27,13.72A18.16,18.16,0,1,0,69.9,102.05Z"/></svg>