<svg id="Layer_1" data-name="Layer 1" xmlns="http://www.w3.org/2000/svg" viewBox="0 0 250 250"><defs><style>.cls-1{fill:none;stroke:#1a3b5e;stroke-linecap:round;stroke-linejoin:round;stroke-width:13.95px;}.cls-2{fill:#1a3b5e;}</style></defs><title>Emoji-Party-Pack_Line</title><path class="cls-1" d="M233.69,92.41a112.27,112.27,0,1,1-46.54-61.72"/><circle class="cls-2" cx="61.66" cy="131.82" r="17.37"/><circle class="cls-2" cx="190.8" cy="131.82" r="17.37"/><line class="cls-1" x1="33.9" y1="120.03" x2="216.24" y2="120.03"/><g id="_Group_" data-name="&lt;Group&gt;"><g id="_Group_2" data-name="&lt;Group&gt;"><path class="cls-2" d="M209.32,25.53a7,7,0,0,1,6.37,3.93c6.55,13,15.81,32.86,15.81,40.78a22.17,22.17,0,1,1-44.35,0c0-7.91,9.26-27.74,15.81-40.78a7,7,0,0,1,6.37-3.93m0-14A21,21,0,0,0,190.48,23.2c-17.29,34.42-17.29,43.59-17.29,47a36.13,36.13,0,0,0,72.26,0c0-3.45,0-12.62-17.29-47a21,21,0,0,0-18.84-11.62h0Z"/></g></g><line class="cls-1" x1="141.61" y1="156.25" x2="110.86" y2="156.25"/></svg>