<svg id="Layer_1" data-name="Layer 1" xmlns="http://www.w3.org/2000/svg" xmlns:xlink="http://www.w3.org/1999/xlink" viewBox="0 0 250 250"><defs><style>.cls-1{fill:none;stroke:#1a3b5e;stroke-linecap:round;stroke-linejoin:round;stroke-width:13.74px;}.cls-2{clip-path:url(#clip-path);}</style><clipPath id="clip-path"><path class="cls-1" d="M81.38,172.25a45.67,45.67,0,0,1,87.24,0,7.5,7.5,0,0,1-4.94,9.39,6.36,6.36,0,0,1-1.38.28V182H88v0a8,8,0,0,1-1.7-.32A7.5,7.5,0,0,1,81.38,172.25Z"/></clipPath></defs><title>Emoji-Party-Pack_Line</title><path class="cls-1" d="M145.88,21.91a102.08,102.08,0,0,1,71.81,50.75"/><path class="cls-1" d="M222.92,73.91a20.26,20.26,0,0,1-31.85-14.32,20.24,20.24,0,0,1-22.16-14.23,20.26,20.26,0,0,1-24.41-29,110.53,110.53,0,1,0,91,108.8A110,110,0,0,0,222.92,73.91Z"/><circle class="cls-1" cx="71.36" cy="108.23" r="27.03"/><circle class="cls-1" cx="188.56" cy="118.16" r="17.1"/><line class="cls-1" x1="86.08" y1="181.77" x2="86.08" y2="193.27"/><line class="cls-1" x1="96.55" y1="181.77" x2="96.55" y2="211.58"/><path class="cls-1" d="M81.38,172.25a45.67,45.67,0,0,1,87.24,0,7.5,7.5,0,0,1-4.94,9.39,6.36,6.36,0,0,1-1.38.28V182H88v0a8,8,0,0,1-1.7-.32A7.5,7.5,0,0,1,81.38,172.25Z"/><g class="cls-2"><path class="cls-1" d="M91.4,188.19a35.18,35.18,0,0,1,67.2,0,5.77,5.77,0,0,1-3.81,7.23,4.9,4.9,0,0,1-1.06.21v0H96.51v0a6.12,6.12,0,0,1-1.31-.25A5.77,5.77,0,0,1,91.4,188.19Z"/></g><path class="cls-1" d="M81.38,172.25a45.67,45.67,0,0,1,87.24,0,7.5,7.5,0,0,1-4.94,9.39,6.36,6.36,0,0,1-1.38.28V182H88v0a8,8,0,0,1-1.7-.32A7.5,7.5,0,0,1,81.38,172.25Z"/></svg>