<?xml version="1.0" encoding="UTF-8" standalone="no"?>
<svg
   xmlns:dc="http://purl.org/dc/elements/1.1/"
   xmlns:cc="http://creativecommons.org/ns#"
   xmlns:rdf="http://www.w3.org/1999/02/22-rdf-syntax-ns#"
   xmlns:svg="http://www.w3.org/2000/svg"
   xmlns="http://www.w3.org/2000/svg"
   height="300"
   width="300"
   xml:space="preserve"
   enable-background="new 0 0 126 168"
   viewBox="0 0 300 300"
   y="0px"
   x="0px"
   id="TEX"
   version="1.1"><metadata
     id="metadata13356"><rdf:RDF><cc:Work
         rdf:about=""><dc:format>image/svg+xml</dc:format><dc:type
           rdf:resource="http://purl.org/dc/dcmitype/StillImage" /><dc:title></dc:title></cc:Work></rdf:RDF></metadata><defs
     id="defs13354" /><g
     transform="matrix(2.3650794,0,0,2.3650794,1,-48.666667)"
     id="g13208"><g
       id="g13210"><g
         id="g13212"><g
           id="g13214"><path
             style="fill:#ffffff"
             id="path13216"
             d="M 63,21 C 28.3,21 0,49.3 0,84 c 0,34.7 28.3,63 63,63 34.7,0 63,-28.3 63,-63 C 126,49.3 97.7,21 63,21 Z" /><path
             style="fill:#ffffff"
             id="path13218"
             d="m 121.1,84 c 0,-0.4 0,-0.7 0,-1.1 l -18.1,0 C 102.7,73.1 98.9,63.4 91.4,55.9 75.8,40.3 50.6,40.4 35.1,55.9 27.5,63.4 23.7,73.2 23.4,83 L 4.9,83 c 0,0.3 0,0.7 0,1 0,0.1 0,0.2 0,0.3 0,0.3 0,0.5 0,0.8 l 18.5,0 c 0.2,9.9 4.1,19.6 11.6,27.2 15.6,15.5 40.8,15.5 56.3,0 7.5,-7.5 11.4,-17.4 11.6,-27.3 l 18.1,0 c 0,-0.3 0,-0.5 0,-0.8 0.1,-0.1 0.1,-0.1 0.1,-0.2 z" /><g
             id="g13220"><path
               style="fill:#c0111f"
               id="path13222"
               d="M 63,25.9 C 31.3,25.9 5.5,51.4 4.9,83 l 0,0 18.5,0 c 0.3,-9.8 4.1,-19.6 11.6,-27.1 15.6,-15.5 40.8,-15.6 56.3,0 7.5,7.5 11.3,17.2 11.6,27 l 18.1,0 c 0,0.4 0,0.7 0,1.1 l 0,0 C 121.1,52 95,25.9 63,25.9 Z" /><path
               style="fill:#003278"
               id="path13224"
               d="M 63,23.1 C 29.4,23.1 2.1,50.4 2.1,84 c 0,33.6 27.2,60.9 60.9,60.9 33.6,0 60.9,-27.3 60.9,-60.9 C 123.9,50.4 96.6,23.1 63,23.1 Z m -15.6,97.5 c 0.4,0 0.7,0 1.1,-0.1 0.4,0.5 0.8,0.7 1.2,1 -0.8,-0.3 -1.5,-0.6 -2.3,-0.9 z m 73.7,-36.4 c 0,0.3 0,0.5 0,0.8 L 103,85 c -0.2,9.9 -4.1,19.7 -11.6,27.3 -11,10.9 -26.7,14.1 -40.4,9.7 l 0.3,-0.4 c -0.9,-0.2 -2,-1 -2.6,-1.6 -1.4,0.4 -2.2,-0.3 -3.2,-0.6 l -0.1,0.3 c -3.7,-1.9 -7.2,-4.3 -10.3,-7.4 -1.5,-1.5 -2.8,-3.1 -3.9,-4.7 0.4,0.2 0.8,0.5 1.2,0.6 L 32,107.6 c 0,0 -1,-0.7 -1.8,-1.3 -0.7,-1 -1.3,-2 -1.8,-3 1.2,1.1 2,1.3 2.9,1.7 L 31,103.7 c -0.8,-0.2 -2.3,-0.9 -3.4,-2 C 25,96.5 23.7,90.8 23.5,85.1 l -18.6,0 c 0,-0.3 0,-0.5 0,-0.8 0,-0.1 0,-0.2 0,-0.3 0,0 0,0 0,0 0,-0.3 0,-0.7 0,-1 C 5.5,51.4 31.3,25.9 63,25.9 95,25.9 121.1,52 121.1,84 l 0,0 c 0,0.1 0,0.1 0,0.2 z" /></g><g
             id="g13226"><path
               style="fill:#ffffff"
               id="path13228"
               d="m 20.9,102.1 c 0.7,-0.3 1.2,-0.7 1.4,-1.5 0.4,-1 0.3,-2.4 -0.2,-3.7 l -1.4,-3.8 -0.2,0.2 c 0,0 -0.8,0.7 -0.8,0.7 0,0 -0.9,0.3 -0.9,0.3 0,0 -1.8,0.8 -1.8,0.8 0,0 -1.1,-0.5 -1.1,-0.5 l -0.2,-0.1 c 0,0 -0.6,1.2 -0.6,1.4 -0.2,0 -3.1,1.1 -3.1,1.1 0,0 -1,-0.1 -1,-0.1 l -0.3,0 1.3,3.5 c 0,0 1,-1 1,-1 0,0 2.5,-0.9 3.2,-1.2 0,0.1 0.2,0.5 0.2,0.7 -0.1,0.2 -3.6,3.9 -3.6,3.9 l 1,2.8 c 0,0 0.9,-1.3 0.9,-1.4 0.1,-0.1 2.9,-3 3.1,-3.3 0.9,1.1 2.1,1.6 3.1,1.2 z m 0,-3.5 c -0.1,0.4 -0.5,0.7 -0.9,0.9 -0.5,0.2 -1,0.1 -1.4,-0.1 l 0,0 C 18.3,99.2 18,99 17.9,98.6 c 0,0 -0.2,-0.6 -0.3,-0.9 0.3,-0.1 2.8,-0.9 3.1,-1 0.1,0.2 0.3,0.8 0.3,0.8 0.1,0.2 0.1,0.5 0.1,0.7 -0.1,0.1 -0.1,0.2 -0.2,0.4 z" /><path
               style="fill:#ffffff"
               id="path13230"
               d="m 30.1,111.9 c 0,0 -4.1,1.4 -4.1,1.4 0,0 -1.2,-0.3 -1.2,-0.3 l -0.2,0 c 0,0 -0.5,1 -0.6,1.2 -0.2,0 -3.4,1.2 -3.4,1.2 0,0 0,0 0,0 -0.1,0 -0.4,0 -1.1,0.1 0,0 -0.5,0.1 -0.5,0.1 l 2.1,2.4 c 0,0 0.5,-1 0.5,-1.2 0.1,0 1.3,-0.5 1.5,-0.6 0.2,0.2 2.1,2.4 2.2,2.5 -0.1,0.2 -0.7,1.3 -0.8,1.4 -0.1,0 -1.2,0.4 -1.2,0.4 l 2.7,3.1 c 0,0 0.4,-1.6 0.4,-1.6 0,0 0.7,-1.1 0.7,-1.1 0,0 1.1,-1.9 1.1,-1.9 0,0 1.1,-0.4 1.1,-0.4 l 0.1,-0.1 c 0,0 -0.2,-1.5 -0.2,-1.5 0,0 1.9,-3.9 1.9,-3.9 l 0.1,-0.1 -1.1,-1.2 0,0.1 z m -2.3,2.6 c -0.4,0.6 -1.3,2.3 -1.5,2.7 -0.3,-0.3 -1.2,-1.3 -1.4,-1.6 0.3,-0.1 2.2,-0.8 2.9,-1.1 z" /><path
               style="fill:#ffffff"
               id="path13232"
               d="m 46.8,125.5 c 0,0 -1.4,2.8 -1.4,2.8 0,0 -0.4,0.8 -0.7,1.4 -0.2,-1 -1.3,-7.3 -1.3,-7.3 l -2.7,-1.3 0,0.3 c 0,0 0.1,1.3 0.1,1.3 0,0 -0.7,1.4 -0.7,1.4 0,0 -0.5,0.9 -0.5,1 -0.1,0.1 -1.3,0.5 -1.3,0.5 0,0 0.4,1.4 0.4,1.4 0,0 -1,1.9 -1,1.9 0,0 -0.5,1.1 -0.5,1.1 0,0 -0.9,0.6 -0.9,0.6 l -0.3,0.2 3.1,1.5 c 0,0 -0.2,-1.5 -0.2,-1.5 0,0 1.9,-3.9 2.6,-5.2 0.2,1 1.5,8.8 1.5,8.8 l 1.3,0.6 c 0,0 2,-4.2 2,-4.2 0,0 1.1,-0.4 1.1,-0.4 l 0.1,-0.1 c 0,0 -0.3,-1.3 -0.3,-1.3 0,0 0.8,-1.6 0.8,-1.6 0,0 0.5,-1 0.5,-1.1 0,0 0.8,-0.6 0.8,-0.6 l 0.2,-0.2 -3,-1.5 c 0.2,-0.1 0.3,1.5 0.3,1.5 z" /><path
               style="fill:#ffffff"
               id="path13234"
               d="m 65.9,134 c 0,0 0,1 0,1 l 0,1.9 c -0.2,0.1 -0.5,0.3 -1.2,0.3 -1.9,0 -3,-1.7 -3.2,-3.3 0,0 0.8,-0.8 0.8,-0.8 l 0.1,-0.1 c 0,0 -0.8,-0.9 -0.9,-1 0,0 0.1,-0.3 0.1,-0.3 0.4,-1.3 1.4,-2.7 3.2,-2.7 1.3,0 2.2,0.3 2.7,0.9 0,0 0.2,0.2 0.2,0.2 l 0.3,0.4 0.1,-2 -0.1,-0.1 c -0.9,-0.6 -1.7,-0.8 -3.1,-0.9 -2.7,0 -5.2,1.6 -6,4 0,0 -0.1,0.5 -0.1,0.5 0,0 -0.8,0.8 -0.8,0.8 l -0.1,0.1 0.9,1.1 c 0.5,2.7 3.1,4.7 6,4.8 2.1,0 2.7,-0.3 3.4,-0.6 l 0.4,-0.2 c 0,0 0,-3.8 0,-3.8 0,0 0.5,-0.9 0.5,-0.9 l 0.2,-0.3 -3.9,0 c -0.2,-0.3 0.5,1 0.5,1 z" /><path
               style="fill:#ffffff"
               id="path13236"
               d="m 87.4,131.1 c 0,0 -1.6,0.7 -1.6,0.7 0,0 -0.6,0.3 -0.9,0.4 -0.1,-0.2 -1.2,-2.9 -1.3,-3.2 0.3,-0.1 1.8,-0.8 1.8,-0.8 0,0 1.1,-0.1 1.1,-0.1 l 0.3,0 -0.9,-2.3 -1,0.9 c 0,0 -1.7,0.7 -1.7,0.7 0,0 0,0 0,0 -0.1,-0.3 -1,-2.3 -1.1,-2.6 0.3,-0.1 2.5,-1.1 2.6,-1.1 0.1,0 1.9,0.1 1.9,0.1 l -0.9,-2.2 -0.3,0.1 -6.9,3 1.2,0.9 c 0,0.1 1.1,2.7 1.2,2.9 -0.1,0.1 -0.6,1.3 -0.6,1.3 0,0 1.2,0.4 1.4,0.5 0.1,0.1 1.2,3 1.2,3 0,0 -0.1,1.1 -0.1,1.1 l 0,0.3 7.1,-3.1 -0.9,-2.1 c -0.3,0.1 -1.6,1.6 -1.6,1.6 z" /><path
               style="fill:#ffffff"
               id="path13238"
               d="m 101.3,114.7 c 0.2,-0.4 0.3,-0.9 0.3,-1.3 0,-0.8 -0.3,-1.6 -0.8,-2 -0.6,-0.5 -1.2,-0.7 -2,-0.6 -1,0.1 -2.2,0.9 -3.1,2 l -2.6,3.1 c 0,0 1.3,0.4 1.4,0.4 l 0,0 c 0,0 2.2,1.9 2.2,2 0,0 0,0 0,0.1 0,0.3 0.1,1.2 0.1,1.2 l 0,0.2 c 0,0 1.3,-0.1 1.5,-0.1 0.1,0.1 2.5,2.2 2.5,2.2 0,0 0.4,0.9 0.4,0.9 l 0.1,0.3 2.4,-2.8 -1.4,-0.4 c 0,0 -2,-1.8 -2.6,-2.2 0.1,-0.1 0.4,-0.4 0.5,-0.5 0.2,0 5.2,1.2 5.2,1.2 l 2,-2.3 c 0,0 -1.6,-0.1 -1.6,-0.1 -0.1,-0.2 -4.1,-1.2 -4.5,-1.3 z m -1.8,0.2 c 0,0.4 -0.1,0.7 -0.4,1 0,0 -0.4,0.5 -0.6,0.7 -0.3,-0.2 -2.2,-2 -2.4,-2.2 0.2,-0.2 0.5,-0.6 0.5,-0.6 0.3,-0.4 0.6,-0.6 1,-0.6 0.4,-0.1 0.8,0.1 1.2,0.4 0.5,0.3 0.7,0.8 0.7,1.3 0,0 0,0 0,0 z" /><path
               style="fill:#ffffff"
               id="path13240"
               d="m 114.7,97.9 c -0.4,-0.9 -1.2,-1.6 -2.1,-1.8 -0.4,-0.1 -1,-0.1 -1.3,0 l 0,0 c -0.6,0.1 -1,0.5 -1.2,0.7 0,0 -0.7,0.7 -0.7,0.7 0,0 -0.2,0.3 -0.3,0.4 -0.1,0 -1,0 -1,0 0,0 -0.3,1.2 -0.3,1.3 0,0 -0.1,0.1 -0.1,0.1 -0.8,0.8 -1.3,0.8 -1.5,0.7 -0.5,-0.2 -1.3,-0.9 -0.9,-2 0.3,-0.9 0.7,-1.4 1.3,-1.7 l 0.1,-0.1 0,-0.2 -0.4,-1 -0.3,0 c -0.7,0.4 -1.4,1.3 -1.8,2.6 -0.6,1.8 -0.2,4 1.6,4.7 0.3,0.1 0.7,0.2 1.1,0.2 0.5,-0.1 1,-0.4 1.5,-0.7 0,0 0.3,-0.3 0.3,-0.3 0,0 0.1,-0.1 0.1,-0.1 0,0 0.8,0.1 0.8,0.1 l 0.1,0 c 0,0 0.4,-1.4 0.4,-1.4 0,0 1,-1.1 1,-1.1 0.4,-0.3 0.9,-0.6 1.2,-0.5 0.6,0.2 0.9,0.5 1.2,0.9 0.3,0.6 0.3,1.3 0.1,2 -0.5,1.3 -1.4,1.7 -2.1,1.8 l -0.2,0 0,0.2 0.4,1 0.2,0 c 0.8,-0.1 2.2,-1 2.8,-2.9 0.5,-1.4 0.5,-2.6 0,-3.6 z" /><path
               style="fill:#ffffff"
               id="path13242"
               d="m 30.2,54.6 c 0,0 -2.5,-2.2 -2.6,-2.2 0,0 0,0 0,0 0,-0.2 -0.2,-1.1 -0.2,-1.1 l 0,-0.2 c 0,0 -1.1,0.1 -1.3,0.1 -0.1,-0.1 -1.9,-1.6 -2.1,-1.8 0.2,-0.2 1.1,-1.3 1.1,-1.3 0,0 1.4,-0.6 1.4,-0.6 l 0.3,-0.1 -2,-1.4 -0.1,0.1 -5.6,6.7 1.8,1.5 0.4,-1.7 c 0,0 0.8,-1 1.1,-1.3 0.3,0.2 2,1.7 2.1,1.8 0,0.1 0.2,1.3 0.2,1.3 0,0 1.2,-0.1 1.3,-0.1 0.1,0.1 2.6,2.2 2.6,2.2 0,0 0.4,1 0.4,1 l 0.1,0.3 2.4,-2.9 c 0,-0.1 -1.3,-0.3 -1.3,-0.3 l 0,0 z" /><path
               style="fill:#ffffff"
               id="path13244"
               d="m 38.2,41 c -0.1,0.1 -0.5,1.3 -0.5,1.3 0,0 1.2,0.4 1.4,0.4 0.1,0.1 1.5,3 1.5,3 0,0 0,1 0,1 l 0,0.3 6.7,-3.5 -1,-2 c 0,0 -1.1,1.5 -1.1,1.5 0,0 -2.2,1.1 -2.6,1.4 -0.2,-0.3 -1.5,-2.9 -1.6,-3.2 0.3,-0.1 1.8,-1 1.8,-1 0,0 1,-0.1 1,-0.1 l 0.3,0 -1,-2 c 0,0 -0.9,0.9 -0.9,0.9 0,0 -1.4,0.7 -1.8,0.9 -0.1,-0.3 -1.2,-2.3 -1.3,-2.5 0.3,-0.2 2.7,-1.4 2.7,-1.4 0,0 1.5,0 1.5,0 l 0.3,0 -1.1,-2.1 -0.2,0.1 -6.6,3.5 1.2,0.7 c -0.2,0 1.1,2.5 1.3,2.8 z" /><path
               style="fill:#ffffff"
               id="path13246"
               d="m 79.7,42.7 c 0.1,-0.1 1.1,-1.1 1.2,-1.2 0.2,0.1 3,1.4 3.2,1.5 0,0.2 -0.2,1.6 -0.2,1.7 -0.1,0.1 -0.9,0.8 -0.9,0.8 l 3.5,1.6 -0.3,-1.5 c 0,0 0.5,-3.4 0.5,-3.4 0,0 1,-0.8 1,-0.8 l 0.1,-0.1 c 0,0 -1,-1.2 -1,-1.2 0,0 0.2,-4.5 0.2,-4.5 l 0,-0.1 -1.4,-0.7 -0.1,0.1 c 0,0 -3.4,3.1 -3.4,3.1 0,0 -1.3,0.2 -1.3,0.2 l -0.2,0 c 0,0 0,1.1 0,1.3 -0.1,0.1 -2.7,2.4 -2.7,2.4 0,0 -0.9,0.6 -0.9,0.6 l 0,0.2 2.7,1.3 c 0,-0.1 0,-1.1 0,-1.3 z m 2.4,-2.3 c 0.3,-0.3 2.1,-1.9 2.6,-2.4 -0.1,0.7 -0.4,3.1 -0.4,3.5 -0.4,-0.2 -1.8,-0.9 -2.2,-1.1 z" /><path
               style="fill:#ffffff"
               id="path13248"
               d="m 98.2,57.6 c 0.8,0.3 1.7,0.2 2.6,-0.3 0.4,-0.2 0.7,-0.6 0.9,-0.9 0.3,-0.5 0.4,-1.1 0.4,-1.3 l 0,-0.9 c 0,0 0,-0.4 0,-0.5 0.1,-0.1 0.7,-0.7 0.7,-0.7 0,0 -0.6,-1.1 -0.7,-1.1 0,0 0,0 0,-0.1 0,-0.1 0,-0.2 0,-0.2 0,-0.8 0.2,-1.4 0.6,-1.6 0.5,-0.2 1.7,-0.2 2.2,0.9 0.4,0.9 0.5,1.5 0.3,2.2 l 0,0.2 1,0.4 0.1,-0.2 c 0.3,-1 -0.2,-2.4 -0.5,-3.1 -0.8,-1.6 -2.6,-3 -4.4,-2.2 -0.3,0.1 -0.6,0.3 -0.9,0.7 -0.3,0.4 -0.5,1 -0.5,1.5 l 0,0.4 c 0,0 0,0.2 0,0.2 0,0 -0.6,0.5 -0.6,0.5 l -0.1,0.1 c 0,0 0.7,1.3 0.7,1.3 0,0 0,0 0,0 0,0.2 0.1,1.4 0.1,1.4 0,0.5 -0.3,1.1 -0.6,1.3 -0.4,0.3 -0.9,0.3 -1.4,0.2 C 97.6,55.7 96.9,55.3 96.4,54.3 95.8,53 96.2,52 96.6,51.4 l 0.1,-0.2 -1,-0.4 -0.1,0.1 c -0.6,0.7 -0.8,2.4 0.1,4 0.4,1.4 1.4,2.4 2.5,2.7 z" /><path
               style="fill:#ffffff"
               id="path13250"
               d="m 60.4,39.9 c 0.1,-0.1 1.9,-2.4 2.2,-2.8 0.3,0.4 1.9,2.9 1.9,2.9 0,0 0,0 0,0 0,0.1 0.1,0.8 0.1,0.8 l 0,0.2 3.7,0 -1.3,-1.3 c 0,0 -2.1,-3.1 -2.4,-3.6 0.1,-0.2 0.5,-0.7 0.5,-0.7 0,0 -0.5,-0.5 -0.6,-0.7 0.2,-0.2 2.5,-3.3 2.5,-3.3 l 1,-1.4 -3.3,0 0.1,0.3 c 0,0 0.3,0.6 0.3,0.8 -0.1,0.2 -1.7,2.3 -2,2.7 -0.3,-0.4 -1.8,-2.7 -1.8,-2.8 0,0 0,0 0,0 0,-0.1 -0.1,-0.8 -0.1,-0.8 l 0,-0.2 -3.5,0 1.1,1.3 c 0,0 1.9,2.9 2.2,3.4 -0.1,0.2 -0.5,0.8 -0.5,0.8 0,0 0.6,0.5 0.7,0.7 -0.2,0.3 -2.7,3.5 -2.7,3.5 0,0 -1,0.9 -1,0.9 l -0.4,0.3 3.3,0 c 0.2,0 0,-0.9 0,-1 z" /></g><polygon
             style="fill:#ffffff"
             id="polygon13252"
             points="109.7,64.6 111.1,69 115.7,69 112,71.7 113.4,76.1 109.7,73.4 105.9,76.1 107.4,71.7 103.6,69 108.2,69 " /><polygon
             style="fill:#ffffff"
             id="polygon13254"
             points="15.9,64.6 17.4,69 22,69 18.3,71.7 19.7,76.1 15.9,73.4 12.2,76.1 13.6,71.7 9.9,69 14.5,69 " /></g></g><path
         style="fill:#003278"
         id="path13256"
         d="m 99.6,139.1 -1.3,0 0,3.4 -0.9,0 0,-3.4 -1.3,0 0,-0.7 3.4,0 0,0.7 z m 5.7,3.4 -0.8,0 0,-3.3 0,0 -1.2,3.3 -0.8,0 -1.2,-3.3 0,0 0,3.3 -0.9,0 0,-4.2 1.5,0 1,2.7 0,0 1,-2.7 1.5,0 0,4.2 z" /></g><g
       id="g13258"><path
         style="fill:#003278"
         id="path13260"
         d="m 60.3,45.2 c 0,0 -0.6,-0.5 -1,-0.7 -0.3,0 -0.6,0.1 -0.9,0.1 0.3,0.1 1.2,0.5 1.4,0.7 l 0.5,-0.1 z" /><path
         style="fill:#003278"
         id="path13262"
         d="m 58.5,45.7 c 0,0 -0.6,-0.5 -1.5,-1 -0.4,0.1 -0.7,0.1 -1.1,0.2 0.7,0.2 1.3,0.6 1.9,0.9 l 0.7,-0.1 z" /><path
         style="fill:#003278"
         id="path13264"
         d="m 55,46.7 1.1,-0.3 c 0,0 -1.4,-0.7 -1.9,-0.7 -0.3,-0.1 -0.4,-0.2 -0.6,-0.3 -0.5,0.1 -0.9,0.2 -1.4,0.4 0.3,0.1 0.9,0.2 1.2,0.4 0.7,-0.1 1.2,0.3 1.6,0.5 z" /><path
         style="fill:#003278"
         id="path13266"
         d="m 52.3,47.9 1.1,-0.4 c -0.1,-0.2 -1.5,-0.8 -2.3,-0.8 -0.3,-0.2 -0.6,-0.3 -0.8,-0.3 -0.4,0.1 -0.8,0.3 -1.2,0.4 0.1,0 0.9,0.2 1.2,0.5 0.8,-0.1 1.5,0.3 2,0.6 z" /><path
         style="fill:#003278"
         id="path13268"
         d="m 47.4,48.4 c 0.8,-0.1 1.7,0.4 2.2,0.7 l 1.1,-0.3 c -0.6,-0.5 -1.7,-1 -2.4,-1 -0.3,-0.4 -0.8,-0.2 -1.2,-0.2 l -1.4,0.6 c 0.2,0.1 1.5,-0.2 1.7,0.2 z" /><path
         style="fill:#003278"
         id="path13270"
         d="m 46.8,50.9 1,-0.8 C 47,49.7 45.8,49.5 45.2,49.5 44.9,49.4 44.9,49.3 44.6,49.2 L 43.2,50 c 0.2,0 1.3,0 1.5,0.4 0.8,-0.1 1.6,0.2 2.1,0.5 z" /><path
         style="fill:#003278"
         id="path13272"
         d="m 41.1,53.1 c 0.9,-0.2 2.3,-0.5 3.6,-0.2 l 1,-0.9 c -1.5,-0.3 -3.1,-0.2 -3.9,0 -0.2,-0.3 -0.6,-0.6 -0.6,-0.6 l -1,0.8 c 0.4,0.1 0.6,0.5 0.9,0.9 z" /><path
         style="fill:#003278"
         id="path13274"
         d="m 38.4,56.1 c 0.8,-0.4 2.5,-0.7 4.2,-0.4 l 0.9,-1.1 c -2.6,-0.2 -3.6,0.1 -4.5,0.5 -0.3,-0.5 -0.7,-0.7 -0.7,-0.7 l -0.8,0.7 c 0.5,0.1 0.6,0.6 0.9,1 z" /><path
         style="fill:#003278"
         id="path13276"
         d="m 36.6,58.3 c -0.3,-0.5 -0.8,-0.9 -0.8,-0.9 l -0.6,1 c 0.6,0.3 0.5,0.7 0.8,1.1 0.8,-0.4 2.3,-1.1 4.1,-0.9 L 41,57.5 c -2.7,-0.1 -4.2,0.2 -4.4,0.8 z" /><path
         style="fill:#003278"
         id="path13278"
         d="m 34.7,61.7 c -0.3,-0.7 -1,-1.4 -1,-1.4 l -0.5,1.1 c 0.4,0.3 0.7,1.1 1,1.5 C 35,62.5 36,61.8 37.7,62 l 0.8,-1.3 c -2.2,-0.1 -3.6,0.4 -3.8,1 z" /><path
         style="fill:#003278"
         id="path13280"
         d="M 33.1,65 C 32.8,64.1 32,63.4 32,63.4 l -0.5,1.2 c 0.6,0.3 0.7,1.1 1,1.5 0.8,-0.4 1.9,-1.1 3.6,-0.9 l 0.7,-1.3 c -2,0 -3.5,0.5 -3.7,1.1 z" /><path
         style="fill:#003278"
         id="path13282"
         d="M 31.6,68.9 C 31.2,68.1 30.4,67.2 30.4,67.2 L 30,68.5 c 0.6,0.3 0.8,1.1 1.1,1.5 0.8,-0.4 1.7,-1 3.4,-0.8 L 35,68 c -2.6,0.1 -3.2,0.3 -3.4,0.9 z" /><path
         style="fill:#003278"
         id="path13284"
         d="M 30,72.5 C 29.7,72 28.8,70.9 28.8,70.9 l -0.3,1.3 c 0.6,0.3 0.8,1.1 1.1,1.5 0.8,-0.4 2,-1.1 3.8,-0.9 l 0.4,-1.3 c -2.5,0.1 -3.6,0.4 -3.8,1 z" /><path
         style="fill:#003278"
         id="path13286"
         d="M 29.1,76.8 C 28.8,76.3 27.6,74.7 27.6,74.7 L 27.3,76 c 0.6,0.5 1,1.5 1.3,1.9 0.8,-0.4 2,-1.5 3.7,-1.2 l 0.3,-1.1 c -2.5,0.1 -2.9,0.4 -3.5,1.2 z" /><path
         style="fill:#003278"
         id="path13288"
         d="m 28,82.3 c 0.3,-0.7 1.6,-1.3 3.3,-1.1 L 31.5,80 c -2,0.1 -3,0.5 -3.2,1 -0.3,-0.5 -1.8,-2 -1.8,-2 l -0.2,1.3 c 1,0.8 1.4,1.6 1.7,2 z" /><path
         style="fill:#003278"
         id="path13290"
         d="m 27.4,86.8 c 0.1,-0.1 0.1,-0.3 0.3,-0.5 0.3,-0.4 1.2,-0.9 3.1,-0.8 l 0.1,-1.2 c -2.2,0 -2.9,0.6 -3.1,0.8 -0.2,0.1 -0.2,0.4 -0.3,0.6 -0.3,-0.9 -1.8,-2.3 -1.8,-2.3 l -0.1,1.3 c 0.6,0.2 1.6,1.8 1.8,2.1 z" /><path
         style="fill:#003278"
         id="path13292"
         d="m 30.6,94.2 0,-1.3 C 29,92.2 28.1,92.3 27.5,92.6 27.2,92.1 25.6,91.5 25.6,91.5 l 0.1,1.3 c 0.7,0.2 1.5,0.6 1.8,1 0.6,-0.4 1.7,-0.4 3.1,0.4 z" /><path
         style="fill:#003278"
         id="path13294"
         d="m 27.3,90.4 c 0.4,-0.6 0.8,-0.9 3.3,-0.4 l 0,-1.2 c -3,-0.1 -3,0.1 -3.1,0.5 -0.3,-0.5 -2,-2 -2,-2 l 0,1.4 c 0.6,0.4 1.5,1.3 1.8,1.7 z" /><path
         style="fill:#003278"
         id="path13296"
         d="m 27.6,97.3 c 0.1,-0.4 0.6,-0.2 1.2,0.1 0.6,0.3 1,0.5 1.6,0.9 l 0,-1.3 C 29,96.1 27.7,95.4 27.5,96 27.2,95.5 25.8,94.9 25.8,94.9 l 0.3,1.4 c 0.8,0.2 1.3,0.6 1.5,1 z" /><path
         style="fill:#003278"
         id="path13298"
         d="m 28,100.4 c 0.7,-0.1 1.2,0.2 2.6,1.2 l -0.1,-1.2 c -1.4,-1.2 -2.1,-1.1 -2.6,-1.1 -0.3,-0.5 -1.4,-1.1 -1.4,-1.1 l 0.2,1.3 c 0.5,0.2 1,0.5 1.3,0.9 z" /><path
         style="fill:#003278"
         id="path13300"
         d="M 86.6,89.6 C 86.1,89.3 85.4,88.8 84,87.3 l -1,0.6 c 0.5,0.4 2.6,2.8 3.6,2.5 0,0 -0.5,3.1 -0.4,4.6 l 1.1,-0.7 c 0,-0.8 0,-4.3 0.2,-5.2 0.1,0 -0.6,0.7 -0.9,0.5 z" /><path
         style="fill:#003278"
         id="path13302"
         d="m 89.6,87.5 c -1.1,-1.6 -1.8,-2.3 -2.4,-2.7 l -0.8,0.6 c 0.3,0.1 1.2,1 2.4,2.8 l 0.8,-0.7 c 0.1,2.1 0.2,4 0,5 l 0.9,-0.7 c 0.2,-1.5 0.1,-3.2 -0.1,-4.8 l -0.8,0.5 z" /><path
         style="fill:#003278"
         id="path13304"
         d="m 49.7,118 c -1.4,0.4 -2.8,-0.3 -3.8,-0.6 l -0.3,0.8 c 1.4,0.7 2.7,0.6 3.8,0.4 0.6,0.8 1,1.2 2.3,1.7 l 0.4,-0.6 c -1.3,-0.2 -1.8,-0.8 -2.4,-1.7 z" /><path
         style="fill:#003278"
         id="path13306"
         d="m 50.7,115.7 c -1.4,0.4 -3,-0.2 -4,-0.5 l -0.4,0.9 c 1.5,0.5 2.9,0.6 3.9,0.4 0.5,0.9 1.1,1.7 2.3,2.1 l 0.5,-0.8 c -1,-0.3 -2,-0.9 -2.3,-2.1 z" /><path
         style="fill:#003278"
         id="path13308"
         d="m 52.3,112.6 -0.1,0.2 c -1.4,0.4 -3.2,0.1 -4.2,-0.2 l -0.5,0.9 c 1.4,0.4 2.6,0.5 4.1,0.3 l 0.1,-0.1 c 0.6,1 0.7,1.6 2.2,2.5 l 0.7,-0.8 c -1,-0.4 -2.1,-1.8 -2.3,-2.8 z" /><path
         style="fill:#003278"
         id="path13310"
         d="m 53.7,110.8 -0.1,0.1 c -1.4,0.3 -3,-0.5 -4,-0.7 l -0.6,0.9 c 1.4,0.7 2.7,0.8 4,0.8 l 0.1,-0.1 c 0.5,1.1 1,2.3 2.2,2.8 l 0.7,-0.8 c -0.9,-0.5 -2.1,-2.1 -2.3,-3 z" /><path
         style="fill:#003278"
         id="path13312"
         d="m 51.1,108.2 c 0.1,0.1 0.3,0.1 0.4,0.2 l 0,-0.6 -0.4,0.4 z" /><path
         style="fill:#003278"
         id="path13314"
         d="m 74.9,101.5 c -0.7,-0.8 -0.7,-3.1 -0.6,-4.3 L 74,97.4 c -1.4,-0.2 -2.9,-1.6 -3.6,-2.6 l -0.1,0 c 0,-2.9 0,-6 0,-7.3 0,-2.6 3.6,-3.6 3.6,-3.6 0,0 -1,-0.4 -1.9,-1.1 l -1.5,0.4 c 0,0 -3.2,0.9 -3.2,3.1 l 0,12.9 c 0,0.9 0.4,1.5 2.1,1.5 l 0.9,0 c 0,-0.1 0,-0.2 0,-0.3 0,0 0,-1.7 0,-3.9 0.9,0.8 1.9,1.5 2.6,1.5 l 0.3,-0.2 c 0,1.6 -0.1,2.5 0.3,3.6 l -0.8,-0.7 0,7.8 -21,0 3.3,3.1 1.4,0 c 0.2,0.3 0.5,0.6 0.8,0.7 l 0.7,-0.7 17.4,0 0,-8.6 -1.3,-1.2 0.9,-0.3 z" /><path
         style="fill:#003278"
         id="path13316"
         d="M 79,94.8 78.7,95 C 77.3,94.8 75.8,93.4 75.1,92.4 L 73.8,93 c 1.2,1.2 2.7,2.6 3.8,2.7 l 0.3,-0.2 c 0,1.8 -0.2,2.8 0.5,4.2 l 1.3,-0.5 C 78.9,98.3 79,96 79,94.8 Z" /><path
         style="fill:#003278"
         id="path13318"
         d="m 83.9,92.4 0,0 C 83.4,92.5 82.8,92.3 82.3,91.9 81.8,91.5 80,89.4 80,89.4 l -1.4,0.8 c 0.8,0.9 3.5,3 4.1,3 l 0.1,-0.1 c 0,1.8 -0.2,2.8 0.5,4.1 l 1.3,-0.5 c -0.8,-0.8 -0.8,-3.1 -0.7,-4.3 z" /><path
         style="fill:#003278"
         id="path13320"
         d="M 92.1,85.5 C 91.6,84.6 90.5,83.3 89.7,82.8 L 89,83.5 c 0.7,0.4 2.3,1.9 2.7,3 L 92.2,86 c 0.1,1.8 0.1,3.8 -0.1,4.7 L 93,90 c 0.1,-1.6 0.1,-3.4 -0.2,-4.8 l -0.7,0.3 z" /><path
         style="fill:#003278"
         id="path13322"
         d="m 94.4,83.8 c 0.2,0.6 0.4,1.3 0.2,4.9 l 0.9,-0.8 c 0,-2.7 -0.1,-3.4 -0.4,-4.8 l -0.7,0.7 z" /><path
         style="fill:#003278"
         id="path13324"
         d="m 96.6,81.5 c 0.4,1.4 0.7,3.7 0.4,5 l 0.8,-1.1 C 97.9,83.9 97.5,82 97.2,80.7 l -0.6,0.8 z" /><path
         style="fill:#003278"
         id="path13326"
         d="M 98.3,79 98,79.5 c 0.9,1.1 1.2,2.4 1.3,4.1 l 0.6,-1 c 0,-1.7 -1.2,-4 -1.6,-3.6 z" /><path
         style="fill:#003278"
         id="path13328"
         d="m 99.4,77.2 -0.2,0.2 0.2,-0.2 c -0.5,-0.9 -1.1,-2 -2,-2.6 l -0.5,0.6 c 0.7,0.5 1.5,1.5 2,2.7 l 0.2,-0.4 c 0.4,0.3 1.1,0.9 1.6,3.6 l 0.4,-1 c -0.4,-2.5 -1.6,-3.5 -1.7,-2.9 z" /><path
         style="fill:#003278"
         id="path13330"
         d="m 100.3,75.1 -0.1,0.2 C 99.7,74.4 99.4,73.7 98.4,72.8 L 98,73.4 c 1,0.9 1.4,1.4 1.9,2.6 l 0.2,-0.5 0,0.1 c 0.5,0.5 1.2,1.2 1.5,3.2 l 0.3,-1.1 c 0,-1.5 -1.4,-3 -1.6,-2.6 z" /><path
         style="fill:#003278"
         id="path13332"
         d="M 91.8,80.7 91,81.4 c 0.7,0.4 2.3,1.9 2.7,3 l 0.6,-0.6 c -0.4,-1 -1.6,-2.4 -2.5,-3.1 z" /><path
         style="fill:#003278"
         id="path13334"
         d="m 94,78.6 -0.7,0.6 c 0.5,0.3 2.3,1.8 2.7,2.9 l 0.5,-0.7 c -0.4,-1 -1.6,-2.2 -2.5,-2.8 z" /><path
         style="fill:#003278"
         id="path13336"
         d="M 97.6,80 98,79.3 c -0.5,-0.9 -1.2,-2.1 -2.1,-2.8 l -0.6,0.7 c 0.7,0.5 1.8,1.7 2.3,2.8 z" /><path
         style="fill:#003278"
         id="path13338"
         d="m 100.7,74 0.3,-0.6 c -0.5,-1 -0.7,-1.2 -1.7,-2.3 L 99,71.7 c 0.8,0.7 1.3,1.2 1.7,2.3 z" /><path
         style="fill:#003278"
         id="path13340"
         d="m 100.9,73.7 c 0.3,0.2 0.6,0.6 1,1.1 -0.1,-0.4 -0.2,-0.8 -0.3,-1.3 l -0.4,-0.4 -0.3,0.6 z" /><path
         style="fill:#003278"
         id="path13342"
         d="m 100.6,70.3 c -0.1,-0.2 -0.4,-0.4 -0.7,-0.7 l -0.2,0.5 c 0.5,0.6 1.1,1.2 1.5,2.2 -0.2,-0.7 -0.4,-1.3 -0.6,-2 z" /><polygon
         style="fill:#003278"
         id="polygon13344"
         points="82.7,60.6 82.7,77.4 77.2,77.4 80.4,80.4 85.6,80.4 85.6,63.3 " /><path
         style="fill:#003278"
         id="path13346"
         d="m 67.2,78.8 c 0,2 3.3,3.3 3.3,3.3 l 1.3,0.5 C 71,82 70.2,81.2 70.2,80 c 0,-2.4 0,-10.9 0,-10.9 l 0.5,0 c 2,0.2 3.5,0.7 4.5,1.5 -1.7,-1.7 -4.3,-2.6 -8,-2.6 0,1.1 0,10.8 0,10.8 z" /><path
         style="fill:#003278"
         id="path13348"
         d="m 56.8,68 c -6.7,0 -9.4,2.3 -9.4,8.1 l 0,1.3 -6.6,0 3,2.8 6.3,0 0,-1.1 c 0,-5.9 0.6,-9.6 6.8,-10.2 0,-0.4 0,-0.8 -0.1,-0.9 0.1,0 0,0 0,0 z" /><path
         style="fill:#c0111f"
         id="path13350"
         d="m 66.1,99.2 0,-12.9 c 0,-2 1.7,-3.1 2.9,-3.7 -1.2,-0.7 -2.9,-1.9 -2.9,-3.8 l 0,-11.9 0.6,0 c 0,0 0.5,0 0.5,0 7,0 11.1,3.2 11.1,8.7 0,0 0,0.3 0,0.6 0.7,0 2.7,0 3.4,0 0,-1 0,-13.8 0,-14.7 -1,0 -38.8,0 -39.8,0 0,1 0,13.8 0,14.7 0.8,0 3.8,0 4.6,0 0,-0.3 0.1,-0.6 0.1,-0.6 L 46.3,76 c 0,-6.3 3.2,-9.1 10.5,-9.1 l 1.2,0 0,11.9 c 0,2 -1.5,3.2 -2.5,3.8 1.1,0.5 2.5,1.6 2.5,3.7 L 58,99 c 0,1.7 -1.1,2.6 -3,2.6 0,0 -1.6,0 -2.4,0 0,0.8 0,4.9 0,5.7 1,0 18,0 19,0 0,-0.8 0,-4.9 0,-5.7 -0.7,0 -2.2,0 -2.2,0 -2.2,0.1 -3.3,-0.8 -3.3,-2.4 z" /></g></g></svg>