<?xml version="1.0" encoding="UTF-8" standalone="no"?>
<svg
   xmlns:dc="http://purl.org/dc/elements/1.1/"
   xmlns:cc="http://creativecommons.org/ns#"
   xmlns:rdf="http://www.w3.org/1999/02/22-rdf-syntax-ns#"
   xmlns:svg="http://www.w3.org/2000/svg"
   xmlns="http://www.w3.org/2000/svg"
   version="1.1"
   id="svg19651"
   viewBox="0 0 300 299.80817"
   height="299.80817"
   width="300">
  <defs
     id="defs19653">
    <clipPath
       id="clipPath18699"
       clipPathUnits="userSpaceOnUse">
      <path
         id="path18701"
         d="m 124.799,692.879 77.128,0 0,77.079 -77.128,0 0,-77.079 z" />
    </clipPath>
  </defs>
  <metadata
     id="metadata19656">
    <rdf:RDF>
      <cc:Work
         rdf:about="">
        <dc:format>image/svg+xml</dc:format>
        <dc:type
           rdf:resource="http://purl.org/dc/dcmitype/StillImage" />
        <dc:title></dc:title>
      </cc:Work>
    </rdf:RDF>
  </metadata>
  <g
     transform="translate(-196.50929,63.986191)"
     id="layer1">
    <g
       id="g18695"
       transform="matrix(3.8637071,0,0,-3.8637071,-284.67749,2911.906)">
      <g
         clip-path="url(#clipPath18699)"
         id="g18697">
        <g
           transform="matrix(0.2447057,0,0,-0.2447057,179.51343,975.32739)"
           id="g18703">
          <g
             transform="translate(-223.5928,996.7344)"
             id="g18705">
            <path
               id="path18707"
               style="fill:#c4ced4;fill-opacity:1;fill-rule:nonzero;stroke:none"
               d="m 0,0 c 0,86.851 70.698,157.5 157.593,157.5 86.899,0 157.596,-70.649 157.596,-157.5 0,-86.836 -70.697,-157.485 -157.596,-157.485 C 70.698,-157.485 0,-86.836 0,0" />
          </g>
        </g>
        <g
           transform="matrix(0.2447057,0,0,-0.2447057,179.51343,975.32739)"
           id="g18709">
          <g
             transform="translate(-215.6177,996.7373)"
             id="g18711">
            <path
               id="path18713"
               style="fill:#ffffff;fill-opacity:1;fill-rule:nonzero;stroke:none"
               d="m 0,0 c 0,-82.532 67.119,-149.686 149.617,-149.686 82.502,0 149.621,67.154 149.621,149.686 0,82.545 -67.119,149.694 -149.621,149.694 C 67.119,149.694 0,82.545 0,0" />
          </g>
        </g>
        <g
           transform="matrix(0.2447057,0,0,-0.2447057,179.51343,975.32739)"
           id="g18715">
          <g
             transform="translate(-65.9941,855.1973)"
             id="g18717">
            <path
               id="path18719"
               style="fill:#005c5c;fill-opacity:1;fill-rule:nonzero;stroke:none"
               d="m 0,0 c -78.077,0 -141.604,63.488 -141.604,141.537 0,78.055 63.527,141.553 141.604,141.553 78.07,0 141.595,-63.498 141.595,-141.553 C 141.595,63.488 78.07,0 0,0" />
          </g>
        </g>
        <g
           transform="matrix(0.2447057,0,0,-0.2447057,179.51343,975.32739)"
           id="g18721">
          <g
             transform="translate(-65.9932,1133.8232)"
             id="g18723">
            <path
               id="path18725"
               style="fill:#0c2c56;fill-opacity:1;fill-rule:nonzero;stroke:none"
               d="m 0,0 c -75.563,0 -137.046,-61.487 -137.046,-137.083 0,-75.588 61.483,-137.079 137.046,-137.079 75.563,0 137.036,61.491 137.036,137.079 C 137.036,-61.487 75.563,0 0,0" />
          </g>
        </g>
        <g
           transform="matrix(0.2447057,0,0,-0.2447057,179.51343,975.32739)"
           id="g18727">
          <g
             transform="translate(-12.1274,1075.5234)"
             id="g18729">
            <path
               id="path18731"
               style="fill:#ffffff;fill-opacity:1;fill-rule:nonzero;stroke:none"
               d="m 0,0 2.031,3.533 -5.133,2.985 3.967,6.886 5.141,-3.001 2.051,3.559 -5.141,2.99 5.467,9.464 5.148,-3.008 2.051,3.566 L 5.834,32.619 -9.762,5.67 0,0 Z" />
          </g>
        </g>
        <g
           transform="matrix(0.2447057,0,0,-0.2447057,179.51343,975.32739)"
           id="g18733">
          <g
             transform="translate(34.3237,1028.0332)"
             id="g18735">
            <path
               id="path18737"
               style="fill:#ffffff;fill-opacity:1;fill-rule:nonzero;stroke:none"
               d="M 0,0 -1.986,4.905 -6.211,3.139 c -0.656,-0.265 -1.076,-0.289 -1.348,0 -0.07,0.075 -1.105,2.856 -1.166,2.992 -0.232,0.557 0.143,0.876 0.924,1.194 l 4.477,1.811 c 0.933,0.38 1.33,0.407 2.297,-0.354 L 2.623,4.648 C 4.518,3.139 6.334,2.484 8.211,3.249 l 6.018,2.42 c 4.773,1.931 5.48,2.842 3.652,7.538 -0.061,0.169 -1.111,3.007 -1.182,3.181 -2.006,4.975 -3.183,5.337 -8.054,3.366 l -4.518,-1.861 2.021,-4.976 5.186,2.137 c 0.816,0.32 1.33,0.286 1.576,-0.317 0.061,-0.164 1.053,-2.963 1.012,-3.097 -0.08,-0.314 -0.424,-0.553 -1.002,-0.788 L 6.801,8.391 C 5.879,8.013 4.592,10.63 3.568,11.425 l -3.125,2.419 c -1.806,1.412 -3.39,1.235 -5.422,0.415 l -4.117,-1.668 c -4.912,-1.983 -5.459,-3.062 -3.453,-8.045 0.067,-0.174 1.117,-3.017 1.178,-3.185 1.947,-4.621 3.183,-4.732 7.846,-2.848 L 0,0 Z" />
          </g>
        </g>
        <g
           transform="matrix(0.2447057,0,0,-0.2447057,179.51343,975.32739)"
           id="g18739">
          <g
             transform="translate(-74.4272,1091.5107)"
             id="g18741">
            <path
               id="path18743"
               style="fill:#ffffff;fill-opacity:1;fill-rule:nonzero;stroke:none"
               d="M 0,0 -3.639,30.925 -8.932,30.305 -5.292,-0.62 0,0 Z" />
          </g>
        </g>
        <g
           transform="matrix(0.2447057,0,0,-0.2447057,179.51343,975.32739)"
           id="g18745">
          <g
             transform="translate(-153.7085,1033.208)"
             id="g18747">
            <path
               id="path18749"
               style="fill:#ffffff;fill-opacity:1;fill-rule:nonzero;stroke:none"
               d="m 0,0 -11.885,9.84 0.116,0.232 L 3.11,6.725 6.019,12.938 -22.219,26.084 -24.226,21.778 -7.464,14.18 -7.86,13.314 -25.951,18.066 -27.117,15.53 -12.094,4.156 -12.221,3.878 -28.829,11.824 -30.851,7.515 -2.613,-5.64 0,0 Z" />
          </g>
        </g>
        <g
           transform="matrix(0.2447057,0,0,-0.2447057,179.51343,975.32739)"
           id="g18751">
          <g
             transform="translate(-112.856,1094.9746)"
             id="g18753">
            <path
               id="path18755"
               style="fill:#ffffff;fill-opacity:1;fill-rule:nonzero;stroke:none"
               d="M 0,0 C 0.386,0.219 3.31,1.593 3.567,1.616 4.104,1.695 4.422,1.35 4.806,0.502 L 7.314,-4.924 C 7.813,-6.023 8.037,-6.504 7.464,-6.95 7.27,-7.101 4.374,-8.48 3.979,-8.646 L 0,0 Z m 9.376,-10.596 c 4.562,2.1 4.667,3.717 2.613,8.168 L 10.287,1.257 C 9.109,3.809 8.248,5.143 5.844,5.119 7.299,6.635 7.103,8.159 6.031,10.483 L 1.6,20.103 -3.207,17.889 1.622,7.412 C 1.887,6.823 1.926,6.424 1.715,6.094 1.537,5.827 -1.412,4.39 -1.948,4.216 l -5.41,11.731 -4.841,-2.237 13.039,-28.278 8.536,3.972 z" />
          </g>
        </g>
        <g
           transform="matrix(0.2447057,0,0,-0.2447057,179.51343,975.32739)"
           id="g18757">
          <g
             transform="translate(-49.6685,1090.3252)"
             id="g18759">
            <path
               id="path18761"
               style="fill:#ffffff;fill-opacity:1;fill-rule:nonzero;stroke:none"
               d="m 0,0 7.791,14.283 0.221,-0.04 -3.1,-15.223 4.51,-0.904 6.08,30.553 -4.633,0.914 L 2.959,14.896 2.742,14.943 5.959,30.571 1.416,31.475 -4.666,0.935 0,0 Z" />
          </g>
        </g>
        <g
           transform="matrix(0.2447057,0,0,-0.2447057,179.51343,975.32739)"
           id="g18763">
          <g
             transform="translate(14.5093,1069.4121)"
             id="g18765">
            <path
               id="path18767"
               style="fill:#ffffff;fill-opacity:1;fill-rule:nonzero;stroke:none"
               d="M 0,0 C 0.326,-0.313 2.365,-2.605 2.484,-2.851 2.691,-3.329 2.451,-3.736 1.752,-4.333 l -4.525,-3.91 c -0.913,-0.802 -1.321,-1.149 -1.916,-0.715 -0.198,0.142 -2.235,2.409 -2.495,2.731 L 0,0 Z m -8.221,-11.243 c 3.287,-3.801 5.424,-4.013 9.141,-0.817 l 3.07,2.668 c 2.123,1.831 3.158,3.031 2.485,5.333 1.863,-0.965 3.261,-0.369 5.197,1.32 L 19.688,4.171 16.225,8.184 7.496,0.631 C 7.025,0.222 6.633,0.063 6.275,0.174 5.961,0.276 3.836,2.577 3.51,3.048 l 9.773,8.442 -3.484,4.036 -23.549,-20.369 5.529,-6.4 z" />
          </g>
        </g>
        <g
           transform="matrix(0.2447057,0,0,-0.2447057,179.51343,975.32739)"
           id="g18769">
          <g
             transform="translate(-58.2329,871.1133)"
             id="g18771">
            <path
               id="path18773"
               style="fill:#ffffff;fill-opacity:1;fill-rule:nonzero;stroke:none"
               d="M 0,0 -0.021,4.146 -4.205,4.164 -4.322,31.156 -9.654,31.129 -9.536,4.143 -13.862,4.164 -13.838,0.026 0,0 Z" />
          </g>
        </g>
        <g
           transform="matrix(0.2447057,0,0,-0.2447057,179.51343,975.32739)"
           id="g18775">
          <g
             transform="translate(-168.3091,941.9531)"
             id="g18777">
            <path
               id="path18779"
               style="fill:#ffffff;fill-opacity:1;fill-rule:nonzero;stroke:none"
               d="M 0,0 -2.162,4.813 -6.452,2.862 C -7.114,2.561 -7.51,2.533 -7.792,2.809 c -0.084,0.082 -1.187,2.688 -1.249,2.806 -0.253,0.561 0.106,0.903 0.877,1.244 l 4.409,1.987 c 0.911,0.393 1.588,-0.263 2.576,-0.992 L 2.637,3.875 C 4.583,2.438 6.11,2.709 7.961,3.539 l 5.903,2.665 c 4.702,2.105 5.362,3.035 3.348,7.66 -0.068,0.177 -1.165,2.835 -1.249,3.012 -2.202,4.892 -3.393,5.202 -8.186,3.047 l -5.119,-2.247 2.194,-4.906 5.793,2.555 c 0.808,0.361 1.32,0.341 1.586,-0.255 0.061,-0.157 1.131,-2.792 1.097,-2.933 C 13.256,11.834 12.934,11.58 12.361,11.32 L 6.344,8.61 C 5.433,8.203 4.37,9.922 3.321,10.676 l -3.218,2.301 c -1.877,1.347 -3.719,1.81 -5.728,0.912 L -9.68,12.062 c -4.828,-2.164 -5.319,-3.283 -3.125,-8.167 0.08,-0.18 1.197,-2.85 1.26,-3.007 2.13,-4.54 3.366,-4.614 7.96,-2.54 L 0,0 Z" />
          </g>
        </g>
        <g
           transform="matrix(0.2447057,0,0,-0.2447057,179.51343,975.32739)"
           id="g18781">
          <g
             transform="translate(-147.7617,901.3271)"
             id="g18783">
            <path
               id="path18785"
               style="fill:#ffffff;fill-opacity:1;fill-rule:nonzero;stroke:none"
               d="m 0,0 2.823,2.937 -4.384,4.134 5.507,5.721 4.382,-4.143 2.845,2.961 -4.384,4.142 7.565,7.878 4.4,-4.152 2.845,2.968 -8.234,7.83 L -8.224,7.833 0,0 Z" />
          </g>
        </g>
        <g
           transform="matrix(0.2447057,0,0,-0.2447057,179.51343,975.32739)"
           id="g18787">
          <g
             transform="translate(-105.1836,899.1123)"
             id="g18789">
            <path
               id="path18791"
               style="fill:#ffffff;fill-opacity:1;fill-rule:nonzero;stroke:none"
               d="M 0,0 3.451,-1.413 -3.134,-14.077 -3.835,-13.728 0,0 Z M -1.594,-21.32 13.413,6.244 8.606,8.151 5.483,2.247 l -4.41,1.778 1.773,6.427 -4.783,1.904 -8.078,-30.443 8.421,-3.233 z" />
          </g>
        </g>
        <g
           transform="matrix(0.2447057,0,0,-0.2447057,179.51343,975.32739)"
           id="g18793">
          <g
             transform="translate(-13.2349,882.3984)"
             id="g18795">
            <path
               id="path18797"
               style="fill:#ffffff;fill-opacity:1;fill-rule:nonzero;stroke:none"
               d="m 0,0 -1.518,3.854 -3.779,-1.545 -9.922,25.121 -4.957,-1.963 9.912,-25.11 -3.918,-1.533 1.512,-3.861 L 0,0 Z" />
          </g>
        </g>
        <g
           transform="matrix(0.2447057,0,0,-0.2447057,179.51343,975.32739)"
           id="g18799">
          <g
             transform="translate(20.3159,905.0068)"
             id="g18801">
            <path
               id="path18803"
               style="fill:#ffffff;fill-opacity:1;fill-rule:nonzero;stroke:none"
               d="m 0,0 -18.072,20.107 4.345,4.008 -2.736,3.047 -8.33,-7.573 L -3.963,-3.562 0,0 Z" />
          </g>
        </g>
        <g
           transform="matrix(0.2447057,0,0,-0.2447057,179.51343,975.32739)"
           id="g18805">
          <g
             transform="translate(50.2554,947.1523)"
             id="g18807">
            <path
               id="path18809"
               style="fill:#ffffff;fill-opacity:1;fill-rule:nonzero;stroke:none"
               d="m 0,0 -3.641,1.807 -2.74,-5.275 -7.103,3.55 2.74,5.277 -3.67,1.826 -2.742,-5.277 -9.772,4.885 2.727,5.275 -3.658,1.843 L -32.982,3.859 -5.121,-10.056 0,0 Z" />
          </g>
        </g>
        <g
           transform="matrix(0.2447057,0,0,-0.2447057,179.51343,975.32739)"
           id="g18811">
          <g
             transform="translate(-128.9058,1068.125)"
             id="g18813">
            <path
               id="path18815"
               style="fill:#ffffff;fill-opacity:1;fill-rule:nonzero;stroke:none"
               d="m 0,0 -19.274,24.768 -3.664,-3.643 4.162,-5.23 -3.32,-3.345 -5.195,4.177 L -30.936,13.1 -6.236,-6.445 0,0 Z m -18.831,9.957 2.6,2.625 8.994,-11.098 -0.537,-0.533 -11.057,9.006 z" />
          </g>
        </g>
        <g
           transform="matrix(0.2447057,0,0,-0.2447057,179.51343,975.32739)"
           id="g18817">
          <g
             transform="translate(19.1724,996.7422)"
             id="g18819">
            <path
               id="path18821"
               style="fill:#005c5c;fill-opacity:1;fill-rule:nonzero;stroke:none"
               d="m 0,0 c 0,47.039 -38.133,85.171 -85.171,85.171 -47.038,0 -85.171,-38.132 -85.171,-85.171 0,-47.038 38.133,-85.171 85.171,-85.171 C -38.133,-85.171 0,-47.038 0,0" />
          </g>
        </g>
        <g
           transform="matrix(0.2447057,0,0,-0.2447057,179.51343,975.32739)"
           id="g18823">
          <g
             transform="translate(-146.7109,996.7422)"
             id="g18825">
            <path
               id="path18827"
               style="fill:#ffffff;fill-opacity:1;fill-rule:nonzero;stroke:none"
               d="m 0,0 c 0,44.576 36.136,80.713 80.713,80.713 44.577,0 80.712,-36.137 80.712,-80.713 0,-44.576 -36.135,-80.713 -80.712,-80.713 C 36.136,-80.713 0,-44.576 0,0" />
          </g>
        </g>
        <g
           transform="matrix(0.2447057,0,0,-0.2447057,179.51343,975.32739)"
           id="g18829">
          <g
             transform="translate(-106.8809,1020.1885)"
             id="g18831">
            <path
               id="path18833"
               style="fill:#c4ced4;fill-opacity:1;fill-rule:nonzero;stroke:none"
               d="M 0,0 C -3.582,7.298 -16.562,33.579 -16.272,33.715 L 17.765,17.728 C 11.639,15.626 1.258,4.061 0,0" />
          </g>
        </g>
        <g
           transform="matrix(0.2447057,0,0,-0.2447057,179.51343,975.32739)"
           id="g18835">
          <g
             transform="translate(-99.1489,1030.6875)"
             id="g18837">
            <path
               id="path18839"
               style="fill:#005c5c;fill-opacity:1;fill-rule:nonzero;stroke:none"
               d="m 0,0 c 3.81,3.631 7.929,6.607 10.033,7.229 -7.255,3.668 -33.9,16.274 -34.037,15.987 L 0,0 Z" />
          </g>
        </g>
        <g
           transform="matrix(0.2447057,0,0,-0.2447057,179.51343,975.32739)"
           id="g18841">
          <g
             transform="translate(-42.5122,1037.6943)"
             id="g18843">
            <path
               id="path18845"
               style="fill:#c4ced4;fill-opacity:1;fill-rule:nonzero;stroke:none"
               d="M 0,0 C 7.302,3.577 33.586,16.546 33.724,16.256 L 17.722,-17.773 C 15.624,-11.646 4.062,-1.26 0,0" />
          </g>
        </g>
        <g
           transform="matrix(0.2447057,0,0,-0.2447057,179.51343,975.32739)"
           id="g18847">
          <g
             transform="translate(-32.0171,1029.958)"
             id="g18849">
            <path
               id="path18851"
               style="fill:#005c5c;fill-opacity:1;fill-rule:nonzero;stroke:none"
               d="m 0,0 c 3.629,-3.811 6.606,-7.933 7.227,-10.037 3.671,7.254 16.291,33.894 16.002,34.029 L 0,0 Z" />
          </g>
        </g>
        <g
           transform="matrix(0.2447057,0,0,-0.2447057,179.51343,975.32739)"
           id="g18853">
          <g
             transform="translate(-25.0405,973.3056)"
             id="g18855">
            <path
               id="path18857"
               style="fill:#c4ced4;fill-opacity:1;fill-rule:nonzero;stroke:none"
               d="m 0,0 c 3.568,-7.306 16.513,-33.604 16.223,-33.739 l -34.014,16.037 C -11.66,-15.61 -1.262,-4.06 0,0" />
          </g>
        </g>
        <g
           transform="matrix(0.2447057,0,0,-0.2447057,179.51343,975.32739)"
           id="g18859">
          <g
             transform="translate(-32.7886,962.8193)"
             id="g18861">
            <path
               id="path18863"
               style="fill:#005c5c;fill-opacity:1;fill-rule:nonzero;stroke:none"
               d="m 0,0 c -3.813,-3.626 -7.939,-6.6 -10.043,-7.216 7.251,-3.68 33.877,-16.322 34.014,-16.037 L 0,0 Z" />
          </g>
        </g>
        <g
           transform="matrix(0.2447057,0,0,-0.2447057,179.51343,975.32739)"
           id="g18865">
          <g
             transform="translate(-89.3931,955.8564)"
             id="g18867">
            <path
               id="path18869"
               style="fill:#c4ced4;fill-opacity:1;fill-rule:nonzero;stroke:none"
               d="m 0,0 c -7.302,-3.575 -33.595,-16.527 -33.73,-16.24 l 16.02,34.023 C -15.615,11.65 -4.058,1.26 0,0" />
          </g>
        </g>
        <g
           transform="matrix(0.2447057,0,0,-0.2447057,179.51343,975.32739)"
           id="g18871">
          <g
             transform="translate(-99.8843,963.5986)"
             id="g18873">
            <path
               id="path18875"
               style="fill:#005c5c;fill-opacity:1;fill-rule:nonzero;stroke:none"
               d="m 0,0 c -3.626,3.812 -6.6,7.936 -7.219,10.041 -3.676,-7.252 -16.308,-33.885 -16.02,-34.023 L 0,0 Z" />
          </g>
        </g>
        <g
           transform="matrix(0.2447057,0,0,-0.2447057,179.51343,975.32739)"
           id="g18877">
          <g
             transform="translate(-65.9575,1044.4307)"
             id="g18879">
            <path
               id="path18881"
               style="fill:#ffffff;fill-opacity:1;fill-rule:nonzero;stroke:none"
               d="m 0,0 c 26.296,0 47.61,-21.315 47.61,-47.606 0,-26.293 -21.314,-47.609 -47.61,-47.609 -26.289,0 -47.604,21.316 -47.604,47.609 C -47.604,-21.315 -26.289,0 0,0" />
          </g>
        </g>
        <g
           transform="matrix(0.2447057,0,0,-0.2447057,179.51343,975.32739)"
           id="g18883">
          <g
             transform="translate(-101.5259,964.3379)"
             id="g18885">
            <path
               id="path18887"
               style="fill:#d50032;fill-opacity:1;fill-rule:nonzero;stroke:none"
               d="M 0,0 C -0.077,0.396 0.739,1.056 0.739,1.056 0.946,1.094 4.535,0.006 4.535,0.006 L 4.948,-0.117 3.797,-1.05 C 3.584,-1.092 0,0 0,0" />
          </g>
        </g>
        <g
           transform="matrix(0.2447057,0,0,-0.2447057,179.51343,975.32739)"
           id="g18889">
          <g
             transform="translate(-96.4048,960.9375)"
             id="g18891">
            <path
               id="path18893"
               style="fill:#d50032;fill-opacity:1;fill-rule:nonzero;stroke:none"
               d="m 0,0 -0.867,3.129 c 0.069,0.235 0.797,0.86 0.797,0.86 C 0.297,3.876 1.165,0.749 1.165,0.749 1.095,0.515 0.367,-0.109 0.367,-0.109 L 0.098,-0.348 0,0 Z" />
          </g>
        </g>
        <g
           transform="matrix(0.2447057,0,0,-0.2447057,179.51343,975.32739)"
           id="g18895">
          <g
             transform="translate(-98.8364,966.6123)"
             id="g18897">
            <path
               id="path18899"
               style="fill:#d50032;fill-opacity:1;fill-rule:nonzero;stroke:none"
               d="m 0,0 -0.496,0.15 1.43,0.847 C 1.113,1.02 4.826,-0.116 4.826,-0.116 L 5.322,-0.267 3.898,-1.109 C 3.719,-1.134 0,0 0,0" />
          </g>
        </g>
        <g
           transform="matrix(0.2447057,0,0,-0.2447057,179.51343,975.32739)"
           id="g18901">
          <g
             transform="translate(-93.3481,963.0244)"
             id="g18903">
            <path
               id="path18905"
               style="fill:#d50032;fill-opacity:1;fill-rule:nonzero;stroke:none"
               d="M 0,0 -0.882,3.257 C -0.779,3.514 0.148,4.05 0.148,4.05 0.482,3.912 1.365,0.654 1.365,0.654 1.262,0.396 0.341,-0.138 0.341,-0.138 L 0.085,-0.286 0,0 Z" />
          </g>
        </g>
        <g
           transform="matrix(0.2447057,0,0,-0.2447057,179.51343,975.32739)"
           id="g18907">
          <g
             transform="translate(-95.1099,969.0186)"
             id="g18909">
            <path
               id="path18911"
               style="fill:#d50032;fill-opacity:1;fill-rule:nonzero;stroke:none"
               d="m 0,0 -0.503,0.186 1.55,0.759 C 1.229,0.954 4.85,-0.377 4.85,-0.377 l 0.502,-0.186 -1.55,-0.76 C 3.621,-1.332 0,0 0,0" />
          </g>
        </g>
        <g
           transform="matrix(0.2447057,0,0,-0.2447057,179.51343,975.32739)"
           id="g18913">
          <g
             transform="translate(-89.938,965.1513)"
             id="g18915">
            <path
               id="path18917"
               style="fill:#d50032;fill-opacity:1;fill-rule:nonzero;stroke:none"
               d="M 0,0 -0.553,3.297 C -0.424,3.539 0.579,4.021 0.579,4.021 0.9,3.855 1.454,0.557 1.454,0.557 1.326,0.316 0.321,-0.168 0.321,-0.168 L 0.045,-0.299 0,0 Z" />
          </g>
        </g>
        <g
           transform="matrix(0.2447057,0,0,-0.2447057,179.51343,975.32739)"
           id="g18919">
          <g
             transform="translate(-90.8071,971.2324)"
             id="g18921">
            <path
               id="path18923"
               style="fill:#d50032;fill-opacity:1;fill-rule:nonzero;stroke:none"
               d="m 0,0 -0.501,0.211 1.653,0.68 c 0.174,0 3.68,-1.496 3.68,-1.496 L 5.335,-0.818 3.688,-1.5 C 3.514,-1.5 0,0 0,0" />
          </g>
        </g>
        <g
           transform="matrix(0.2447057,0,0,-0.2447057,179.51343,975.32739)"
           id="g18925">
          <g
             transform="translate(-85.9429,967.1367)"
             id="g18927">
            <path
               id="path18929"
               style="fill:#d50032;fill-opacity:1;fill-rule:nonzero;stroke:none"
               d="m 0,0 -0.265,3.316 c 0.143,0.229 1.21,0.665 1.21,0.665 C 1.261,3.789 1.532,0.473 1.532,0.473 1.39,0.244 0.315,-0.194 0.315,-0.194 L 0.025,-0.31 0,0 Z" />
          </g>
        </g>
        <g
           transform="matrix(0.2447057,0,0,-0.2447057,179.51343,975.32739)"
           id="g18931">
          <g
             transform="translate(-86.3286,973.248)"
             id="g18933">
            <path
               id="path18935"
               style="fill:#d50032;fill-opacity:1;fill-rule:nonzero;stroke:none"
               d="M 0,0 -0.476,0.277 1.331,0.766 C 1.506,0.744 4.684,-1.105 4.684,-1.105 L 5.153,-1.379 3.352,-1.868 C 3.179,-1.846 0,0 0,0" />
          </g>
        </g>
        <g
           transform="matrix(0.2447057,0,0,-0.2447057,179.51343,975.32739)"
           id="g18937">
          <g
             transform="translate(-82.269,968.709)"
             id="g18939">
            <path
               id="path18941"
               style="fill:#d50032;fill-opacity:1;fill-rule:nonzero;stroke:none"
               d="M 0,0 0.38,3.311 C 0.547,3.504 1.737,3.818 1.737,3.818 2.027,3.574 1.647,0.264 1.647,0.264 1.485,0.071 0.288,-0.247 0.288,-0.247 L -0.038,-0.331 0,0 Z" />
          </g>
        </g>
        <g
           transform="matrix(0.2447057,0,0,-0.2447057,179.51343,975.32739)"
           id="g18943">
          <g
             transform="translate(-80.937,974.8213)"
             id="g18945">
            <path
               id="path18947"
               style="fill:#d50032;fill-opacity:1;fill-rule:nonzero;stroke:none"
               d="m 0,0 -0.444,0.31 1.86,0.367 C 1.595,0.641 4.529,-1.396 4.529,-1.396 L 4.974,-1.701 3.106,-2.072 C 2.934,-2.036 0,0 0,0" />
          </g>
        </g>
        <g
           transform="matrix(0.2447057,0,0,-0.2447057,179.51343,975.32739)"
           id="g18949">
          <g
             transform="translate(-77.4106,970.0537)"
             id="g18951">
            <path
               id="path18953"
               style="fill:#d50032;fill-opacity:1;fill-rule:nonzero;stroke:none"
               d="M 0,0 0.758,3.274 C 0.939,3.449 2.182,3.689 2.182,3.689 2.443,3.416 1.685,0.143 1.685,0.143 1.504,-0.032 0.264,-0.273 0.264,-0.273 L -0.078,-0.341 0,0 Z" />
          </g>
        </g>
        <g
           transform="matrix(0.2447057,0,0,-0.2447057,179.51343,975.32739)"
           id="g18955">
          <g
             transform="translate(-75.5317,976.1181)"
             id="g18957">
            <path
               id="path18959"
               style="fill:#d50032;fill-opacity:1;fill-rule:nonzero;stroke:none"
               d="M 0,0 -0.336,0.359 1.563,0.446 C 1.742,0.372 3.969,-2.039 3.969,-2.039 L 4.304,-2.399 2.398,-2.49 C 2.226,-2.416 0,0 0,0" />
          </g>
        </g>
        <g
           transform="matrix(0.2447057,0,0,-0.2447057,179.51343,975.32739)"
           id="g18961">
          <g
             transform="translate(-73.4233,970.8867)"
             id="g18963">
            <path
               id="path18965"
               style="fill:#d50032;fill-opacity:1;fill-rule:nonzero;stroke:none"
               d="M 0,0 1.487,3.134 C 1.681,3.263 2.985,3.343 2.985,3.343 3.212,3.018 1.718,-0.115 1.718,-0.115 1.526,-0.244 0.22,-0.324 0.22,-0.324 L -0.167,-0.35 0,0 Z" />
          </g>
        </g>
        <g
           transform="matrix(0.2447057,0,0,-0.2447057,179.51343,975.32739)"
           id="g18967">
          <g
             transform="translate(-70.5454,976.6006)"
             id="g18969">
            <path
               id="path18971"
               style="fill:#d50032;fill-opacity:1;fill-rule:nonzero;stroke:none"
               d="M 0,0 -0.297,0.367 1.582,0.39 C 1.762,0.306 3.796,-2.185 3.796,-2.185 L 4.099,-2.555 2.213,-2.573 C 2.033,-2.49 0,0 0,0" />
          </g>
        </g>
        <g
           transform="matrix(0.2447057,0,0,-0.2447057,179.51343,975.32739)"
           id="g18973">
          <g
             transform="translate(-68.7964,971.3633)"
             id="g18975">
            <path
               id="path18977"
               style="fill:#d50032;fill-opacity:1;fill-rule:nonzero;stroke:none"
               d="M 0,0 1.796,3.041 C 1.994,3.153 3.308,3.162 3.308,3.162 3.507,2.818 1.706,-0.222 1.706,-0.222 1.513,-0.335 0.193,-0.344 0.193,-0.344 l -0.399,0 L 0,0 Z" />
          </g>
        </g>
        <g
           transform="matrix(0.2447057,0,0,-0.2447057,179.51343,975.32739)"
           id="g18979">
          <g
             transform="translate(-61.8872,973.9111)"
             id="g18981">
            <path
               id="path18983"
               style="fill:#d50032;fill-opacity:1;fill-rule:nonzero;stroke:none"
               d="m 0,0 -1.396,0.135 c -0.172,0.122 -1.576,2.797 -1.576,2.797 0.22,0.33 1.616,0.199 1.616,0.199 0.18,-0.123 1.583,-2.797 1.583,-2.797 L 0.42,-0.038 0,0 Z" />
          </g>
        </g>
        <g
           transform="matrix(0.2447057,0,0,-0.2447057,179.51343,975.32739)"
           id="g18985">
          <g
             transform="translate(-64.0933,971.0967)"
             id="g18987">
            <path
               id="path18989"
               style="fill:#d50032;fill-opacity:1;fill-rule:nonzero;stroke:none"
               d="M 0,0 -0.425,0.045 2.182,3.193 C 2.381,3.274 3.674,3.144 3.674,3.144 3.829,2.77 1.493,-0.053 1.493,-0.053 1.293,-0.133 0,0 0,0" />
          </g>
        </g>
        <g
           transform="matrix(0.2447057,0,0,-0.2447057,179.51343,975.32739)"
           id="g18991">
          <g
             transform="translate(-56.27,973.1943)"
             id="g18993">
            <path
               id="path18995"
               style="fill:#d50032;fill-opacity:1;fill-rule:nonzero;stroke:none"
               d="m 0,0 -1.37,0.199 c -0.179,0.139 -1.293,2.869 -1.293,2.869 0.245,0.309 1.614,0.116 1.614,0.116 C -0.867,3.043 0.245,0.312 0.245,0.312 L 0.394,-0.059 0,0 Z" />
          </g>
        </g>
        <g
           transform="matrix(0.2447057,0,0,-0.2447057,179.51343,975.32739)"
           id="g18997">
          <g
             transform="translate(-58.688,970.4854)"
             id="g18999">
            <path
               id="path19001"
               style="fill:#d50032;fill-opacity:1;fill-rule:nonzero;stroke:none"
               d="M 0,0 -0.425,0.063 2.412,3.088 C 2.611,3.159 3.886,2.969 3.886,2.969 4.014,2.585 1.473,-0.122 1.473,-0.122 1.273,-0.19 0,0 0,0" />
          </g>
        </g>
        <g
           transform="matrix(0.2447057,0,0,-0.2447057,179.51343,975.32739)"
           id="g19003">
          <g
             transform="translate(-51.4751,972.1289)"
             id="g19005">
            <path
               id="path19007"
               style="fill:#d50032;fill-opacity:1;fill-rule:nonzero;stroke:none"
               d="M 0,0 -1.287,0.338 C -1.461,0.524 -1.886,3.336 -1.886,3.336 -1.61,3.59 -0.323,3.257 -0.323,3.257 -0.154,3.069 0.276,0.258 0.276,0.258 L 0.333,-0.087 0,0 Z" />
          </g>
        </g>
        <g
           transform="matrix(0.2447057,0,0,-0.2447057,179.51343,975.32739)"
           id="g19009">
          <g
             transform="translate(-54.3071,969.6963)"
             id="g19011">
            <path
               id="path19013"
               style="fill:#d50032;fill-opacity:1;fill-rule:nonzero;stroke:none"
               d="M 0,0 -0.425,0.117 2.862,2.816 C 3.069,2.861 4.26,2.542 4.26,2.542 4.344,2.146 1.397,-0.277 1.397,-0.277 1.195,-0.317 0,0 0,0" />
          </g>
        </g>
        <g
           transform="matrix(0.2447057,0,0,-0.2447057,179.51343,975.32739)"
           id="g19015">
          <g
             transform="translate(-46.4761,970.4531)"
             id="g19017">
            <path
               id="path19019"
               style="fill:#d50032;fill-opacity:1;fill-rule:nonzero;stroke:none"
               d="m 0,0 -1.173,0.45 c -0.14,0.177 -0.592,3.001 -0.592,3.001 0.31,0.248 1.481,-0.206 1.481,-0.206 C -0.136,3.068 0.309,0.248 0.309,0.248 L 0.372,-0.145 0,0 Z" />
          </g>
        </g>
        <g
           transform="matrix(0.2447057,0,0,-0.2447057,179.51343,975.32739)"
           id="g19021">
          <g
             transform="translate(-49.7065,968.3232)"
             id="g19023">
            <path
               id="path19025"
               style="fill:#d50032;fill-opacity:1;fill-rule:nonzero;stroke:none"
               d="m 0,0 -0.405,0.161 3.59,2.371 C 3.396,2.555 4.485,2.126 4.485,2.126 4.529,1.724 1.293,-0.405 1.293,-0.405 1.087,-0.428 0,0 0,0" />
          </g>
        </g>
        <g
           transform="matrix(0.2447057,0,0,-0.2447057,179.51343,975.32739)"
           id="g19027">
          <g
             transform="translate(-42.8169,968.8125)"
             id="g19029">
            <path
               id="path19031"
               style="fill:#d50032;fill-opacity:1;fill-rule:nonzero;stroke:none"
               d="M 0,0 -1.041,0.543 C -1.17,0.752 -1.08,3.535 -1.08,3.535 -0.753,3.731 0.298,3.188 0.298,3.188 0.42,2.979 0.335,0.194 0.335,0.194 L 0.327,-0.167 0,0 Z" />
          </g>
        </g>
        <g
           transform="matrix(0.2447057,0,0,-0.2447057,179.51343,975.32739)"
           id="g19033">
          <g
             transform="translate(-46.1733,966.872)"
             id="g19035">
            <path
               id="path19037"
               style="fill:#d50032;fill-opacity:1;fill-rule:nonzero;stroke:none"
               d="M 0,0 -0.387,0.19 3.351,2.339 C 3.563,2.35 4.566,1.859 4.566,1.859 4.58,1.455 1.214,-0.479 1.214,-0.479 1.003,-0.488 0,0 0,0" />
          </g>
        </g>
        <g
           transform="matrix(0.2447057,0,0,-0.2447057,179.51343,975.32739)"
           id="g19039">
          <g
             transform="translate(-39.3677,966.998)"
             id="g19041">
            <path
               id="path19043"
               style="fill:#d50032;fill-opacity:1;fill-rule:nonzero;stroke:none"
               d="m 0,0 -0.99,0.576 c -0.111,0.222 0.2,2.979 0.2,2.979 C -0.449,3.726 0.541,3.149 0.541,3.149 0.65,2.927 0.342,0.171 0.342,0.171 L 0.303,-0.177 0,0 Z" />
          </g>
        </g>
        <g
           transform="matrix(0.2447057,0,0,-0.2447057,179.51343,975.32739)"
           id="g19045">
          <g
             transform="translate(-42.8276,965.2549)"
             id="g19047">
            <path
               id="path19049"
               style="fill:#d50032;fill-opacity:1;fill-rule:nonzero;stroke:none"
               d="M 0,0 -0.361,0.213 3.473,2.142 C 3.691,2.136 4.606,1.592 4.606,1.592 4.593,1.192 1.131,-0.55 1.131,-0.55 0.912,-0.541 0,0 0,0" />
          </g>
        </g>
        <g
           transform="matrix(0.2447057,0,0,-0.2447057,179.51343,975.32739)"
           id="g19051">
          <g
             transform="translate(-36.2153,964.8174)"
             id="g19053">
            <path
               id="path19055"
               style="fill:#d50032;fill-opacity:1;fill-rule:nonzero;stroke:none"
               d="M 0,0 -0.784,0.672 C -0.849,0.925 0.134,3.544 0.134,3.544 0.497,3.638 1.275,2.966 1.275,2.966 1.345,2.714 0.367,0.096 0.367,0.096 L 0.251,-0.209 0,0 Z" />
          </g>
        </g>
        <g
           transform="matrix(0.2447057,0,0,-0.2447057,179.51343,975.32739)"
           id="g19057">
          <g
             transform="translate(-39.6636,963.4072)"
             id="g19059">
            <path
               id="path19061"
               style="fill:#d50032;fill-opacity:1;fill-rule:nonzero;stroke:none"
               d="m 0,0 -0.281,0.248 3.889,1.5 C 3.841,1.709 4.563,1.078 4.563,1.078 4.49,0.692 0.953,-0.675 0.953,-0.675 0.72,-0.634 0,0 0,0" />
          </g>
        </g>
        <g
           transform="matrix(0.2447057,0,0,-0.2447057,179.51343,975.32739)"
           id="g19063">
          <g
             transform="translate(-33.2808,962.3916)"
             id="g19065">
            <path
               id="path19067"
               style="fill:#d50032;fill-opacity:1;fill-rule:nonzero;stroke:none"
               d="M 0,0 -0.785,0.675 C -0.856,0.926 0.122,3.541 0.122,3.541 0.488,3.634 1.272,2.963 1.272,2.963 1.337,2.709 0.361,0.093 0.361,0.093 L 0.244,-0.215 0,0 Z" />
          </g>
        </g>
        <g
           transform="matrix(0.2447057,0,0,-0.2447057,179.51343,975.32739)"
           id="g19069">
          <g
             transform="translate(-36.7358,960.9756)"
             id="g19071">
            <path
               id="path19073"
               style="fill:#d50032;fill-opacity:1;fill-rule:nonzero;stroke:none"
               d="M 0,0 -0.283,0.251 4.329,2.026 3.53,0.917 C 3.493,0.879 2.433,-0.029 2.433,-0.029 2.374,-0.063 0.957,-0.669 0.957,-0.669 0.721,-0.631 0,0 0,0" />
          </g>
        </g>
        <g
           transform="matrix(0.2447057,0,0,-0.2447057,179.51343,975.32739)"
           id="g19075">
          <g
             transform="translate(-34.7417,1029.3096)"
             id="g19077">
            <path
               id="path19079"
               style="fill:#d50032;fill-opacity:1;fill-rule:nonzero;stroke:none"
               d="M 0,0 -0.411,0.123 0.745,1.056 C 0.952,1.095 4.542,0.007 4.542,0.007 4.619,-0.389 3.803,-1.047 3.803,-1.047 3.59,-1.087 0,0 0,0" />
          </g>
        </g>
        <g
           transform="matrix(0.2447057,0,0,-0.2447057,179.51343,975.32739)"
           id="g19081">
          <g
             transform="translate(-36.4849,1031.9639)"
             id="g19083">
            <path
               id="path19085"
               style="fill:#d50032;fill-opacity:1;fill-rule:nonzero;stroke:none"
               d="M 0,0 C 0.071,0.235 0.796,0.862 0.796,0.862 L 1.067,1.098 2.033,-2.374 C 1.962,-2.608 1.235,-3.235 1.235,-3.235 0.868,-3.123 0,0 0,0" />
          </g>
        </g>
        <g
           transform="matrix(0.2447057,0,0,-0.2447057,179.51343,975.32739)"
           id="g19087">
          <g
             transform="translate(-37.7212,1027.1563)"
             id="g19089">
            <path
               id="path19091"
               style="fill:#d50032;fill-opacity:1;fill-rule:nonzero;stroke:none"
               d="m 0,0 -0.495,0.149 1.43,0.848 C 1.121,1.019 4.833,-0.117 4.833,-0.117 L 5.328,-0.268 3.899,-1.114 C 3.72,-1.135 0,0 0,0" />
          </g>
        </g>
        <g
           transform="matrix(0.2447057,0,0,-0.2447057,179.51343,975.32739)"
           id="g19093">
          <g
             transform="translate(-39.7407,1029.9736)"
             id="g19095">
            <path
               id="path19097"
               style="fill:#d50032;fill-opacity:1;fill-rule:nonzero;stroke:none"
               d="M 0,0 C 0.11,0.257 1.03,0.791 1.03,0.791 L 1.286,0.94 2.245,-2.604 C 2.143,-2.86 1.223,-3.395 1.223,-3.395 0.881,-3.26 0,0 0,0" />
          </g>
        </g>
        <g
           transform="matrix(0.2447057,0,0,-0.2447057,179.51343,975.32739)"
           id="g19099">
          <g
             transform="translate(-41.4653,1025.0137)"
             id="g19101">
            <path
               id="path19103"
               style="fill:#d50032;fill-opacity:1;fill-rule:nonzero;stroke:none"
               d="m 0,0 -0.495,0.182 1.544,0.762 c 0.18,0.01 3.796,-1.326 3.796,-1.326 L 5.354,-0.564 3.803,-1.323 C 3.622,-1.336 0,0 0,0" />
          </g>
        </g>
        <g
           transform="matrix(0.2447057,0,0,-0.2447057,179.51343,975.32739)"
           id="g19105">
          <g
             transform="translate(-43.2397,1027.9424)"
             id="g19107">
            <path
               id="path19109"
               style="fill:#d50032;fill-opacity:1;fill-rule:nonzero;stroke:none"
               d="M 0,0 C 0.121,0.245 1.132,0.728 1.132,0.728 L 1.402,0.86 2.007,-2.737 C 1.878,-2.981 0.874,-3.463 0.874,-3.463 0.553,-3.293 0,0 0,0" />
          </g>
        </g>
        <g
           transform="matrix(0.2447057,0,0,-0.2447057,179.51343,975.32739)"
           id="g19111">
          <g
             transform="translate(-45.7505,1023.0273)"
             id="g19113">
            <path
               id="path19115"
               style="fill:#d50032;fill-opacity:1;fill-rule:nonzero;stroke:none"
               d="m 0,0 -0.502,0.213 1.648,0.682 c 0.173,-0.003 3.68,-1.499 3.68,-1.499 L 5.328,-0.816 3.68,-1.499 C 3.508,-1.496 0,0 0,0" />
          </g>
        </g>
        <g
           transform="matrix(0.2447057,0,0,-0.2447057,179.51343,975.32739)"
           id="g19117">
          <g
             transform="translate(-47.313,1026.042)"
             id="g19119">
            <path
               id="path19121"
               style="fill:#d50032;fill-opacity:1;fill-rule:nonzero;stroke:none"
               d="M 0,0 C 0.142,0.232 1.215,0.666 1.215,0.666 L 1.504,0.784 1.795,-2.84 C 1.654,-3.069 0.585,-3.507 0.585,-3.507 0.27,-3.313 0,0 0,0" />
          </g>
        </g>
        <g
           transform="matrix(0.2447057,0,0,-0.2447057,179.51343,975.32739)"
           id="g19123">
          <g
             transform="translate(-50.0796,1021.5088)"
             id="g19125">
            <path
               id="path19127"
               style="fill:#d50032;fill-opacity:1;fill-rule:nonzero;stroke:none"
               d="M 0,0 -0.478,0.274 1.331,0.767 C 1.505,0.744 4.684,-1.106 4.684,-1.106 L 5.153,-1.38 3.357,-1.869 C 3.179,-1.846 0,0 0,0" />
          </g>
        </g>
        <g
           transform="matrix(0.2447057,0,0,-0.2447057,179.51343,975.32739)"
           id="g19129">
          <g
             transform="translate(-51.103,1024.6807)"
             id="g19131">
            <path
               id="path19133"
               style="fill:#d50032;fill-opacity:1;fill-rule:nonzero;stroke:none"
               d="M 0,0 C 0.161,0.192 1.358,0.512 1.358,0.512 L 1.679,0.596 1.262,-3.046 C 1.1,-3.239 -0.096,-3.557 -0.096,-3.557 -0.38,-3.311 0,-0.007 0,0" />
          </g>
        </g>
        <g
           transform="matrix(0.2447057,0,0,-0.2447057,179.51343,975.32739)"
           id="g19135">
          <g
             transform="translate(-55.3179,1020.2295)"
             id="g19137">
            <path
               id="path19139"
               style="fill:#d50032;fill-opacity:1;fill-rule:nonzero;stroke:none"
               d="M 0,0 -0.437,0.304 1.424,0.675 C 1.597,0.639 4.53,-1.4 4.53,-1.4 L 4.968,-1.706 3.114,-2.076 C 2.936,-2.039 0,0 0,0" />
          </g>
        </g>
        <g
           transform="matrix(0.2447057,0,0,-0.2447057,179.51343,975.32739)"
           id="g19141">
          <g
             transform="translate(-55.9995,1023.459)"
             id="g19143">
            <path
               id="path19145"
               style="fill:#d50032;fill-opacity:1;fill-rule:nonzero;stroke:none"
               d="M 0,0 C 0.181,0.17 1.422,0.415 1.422,0.415 L 1.77,0.482 0.933,-3.134 C 0.754,-3.306 -0.495,-3.548 -0.495,-3.548 -0.759,-3.274 0,0 0,0" />
          </g>
        </g>
        <g
           transform="matrix(0.2447057,0,0,-0.2447057,179.51343,975.32739)"
           id="g19147">
          <g
             transform="translate(-60.1616,1019.5752)"
             id="g19149">
            <path
               id="path19151"
               style="fill:#d50032;fill-opacity:1;fill-rule:nonzero;stroke:none"
               d="M 0,0 -0.335,0.361 1.563,0.45 C 1.744,0.377 3.97,-2.038 3.97,-2.038 L 4.305,-2.399 2.406,-2.488 C 2.226,-2.414 0,0 0,0" />
          </g>
        </g>
        <g
           transform="matrix(0.2447057,0,0,-0.2447057,179.51343,975.32739)"
           id="g19153">
          <g
             transform="translate(-60.02,1022.8799)"
             id="g19155">
            <path
               id="path19157"
               style="fill:#d50032;fill-opacity:1;fill-rule:nonzero;stroke:none"
               d="M 0,0 C 0.193,0.129 1.499,0.212 1.499,0.212 L 1.885,0.241 0.23,-3.246 C 0.038,-3.375 -1.268,-3.455 -1.268,-3.455 -1.486,-3.131 0,0 0,0" />
          </g>
        </g>
        <g
           transform="matrix(0.2447057,0,0,-0.2447057,179.51343,975.32739)"
           id="g19159">
          <g
             transform="translate(-64.981,1019.2383)"
             id="g19161">
            <path
               id="path19163"
               style="fill:#d50032;fill-opacity:1;fill-rule:nonzero;stroke:none"
               d="M 0,0 -0.303,0.37 1.59,0.389 C 1.77,0.303 3.803,-2.188 3.803,-2.188 L 4.104,-2.555 2.22,-2.573 C 2.04,-2.489 0,0 0,0" />
          </g>
        </g>
        <g
           transform="matrix(0.2447057,0,0,-0.2447057,179.51343,975.32739)"
           id="g19165">
          <g
             transform="translate(-64.6333,1022.5137)"
             id="g19167">
            <path
               id="path19169"
               style="fill:#d50032;fill-opacity:1;fill-rule:nonzero;stroke:none"
               d="m 0,0 c 0.199,0.112 1.507,0.121 1.507,0.121 l 0.403,0 -2.002,-3.387 C -0.289,-3.379 -1.603,-3.39 -1.603,-3.39 -1.801,-3.04 0,0 0,0" />
          </g>
        </g>
        <g
           transform="matrix(0.2447057,0,0,-0.2447057,179.51343,975.32739)"
           id="g19171">
          <g
             transform="translate(-68.4868,1016.6133)"
             id="g19173">
            <path
               id="path19175"
               style="fill:#d50032;fill-opacity:1;fill-rule:nonzero;stroke:none"
               d="M 0,0 C -0.174,0.122 -1.576,2.796 -1.576,2.796 L -1.77,3.168 0.038,2.995 C 0.217,2.872 1.62,0.2 1.62,0.2 1.396,-0.132 0,0 0,0" />
          </g>
        </g>
        <g
           transform="matrix(0.2447057,0,0,-0.2447057,179.51343,975.32739)"
           id="g19177">
          <g
             transform="translate(-71.3052,1019.4111)"
             id="g19179">
            <path
               id="path19181"
               style="fill:#d50032;fill-opacity:1;fill-rule:nonzero;stroke:none"
               d="M 0,0 C -0.148,0.374 2.182,3.195 2.182,3.195 2.381,3.275 3.674,3.147 3.674,3.147 L 4.098,3.105 1.492,-0.048 C 1.293,-0.132 0,0 0,0" />
          </g>
        </g>
        <g
           transform="matrix(0.2447057,0,0,-0.2447057,179.51343,975.32739)"
           id="g19183">
          <g
             transform="translate(-74.4126,1017.2793)"
             id="g19185">
            <path
               id="path19187"
               style="fill:#d50032;fill-opacity:1;fill-rule:nonzero;stroke:none"
               d="M 0,0 C -0.174,0.138 -1.287,2.874 -1.287,2.874 L -1.441,3.239 0.327,2.982 C 0.508,2.843 1.615,0.113 1.615,0.113 1.377,-0.199 0,-0.004 0,0" />
          </g>
        </g>
        <g
           transform="matrix(0.2447057,0,0,-0.2447057,179.51343,975.32739)"
           id="g19189">
          <g
             transform="translate(-76.9224,1020.2002)"
             id="g19191">
            <path
               id="path19193"
               style="fill:#d50032;fill-opacity:1;fill-rule:nonzero;stroke:none"
               d="M 0,0 C -0.129,0.383 2.413,3.091 2.413,3.091 2.611,3.159 3.887,2.97 3.887,2.97 L 4.311,2.904 1.473,-0.119 C 1.274,-0.19 0,0 0,0" />
          </g>
        </g>
        <g
           transform="matrix(0.2447057,0,0,-0.2447057,179.51343,975.32739)"
           id="g19195">
          <g
             transform="translate(-79.9331,1018.2695)"
             id="g19197">
            <path
               id="path19199"
               style="fill:#d50032;fill-opacity:1;fill-rule:nonzero;stroke:none"
               d="M 0,0 C -0.161,0.187 -0.599,2.997 -0.599,2.997 L -0.65,3.339 0.972,2.914 C 1.138,2.73 1.569,-0.079 1.569,-0.079 1.286,-0.337 0,0.003 0,0" />
          </g>
        </g>
        <g
           transform="matrix(0.2447057,0,0,-0.2447057,179.51343,975.32739)"
           id="g19201">
          <g
             transform="translate(-81.6763,1021.4121)"
             id="g19203">
            <path
               id="path19205"
               style="fill:#d50032;fill-opacity:1;fill-rule:nonzero;stroke:none"
               d="M 0,0 C -0.084,0.396 2.863,2.817 2.863,2.817 3.068,2.864 4.259,2.546 4.259,2.546 L 4.684,2.429 1.396,-0.272 C 1.195,-0.314 0,0 0,0" />
          </g>
        </g>
        <g
           transform="matrix(0.2447057,0,0,-0.2447057,179.51343,975.32739)"
           id="g19207">
          <g
             transform="translate(-84.9644,1019.9521)"
             id="g19209">
            <path
               id="path19211"
               style="fill:#d50032;fill-opacity:1;fill-rule:nonzero;stroke:none"
               d="M 0,0 C -0.142,0.177 -0.592,3.001 -0.592,3.001 L -0.657,3.394 0.881,2.799 C 1.028,2.622 1.479,-0.203 1.479,-0.203 1.171,-0.451 0,0 0,0" />
          </g>
        </g>
        <g
           transform="matrix(0.2447057,0,0,-0.2447057,179.51343,975.32739)"
           id="g19213">
          <g
             transform="translate(-86.5024,1023.2041)"
             id="g19215">
            <path
               id="path19217"
               style="fill:#d50032;fill-opacity:1;fill-rule:nonzero;stroke:none"
               d="M 0,0 C -0.037,0.402 3.192,2.528 3.192,2.528 3.397,2.555 4.484,2.127 4.484,2.127 L 4.891,1.966 1.299,-0.404 C 1.087,-0.428 0,0 0,0" />
          </g>
        </g>
        <g
           transform="matrix(0.2447057,0,0,-0.2447057,179.51343,975.32739)"
           id="g19219">
          <g
             transform="translate(-89.2046,1021.6513)"
             id="g19221">
            <path
               id="path19223"
               style="fill:#d50032;fill-opacity:1;fill-rule:nonzero;stroke:none"
               d="M 0,0 C -0.128,0.208 -0.038,2.993 -0.038,2.998 L -0.032,3.357 1.339,2.646 C 1.46,2.438 1.377,-0.345 1.377,-0.345 1.042,-0.542 0,0 0,0" />
          </g>
        </g>
        <g
           transform="matrix(0.2447057,0,0,-0.2447057,179.51343,975.32739)"
           id="g19225">
          <g
             transform="translate(-90.1118,1024.9229)"
             id="g19227">
            <path
               id="path19229"
               style="fill:#d50032;fill-opacity:1;fill-rule:nonzero;stroke:none"
               d="M 0,0 C -0.02,0.401 3.346,2.335 3.346,2.335 3.564,2.343 4.563,1.856 4.563,1.856 L 4.948,1.666 1.21,-0.48 C 0.997,-0.488 0,0 0,0" />
          </g>
        </g>
        <g
           transform="matrix(0.2447057,0,0,-0.2447057,179.51343,975.32739)"
           id="g19231">
          <g
             transform="translate(-92.897,1023.5068)"
             id="g19233">
            <path
               id="path19235"
               style="fill:#d50032;fill-opacity:1;fill-rule:nonzero;stroke:none"
               d="M 0,0 C -0.11,0.226 0.198,2.979 0.198,2.979 L 0.236,3.328 1.53,2.573 C 1.64,2.349 1.33,-0.408 1.33,-0.408 0.99,-0.578 0,0 0,0" />
          </g>
        </g>
        <g
           transform="matrix(0.2447057,0,0,-0.2447057,179.51343,975.32739)"
           id="g19237">
          <g
             transform="translate(-93.4966,1026.8037)"
             id="g19239">
            <path
               id="path19241"
               style="fill:#d50032;fill-opacity:1;fill-rule:nonzero;stroke:none"
               d="M 0,0 C 0.014,0.403 3.476,2.147 3.476,2.147 3.693,2.137 4.601,1.593 4.601,1.593 L 4.955,1.382 1.127,-0.546 C 0.908,-0.54 0,0 0,0" />
          </g>
        </g>
        <g
           transform="matrix(0.2447057,0,0,-0.2447057,179.51343,975.32739)"
           id="g19243">
          <g
             transform="translate(-96.7837,1025.8711)"
             id="g19245">
            <path
               id="path19247"
               style="fill:#d50032;fill-opacity:1;fill-rule:nonzero;stroke:none"
               d="m 0,0 c -0.07,0.251 0.907,2.869 0.907,2.869 l 0.116,0.31 1.03,-0.888 C 2.123,2.039 1.145,-0.578 1.145,-0.578 0.785,-0.672 0,0 0,0" />
          </g>
        </g>
        <g
           transform="matrix(0.2447057,0,0,-0.2447057,179.51343,975.32739)"
           id="g19249">
          <g
             transform="translate(-96.6235,1029.166)"
             id="g19251">
            <path
               id="path19253"
               style="fill:#d50032;fill-opacity:1;fill-rule:nonzero;stroke:none"
               d="M 0,0 C 0.072,0.386 3.616,1.753 3.616,1.753 3.848,1.71 4.563,1.081 4.563,1.081 L 4.846,0.832 0.953,-0.666 C 0.721,-0.628 0,0 0,0" />
          </g>
        </g>
        <g
           transform="matrix(0.2447057,0,0,-0.2447057,179.51343,975.32739)"
           id="g19255">
          <g
             transform="translate(-99.7173,1028.3008)"
             id="g19257">
            <path
               id="path19259"
               style="fill:#d50032;fill-opacity:1;fill-rule:nonzero;stroke:none"
               d="M 0,0 C -0.064,0.249 0.914,2.869 0.914,2.869 L 1.029,3.174 2.058,2.286 C 2.123,2.036 1.152,-0.582 1.152,-0.582 0.785,-0.673 0,0 0,0" />
          </g>
        </g>
        <g
           transform="matrix(0.2447057,0,0,-0.2447057,179.51343,975.32739)"
           id="g19261">
          <g
             transform="translate(-98.8677,1031.2725)"
             id="g19263">
            <path
               id="path19265"
               style="fill:#d50032;fill-opacity:1;fill-rule:nonzero;stroke:none"
               d="M 0,0 0.354,0.485 C 0.392,0.524 1.447,1.436 1.447,1.436 1.511,1.471 2.92,2.072 2.92,2.072 3.158,2.033 3.879,1.406 3.879,1.406 L 4.162,1.155 -0.451,-0.624 0,0 Z" />
          </g>
        </g>
        <g
           transform="matrix(0.2447057,0,0,-0.2447057,179.51343,975.32739)"
           id="g19267">
          <g
             transform="translate(-112.8755,996.8213)"
             id="g19269">
            <path
               id="path19271"
               style="fill:#005c5c;fill-opacity:1;fill-rule:nonzero;stroke:none"
               d="m 0,0 c 0,-25.871 21.051,-46.918 46.918,-46.918 25.874,0 46.924,21.047 46.924,46.918 0,25.873 -21.05,46.921 -46.924,46.921 C 21.051,46.921 0,25.873 0,0 m -1.631,0 c 0,26.772 21.779,48.552 48.549,48.552 26.775,0 48.554,-21.78 48.554,-48.552 0,-26.769 -21.779,-48.548 -48.554,-48.548 -26.77,0 -48.549,21.779 -48.549,48.548" />
          </g>
        </g>
        <g
           transform="matrix(0.2447057,0,0,-0.2447057,179.51343,975.32739)"
           id="g19273">
          <g
             transform="translate(-65.9995,996.7383)"
             id="g19275">
            <path
               id="path19277"
               style="fill:#c4ced4;fill-opacity:1;fill-rule:nonzero;stroke:none"
               d="M 0,0 C 0,0 -12.314,12.013 -15.975,15.977 -15.361,23.909 -0.466,93.34 0,93.34 0,93.34 15.378,23.909 15.992,15.977 L 0,0 Z" />
          </g>
        </g>
        <g
           transform="matrix(0.2447057,0,0,-0.2447057,179.51343,975.32739)"
           id="g19279">
          <g
             transform="translate(-65.9995,996.7383)"
             id="g19281">
            <path
               id="path19283"
               style="fill:#c4ced4;fill-opacity:1;fill-rule:nonzero;stroke:none"
               d="m 0,0 c 0,0 -12.012,-12.315 -15.977,-15.977 -7.934,0.615 -121.308,15.508 -121.308,15.977 0,0 113.374,15.378 121.308,15.992 L 0,0 Z" />
          </g>
        </g>
        <g
           transform="matrix(0.2447057,0,0,-0.2447057,179.51343,975.32739)"
           id="g19285">
          <g
             transform="translate(-65.9995,996.7383)"
             id="g19287">
            <path
               id="path19289"
               style="fill:#c4ced4;fill-opacity:1;fill-rule:nonzero;stroke:none"
               d="M 0,0 C 0,0 12.313,-12.014 15.976,-15.978 15.362,-23.91 0.466,-93.341 0,-93.341 c 0,0 -15.38,69.431 -15.992,77.363 L 0,0 Z" />
          </g>
        </g>
        <g
           transform="matrix(0.2447057,0,0,-0.2447057,179.51343,975.32739)"
           id="g19291">
          <g
             transform="translate(-66.1655,996.7383)"
             id="g19293">
            <path
               id="path19295"
               style="fill:#c4ced4;fill-opacity:1;fill-rule:nonzero;stroke:none"
               d="M 0,0 C 0,0 12.014,12.313 15.977,15.975 23.91,15.361 137.453,0.468 137.453,0 137.453,0 23.91,-15.379 15.977,-15.993 L 0,0 Z" />
          </g>
        </g>
        <g
           transform="matrix(0.2447057,0,0,-0.2447057,179.51343,975.32739)"
           id="g19297">
          <g
             transform="translate(-65.9995,996.7383)"
             id="g19299">
            <path
               id="path19301"
               style="fill:#005c5c;fill-opacity:1;fill-rule:nonzero;stroke:none"
               d="m 0,0 0,93.34 c 0.466,0 15.378,-69.431 15.992,-77.363 L 0,0 Z" />
          </g>
        </g>
        <g
           transform="matrix(0.2447057,0,0,-0.2447057,179.51343,975.32739)"
           id="g19303">
          <g
             transform="translate(-65.9995,996.7383)"
             id="g19305">
            <path
               id="path19307"
               style="fill:#005c5c;fill-opacity:1;fill-rule:nonzero;stroke:none"
               d="m 0,0 -137.285,0 c 0,0.468 113.374,15.378 121.308,15.992 L 0,0 Z" />
          </g>
        </g>
        <g
           transform="matrix(0.2447057,0,0,-0.2447057,179.51343,975.32739)"
           id="g19309">
          <g
             transform="translate(-65.9995,996.7383)"
             id="g19311">
            <path
               id="path19313"
               style="fill:#005c5c;fill-opacity:1;fill-rule:nonzero;stroke:none"
               d="m 0,0 0,-93.341 c -0.466,0 -15.38,69.431 -15.992,77.363 L 0,0 Z" />
          </g>
        </g>
        <g
           transform="matrix(0.2447057,0,0,-0.2447057,179.51343,975.32739)"
           id="g19315">
          <g
             transform="translate(-65.9995,996.7383)"
             id="g19317">
            <path
               id="path19319"
               style="fill:#005c5c;fill-opacity:1;fill-rule:nonzero;stroke:none"
               d="m 0,0 137.287,0 c 0,-0.469 -113.377,-15.379 -121.31,-15.993 L 0,0 Z" />
          </g>
        </g>
        <g
           transform="matrix(0.2447057,0,0,-0.2447057,179.51343,975.32739)"
           id="g19321">
          <g
             transform="translate(-114.9175,1020.0791)"
             id="g19323">
            <path
               id="path19325"
               style="fill:#0c2c56;fill-opacity:1;fill-rule:nonzero;stroke:none"
               d="m 0,0 -1.377,0 0,-5.371 -0.028,0 -1.959,5.371 -1.329,0 -1.892,-5.371 -0.038,0 0,5.371 -1.377,0 0,-6.748 2.39,0 1.567,4.406 0.038,0 1.634,-4.406 2.371,0 L 0,0 Z m -9.232,-5.543 -2.036,0 0,5.543 -1.386,0 0,-5.543 -2.035,0 0,-1.205 5.457,0 0,1.205 z" />
          </g>
        </g>
      </g>
    </g>
  </g>
</svg>
