<?xml version="1.0" encoding="UTF-8" standalone="no"?>
<svg
   xmlns:dc="http://purl.org/dc/elements/1.1/"
   xmlns:cc="http://creativecommons.org/ns#"
   xmlns:rdf="http://www.w3.org/1999/02/22-rdf-syntax-ns#"
   xmlns:svg="http://www.w3.org/2000/svg"
   xmlns="http://www.w3.org/2000/svg"
   xmlns:sodipodi="http://sodipodi.sourceforge.net/DTD/sodipodi-0.dtd"
   xmlns:inkscape="http://www.inkscape.org/namespaces/inkscape"
   height="369.42148"
   width="277.64999"
   xml:space="preserve"
   enable-background="new 0 0 96.8 168"
   viewBox="0 0 277.64999 369.42148"
   y="0px"
   x="0px"
   id="SD"
   version="1.1"
   inkscape:version="0.91 r13725"
   sodipodi:docname="SDPadres_logo[1].svg"><sodipodi:namedview
     pagecolor="#ffffff"
     bordercolor="#666666"
     borderopacity="1"
     objecttolerance="10"
     gridtolerance="10"
     guidetolerance="10"
     inkscape:pageopacity="0"
     inkscape:pageshadow="2"
     inkscape:window-width="1366"
     inkscape:window-height="705"
     id="namedview4143"
     showgrid="false"
     inkscape:document-units="ft"
     fit-margin-top="0"
     fit-margin-left="0"
     fit-margin-right="0"
     fit-margin-bottom="0"
     inkscape:zoom="1.4484892"
     inkscape:cx="58.099434"
     inkscape:cy="185.91116"
     inkscape:window-x="-8"
     inkscape:window-y="-8"
     inkscape:window-maximized="1"
     inkscape:current-layer="SD" /><metadata
     id="metadata15"><rdf:RDF><cc:Work
         rdf:about=""><dc:format>image/svg+xml</dc:format><dc:type
           rdf:resource="http://purl.org/dc/dcmitype/StillImage" /><dc:title></dc:title></cc:Work></rdf:RDF></metadata><defs
     id="defs13" /><g
     transform="matrix(3.0785124,0,0,3.0785124,0,-73.884284)"
     id="g3"><path
       style="fill:#05143f;fill-opacity:1"
       id="path5"
       d="m 63.4,48.1 c 0,0 -41.5,0 -41.8,0 -0.3,0 -0.3,0.6 0,0.6 0.3,0 5.6,0.5 5.6,5.4 l 0,14.2 c -6.3,0 -10.2,0 -10.9,0 -2.4,0 -2.9,-2 -2.9,-3.2 0,-0.1 -0.1,-12.1 0,-19.6 0.1,-6.1 3.4,-9.2 9.1,-9.2 L 49.4,36 c 1.6,0 3,0.7 3,2.7 0,2 -2.1,2.5 -2.5,2.7 -0.2,0.1 -0.2,0.3 0,0.3 l 15.7,0 -0.2,-5.1 C 65.3,32.9 63,24 51.3,24 l -31.5,0 0,0 C 8.4,24 0.4,32.2 0.4,43.1 l 0,0.2 c 0,6.5 -0.2,15.7 -0.2,21.6 0,7.2 6.2,14.7 15,14.7 l 34.9,0 c 2.4,0 3.1,2.2 3.1,3 0,0.3 0.1,11.1 0.1,19 l -0.1,0.1 c 0,5 -3.3,8.9 -8.5,8.9 l -5.2,0 0.1,-26.1 -12.4,-0.1 0,26.3 c -6.3,0 -10.6,0.1 -11.1,0.1 -2.6,0 -3.1,-2.2 -3.1,-3.2 0,-0.6 0,-8.8 0.1,-11.8 0,-3.4 4.9,-4.4 4.9,-4.4 L 18,91 0.1,91 c 0,0 0,12.2 -0.1,18.2 0,6.4 5.4,13.7 13.1,13.7 l 13.9,0 0,12.7 c 0,4.9 -3.2,7.3 -5.9,8.1 -0.1,0 -0.1,0.3 0,0.3 l 42.1,0 0,0 c 17.3,0 27,-8.5 27,-25.5 l 0,-45 C 90.2,56.2 80.5,48.1 63.4,48.1 m 14.8,24.2 c -0.1,12.5 0.1,37.2 0.1,48.2 0,7.9 -6.3,12.1 -14.2,12.1 -8.8,0 -24.4,0 -24.4,0 l 0.1,-9.9 6.3,0 c 11.5,0 19,-8.3 19,-19.2 l 0,0 c 0.6,-11.8 0.3,-20.4 0.3,-21.7 0,-4.7 -3.8,-13.7 -15,-13.7 l -10.4,0 0,-9.6 24.6,0 c 8.3,0.1 13.6,6 13.6,13.8 l 0,0 z"
       inkscape:connector-curvature="0" /><polygon
       style="fill:#ffffff"
       id="polygon7"
       points="90.8,138.7 87.3,138.7 87.3,139.5 88.6,139.5 88.6,143.1 89.5,143.1 89.5,139.5 90.8,139.5 " /><polygon
       style="fill:#ffffff"
       id="polygon9"
       points="93.8,143.1 94.6,143.1 95.9,139.6 95.9,139.6 95.9,143.1 96.8,143.1 96.8,138.7 95.3,138.7 94.2,141.6 94.2,141.6 93.2,138.7 91.6,138.7 91.6,143.1 92.5,143.1 92.5,139.6 92.5,139.6 " /></g></svg>