<?xml version="1.0" encoding="UTF-8" standalone="no"?>
<svg xmlns:rdf="http://www.w3.org/1999/02/22-rdf-syntax-ns#" xmlns="http://www.w3.org/2000/svg" fill-rule="evenodd" stroke-linejoin="round" height="80.856" viewBox="0 0 211.28987 50.053409" width="130.8" version="1.1" stroke-miterlimit="1.4142" clip-rule="evenodd" xmlns:cc="http://creativecommons.org/ns#" xmlns:dc="http://purl.org/dc/elements/1.1/" xml:space="preserve"><g><path d="m195.02-39.518h-113.21c-6.0983 0-11.049 7.2921-11.049 16.277v74.588c0 8.9863 4.9511 16.272 11.049 16.272h113.21c6.1054 0 11.051-7.2858 11.051-16.272v-74.588c0-8.985-4.945-16.277-11.051-16.277" fill="#fff"/><path d="m90.787 0.4668l18.463 30.814 1.69 0.207 0.98 1.416v1.328l1.2 0.217 1.06 1.477 0.01 1.267 1.19 0.211s1.2 1.268 1.2 1.336v2.887s2.6 2.388 4.93 3.301c1.62 0.633 1.82 3.232 2.74 4.64 1.27 1.971 2.96 2.814 2.61 3.942-0.84 3.024-3.94 8.087-6.83 8.373 0 0-7.17 0.008-11.4 0.008l0.01 4.871h14.25c4.12 0 7.48-3.366 7.48-7.475v-51.352c0-1.9988-0.78-3.8727-2.19-5.2788-1.42-1.4148-3.29-2.1894-5.29-2.1894h-32.103z" transform="matrix(1.6154 0 0 1.6154 0 -40.279)" fill="#c00"/><path d="m8.0371 0.45898c-1.9994 0-3.8734 0.78092-5.2812 2.1894-1.4182 1.4133-2.1914 3.2882-2.1914 5.2871l-0.00005 51.352c0 1.998 0.77235 3.878 2.1934 5.284 1.4079 1.415 3.2819 2.19 5.2813 2.19h46.641c-1.178-1.951-2.486-4.168-2.885-4.842h-5.565c-0.009-13.787 4.702-21.456 10.268-22.941 0.765-0.148 0.41-3.938-0.572-5.065 0 0-2.674 0.071-3.24-0.076-0.705-0.209-0.215-0.906-0.215-0.906l2.605-5.629-0.347-1.555-9.649 0.008c-0.14 0 7.955-5.561 7.955-5.561 0.412-14.629 15.396-15.764 24.467-9.724 5.363 3.588 5.788 10.625 5.371 15.55-0.07 0.286-1.414 0.077-1.414 0.077s-0.906 5.343 1.482 5.343h10.547c4.299-0.145 8.452 2.733 8.452 2.733l1.06-3.658-23.158-30.055-0.002-0.00202h-71.803zm16.182 68.686c-0.644 0-1.144 0.149-1.502 0.373-0.358 0.223-0.591 0.52-0.752 0.818-0.197 0.342-0.305 0.744-0.322 1.176v6.441c0.017 0.446 0.125 0.847 0.322 1.19 0.161 0.297 0.394 0.581 0.752 0.804 0.358 0.238 0.858 0.371 1.502 0.371s1.126-0.133 1.484-0.371c0.358-0.223 0.609-0.507 0.77-0.804 0.196-0.343 0.304-0.744 0.322-1.19v-6.441c-0.018-0.432-0.126-0.834-0.322-1.176-0.161-0.298-0.412-0.595-0.77-0.818-0.358-0.224-0.84-0.373-1.484-0.373zm71.531 0c-0.912 0.014-1.538 0.357-1.949 0.834-0.412 0.49-0.572 1.129-0.572 1.724 0 0.298 0.052 0.596 0.16 0.879 0.196 0.58 0.52 1.145 0.949 1.695 0.429 0.551 0.839 1.058 1.215 1.504 0.179 0.223 0.341 0.446 0.502 0.655 0.286 0.431 0.5 0.848 0.5 1.205 0 0.699-0.215 1.205-0.787 1.205-0.412 0-0.625-0.239-0.75-0.596-0.144-0.342-0.163-0.804-0.163-1.266l-1.896 0.151c0 0.818 0.091 1.606 0.484 2.201 0.394 0.595 1.09 0.982 2.325 0.982 1.055 0 1.717-0.328 2.128-0.834 0.412-0.505 0.555-1.189 0.555-1.918 0-0.595-0.232-1.16-0.572-1.711-0.34-0.55-0.787-1.117-1.234-1.667-0.376-0.462-0.751-0.893-1.038-1.309-0.286-0.417-0.484-0.804-0.484-1.176 0-0.64 0.161-1.071 0.662-1.086 0.304 0 0.502 0.209 0.627 0.506 0.125 0.312 0.143 0.715 0.143 1.072l1.896-0.148c0-0.61-0.107-1.341-0.482-1.936-0.376-0.58-1.056-0.981-2.219-0.966zm-36.348 0.001c-0.644 0-1.144 0.148-1.502 0.372-0.357 0.223-0.591 0.52-0.752 0.818-0.196 0.342-0.304 0.744-0.322 1.176v6.441c-0.018 0.446 0.054 0.847 0.215 1.19 0.143 0.297 0.358 0.581 0.68 0.804 0.322 0.238 0.751 0.371 1.377 0.371s1.146-0.268 1.504-0.64l0.232 0.521h1.145v-5.445h-2.702v1.353h0.77v1.979c0 0.164-0.019 0.298-0.072 0.402-0.072 0.223-0.233 0.403-0.573 0.403-0.161 0-0.285-0.045-0.375-0.12-0.179-0.163-0.269-0.373-0.269-0.685v-6.574c0-0.149 0.018-0.284 0.072-0.403 0.072-0.193 0.232-0.402 0.572-0.402 0.161 0 0.303 0.045 0.393 0.119 0.179 0.179 0.252 0.388 0.252 0.686v1.679h1.932v-1.679c-0.018-0.432-0.126-0.834-0.323-1.176-0.161-0.298-0.412-0.595-0.769-0.818-0.358-0.224-0.841-0.372-1.485-0.372zm-57.758 0.118v10.935h1.7891v-7.334h0.1074l0.0723 0.461 1.2324 6.873h0.002 0.8222l1.2344-6.873 0.0703-0.461h0.1074v7.334h1.7891v-10.935h-2.3613l-1.1446 5-0.0898 0.58h-0.0352l-0.0898-0.58-1.1445-5h-2.3614zm10.464 0l-1.986 10.935h1.879l0.357-2.23h1.86l0.359 2.23h1.877l-1.984-10.935h-2.362zm6.028 0v8.66c0 0.253-0.053 0.431-0.16 0.535-0.215 0.238-0.502 0.312-0.877 0.268v1.576c1.144 0.059 1.896-0.179 2.343-0.58 0.448-0.402 0.625-0.952 0.625-1.547v-8.912h-1.931zm10.32 0v10.935h1.934v-4.611h0.517l1.002 4.611h1.932l-1.235-5.297c0.734-0.416 1.075-1.398 1.075-2.484 0-2.068-0.984-3.154-3.291-3.154h-1.934zm9.928 0v10.935h4.49v-1.488h-2.559v-9.447h-1.931zm5.635 0v10.935h4.418v-1.652h-2.487v-3.004h1.789v-1.756h-1.789v-2.871h2.487v-1.652h-4.418zm7.334 0l-1.987 10.935h1.879l0.358-2.23h1.859l0.359 2.23h1.877l-1.984-10.935h-2.361zm12.378 0v8.689c0.018 0.446 0.124 0.847 0.321 1.19 0.161 0.297 0.394 0.581 0.752 0.804 0.357 0.238 0.858 0.371 1.502 0.371s1.128-0.133 1.486-0.371c0.358-0.223 0.607-0.507 0.768-0.804 0.196-0.343 0.304-0.744 0.322-1.19v-8.689h-1.932v8.689c0 0.164-0.018 0.298-0.072 0.402-0.072 0.224-0.233 0.401-0.572 0.401-0.161 0-0.286-0.045-0.375-0.119-0.179-0.164-0.268-0.371-0.268-0.684v-8.689h-1.932zm6.922 0v10.935h4.418v-1.652h-2.486v-3.004h1.789v-1.756h-1.789v-2.871h2.486v-1.652h-4.418zm8.963 0v10.935h2.379c1.145-0.044 1.914-0.417 2.361-0.982 0.448-0.566 0.627-1.293 0.627-2.112 0-0.55-0.071-0.997-0.214-1.339-0.287-0.7-0.644-1.115-1.127-1.338 0.447-0.342 0.75-0.641 0.947-0.998s0.25-0.743 0.25-1.264c0-1.086-0.302-1.801-0.893-2.262-0.59-0.461-1.486-0.64-2.631-0.64h-1.699zm8.313 0l-1.985 10.935h1.877l0.358-2.23h1.861l0.357 2.23h1.879l-1.986-10.935h-2.361zm11.918 0v10.935h4.422v-1.652h-2.49v-3.004h1.79v-1.756h-1.79v-2.871h2.49v-1.652h-4.422zm5.842 0v10.935h2.38c1.15-0.044 1.91-0.417 2.36-0.982 0.45-0.566 0.63-1.293 0.63-2.112 0-0.55-0.07-0.997-0.22-1.339-0.28-0.7-0.64-1.115-1.12-1.338 0.44-0.342 0.75-0.641 0.94-0.998 0.2-0.357 0.26-0.743 0.26-1.264 0-1.086-0.31-1.801-0.9-2.262s-1.48-0.64-2.63-0.64h-1.7zm8.32 0l-1.98 10.935h1.87l0.36-2.23h1.86l0.36 2.23h1.88l-1.99-10.935h-2.36zm5.6 0v10.935h4.49v-1.488h-2.56v-9.447h-1.93zm5.64 0v10.935h4.49v-1.488h-2.56v-9.447h-1.93zm-101.03 1.443c0.161 0 0.303 0.045 0.392 0.119 0.179 0.179 0.25 0.388 0.25 0.686v6.441c0 0.164-0.016 0.298-0.07 0.402-0.072 0.224-0.232 0.401-0.572 0.401-0.161 0-0.288-0.045-0.377-0.119-0.179-0.164-0.268-0.371-0.268-0.684v-6.441c0-0.149 0.019-0.284 0.072-0.403 0.072-0.193 0.233-0.402 0.573-0.402zm6.17 0.148c0.268 0 0.627 0.016 0.914 0.225 0.286 0.208 0.517 0.625 0.517 1.399 0 0.773-0.231 1.174-0.517 1.382-0.286 0.209-0.644 0.239-0.912 0.239h-0.002v-3.245zm51.16 0c0.161 0 0.537-0.014 0.859 0.165 0.322 0.178 0.572 0.536 0.572 1.294 0 0.759-0.25 1.117-0.572 1.295-0.322 0.179-0.698 0.162-0.859 0.162v-2.916zm26.071 0c0.17 0 0.54-0.014 0.86 0.165 0.32 0.178 0.57 0.536 0.57 1.294 0 0.759-0.25 1.117-0.57 1.295-0.32 0.179-0.69 0.162-0.86 0.162v-2.916zm-94.384 1.682h0.108l0.052 0.283 0.555 3.451h-1.324l0.555-3.451 0.054-0.283zm39.244 0h0.108l0.053 0.283 0.554 3.451h-1.324l0.555-3.451 0.054-0.283zm36.577 0h0.107l0.053 0.283 0.554 3.451h-1.322l0.555-3.451 0.053-0.283zm26.083 0h0.1l0.06 0.283 0.55 3.451h-1.32l0.55-3.451 0.06-0.283zm-33.591 2.709c0.161 0 0.537-0.031 0.859 0.162 0.322 0.194 0.572 0.625 0.572 1.518 0 0.892-0.25 1.324-0.572 1.517-0.322 0.194-0.698 0.164-0.859 0.164v-3.361zm26.071 0c0.17 0 0.54-0.031 0.86 0.162 0.32 0.194 0.57 0.625 0.57 1.518 0 0.892-0.25 1.324-0.57 1.517-0.32 0.194-0.69 0.164-0.86 0.164v-3.361z" fill="#008" transform="matrix(1.6154 0 0 1.6154 0 -40.279)"/><path fill="#fff" d="m25.854 33.9c-4.5696 0.02267-8.2839 3.7267-8.2722 8.3051 0 4.5824 3.7026 8.2937 8.282 8.2937 4.5813-0.01024 8.2937-3.7227 8.2937-8.3153 0-4.5568-3.7355-8.2835-8.3036-8.2835"/></g></svg>
