<?xml version="1.0" encoding="UTF-8" standalone="no"?>
<svg xmlns:rdf="http://www.w3.org/1999/02/22-rdf-syntax-ns#" xmlns="http://www.w3.org/2000/svg" height="440.27997" width="440.28" version="1.1" xmlns:cc="http://creativecommons.org/ns#" xmlns:dc="http://purl.org/dc/elements/1.1/" viewBox="0 0 440.28 440.27997"><path d="M440.28,220.08c0,121.56-98.4,220.2-220.08,220.2C98.64,440.28,0,341.76,0,220.08,0,98.52,98.52,0,220.2,0S440.28,98.52,440.28,220.08Z" fill="#bec0c2"/><path d="M427.68,220.08c0,114.6-92.88,207.48-207.48,207.48-114.72,0-207.6-92.88-207.6-207.48,0-114.48,93-207.48,207.6-207.48A207.38794,207.38794,0,0,1,427.68,220.08Z" fill="#002d62"/><path d="M220.2,22.31995c-109.2,0-197.76,88.44-197.76,197.76,0,109.2,88.56,197.76,197.76,197.76s197.64-88.56,197.64-197.76C417.96,110.88,329.4,22.31995,220.2,22.31995Z" fill="#fdbb30"/><path d="M355.56,220.08c0,76.32-60.72,138.24-135.36,138.24-74.88,0-135.36-61.92-135.36-138.24S145.32,81.96,220.2,81.96C294.96,81.96,355.56,143.76,355.56,220.08Z" fill="#002d62"/><path d="M346.92,220.08c0,71.4-56.64,129.24-126.72,129.24-69.96,0-126.72-57.84-126.72-129.24S150.12,90.84,220.2,90.84,346.92,148.68,346.92,220.08Z" fill="#fff"/><polygon points="81.24 181.44 79.92 186.48 39.48 176.52 40.8 171.36 81.24 181.44" fill="#002d62"/><polygon points="86.88 119.28 104.28 132.6 101.28 136.56 68.28 111.24 69.96 108.96 93.84 115.2 75.84 101.4 78.84 97.44 111.84 122.64 110.28 125.04 86.88 119.28" fill="#002d62"/><path d="M129.48,55.31995l8.16-4.2c3.48-1.8,7.8-1.68,10.08,2.64,5.16,10.32,7.56,14.76,12.84,24.84,2.04,4.2-.36,7.8-3.6,9.36l-8.52,4.32Zm21.72,30.48,2.16-1.2a3.45713,3.45713,0,0,0,1.8-4.8c-4.32-8.4-7.44-14.4-11.76-22.92a3.27085,3.27085,0,0,0-4.56-1.44l-2.52,1.32Z" fill="#002d62"/><polygon points="214.92 73.08 209.76 73.44 207.36 31.8 212.88 31.44 214.92 73.08" fill="#002d62"/><path d="M275.64,84.11993l1.8-8.04-6.96-2.64-4.2,7.08-4.92-1.92,22.2-36.12,5.16,1.92L280.8,86.04Zm5.76-28.44-.24-.12L272.64,69.6l5.64,2.04Z" fill="#002d62"/><polygon points="337.56 100.32 321.48 115.44 318 111.84 348.36 83.28 350.16 85.2 340.2 108 356.88 92.28 360.24 95.88 329.88 124.44 327.96 122.4 337.56 100.32" fill="#002d62"/><path d="M358.32,177.84l7.32-3.72-2.4-7.08-8.16,1.32-1.68-5.04,42.12-5.64,1.8,5.16-37.2,20.28Zm25.8-13.32-.24-.36-16.2,2.28,1.92,5.64Z" fill="#002d62"/><path d="M54.48,306.96l-2.52-4.8L88.8,283.08l6.12,11.64c1.2,2.4.6,4.2-1.2,5.16-6.6,3.36-9.96,5.16-16.56,8.64-1.92.96-3.72.36-4.8-1.68l-3.72-7.2Zm18.12-9.48,3,5.64,14.76-7.8-3-5.64Z" fill="#002d62"/><path d="M109.44,373.2l4.08-7.2-6-4.68-6.12,5.4-4.08-3.24,31.92-27.84,4.32,3.48-19.8,37.44Zm14.28-25.44-.24-.36-12.24,10.8,4.68,3.72Z" fill="#002d62"/><path d="M183.36,391.79993l5.28,1.32-2.64,10.68a3.31421,3.31421,0,0,1-4.08,2.52c-3.72-.84-6.24-1.56-10.08-2.52a3.382,3.382,0,0,1-2.52-4.2c3.24-13.2,5.04-20.52,8.28-33.72a3.31418,3.31418,0,0,1,4.08-2.52c3.72.84,6.36,1.68,10.2,2.52a3.39973,3.39973,0,0,1,2.4,4.2l-2.04,8.4-5.28-1.2,1.8-7.44-6.24-1.44-7.68,31.68,6.24,1.44Z" fill="#002d62"/><polygon points="260.04 406.08 246.6 408.6 239.4 367.56 252.6 365.16 253.32 369.6 245.28 370.92 247.68 384.36 255.24 383.04 255.96 387.48 248.52 388.8 251.16 403.08 259.08 401.76 260.04 406.08" fill="#002d62"/><path d="M321.36,379.92l-4.56,2.88-23.4-34.44,11.4-7.8a3.18474,3.18474,0,0,1,4.92.96c3.24,4.68,5.4,7.8,8.64,12.6a3.27715,3.27715,0,0,1-.96,4.92l-.6.48,15.24,13.08-4.92,3.36-17.16-15.12-.12-1.92,3.6-2.4-7.56-11.04-5.64,3.84Z" fill="#002d62"/><path d="M363.72,317.04l8.28,5.28,2.4-3.84-8.04-5.16-15.48.84a4.2889,4.2889,0,0,1-2.76-.6c-3-1.92-4.32-2.88-7.68-4.8a3.25728,3.25728,0,0,1-.96-4.56c1.56-2.76,3-4.8,4.68-7.44a3.15414,3.15414,0,0,1,4.68-.96l7.32,4.68-2.88,4.44-6.36-4.08-2.4,3.96,6.24,3.84,14.76-.96c1.44,0,2.64,0,3.72.84,3.84,2.52,5.16,3.24,9.24,5.76a3.37413,3.37413,0,0,1,1.2,4.56c-1.68,2.76-3,4.8-4.8,7.44a3.184,3.184,0,0,1-4.68.96l-9.12-5.88Z" fill="#002d62"/><path d="M179.76,141.59995,145.44,297.12h67.92s7.56-30.96,8.16-33.72h29.4c22.08.12,40.08-7.32,52.2-21.6,22.2-24.12,18.36-59.28,1.68-79.44-11.88-14.4-29.16-22.44-48.36-22.44H180.12Z" fill="#bec0c2"/><path d="M216.6,257.28,208.44,291H153.12l31.92-144.72h71.28c17.64,0,33,7.32,43.68,20.28,15.84,19.08,17.4,50.88-1.56,71.4-11.64,13.56-28.8,19.68-47.52,19.44Z" fill="#002d62"/><path d="M177.6,179.4h31.2c3.6,0,7.44,2.88,5.88,7.56a45.26025,45.26025,0,0,0-2.28,9.24c-.24,2.28,2.4,3.84,3.84,3.84h63.72c1.2,0,1.8-.36,1.8-.96a19.19544,19.19544,0,0,0-.36-4.08c-.24-1.32-.36-1.68-1.56-1.68-7.92,0-11.16-3.6-19.56-8.88-8.28-5.4-20.52-8.52-31.08-8.52H178.08Z" fill="#fdbb30"/><path d="M216.24,220.55994a54.47476,54.47476,0,0,1-2.76-7.8c-.72-3.24-3.6-5.88-8.52-5.88H171.48l.96-3.72,108.6.12c.96,0,.84.48.72,1.68,0,1.2-.36,3.36-.48,4.68-.12,1.44-1.2,1.08-2.16,1.08-2.64,0-7.08.6-9.72,2.64-4.44,3.48-14.16,9.48-19.44,11.04C244.08,226.08,222.6,232.8,216.24,220.55994Z" fill="#fdbb30"/><path d="M165.6,234.23993h56.64a10.26082,10.26082,0,0,1,6.36,1.92,51.73646,51.73646,0,0,0,17.64,8.76c2.88.96,8.04-.24,12.6-2.76,11.28-6.48,18.6-18.6,21.12-26.52.6-2.04-.6-1.92-2.04-1.8-4.8.36-9.84,4.68-16.44,9-6.72,4.08-20.04,8.16-32.88,8.16H166.44Z" fill="#fdbb30"/><path d="M248.88,158.28a11.061,11.061,0,0,1,5.16.24c10.92,4.32,21,15.48,25.32,27.36.84,2.4,1.08,3.72,0,3.84-4.92.6-7.08-1.92-13.08-5.76a67.6527,67.6527,0,0,0-18.48-8.88c-7.32-2.28-20.52-2.76-22.08-2.76-1.68,0-1.56-.72-.84-1.44A44.44439,44.44439,0,0,1,248.88,158.28Z" fill="#fdbb30"/><path d="M300.48,199.08a1.16011,1.16011,0,0,1-1.08,1.08H286.92c-1.56,0-1.56-.72-1.56-1.68a18.16694,18.16694,0,0,1-.36-3.84c0-.96-.48-2.16.96-2.76a19.72448,19.72448,0,0,0,8.16-7.8c.36-.96,1.2-2.52,2.04-1.2C299.28,187.56,300.24,193.32,300.48,199.08Z" fill="#fdbb30"/><path d="M296.04,221.4c-.12.48-1.08.84-1.2,0-1.8-4.92-6.12-8.16-9.12-9.72-.84-.48-.84-1.08-.84-2.04.12-.84.48-3.72.6-4.8,0-.96.48-1.68,1.2-1.68h12.96c.36,0,.96.48.96.72A40.79866,40.79866,0,0,1,296.04,221.4Z" fill="#fdbb30"/><path d="M262.44,245.64c-.96.24-3-.12.12-1.92,9.36-5.52,17.88-18.24,20.04-25.68.96-2.88.96-3,2.16-2.64,1.44.36,3.72,2.28,5.52,4.68,1.68,2.4,2.52,7.2,1.44,8.4A44.29693,44.29693,0,0,1,262.44,245.64Z" fill="#fdbb30"/><path d="M286.32,187.68c-2.16,1.2-2.64.84-3.12-.72-4.08-14.28-16.2-24.96-21.12-28.2-.84-.48-.72-.96,0-.84,11.76,1.68,23.4,8.04,29.16,16.8C294.72,179.76,288.47995,186.48,286.32,187.68Z" fill="#fdbb30"/></svg>