<?xml version="1.0" encoding="UTF-8" standalone="no"?>
<!-- Created with Inkscape (http://www.inkscape.org/) -->

<svg
   xmlns:dc="http://purl.org/dc/elements/1.1/"
   xmlns:cc="http://creativecommons.org/ns#"
   xmlns:rdf="http://www.w3.org/1999/02/22-rdf-syntax-ns#"
   xmlns:svg="http://www.w3.org/2000/svg"
   xmlns="http://www.w3.org/2000/svg"
   xmlns:sodipodi="http://sodipodi.sourceforge.net/DTD/sodipodi-0.dtd"
   xmlns:inkscape="http://www.inkscape.org/namespaces/inkscape"
   version="1.0"
   width="462.51273"
   height="318.86072"
   id="svg2"
   xml:space="preserve"
   inkscape:version="0.48.1 "
   sodipodi:docname="Washington_Wizards.svg"><metadata
     id="metadata14621"><rdf:RDF><cc:Work
         rdf:about=""><dc:format>image/svg+xml</dc:format><dc:type
           rdf:resource="http://purl.org/dc/dcmitype/StillImage" /></cc:Work></rdf:RDF></metadata><sodipodi:namedview
     pagecolor="#ffffff"
     bordercolor="#666666"
     borderopacity="1"
     objecttolerance="10"
     gridtolerance="10"
     guidetolerance="10"
     inkscape:pageopacity="0"
     inkscape:pageshadow="2"
     inkscape:window-width="1366"
     inkscape:window-height="706"
     id="namedview14619"
     showgrid="false"
     inkscape:zoom="1.044997"
     inkscape:cx="231.25636"
     inkscape:cy="159.43036"
     inkscape:window-x="-8"
     inkscape:window-y="-8"
     inkscape:window-maximized="1"
     inkscape:current-layer="g6381" /><defs
     id="defs5"><clipPath
       id="clipPath6383"><path
         d="M 0,792 L 612,792 L 612,0 L 0,0 L 0,792 z"
         id="path6385" /></clipPath><clipPath
       id="clipPath7529"><path
         d="M 60.5132,530.648 L 61.2163,530.648 L 61.2163,529.792 L 60.5132,529.792 L 60.5132,530.648 z"
         id="path7531" /></clipPath><clipPath
       id="clipPath7697"><path
         d="M 58.8306,536.042 L 60.3862,536.042 L 60.3862,534.773 L 58.8306,534.773 L 58.8306,536.042 z"
         id="path7699" /></clipPath></defs><g
     transform="matrix(1.25,0,0,-1.25,-29.658625,948.43275)"
     id="g11"><g
       transform="matrix(6.274967,0,0,6.274967,-119.0977,-2652.5988)"
       id="g4693" /><g
       transform="matrix(6.274967,0,0,6.274967,-119.0977,-2652.5988)"
       id="g6379"><g
         clip-path="url(#clipPath6383)"
         id="g6381"><g
           transform="translate(44.7676,583.3555)"
           id="g6539"><path
             d="M 0,0 L 0,0 C 0,0 0.002,0 0,0"
             id="path6541"
             style="fill:#002d62;fill-opacity:1;fill-rule:nonzero;stroke:none" /></g><g
           transform="translate(36.0747,516.9629)"
           id="g7725" /><g
           id="g15132"><g
             id="g7525"><g
               id="g7527" /><g
               id="g7533"><g
                 id="g7535"
                 clip-path="url(#clipPath7529)"><g
                   id="g7537"
                   transform="translate(60.5132,529.792)"><path
                     style="fill:#ffffff;fill-opacity:1;fill-rule:nonzero;stroke:none"
                     id="path7539"
                     d="M 0,0 L 0.011,0 C 0.25,0.298 0.482,0.587 0.703,0.856 C 0.48,0.588 0.246,0.3 0,0" /></g></g></g></g><g
             id="g7541"
             transform="translate(47.7085,530.4668)"><path
               style="fill:#ffffff;fill-opacity:1;fill-rule:nonzero;stroke:none"
               id="path7543"
               d="M 0,0 C 2.489,0.649 4.84,1.14 6.918,1.507 C 6.816,1.363 6.708,1.216 6.603,1.063 C 5.52,-0.461 4.311,-2.264 3.655,-4.57 C 3.58,-4.838 3.516,-5.108 3.454,-5.389 C 3.325,-5.99 3.234,-6.626 3.194,-7.3 C 3.194,-7.3 3.655,-6.388 4.316,-5.265 C 4.476,-4.993 4.646,-4.708 4.826,-4.421 C 5.497,-3.345 6.277,-2.23 6.97,-1.608 C 6.97,-1.608 6.489,-2.734 6.252,-4.283 C 6.213,-4.534 6.18,-4.796 6.155,-5.067 C 6.097,-5.744 6.097,-6.474 6.203,-7.207 C 6.203,-7.207 6.384,-6.369 6.927,-5.009 C 7.026,-4.759 7.139,-4.491 7.264,-4.209 C 8.02,-2.506 9.263,-0.235 11.241,2.172 C 11.403,2.189 11.561,2.211 11.716,2.23 C 13.902,2.502 15.23,2.622 15.23,2.622 C 15.23,2.622 9.427,-3.879 6.252,-9.517 C 6.243,-9.533 6.223,-9.559 6.223,-9.559 C 6.223,-9.559 6.194,-9.564 6.178,-9.564 C 5.698,-9.593 5.285,-9.621 4.893,-9.653 C 4.879,-9.653 4.866,-9.656 4.854,-9.656 C 4.84,-9.66 4.828,-9.66 4.814,-9.66 C 4.397,-9.695 4.001,-9.737 3.574,-9.793 C 3.56,-9.793 3.546,-9.793 3.529,-9.795 C 3.516,-9.797 3.501,-9.798 3.485,-9.801 C 3.06,-9.854 2.604,-9.919 2.062,-10.002 L 2.055,-9.981 C 2.054,-9.979 2.054,-9.978 2.054,-9.976 L 0,0 z M -8.772,-5.241 C -9.209,1.52 -2.076,6.479 -2.076,6.479 L -0.969,1.696 C -2.172,0.864 -3.963,-1.169 -3.963,-1.169 C -2.777,-0.763 -1.543,-0.42 -0.281,-0.081 L -0.204,-0.461 L 0.168,-2.235 L 0.247,-2.61 C -3.282,-3.175 -8.772,-5.241 -8.772,-5.241 M 10.941,1.96 C 10.941,1.96 9.85,1.64 9.482,1.406 C 9.497,1.538 9.556,1.771 9.556,1.771 L 10.941,1.96 z M 8.513,2.771 C 8.526,2.796 8.516,2.884 8.543,2.951 C 8.553,2.975 8.571,2.997 8.6,3.011 C 8.63,3.026 8.671,3.033 8.733,3.021 C 8.806,3.006 8.803,2.936 8.849,2.712 L 9.026,3.161 L 11.755,3.503 L 12.169,3.554 L 12.13,2.566 L 11.717,2.486 L 11.355,2.417 L 11.183,2.217 L 9.804,2.108 L 9.454,1.908 L 8.657,1.771 L 8.701,2.167 C 8.543,2.24 8.482,2.721 8.513,2.771 M 16.284,8.129 C 16.854,7.013 17.296,5.631 17.296,5.631 C 16.786,6.106 15.757,6.834 15.757,6.834 C 14.121,5.677 13.356,4.964 12.413,3.846 L 11.85,3.8 L 9.176,3.593 L 8.611,3.551 C 12.204,7.247 16.284,8.129 16.284,8.129 M 15.594,2.664 C 21.678,3.312 26.225,3.396 26.225,3.396 C 23.219,0.742 20.452,-1.679 20.452,-1.679 C 18.331,-1.044 15.415,-0.938 12.498,-1.076 C 12.606,-0.938 12.713,-0.805 12.815,-0.675 L 12.805,-0.675 C 13.051,-0.375 13.285,-0.087 13.508,0.182 C 14.537,1.446 15.32,2.352 15.594,2.664 M 16.778,-4.733 C 16.778,-4.733 7.145,-13.002 4.343,-16.688 C 4.343,-16.688 4.535,-13.348 6.609,-9.458 C 6.696,-9.303 6.788,-9.147 6.882,-8.991 C 7.679,-7.638 8.621,-6.24 9.581,-4.894 C 9.672,-4.763 9.768,-4.631 9.861,-4.5 C 12.045,-4.446 14.332,-4.516 16.778,-4.733 M -9.836,-9.016 C -6.864,-7.58 -3.326,-6.326 0.836,-5.537 L 0.912,-5.914 L 1.688,-9.673 L 1.766,-10.05 C -0.799,-10.412 -4.333,-11.078 -8.217,-12.281 C -8.207,-12.292 -8.196,-12.305 -8.188,-12.316 C -8.112,-12.415 -8.035,-12.512 -7.956,-12.609 C -4.116,-11.428 -0.63,-10.776 1.829,-10.429 L 2.131,-10.381 C 3.667,-10.15 4.541,-10.054 5.917,-9.968 C 4.153,-13.578 3.964,-16.535 3.957,-16.665 L 3.887,-17.926 L 4.649,-16.921 C 7.396,-13.307 16.933,-5.108 17.028,-5.025 L 17.722,-4.431 L 16.813,-4.351 C 14.549,-4.148 12.309,-4.071 10.147,-4.109 C 10.833,-3.182 11.514,-2.298 12.148,-1.497 C 12.366,-1.476 12.519,-1.46 12.526,-1.46 C 15.886,-1.304 18.514,-1.504 20.342,-2.048 L 20.546,-2.109 L 27.27,3.8 L 26.218,3.78 C 26.17,3.78 21.582,3.688 15.555,3.051 C 15.55,3.049 15.196,3.009 15.196,3.009 C 15.204,3.009 13.358,2.806 12.494,2.709 C 12.502,2.899 12.515,3.226 12.522,3.407 C 12.597,3.493 12.683,3.603 12.683,3.603 C 13.605,4.691 14.348,5.368 15.729,6.357 C 16.054,6.122 16.661,5.674 17.006,5.351 L 18.085,4.343 L 17.636,5.751 C 17.617,5.807 17.18,7.171 16.603,8.305 L 16.468,8.568 L 16.178,8.504 C 16.007,8.469 11.944,7.557 8.309,3.815 C 7.76,3.297 6.943,2.223 6.675,1.861 C 4.432,1.458 2.159,0.96 -0.086,0.369 C -0.092,0.369 -0.384,0.288 -0.384,0.288 C -1.091,0.102 -1.879,-0.115 -2.679,-0.355 C -2.087,0.252 -1.34,0.973 -0.749,1.381 L -0.534,1.529 L -1.827,7.12 L -2.295,6.795 C -2.593,6.588 -9.604,1.631 -9.158,-5.267 L -9.122,-5.786 L -8.637,-5.604 C -8.581,-5.582 -3.143,-3.542 0.307,-2.993 L 0.323,-2.991 L 0.337,-2.986 L 0.339,-2.986 L 0.784,-5.154 C 0.764,-5.157 0.748,-5.16 0.738,-5.165 C -3.447,-5.962 -6.997,-7.23 -9.939,-8.648 C -9.908,-8.761 -9.877,-8.873 -9.843,-8.987 C -9.84,-8.996 -9.838,-9.006 -9.836,-9.016" /></g><g
             id="g7545"
             transform="translate(34.2769,516.2393)"><path
               style="fill:#ffffff;fill-opacity:1;fill-rule:nonzero;stroke:none"
               id="path7547"
               d="M 0,0 C -0.009,0.016 -0.017,0.024 -0.024,0.035 C -3.104,-1.268 -6.227,-2.942 -9.123,-5.091 C -9.123,-5.091 -6.745,-1.322 -1.289,2.394 C -1.295,2.404 -1.299,2.415 -1.305,2.427 C -1.348,2.537 -1.393,2.647 -1.435,2.759 C -2.375,2.122 -3.21,1.495 -3.933,0.911 C -7.699,-2.144 -9.381,-4.773 -9.451,-4.884 L -10.55,-6.626 L -8.894,-5.399 C -6.001,-3.256 -2.874,-1.587 0.204,-0.289 C 0.134,-0.193 0.067,-0.098 0,0" /></g><g
             id="g7549"
             transform="translate(75.6187,534.6445)"><path
               style="fill:#bc9b6a;fill-opacity:1;fill-rule:nonzero;stroke:none"
               id="path7551"
               d="M 0,0 C -0.734,-0.382 -1.101,-1.1 -1.101,-1.1 L -1.544,-1.172 L -3.407,-2.81 C 1.326,-2.08 1.828,-1.342 2.816,0.648 C 1.822,0.014 1.258,-0.418 0.881,-0.467 L 0,0 z" /></g><g
             id="g7553"
             transform="translate(33.0737,527.4414)"><path
               style="fill:#bc9b6a;fill-opacity:1;fill-rule:nonzero;stroke:none"
               id="path7555"
               d="M 0,0 C 0.298,-0.204 0.636,-0.213 1.197,-0.033 C 1.479,1.389 2.255,4.337 4.247,7.26 C 2.112,5.29 0.56,2.934 -0.288,0.43 C -0.251,0.277 -0.173,0.119 0,0" /></g><g
             id="g7557"
             transform="translate(34.187,522.5762)"><path
               style="fill:#bc9b6a;fill-opacity:1;fill-rule:nonzero;stroke:none"
               id="path7559"
               d="M 0,0 C -0.142,0.567 -0.215,1.241 -0.215,1.987 C -0.215,2.646 -0.155,3.364 -0.042,4.107 C -0.928,3.906 -1.384,4.161 -1.61,4.419 C -1.624,4.438 -1.64,4.457 -1.653,4.479 C -2.254,2.289 -2.321,0.023 -1.778,-2.172 C -1.217,-1.8 -0.55,-1.379 0.196,-0.951 C 0.169,-0.813 0,0.001 0,0" /></g><g
             id="g7561"
             transform="translate(37.061,515.165)"><path
               style="fill:#bc9b6a;fill-opacity:1;fill-rule:nonzero;stroke:none"
               id="path7563"
               d="M 0,0 C -0.373,0.567 -0.709,1.165 -1.02,1.784 C -1.606,1.559 -2.195,1.324 -2.784,1.074 C -2.717,0.977 -2.65,0.881 -2.58,0.785 C -2.03,0.023 -1.401,-0.674 -0.704,-1.311 C -0.698,-1.193 -0.688,-1.08 -0.665,-0.967 C -0.601,-0.682 -0.432,-0.287 0,0" /></g><g
             id="g7565"
             transform="translate(38.0747,514.8818)"><path
               style="fill:#bc9b6a;fill-opacity:1;fill-rule:nonzero;stroke:none"
               id="path7567"
               d="M 0,0 C 1.863,-2.542 4.323,-4.252 7.325,-5.102 C 10.818,-5.595 14.619,-5.169 18.242,-3.684 C 19.164,-3.303 20.036,-2.871 20.857,-2.389 C 16.255,-3.553 10.688,-2.816 6.407,-0.667 C 3.882,0.283 1.205,0.42 0,0" /></g><g
             id="g7569"
             transform="translate(37.4409,514.6123)"><path
               style="fill:#bc9b6a;fill-opacity:1;fill-rule:nonzero;stroke:none"
               id="path7571"
               d="M 0,0 C -0.205,-0.139 -0.337,-0.319 -0.392,-0.56 C -0.412,-0.651 -0.421,-0.749 -0.421,-0.846 C -0.421,-1.027 -0.388,-1.214 -0.337,-1.396 C 0.961,-2.425 2.448,-3.249 4.063,-3.853 C 2.497,-2.876 1.138,-1.59 0,0" /></g><g
             id="g7573"
             transform="translate(35.4546,520.2148)"><path
               style="fill:#bc9b6a;fill-opacity:1;fill-rule:nonzero;stroke:none"
               id="path7575"
               d="M 0,0 C 0.753,0.429 1.555,0.854 2.411,1.265 C 2.377,1.379 2.346,1.491 2.314,1.604 C 2.253,1.834 2.197,2.063 2.147,2.294 C 1.345,1.94 0.524,1.534 -0.303,1.076 C -0.22,0.748 -0.119,0.387 0,0" /></g><g
             id="g7577"
             transform="translate(38.0571,529.7744)"><path
               style="fill:#bc9b6a;fill-opacity:1;fill-rule:nonzero;stroke:none"
               id="path7579"
               d="M 0,0 C 1.347,4.064 4.46,7.707 8.808,9.727 C 7.889,9.538 6.896,9.354 5.378,8.746 C 4.026,8.206 2.774,7.544 1.633,6.786 C -0.646,4.41 -2.329,1.238 -3.063,-2.12 C -2.027,-1.733 -0.971,-0.993 0,0" /></g><g
             id="g7581"
             transform="translate(34.6372,524.5947)"><path
               style="fill:#bc9b6a;fill-opacity:1;fill-rule:nonzero;stroke:none"
               id="path7583"
               d="M 0,0 C 0,-0.7 0.067,-1.336 0.203,-1.87 C 0.203,-1.87 0.205,-1.882 0.209,-1.893 C 0.209,-1.893 0.339,-2.542 0.355,-2.629 C 1.195,-2.168 2.026,-1.761 2.841,-1.41 C 2.562,0.367 2.65,2.182 3.068,3.945 C 2.137,3.155 1.154,2.584 0.208,2.301 C 0.069,1.489 0,0.71 0,0" /></g><g
             id="g7585"
             transform="translate(34.8638,519.8701)"><path
               style="fill:#bc9b6a;fill-opacity:1;fill-rule:nonzero;stroke:none"
               id="path7587"
               d="M 0,0 C -0.11,0.354 -0.218,0.712 -0.315,1.08 C -1.062,0.646 -1.721,0.222 -2.269,-0.146 C -2.193,-0.389 -2.109,-0.634 -2.021,-0.872 C -1.979,-0.983 -1.935,-1.094 -1.892,-1.204 C -1.305,-0.807 -0.675,-0.403 0,0" /></g><g
             id="g7589"
             transform="translate(36.6704,517.1836)"><path
               style="fill:#bc9b6a;fill-opacity:1;fill-rule:nonzero;stroke:none"
               id="path7591"
               d="M 0,0 C 0.294,-0.577 0.626,-1.161 1.011,-1.734 C 1.998,-1.315 3.731,-1.294 5.634,-1.672 C 4.655,-0.979 3.788,-0.192 3.082,0.674 C 3.003,0.771 2.926,0.868 2.85,0.967 C 1.918,0.678 0.966,0.356 0,0" /></g><g
             id="g7593"
             transform="translate(46.3306,535.6631)"><path
               style="fill:#bc9b6a;fill-opacity:1;fill-rule:nonzero;stroke:none"
               id="path7595"
               d="M 0,0 L 0.471,0.387 C 0.471,0.387 1.763,0.591 2.35,0.711 L 2.35,2.178 L 3.913,3.355 C 3.913,3.355 1.785,3.196 -0.35,1.517 L 0,0 z" /></g><g
             id="g7597"
             transform="translate(60.5239,529.792)"><path
               style="fill:#005595;fill-opacity:1;fill-rule:nonzero;stroke:none"
               id="path7599"
               d="M 0,0 C -0.103,-0.13 -0.209,-0.263 -0.317,-0.401 C 2.6,-0.263 5.516,-0.369 7.637,-1.004 C 7.637,-1.004 10.403,1.417 13.409,4.07 C 13.409,4.07 8.862,3.986 2.778,3.339 C 2.505,3.026 1.722,2.121 0.692,0.856 C 0.472,0.587 0.239,0.298 0,0" /></g><g
             id="g7601"
             transform="translate(59.4087,535.5605)"><path
               style="fill:#005595;fill-opacity:1;fill-rule:nonzero;stroke:none"
               id="path7603"
               d="M 0,0 C 0,0 0.149,0.359 0.199,0.481 C 0.25,0.359 0.399,0 0.399,0 C 0.399,0 0.809,-0.007 0.978,-0.008 C 0.839,-0.099 0.516,-0.307 0.516,-0.307 C 0.516,-0.307 0.637,-0.655 0.686,-0.787 C 0.56,-0.714 0.199,-0.5 0.199,-0.5 C 0.199,-0.5 -0.16,-0.714 -0.288,-0.787 C -0.242,-0.655 -0.116,-0.307 -0.116,-0.307 C -0.116,-0.307 -0.439,-0.099 -0.578,-0.008 C -0.411,-0.007 0,0 0,0 M 0.149,-1.294 L 0.713,-1.248 C 1.656,-0.13 2.421,0.583 4.057,1.74 C 4.057,1.74 5.086,1.013 5.596,0.537 C 5.596,0.537 5.153,1.919 4.584,3.035 C 4.584,3.035 0.504,2.153 -3.089,-1.543 L -2.524,-1.501 L 0.149,-1.294 z" /></g><g
             id="g7605"
             transform="translate(57.1909,531.873)"><path
               style="fill:#051922;fill-opacity:1;fill-rule:nonzero;stroke:none"
               id="path7607"
               d="M 0,0 C 0.367,0.233 1.459,0.554 1.459,0.554 L 0.073,0.365 C 0.073,0.365 0.015,0.132 0,0" /></g><g
             id="g7609"
             transform="translate(51.0825,538.7666)"><path
               style="fill:#bc9b6a;fill-opacity:1;fill-rule:nonzero;stroke:none"
               id="path7611"
               d="M 0,0 L -1.765,-1.409 L 0.116,-1.233 L -0.295,-3.581 L 1.461,-1.276 L 2.853,-3.061 L 2.229,-0.725 L 6.565,0.953 L 2.729,0.443 L 4.337,2.426 L 1.849,1.068 L 2.94,4.211 L 1.267,1.601 L 0.234,3.352 L 0.529,0.824 L -2.351,1.501 L 0,0 z" /></g><g
             style="fill:#005595;fill-opacity:1"
             id="g7613"
             transform="translate(62.5083,504.668)"><path
               style="fill:#005595;fill-opacity:1;fill-rule:nonzero;stroke:none"
               id="path7615"
               d="M 0,0 C -0.283,-0.316 -0.626,-0.425 -1.167,-0.425 C -1.321,-0.425 -1.476,-0.415 -1.631,-0.378 L -1.631,2.139 C -1.441,2.163 -1.251,2.181 -1.064,2.181 C -0.008,2.181 0.302,1.474 0.302,0.882 C 0.302,0.576 0.233,0.266 0,0 M 0.81,2.456 C 0.035,2.817 -0.834,2.789 -1.762,2.789 L -3.58,2.789 L -3.58,2.771 C -3.427,2.722 -3.299,2.596 -3.265,2.48 C -3.219,2.311 -3.219,1.789 -3.219,1.597 L -3.219,-0.171 C -3.219,-0.474 -3.16,-0.799 -3.58,-0.976 L -3.58,-1.01 L -1.647,-1.001 C -0.687,-1.001 0.174,-1.022 0.957,-0.602 C 1.617,-0.254 1.969,0.324 1.969,0.882 C 1.969,1.501 1.582,2.094 0.81,2.456" /></g><g
             id="g7617"
             transform="translate(56.3813,505.9277)"><path
               style="fill:#005595;fill-opacity:1;fill-rule:nonzero;stroke:none"
               id="path7619"
               d="M 0,0 C -0.142,-0.13 -0.313,-0.178 -0.584,-0.178 C -0.662,-0.178 -0.739,-0.173 -0.817,-0.158 L -0.817,0.889 C -0.721,0.897 -0.627,0.903 -0.53,0.903 C -0.004,0.903 0.15,0.609 0.15,0.364 C 0.15,0.239 0.116,0.107 0,0 M -6.242,-0.35 L -5.764,0.595 L -5.27,-0.35 L -6.242,-0.35 z M 1.728,-1.683 L 0.932,-0.729 C 1.619,-0.703 2.096,-0.226 2.096,0.329 C 2.096,1.121 1.542,1.49 -0.227,1.503 L -2.781,1.503 C -2.36,1.322 -2.409,0.98 -2.409,0.685 L -2.409,-1.448 C -2.409,-1.677 -2.374,-1.919 -2.542,-2.104 C -2.827,-1.896 -2.887,-1.748 -3.058,-1.448 L -4.681,1.503 L -6.784,1.483 C -6.611,1.409 -6.458,1.308 -6.458,1.151 C -6.458,1.031 -6.594,0.808 -6.648,0.695 L -7.832,-1.591 C -7.841,-1.609 -7.851,-1.622 -7.857,-1.638 L -10.204,-1.642 L -7.664,1.522 L -11.606,1.522 L -12.062,0.709 C -11.554,0.895 -11.142,0.986 -10.565,0.986 L -9.888,0.956 L -12.448,-2.259 L -8.416,-2.259 C -8.42,-2.261 -8.422,-2.263 -8.424,-2.268 L -6.663,-2.259 C -6.819,-2.172 -6.974,-2.092 -6.974,-1.929 C -6.974,-1.809 -6.879,-1.629 -6.819,-1.517 L -6.571,-1.021 L -4.973,-1.021 L -4.628,-1.683 C -4.575,-1.774 -4.56,-1.803 -4.56,-1.901 C -4.56,-2.084 -4.714,-2.163 -4.913,-2.268 L -2.756,-2.259 C -2.759,-2.261 -2.766,-2.263 -2.769,-2.268 L -0.458,-2.259 C -0.878,-2.08 -0.82,-1.746 -0.82,-1.448 L -0.82,-0.864 C -0.82,-0.864 0.03,-1.784 0.072,-1.828 C 0.472,-2.288 0.903,-2.27 0.903,-2.27 L 2.544,-2.27 C 2.107,-2.044 1.962,-1.95 1.728,-1.683" /></g><g
             style="fill:#005595;fill-opacity:1"
             id="g7621"
             transform="translate(68.1323,505.752)"><path
               style="fill:#005595;fill-opacity:1;fill-rule:nonzero;stroke:none"
               id="path7623"
               d="M 0,0 C -0.344,0.2 -0.731,0.306 -1.144,0.428 C -1.461,0.521 -1.96,0.63 -1.96,0.903 C -1.96,1.174 -1.546,1.272 -1.211,1.272 C -0.781,1.272 -0.36,1.156 0,1.001 L 0,1.672 C -0.446,1.787 -0.963,1.844 -1.443,1.844 C -1.967,1.844 -2.5,1.774 -2.938,1.568 C -3.334,1.381 -3.574,1.064 -3.574,0.739 C -3.574,-0.544 -0.954,-0.401 -0.954,-1.099 C -0.954,-1.42 -1.479,-1.507 -1.863,-1.507 C -2.481,-1.507 -3.188,-1.325 -3.668,-1.06 L -3.384,-1.885 C -2.853,-2.022 -2.285,-2.092 -1.718,-2.092 C -1.109,-2.092 -0.559,-2.039 -0.052,-1.794 C 0.404,-1.568 0.636,-1.238 0.636,-0.865 C 0.636,-0.498 0.411,-0.241 0,0" /></g><g
             style="fill:#005595;fill-opacity:1"
             id="g7625"
             transform="translate(41.9751,506.624)"><path
               style="fill:#005595;fill-opacity:1;fill-rule:nonzero;stroke:none"
               id="path7627"
               d="M 0,0 L -0.016,-2.136 C -0.016,-2.434 0.045,-2.755 -0.377,-2.932 L -0.377,-2.951 L 1.936,-2.951 L 1.936,-2.932 C 1.514,-2.755 1.575,-2.434 1.575,-2.136 L 1.575,0 C 1.575,0.299 1.514,0.626 1.936,0.803 L 1.936,0.819 L 0,0.819 L 0,0 z" /></g><g
             style="fill:#005595;fill-opacity:1"
             id="g7629"
             transform="translate(41.9126,507.4717)"><path
               style="fill:#005595;fill-opacity:1;fill-rule:nonzero;stroke:none"
               id="path7631"
               d="M 0,0 L -1.462,0 L -1.462,-0.013 C -1.297,-0.096 -1.168,-0.196 -1.168,-0.321 C -1.168,-0.426 -1.255,-0.554 -1.315,-0.653 L -2.039,-1.89 L -2.067,-1.89 L -2.896,-0.528 C -2.992,-0.379 -3.095,-0.238 -3.095,-0.082 C -3.095,-0.057 -3.076,-0.028 -3.061,-0.013 L -3.061,0 L -4.876,0 L -4.876,-0.013 C -4.667,-0.089 -4.486,-0.313 -4.486,-0.438 C -4.486,-0.523 -4.572,-0.67 -4.616,-0.753 L -5.22,-1.89 L -5.246,-1.89 L -6.301,-0.003 L -6.301,0 L -8.174,0 L -8.174,-0.013 C -7.866,-0.132 -7.728,-0.277 -7.613,-0.464 L -5.509,-3.794 L -4.026,-1.127 L -2.441,-3.794 L 0,-0.013 L 0,0 z" /></g><g
             id="g7633"
             transform="translate(58.9077,533.6787)"><path
               style="fill:#bc9b6a;fill-opacity:1;fill-rule:nonzero;stroke:none"
               id="path7635"
               d="M 0,0 L 0.015,-0.024 C 0.055,-0.104 0.06,-0.191 0.024,-0.271 C -0.006,-0.348 -0.065,-0.406 -0.132,-0.428 L -0.143,-0.433 L -1.106,-0.293 L -1.11,-0.219 L 0,0 z M -2.498,-1.045 L -2.542,-1.44 L -1.745,-1.304 L -1.396,-1.104 L -0.017,-0.995 L 0.156,-0.795 L 0.518,-0.726 L 0.931,-0.646 L 0.97,0.342 L 0.556,0.291 L -2.173,-0.051 L -2.351,-0.5 C -2.396,-0.276 -2.394,-0.206 -2.466,-0.191 C -2.528,-0.179 -2.569,-0.186 -2.6,-0.201 C -2.628,-0.215 -2.646,-0.237 -2.656,-0.261 C -2.684,-0.328 -2.673,-0.416 -2.687,-0.441 C -2.717,-0.491 -2.656,-0.972 -2.498,-1.045" /></g><g
             id="g7637"
             transform="translate(49.7632,520.4854)"><path
               style="fill:#051922;fill-opacity:1;fill-rule:nonzero;stroke:none"
               id="path7639"
               d="M 0,0 L 0.007,-0.021 C 0.55,0.063 1.005,0.128 1.431,0.181 C 1.448,0.219 1.461,0.252 1.461,0.252 C 1.466,0.269 1.999,1.92 2.762,3.031 L 2.846,3.155 L 2.831,3.008 C 2.792,2.597 2.78,2.167 2.78,1.775 C 2.78,1.003 2.829,0.383 2.831,0.364 C 2.832,0.362 2.833,0.349 2.838,0.328 C 3.23,0.36 3.644,0.389 4.123,0.417 C 4.14,0.417 4.168,0.423 4.168,0.423 C 4.168,0.423 4.188,0.448 4.197,0.465 C 7.372,6.103 13.176,12.604 13.176,12.604 C 13.176,12.604 11.848,12.483 9.661,12.212 C 9.506,12.192 9.349,12.171 9.187,12.153 C 7.208,9.746 5.965,7.476 5.209,5.772 C 5.084,5.49 4.972,5.223 4.872,4.973 C 4.329,3.612 4.148,2.774 4.148,2.774 C 4.042,3.508 4.042,4.237 4.101,4.914 C 4.125,5.186 4.158,5.447 4.197,5.698 C 4.435,7.247 4.915,8.373 4.915,8.373 C 4.223,7.751 3.442,6.637 2.771,5.561 C 2.592,5.273 2.421,4.988 2.262,4.717 C 1.601,3.594 1.14,2.682 1.14,2.682 C 1.18,3.355 1.271,3.991 1.399,4.593 C 1.461,4.873 1.525,5.144 1.601,5.411 C 2.256,7.718 3.465,9.521 4.548,11.044 C 4.653,11.197 4.762,11.345 4.863,11.488 C 2.785,11.121 0.435,10.631 -2.055,9.981 L -0.001,0.006 C -0.001,0.004 -0.001,0.002 0,0" /></g><g
             id="g7641"
             transform="translate(79.2554,538.377)"><path
               style="fill:#bc9b6a;fill-opacity:1;fill-rule:nonzero;stroke:none"
               id="path7643"
               d="M 0,0 C 0.009,0.7 0.47,1.202 0.592,1.319 C 0.131,1.646 -0.465,1.813 -1.089,1.762 C -0.7,1.231 -0.449,0.633 -0.339,-0.017 C -0.287,-0.014 -0.055,-0.001 0,0" /></g><g
             id="g7645"
             transform="translate(77.9312,538.2881)"><path
               style="fill:#bc9b6a;fill-opacity:1;fill-rule:nonzero;stroke:none"
               id="path7647"
               d="M 0,0 C 0.051,0.004 0.546,0.047 0.621,0.056 C 0.507,0.672 0.256,1.239 -0.135,1.74 L -0.164,1.791 C -0.555,1.7 -0.906,1.525 -1.188,1.297 C -1.188,1.299 -1.185,1.301 -1.183,1.301 C -0.924,1.158 -0.226,0.72 0,0" /></g><g
             id="g7649"
             transform="translate(75.9321,537.958)"><path
               style="fill:#bc9b6a;fill-opacity:1;fill-rule:nonzero;stroke:none"
               id="path7651"
               d="M 0,0 L 0,-0.04 L 0,-0.017 L 0,0 z" /></g><g
             id="g7653"
             transform="translate(80.7368,538.3135)"><path
               style="fill:#bc9b6a;fill-opacity:1;fill-rule:nonzero;stroke:none"
               id="path7655"
               d="M 0,0 C -0.003,0.021 -0.005,0.045 -0.009,0.064 C -0.089,0.488 -0.305,0.859 -0.609,1.15 C -0.717,1.041 -1.105,0.606 -1.115,0.064 C -0.505,0.063 -0.125,0.017 0,0" /></g><g
             id="g7657"
             transform="translate(76.4937,539.3125)"><path
               style="fill:#bc9b6a;fill-opacity:1;fill-rule:nonzero;stroke:none"
               id="path7659"
               d="M 0,0 L -0.021,0.014 C -0.359,-0.361 -0.558,-0.834 -0.562,-1.332 C 0.017,-1.22 0.551,-1.132 1.063,-1.069 C 0.81,-0.394 0.012,-0.007 0,0" /></g><g
             id="g7661"
             transform="translate(77.6343,537.8438)"><path
               style="fill:#bc9b6a;fill-opacity:1;fill-rule:nonzero;stroke:none"
               id="path7663"
               d="M 0,0 C 0,0.015 -0.002,0.026 -0.002,0.043 C -0.529,-0.022 -1.078,-0.108 -1.673,-0.228 C -1.675,-0.215 -1.675,-0.204 -1.678,-0.188 C -1.681,-0.183 -1.681,-0.175 -1.681,-0.169 C -1.678,-0.191 -1.675,-0.215 -1.671,-0.238 C -1.574,-0.756 -1.275,-1.194 -0.863,-1.509 C -0.297,-0.979 0,-0.46 0,0" /></g><g
             id="g7665"
             transform="translate(79.2993,538.0068)"><path
               style="fill:#bc9b6a;fill-opacity:1;fill-rule:nonzero;stroke:none"
               id="path7667"
               d="M 0,0 C -0.045,0 -0.276,-0.007 -0.334,-0.009 C -0.322,-0.146 -0.315,-0.285 -0.315,-0.417 C -0.315,-1.215 -0.513,-1.863 -0.615,-2.146 C -0.594,-2.144 -0.573,-2.144 -0.554,-2.14 C 0.057,-2.039 0.576,-1.742 0.934,-1.331 C 0.417,-0.919 0.105,-0.469 0,0" /></g><g
             id="g7669"
             transform="translate(78.603,537.9766)"><path
               style="fill:#bc9b6a;fill-opacity:1;fill-rule:nonzero;stroke:none"
               id="path7671"
               d="M 0,0 C -0.065,-0.002 -0.544,-0.046 -0.604,-0.05 C -0.602,-0.08 -0.602,-0.111 -0.602,-0.142 C -0.602,-0.695 -0.906,-1.269 -1.512,-1.844 C -1.157,-2.03 -0.75,-2.136 -0.321,-2.14 C -0.27,-2.014 0.019,-1.29 0.019,-0.371 C 0.019,-0.251 0.011,-0.126 0,0" /></g><g
             id="g7673"
             transform="translate(80.4526,536.9648)"><path
               style="fill:#bc9b6a;fill-opacity:1;fill-rule:nonzero;stroke:none"
               id="path7675"
               d="M 0,0 C 0.185,0.296 0.292,0.632 0.304,0.981 C 0.21,0.993 -0.162,1.042 -0.776,1.043 C -0.674,0.688 -0.414,0.336 0,0" /></g><g
             id="g7677"
             transform="translate(78.3218,535.835)"><path
               style="fill:#051922;fill-opacity:1;fill-rule:nonzero;stroke:none"
               id="path7679"
               d="M 0,0 L 0.037,0 L -0.002,0 L 0,0 z" /></g><g
             id="g7681"
             transform="translate(77.021,536.1738)"><path
               style="fill:#051922;fill-opacity:1;fill-rule:nonzero;stroke:none"
               id="path7683"
               d="M 0,0 C 0.012,-0.009 0.023,-0.017 0.036,-0.023 C 0.046,-0.026 0.056,-0.031 0.063,-0.039 C 0.043,-0.023 0.022,-0.014 -0.002,0 L 0,0 z" /></g><g
             id="g7685"
             transform="translate(80.7612,537.9834)"><path
               style="fill:#bc9b6a;fill-opacity:1;fill-rule:nonzero;stroke:none"
               id="path7687"
               d="M 0,0 C 0,0.037 -0.005,0.074 -0.005,0.114 L -0.005,0.121 C -0.008,0.178 -0.014,0.231 -0.021,0.291 L -0.021,0.293 C -0.021,0.307 -0.023,0.318 -0.024,0.33 C -0.149,0.347 -0.529,0.394 -1.14,0.395 C -1.13,0.937 -0.741,1.371 -0.634,1.48 C -0.634,1.482 -0.63,1.482 -0.63,1.486 C -0.642,1.494 -0.648,1.504 -0.659,1.509 C -0.674,1.528 -0.692,1.538 -0.708,1.553 C -0.75,1.589 -0.793,1.625 -0.839,1.659 C -0.851,1.669 -0.865,1.683 -0.881,1.693 C -0.888,1.695 -0.895,1.701 -0.9,1.708 C -0.904,1.709 -0.908,1.711 -0.914,1.713 C -1.036,1.596 -1.497,1.094 -1.506,0.394 C -1.561,0.393 -1.793,0.38 -1.845,0.377 C -1.955,1.026 -2.206,1.625 -2.595,2.155 C -2.595,2.156 -2.596,2.156 -2.596,2.158 C -2.612,2.156 -2.625,2.155 -2.642,2.154 C -2.65,2.154 -2.66,2.151 -2.672,2.151 C -2.719,2.146 -2.767,2.142 -2.813,2.135 C -2.869,2.123 -2.924,2.112 -2.978,2.1 C -2.981,2.098 -2.99,2.098 -2.995,2.098 L -2.994,2.096 L -2.965,2.045 C -2.574,1.544 -2.323,0.977 -2.209,0.36 C -2.284,0.352 -2.779,0.309 -2.83,0.305 C -3.056,1.024 -3.754,1.463 -4.013,1.605 C -4.015,1.605 -4.018,1.604 -4.018,1.602 C -4.027,1.596 -4.035,1.587 -4.045,1.578 C -4.057,1.568 -4.068,1.563 -4.08,1.555 C -4.101,1.535 -4.119,1.514 -4.14,1.496 C -4.147,1.487 -4.155,1.48 -4.161,1.475 C -4.188,1.45 -4.215,1.429 -4.238,1.403 C -4.248,1.392 -4.256,1.381 -4.264,1.373 C -4.271,1.368 -4.274,1.363 -4.277,1.356 C -4.282,1.353 -4.286,1.349 -4.289,1.343 L -4.268,1.329 C -4.256,1.322 -3.458,0.936 -3.204,0.26 C -3.717,0.197 -4.251,0.109 -4.829,-0.003 L -4.829,-0.025 L -4.829,-0.042 L -4.829,-0.065 C -4.828,-0.072 -4.828,-0.076 -4.828,-0.083 C -4.825,-0.152 -4.82,-0.222 -4.811,-0.29 C -4.809,-0.297 -4.809,-0.303 -4.808,-0.309 C -4.808,-0.314 -4.808,-0.322 -4.805,-0.327 C -4.802,-0.344 -4.802,-0.354 -4.8,-0.367 C -4.205,-0.248 -3.656,-0.162 -3.129,-0.097 C -3.129,-0.113 -3.127,-0.125 -3.127,-0.14 C -3.127,-0.6 -3.424,-1.119 -3.99,-1.648 L -3.99,-1.651 C -3.986,-1.651 -3.98,-1.655 -3.976,-1.656 C -3.962,-1.668 -3.947,-1.68 -3.932,-1.688 C -3.917,-1.699 -3.904,-1.709 -3.888,-1.719 C -3.84,-1.751 -3.791,-1.783 -3.742,-1.81 C -3.718,-1.823 -3.697,-1.833 -3.678,-1.849 C -3.673,-1.849 -3.672,-1.851 -3.67,-1.851 C -3.064,-1.275 -2.76,-0.702 -2.76,-0.148 C -2.76,-0.118 -2.76,-0.087 -2.763,-0.057 C -2.702,-0.053 -2.224,-0.009 -2.158,-0.007 C -2.147,-0.133 -2.14,-0.258 -2.14,-0.378 C -2.14,-1.297 -2.428,-2.021 -2.479,-2.146 L -2.479,-2.152 C -2.468,-2.152 -2.454,-2.148 -2.441,-2.148 L -2.402,-2.148 C -2.4,-2.148 -2.399,-2.146 -2.398,-2.146 C -2.325,-2.146 -2.254,-2.14 -2.179,-2.133 L -2.162,-2.133 C -2.147,-2.131 -2.133,-2.13 -2.119,-2.128 C -2.107,-2.128 -2.095,-2.126 -2.083,-2.123 C -2.081,-2.123 -2.079,-2.123 -2.077,-2.122 C -1.975,-1.84 -1.777,-1.191 -1.777,-0.394 C -1.777,-0.262 -1.784,-0.123 -1.796,0.015 C -1.738,0.017 -1.507,0.023 -1.462,0.023 C -1.356,-0.445 -1.045,-0.896 -0.528,-1.308 C -0.519,-1.299 -0.511,-1.289 -0.502,-1.279 C -0.474,-1.247 -0.445,-1.215 -0.42,-1.178 C -0.388,-1.137 -0.357,-1.094 -0.329,-1.052 C -0.32,-1.038 -0.315,-1.027 -0.309,-1.019 C -0.723,-0.683 -0.982,-0.331 -1.085,0.024 C -0.471,0.023 -0.099,-0.025 -0.005,-0.037 C -0.005,-0.037 0,-0.037 0,-0.04 L 0,0 z" /></g><g
             id="g7689"
             transform="translate(80.7612,537.9834)"><path
               style="fill:#051922;fill-opacity:1;fill-rule:nonzero;stroke:none"
               id="path7691"
               d="M 0,0 C 0,0.037 -0.005,0.074 -0.005,0.114 L -0.005,0.121 C -0.008,0.178 -0.014,0.231 -0.021,0.291 L -0.021,0.293 C -0.021,0.307 -0.023,0.318 -0.024,0.33 C -0.149,0.347 -0.529,0.394 -1.14,0.395 C -1.13,0.937 -0.741,1.371 -0.634,1.48 C -0.634,1.482 -0.63,1.482 -0.63,1.486 C -0.642,1.494 -0.648,1.504 -0.659,1.509 C -0.674,1.528 -0.692,1.538 -0.708,1.553 C -0.75,1.589 -0.793,1.625 -0.839,1.659 C -0.851,1.669 -0.865,1.683 -0.881,1.693 C -0.888,1.695 -0.895,1.701 -0.9,1.708 C -0.904,1.709 -0.908,1.711 -0.914,1.713 C -1.036,1.596 -1.497,1.094 -1.506,0.394 C -1.561,0.393 -1.793,0.38 -1.845,0.377 C -1.955,1.026 -2.206,1.625 -2.595,2.155 C -2.595,2.156 -2.596,2.156 -2.596,2.158 C -2.612,2.156 -2.625,2.155 -2.642,2.154 C -2.65,2.154 -2.66,2.151 -2.672,2.151 C -2.719,2.146 -2.767,2.142 -2.813,2.135 C -2.869,2.123 -2.924,2.112 -2.978,2.1 C -2.981,2.098 -2.99,2.098 -2.995,2.098 L -2.994,2.096 L -2.965,2.045 C -2.574,1.544 -2.323,0.977 -2.209,0.36 C -2.284,0.352 -2.779,0.309 -2.83,0.305 C -3.056,1.024 -3.754,1.463 -4.013,1.605 C -4.015,1.605 -4.018,1.604 -4.018,1.602 C -4.027,1.596 -4.035,1.587 -4.045,1.578 C -4.057,1.568 -4.068,1.563 -4.08,1.555 C -4.101,1.535 -4.119,1.514 -4.14,1.496 C -4.147,1.487 -4.155,1.48 -4.161,1.475 C -4.188,1.45 -4.215,1.429 -4.238,1.403 C -4.248,1.392 -4.256,1.381 -4.264,1.373 C -4.271,1.368 -4.274,1.363 -4.277,1.356 C -4.282,1.353 -4.286,1.349 -4.289,1.343 L -4.268,1.329 C -4.256,1.322 -3.458,0.936 -3.204,0.26 C -3.717,0.197 -4.251,0.109 -4.829,-0.003 L -4.829,-0.025 L -4.829,-0.042 L -4.829,-0.065 C -4.828,-0.072 -4.828,-0.076 -4.828,-0.083 C -4.825,-0.152 -4.82,-0.222 -4.811,-0.29 C -4.809,-0.297 -4.809,-0.303 -4.808,-0.309 C -4.808,-0.314 -4.808,-0.322 -4.805,-0.327 C -4.802,-0.344 -4.802,-0.354 -4.8,-0.367 C -4.205,-0.248 -3.656,-0.162 -3.129,-0.097 C -3.129,-0.113 -3.127,-0.125 -3.127,-0.14 C -3.127,-0.6 -3.424,-1.119 -3.99,-1.648 L -3.99,-1.651 C -3.986,-1.651 -3.98,-1.655 -3.976,-1.656 C -3.962,-1.668 -3.947,-1.68 -3.932,-1.688 C -3.917,-1.699 -3.904,-1.709 -3.888,-1.719 C -3.84,-1.751 -3.791,-1.783 -3.742,-1.81 C -3.718,-1.823 -3.697,-1.833 -3.678,-1.849 C -3.673,-1.849 -3.672,-1.851 -3.67,-1.851 C -3.064,-1.275 -2.76,-0.702 -2.76,-0.148 C -2.76,-0.118 -2.76,-0.087 -2.763,-0.057 C -2.702,-0.053 -2.224,-0.009 -2.158,-0.007 C -2.147,-0.133 -2.14,-0.258 -2.14,-0.378 C -2.14,-1.297 -2.428,-2.021 -2.479,-2.146 L -2.479,-2.152 C -2.468,-2.152 -2.454,-2.148 -2.441,-2.148 L -2.402,-2.148 C -2.4,-2.148 -2.399,-2.146 -2.398,-2.146 C -2.325,-2.146 -2.254,-2.14 -2.179,-2.133 L -2.162,-2.133 C -2.147,-2.131 -2.133,-2.13 -2.119,-2.128 C -2.107,-2.128 -2.095,-2.126 -2.083,-2.123 C -2.081,-2.123 -2.079,-2.123 -2.077,-2.122 C -1.975,-1.84 -1.777,-1.191 -1.777,-0.394 C -1.777,-0.262 -1.784,-0.123 -1.796,0.015 C -1.738,0.017 -1.507,0.023 -1.462,0.023 C -1.356,-0.445 -1.045,-0.896 -0.528,-1.308 C -0.519,-1.299 -0.511,-1.289 -0.502,-1.279 C -0.474,-1.247 -0.445,-1.215 -0.42,-1.178 C -0.388,-1.137 -0.357,-1.094 -0.329,-1.052 C -0.32,-1.038 -0.315,-1.027 -0.309,-1.019 C -0.723,-0.683 -0.982,-0.331 -1.085,0.024 C -0.471,0.023 -0.099,-0.025 -0.005,-0.037 C -0.005,-0.037 0,-0.037 0,-0.04 L 0,0 z" /></g><g
             id="g7693"><g
               id="g7695" /><g
               id="g7701"><g
                 id="g7703"
                 clip-path="url(#clipPath7697)"><g
                   id="g7705"
                   transform="translate(59.1206,534.7734)"><path
                     style="fill:#bc9b6a;fill-opacity:1;fill-rule:nonzero;stroke:none"
                     id="path7707"
                     d="M 0,0 C 0.128,0.073 0.487,0.287 0.487,0.287 C 0.487,0.287 0.848,0.073 0.974,0 C 0.925,0.132 0.804,0.48 0.804,0.48 C 0.804,0.48 1.127,0.688 1.266,0.779 C 1.097,0.78 0.688,0.787 0.688,0.787 C 0.688,0.787 0.538,1.146 0.487,1.269 C 0.438,1.146 0.288,0.787 0.288,0.787 C 0.288,0.787 -0.123,0.78 -0.29,0.779 C -0.151,0.688 0.172,0.48 0.172,0.48 C 0.172,0.48 0.046,0.132 0,0" /></g></g></g></g><g
             id="g7709"
             transform="translate(58.7651,533.2461)"><path
               style="fill:#bc9b6a;fill-opacity:1;fill-rule:nonzero;stroke:none"
               id="path7711"
               d="M 0,0 L 0.011,0.005 C 0.077,0.026 0.137,0.085 0.167,0.161 C 0.202,0.241 0.197,0.328 0.157,0.408 L 0.143,0.433 L -0.968,0.214 L -0.964,0.14 L 0,0 z" /></g><g
             id="g7713"
             transform="translate(58.7651,533.2461)"><path
               style="fill:#051922;fill-opacity:1;fill-rule:nonzero;stroke:none"
               id="path7715"
               d="M 0,0 L 0.011,0.005 C 0.077,0.026 0.137,0.085 0.167,0.161 C 0.202,0.241 0.197,0.328 0.157,0.408 L 0.143,0.433 L -0.968,0.214 L -0.964,0.14 L 0,0 z" /></g><g
             id="g7717"
             transform="translate(37.6812,515.4492)"><path
               style="fill:#051922;fill-opacity:1;fill-rule:nonzero;stroke:none"
               id="path7719"
               d="M 0,0 C -0.385,0.573 -0.717,1.157 -1.011,1.734 C -1.021,1.732 -1.035,1.729 -1.047,1.722 C -1.061,1.719 -1.071,1.714 -1.083,1.711 C -1.244,1.646 -1.408,1.589 -1.569,1.526 C -1.581,1.521 -1.594,1.517 -1.606,1.514 C -1.619,1.509 -1.63,1.505 -1.64,1.5 C -1.329,0.881 -0.993,0.283 -0.62,-0.284 C -1.052,-0.571 -1.221,-0.966 -1.285,-1.251 C -1.309,-1.364 -1.318,-1.478 -1.324,-1.595 C -1.313,-1.607 -1.302,-1.617 -1.29,-1.629 C -1.276,-1.638 -1.264,-1.649 -1.25,-1.662 C -1.063,-1.831 -0.871,-1.994 -0.676,-2.152 C -0.659,-2.168 -0.644,-2.179 -0.627,-2.191 C -0.61,-2.205 -0.595,-2.218 -0.577,-2.233 C -0.628,-2.051 -0.661,-1.864 -0.661,-1.683 C -0.661,-1.586 -0.652,-1.488 -0.632,-1.396 C -0.577,-1.156 -0.445,-0.976 -0.24,-0.837 C 0.897,-2.427 2.257,-3.713 3.823,-4.689 C 3.883,-4.71 3.939,-4.729 3.999,-4.75 C 4.067,-4.776 4.136,-4.8 4.203,-4.824 C 5.158,-5.156 6.153,-5.409 7.18,-5.583 C 7.269,-5.6 7.36,-5.614 7.452,-5.628 C 7.542,-5.642 7.63,-5.655 7.719,-5.669 C 4.717,-4.819 2.257,-3.109 0.394,-0.567 C 1.599,-0.147 4.275,-0.284 6.801,-1.234 C 6.708,-1.188 6.617,-1.143 6.526,-1.093 C 6.465,-1.061 6.4,-1.027 6.337,-0.995 C 5.793,-0.7 5.271,-0.384 4.775,-0.042 C 4.749,-0.024 4.725,-0.007 4.697,0.015 C 4.671,0.027 4.648,0.049 4.623,0.063 C 2.721,0.44 0.987,0.419 0,0" /></g><g
             id="g7721"
             transform="translate(34.8638,519.8701)"><path
               style="fill:#051922;fill-opacity:1;fill-rule:nonzero;stroke:none"
               id="path7723"
               d="M 0,0 C 0.01,0.003 0.021,0.01 0.03,0.016 C 0.043,0.024 0.056,0.033 0.067,0.039 C 0.216,0.127 0.369,0.216 0.522,0.305 C 0.534,0.31 0.544,0.317 0.558,0.324 C 0.567,0.332 0.579,0.335 0.591,0.345 C 0.472,0.731 0.371,1.093 0.288,1.421 C 1.115,1.879 1.936,2.285 2.738,2.639 C 2.737,2.652 2.732,2.665 2.731,2.676 C 2.727,2.69 2.725,2.702 2.723,2.715 C 2.686,2.889 2.655,3.063 2.628,3.236 C 2.625,3.247 2.622,3.264 2.621,3.275 C 2.618,3.286 2.616,3.302 2.614,3.314 C 1.8,2.964 0.969,2.557 0.129,2.096 C 0.112,2.183 -0.018,2.832 -0.018,2.832 C -0.021,2.843 -0.023,2.854 -0.023,2.854 C -0.159,3.389 -0.227,4.024 -0.227,4.725 C -0.227,5.435 -0.157,6.214 -0.019,7.025 C 0.928,7.309 1.91,7.88 2.842,8.67 C 2.849,8.689 2.853,8.711 2.858,8.73 C 2.862,8.756 2.87,8.778 2.874,8.798 C 2.953,9.115 3.039,9.43 3.14,9.743 C 3.15,9.77 3.16,9.797 3.169,9.826 C 3.177,9.852 3.185,9.88 3.193,9.904 C 2.223,8.911 1.166,8.171 0.131,7.784 C 0.864,11.143 2.547,14.314 4.826,16.69 C 4.777,16.656 4.727,16.624 4.676,16.589 C 4.635,16.563 4.596,16.532 4.554,16.505 C 3.902,16.058 3.29,15.574 2.717,15.065 C 2.68,15.031 2.644,15.001 2.606,14.971 C 2.557,14.923 2.508,14.877 2.457,14.831 C 0.465,11.908 -0.312,8.96 -0.593,7.538 C -1.154,7.358 -1.492,7.367 -1.79,7.571 C -1.963,7.69 -2.041,7.849 -2.078,8.001 C -2.086,7.981 -2.094,7.961 -2.101,7.934 C -2.107,7.919 -2.112,7.901 -2.118,7.886 C -2.186,7.682 -2.246,7.479 -2.304,7.275 C -2.309,7.262 -2.313,7.245 -2.317,7.23 C -2.322,7.215 -2.325,7.197 -2.33,7.185 C -2.316,7.163 -2.301,7.144 -2.287,7.125 C -2.061,6.867 -1.604,6.612 -0.719,6.813 C -0.832,6.07 -0.892,5.352 -0.892,4.693 C -0.892,3.947 -0.818,3.273 -0.677,2.706 C -0.677,2.707 -0.508,1.893 -0.48,1.755 C -1.227,1.327 -1.894,0.906 -2.455,0.534 C -2.455,0.521 -2.448,0.504 -2.445,0.492 C -2.444,0.479 -2.44,0.467 -2.437,0.454 C -2.392,0.277 -2.345,0.104 -2.291,-0.068 C -2.29,-0.08 -2.284,-0.095 -2.279,-0.108 C -2.277,-0.119 -2.273,-0.135 -2.269,-0.146 C -1.721,0.222 -1.062,0.646 -0.315,1.08 C -0.218,0.712 -0.11,0.354 0,0" /></g><path
             style="fill:#005595;fill-opacity:1;fill-rule:nonzero;stroke:none"
             id="path7727"
             d="M 0,0 C 0.013,0.003 0.025,0.008 0.037,0.013 C 0.198,0.075 0.362,0.133 0.523,0.197 C 0.535,0.2 0.546,0.205 0.56,0.208 C 0.571,0.215 0.585,0.219 0.596,0.221 C 1.562,0.577 2.514,0.898 3.445,1.188 C 3.438,1.199 3.427,1.212 3.417,1.223 C 7.301,2.426 10.835,3.092 13.399,3.454 L 13.322,3.831 L 12.546,7.59 L 12.47,7.967 C 8.308,7.178 4.77,5.924 1.798,4.488 C 1.796,4.498 1.794,4.508 1.791,4.517 C 0.935,4.105 0.133,3.681 -0.62,3.252 C -0.632,3.242 -0.644,3.239 -0.653,3.231 C -0.667,3.225 -0.677,3.217 -0.688,3.212 C -0.842,3.123 -0.995,3.034 -1.144,2.946 C -1.155,2.94 -1.168,2.932 -1.181,2.923 C -1.19,2.917 -1.201,2.91 -1.211,2.907 C -1.886,2.504 -2.516,2.101 -3.103,1.703 C -3.097,1.691 -3.093,1.681 -3.087,1.67 C -8.543,-2.046 -10.921,-5.814 -10.921,-5.814 C -8.024,-3.666 -4.901,-1.991 -1.822,-0.688 C -1.814,-0.699 -1.807,-0.708 -1.798,-0.724 C -1.209,-0.474 -0.62,-0.239 -0.033,-0.014 C -0.023,-0.009 -0.013,-0.005 0,0"
             transform="translate(36.0747,516.9629)" /><g
             id="g7729"
             transform="translate(52.5435,522.2607)"><path
               style="fill:#ffffff;fill-opacity:1;fill-rule:nonzero;stroke:none"
               id="path7731"
               d="M 0,0 C 0,0.392 0.012,0.821 0.051,1.232 L 0.065,1.38 L -0.019,1.256 C -0.781,0.145 -1.314,-1.507 -1.319,-1.523 C -1.319,-1.523 -1.332,-1.557 -1.35,-1.595 C -1.334,-1.592 -1.319,-1.591 -1.306,-1.589 C -1.289,-1.587 -1.275,-1.587 -1.261,-1.587 C -0.834,-1.531 -0.438,-1.489 -0.021,-1.454 C -0.007,-1.454 0.005,-1.454 0.02,-1.45 C 0.031,-1.45 0.044,-1.447 0.058,-1.447 C 0.053,-1.427 0.052,-1.413 0.051,-1.411 C 0.049,-1.393 0,-0.772 0,0" /></g><g
             id="g7733"
             transform="translate(52.5435,522.2607)"><path
               style="fill:#005595;fill-opacity:1;fill-rule:nonzero;stroke:none"
               id="path7735"
               d="M 0,0 C 0,0.392 0.012,0.821 0.051,1.232 L 0.065,1.38 L -0.019,1.256 C -0.781,0.145 -1.314,-1.507 -1.319,-1.523 C -1.319,-1.523 -1.332,-1.557 -1.35,-1.595 C -1.334,-1.592 -1.319,-1.591 -1.306,-1.589 C -1.289,-1.587 -1.275,-1.587 -1.261,-1.587 C -0.834,-1.531 -0.438,-1.489 -0.021,-1.454 C -0.007,-1.454 0.005,-1.454 0.02,-1.45 C 0.031,-1.45 0.044,-1.447 0.058,-1.447 C 0.053,-1.427 0.052,-1.413 0.051,-1.411 C 0.049,-1.393 0,-0.772 0,0" /></g><g
             id="g7737"
             transform="translate(47.5044,530.0059)"><path
               style="fill:#005595;fill-opacity:1;fill-rule:nonzero;stroke:none"
               id="path7739"
               d="M 0,0 L -0.077,0.38 C -1.339,0.041 -2.573,-0.302 -3.759,-0.708 C -3.759,-0.708 -1.968,1.325 -0.765,2.157 L -1.872,6.939 C -1.872,6.939 -9.005,1.98 -8.568,-4.78 C -8.568,-4.78 -3.078,-2.714 0.451,-2.149 L 0.372,-1.774 L 0,0 z" /></g><g
             id="g7741"
             transform="translate(57.2896,525.5732)"><path
               style="fill:#005595;fill-opacity:1;fill-rule:nonzero;stroke:none"
               id="path7743"
               d="M 0,0 C -0.96,-1.347 -1.902,-2.744 -2.699,-4.098 C -2.793,-4.254 -2.885,-4.409 -2.972,-4.564 C -5.046,-8.454 -5.238,-11.795 -5.238,-11.795 C -2.437,-8.108 7.197,0.16 7.197,0.16 C 4.751,0.378 2.464,0.447 0.28,0.394 C 0.187,0.263 0.091,0.131 0,0" /></g></g></g></g></g></svg>