<?xml version="1.0" encoding="UTF-8" standalone="no"?>
<svg xmlns:rdf="http://www.w3.org/1999/02/22-rdf-syntax-ns#" xmlns="http://www.w3.org/2000/svg" height="439.07999" width="439.08046" version="1.1" xmlns:cc="http://creativecommons.org/ns#" xmlns:dc="http://purl.org/dc/elements/1.1/" viewBox="0 0 439.08046 439.07999"><path d="M439.08046,219.6c0,121.2-98.4,219.48-219.6,219.48S.00044,340.8.00044,219.6C-.23955,98.28,98.16044,0,219.48045,0,340.68043,0,439.08046,98.28,439.08046,219.6Z" fill="#b3b2b1"/><path d="M432.84046,219.6c0,117.72-95.52,213.24-213.36,213.24s-213.24-95.52-213.24-213.24c0-117.84,95.4-213.36,213.24-213.36S432.84046,101.76,432.84046,219.6Z" fill="#003da6"/><path d="M401.28047,219.6c0,100.32-81.36,181.92-181.92,181.92a181.92,181.92,0,1,1,181.92-181.92Z" fill="#dd0031"/><path d="M219.48045,391.08a171.49891,171.49891,0,0,1-159.72-109.32c30.48,41.64,90.6,70.2,159.72,70.2,69.24,0,129.24-28.44,159.84-70.2C354.24043,345.59995,292.08042,391.08,219.48045,391.08Zm0-342.84a171.66085,171.66085,0,0,1,159.84,109.31995c-30.6-41.64-90.6-70.2-159.84-70.2-69.12,0-129.24,28.31995-159.72,70.2A171.37742,171.37742,0,0,1,219.48045,48.24Zm-171.36,176.64h33.48V214.2h-33.48c.12-3.96.36-8.04.72-12,12-59.88,83.76-105.84,170.64-105.84,86.76,0,158.76,46.2,170.64,105.84.48,3.96.6,8.04.72,12h-33.6v10.68h33.48c-.12,4.08-.24,8.04-.72,12.12-11.88,59.64-83.88,105.72-170.64,105.72s-158.76-46.08-170.64-105.72C48.48045,232.92,48.24044,228.95993,48.12045,224.87994Zm171.36-187.2c-100.2,0-181.92,81.6-181.92,181.92,0,100.2,81.72,181.92,181.92,181.92,100.32,0,181.92-81.72,181.92-181.92C401.28044,119.28,319.80043,37.67993,219.48045,37.67993Z" fill="#fff"/><rect x="142.56045" y="224.28" width="12.84001" height="57.71997" fill="#fff"/><path d="M191.88044,224.28h-.48c-3.6,0-16.8-.12-19.32,0h-.6c-3.84,0-6.36,1.8-6.96,5.28a2.70614,2.70614,0,0,0-.24.84c0,.12-.84,11.04.24,14.04,1.68,4.92,5.76,6.84,9.36,7.8.12,0,.24.24.36.24a2.22486,2.22486,0,0,1,.84.24,2.52259,2.52259,0,0,1,.84.6V274.2h-10.56v7.68h14.04c4.8-.12,8.16-2.4,9.36-5.88.24-2.88.36-22.2.12-26.28a4.92053,4.92053,0,0,0-2.28-3.84,15.05891,15.05891,0,0,0-2.04-1.32c-.72-.48-1.68-.72-2.4-1.2-3-1.44-6.36-3.12-6.36-6.96v-3.24h10.08a5.39535,5.39535,0,0,0,4.8-3,13.1884,13.1884,0,0,0,.96-3,7.94419,7.94419,0,0,0,0-2.4Z" fill="#fff"/><path d="M246.48045,237.36a13.43331,13.43331,0,0,1,.36-3.48l.36-.24a9.08266,9.08266,0,0,1,1.8-.12h.24c4.32,0,4.44,1.32,4.44,9.24v26.16a9.32693,9.32693,0,0,1-.24,1.92l-.36.36a13.043,13.043,0,0,1-2.16.12c-1.68,0-2.76-.24-3.48-1.08-.96-.96-.96-2.76-.96-4.8V237.36Zm4.32-13.08a36.91248,36.91248,0,0,0-8.4.84c-6.24,1.44-9.36,5.64-9.36,12.84V272.4c0,8.76,6.24,10.56,15.72,10.56,11.52,0,18-4.08,18-11.16V235.92C266.76045,224.28,259.32045,224.28,250.80046,224.28Z" fill="#fff"/><path d="M296.52046,248.88c-6-22.32-16.08-24.72-20.04-24.72a14.31133,14.31133,0,0,0-1.8.12l-.24.24v57.72h13.08V258.96l9,23.28h13.32V224.52h-13.32Z" fill="#fff"/><path d="M121.80046,250.08h-7.32v-16.8s3.84-.12,4.44,0c1.56.12,2.76.72,2.76,2.52C121.80046,236.28,121.80046,250.08,121.80046,250.08Zm5.16-25.8h-32.88v.48s-.24,6.84,7.32,8.52v48.96h13.44v-24.6h11.16c5.88,0,9.36-3.84,9.36-10.68V244.8C135.12045,228.48,134.52046,225.24,126.96046,224.28Z" fill="#fff"/><path d="M229.08046,224.52h-30.12v9h8.64v48.84h13.2V233.52h.48a7.72087,7.72087,0,0,0,5.64-2.04c2.4-2.52,2.28-6.36,2.28-6.6Z" fill="#fff"/><path d="M344.88044,224.28h-.48c-3.48,0-16.8-.12-19.32,0h-.6c-3.84,0-6.36,1.8-6.96,5.28a5.02058,5.02058,0,0,0-.12.84c0,.12-.96,11.04.12,14.04,1.8,4.92,5.76,6.84,9.36,7.8.12,0,.36.24.48.24a1.70563,1.70563,0,0,1,.72.24c.48.12.72.48.96.6V274.2h-10.56v7.68h13.92c4.92-.12,8.16-2.4,9.36-5.88.36-2.88.48-22.2.12-26.28a5.11078,5.11078,0,0,0-2.16-3.84,11.3206,11.3206,0,0,0-2.16-1.32c-.72-.48-1.56-.72-2.28-1.2-3-1.44-6.48-3.12-6.48-6.96v-3.24h10.2a5.095,5.095,0,0,0,4.68-3,19.08969,19.08969,0,0,0,1.08-3,15.81715,15.81715,0,0,0,0-2.4Z" fill="#fff"/><path d="M226.80046,165.12h2.52c3.48,0,4.56,0,4.44,6,0,4.68,0,5.04-.12,7.2v.48a2.72534,2.72534,0,0,1-.72,1.92,1.303,1.303,0,0,1-1.08.48h-5.16V165.12Zm0,23.52h2.28c2.04,0,5.76.72,5.76,4.56,0,1.8.12,7.68.24,9.84V204c0,.24.24,3.12.36,3.72.84,3.36,3.6,5.28,7.56,5.76h3.72V192.96a9.841,9.841,0,0,0-2.4-6l-.24-.24c2.04-2.4,2.76-4.68,2.76-8.16V176.4c0-15.84-.6-19.2-8.04-19.92h-24.96v56.4h12.84V188.64Z" fill="#fff"/><rect x="294.00044" y="156.23996" width="12.48001" height="56.28003" fill="#fff"/><path d="M186.24046,212.75995h12.84V165.12h.48a7.42835,7.42835,0,0,0,5.52-2.04,9.54351,9.54351,0,0,0,2.28-6.48v-.36h-29.52v8.88h8.4Z" fill="#fff"/><path d="M321.60047,212.75995h12.84V165.12h.48a7.42835,7.42835,0,0,0,5.52-2.04,9.54351,9.54351,0,0,0,2.28-6.48v-.36h-29.52v8.88h8.4Z" fill="#fff"/><polygon points="171 203.64 157.44 203.64 157.44 189.84 166.68 189.84 166.68 177.6 157.44 177.6 157.44 165 171 165 171 156.24 144.96 156.24 144.84 212.52 171 212.52 171 203.64" fill="#fff"/><path d="M124.20045,203.64h-7.2V165.12c4.44-.12,5.4.12,5.52.36,1.68.48,1.68,3.6,1.68,3.84C124.44044,173.64,124.20045,200.04,124.20045,203.64Zm4.44-47.4h-32.16v.24c0,.12-.48,3.48,1.68,5.76,1.32,1.68,3.24,2.4,5.88,2.76v47.4h24c5.52,0,9.12-4.56,9.12-11.52V174.6C137.16044,160.32,137.16044,156.48,128.64045,156.24Z" fill="#fff"/><path d="M267.00044,168.96a13.43167,13.43167,0,0,1,.36-3.48l.36-.24a9.08281,9.08281,0,0,1,1.8-.12h.24c4.32,0,4.44,1.32,4.44,9.12v25.68a9.32445,9.32445,0,0,1-.24,1.92l-.36.12a6.644,6.644,0,0,1-2.16.24,4.83635,4.83635,0,0,1-3.48-1.08c-.96-1.08-.96-2.88-.96-4.8V168.96Zm4.08-12.72a37.3332,37.3332,0,0,0-8.28.72c-6.24,1.44-9.24,5.64-9.24,12.6v33.6c0,8.64,6.24,10.44,15.6,10.44,11.28,0,17.88-3.96,17.88-10.8V167.64C287.16044,156.24,279.72044,156.24,271.08046,156.24Z" fill="#fff"/></svg>