<?xml version="1.0" encoding="UTF-8"?>
<svg width="312px" height="424px" viewBox="0 0 312 424" version="1.1" xmlns="http://www.w3.org/2000/svg" xmlns:xlink="http://www.w3.org/1999/xlink">
    <!-- Generator: Sketch 46.2 (44496) - http://www.bohemiancoding.com/sketch -->
    <title>nfl_new_brand</title>
    <desc>Created with Sketch.</desc>
    <defs></defs>
    <g id="Page-1" stroke="none" stroke-width="1" fill="none" fill-rule="evenodd">
        <g id="nfl_new_brand">
            <path d="M170.26,22.086 C164.388,15.284 159.602,7.902 155.712,0.188 C151.821,7.902 147.035,15.284 141.163,22.086 C104.523,64.544 55.235,78.78 0,28.971 L0,318.465 C0.599,351.334 25.584,362.453 48.656,371.113 L66.707,376.231 C93.768,379.729 120.044,386.442 155.712,424 C191.379,386.442 217.655,379.729 244.716,376.231 L262.767,371.113 C285.838,362.453 310.823,351.334 311.423,318.465 L311.423,28.971 C256.188,78.78 206.899,64.544 170.26,22.086" id="Fill-1" fill="#FFFFFE"></path>
            <path d="M170.486,40.504 C164.955,34.177 160.456,27.301 156.841,20.107 C153.226,27.301 148.726,34.177 143.194,40.504 C109.639,78.895 52.935,83.947 13.912,53.052 L13.912,308.491 C14.46,338.211 37.343,348.263 58.473,356.094 L75.005,360.722 C99.832,363.891 123.94,369.973 156.697,404.097 C156.746,404.03 156.792,403.968 156.841,403.901 C156.889,403.968 156.936,404.03 156.983,404.097 C189.74,369.973 213.849,363.891 238.677,360.722 L255.208,356.094 C276.339,348.263 299.221,338.211 299.77,308.491 L299.77,53.052 C260.746,83.947 204.043,78.895 170.486,40.504" id="Fill-2" fill="#202F52"></path>
            <path d="M191.854,69.739 C191.854,69.739 147.886,63.332 126.832,97.322 C106.048,130.874 120.717,161.377 120.717,161.377 C120.717,161.377 164.876,168.803 188.317,132.68 C207.784,102.682 191.854,69.739 191.854,69.739" id="Fill-3" fill="#FFFFFE"></path>
            <path d="M144.669,95.506 L164.362,105.578 C165.112,104.782 165.868,103.996 166.63,103.219 L146.896,93.126 C146.146,93.902 145.401,94.694 144.669,95.506" id="Fill-4" fill="#202F52"></path>
            <path d="M138.031,103.944 L157.211,113.752 C157.955,112.826 158.72,111.91 159.494,111.001 L140.079,101.072 C139.378,102.007 138.693,102.962 138.031,103.944" id="Fill-5" fill="#202F52"></path>
            <path d="M132.857,112.727 L151.363,122.192 C151.895,121.278 152.439,120.382 153.002,119.511 L134.339,109.966 C133.831,110.877 133.338,111.798 132.857,112.727" id="Fill-6" fill="#202F52"></path>
            <path d="M164.226,78.78 C163.265,79.424 162.288,80.101 161.305,80.804 L180.319,90.529 C181.207,89.776 182.076,89.045 182.925,88.344 L164.226,78.78" id="Fill-7" fill="#202F52"></path>
            <path d="M152.288,87.972 L171.938,98.022 C172.84,97.174 173.737,96.343 174.63,95.532 L155.113,85.549 C154.169,86.329 153.227,87.14 152.288,87.972" id="Fill-8" fill="#202F52"></path>
            <path d="M174.096,85.445 C185.298,75.662 194.491,69.306 194.491,69.306 L192.813,68.179 C192.813,68.179 182.675,71.75 169.239,82.939 L174.096,85.445" id="Fill-9" fill="#202F52"></path>
            <path d="M141.303,115.007 C127.644,136.779 119.189,161.874 119.189,161.874 L121.193,163.088 C121.193,163.088 131.733,137.357 145.284,117.001 L141.303,115.007" id="Fill-10" fill="#202F52"></path>
            <polyline id="Fill-11" fill="#FFFFFE" points="268.397 84.655 273.151 98.188 288.163 98.188 276.188 107.731 280.754 122.317 268.397 112.881 256.049 121.744 260.797 107.631 249.213 98.188 263.656 98.188 268.397 84.655"></polyline>
            <polyline id="Fill-12" fill="#FFFFFE" points="268.397 128.896 273.151 142.433 288.163 142.433 276.188 151.965 280.754 166.558 268.397 157.121 256.049 165.989 260.797 151.876 249.213 142.433 263.656 142.433 268.397 128.896"></polyline>
            <polyline id="Fill-13" fill="#FFFFFE" points="220.896 128.896 225.649 142.433 240.65 142.433 228.684 151.965 233.252 166.558 220.896 157.121 208.552 165.989 213.293 151.876 201.707 142.433 216.15 142.433 220.896 128.896"></polyline>
            <polyline id="Fill-14" fill="#FFFFFE" points="220.515 84.655 225.266 98.188 240.284 98.188 228.312 107.731 232.865 122.317 220.515 112.881 208.171 121.744 212.919 107.631 201.327 98.188 215.77 98.188 220.515 84.655"></polyline>
            <polyline id="Fill-15" fill="#FFFFFE" points="92.589 84.655 97.343 98.188 112.354 98.188 100.381 107.731 104.946 122.317 92.589 112.881 80.241 121.744 84.988 107.631 73.405 98.188 87.848 98.188 92.589 84.655"></polyline>
            <polyline id="Fill-16" fill="#FFFFFE" points="92.589 128.896 97.343 142.433 112.354 142.433 100.381 151.965 104.946 166.558 92.589 157.121 80.241 165.989 84.988 151.876 73.405 142.433 87.848 142.433 92.589 128.896"></polyline>
            <polyline id="Fill-17" fill="#FFFFFE" points="45.087 128.896 49.842 142.433 64.842 142.433 52.875 151.965 57.444 166.558 45.087 157.121 32.744 165.989 37.484 151.876 25.898 142.433 40.342 142.433 45.087 128.896"></polyline>
            <polyline id="Fill-18" fill="#FFFFFE" points="44.706 84.655 49.457 98.188 64.476 98.188 52.503 107.731 57.057 122.317 44.706 112.881 32.363 121.744 37.11 107.631 25.519 98.188 39.961 98.188 44.706 84.655"></polyline>
            <path d="M28.067,176.438 L28.067,299.113 C28.561,326.412 49.177,335.645 68.216,342.837 L83.109,347.088 C105.479,350 127.2,355.585 156.712,386.928 C156.756,386.866 156.797,386.809 156.842,386.748 C156.886,386.809 156.926,386.866 156.97,386.928 C186.482,355.585 208.204,350 230.573,347.088 L245.467,342.837 C264.506,335.645 285.121,326.412 285.615,299.113 L285.615,176.438 L28.067,176.438" id="Fill-19" fill="#FFFFFE"></path>
            <path d="M164.467,192.675 L133.556,192.675 L133.556,212.102 L141.698,212.102 L141.698,324.507 C136.693,323.933 132.401,323.623 132.401,323.623 L132.401,341.204 C132.401,341.204 143.209,342.356 150.847,344.662 C157.017,346.524 172.174,353.596 172.174,353.596 L172.174,334.142 C172.174,334.142 169.242,332.276 164.467,330.198 L164.467,267.308 L176.376,267.308 L179.229,275.319 L192.024,275.319 L192.024,239.293 L179.229,239.293 L176.171,247.88 L164.467,247.88 L164.467,212.102 L179.454,212.102 L184.354,223.513 L199.772,223.513 L199.772,192.675 L164.467,192.675" id="Fill-20" fill="#A32629"></path>
            <path d="M118.93,192.675 L89.532,192.675 L89.532,212.102 L96.161,212.102 L96.161,259.577 L72.384,191.574 L72.384,191.522 L43.13,191.522 L43.13,210.95 L49.615,210.95 L49.615,296.455 C44.387,296.186 39.827,296.177 39.827,296.177 L41.409,315.949 C41.409,315.949 52.287,316.382 60.107,318.368 C66.425,319.969 82.172,326.713 82.172,326.713 L80.421,304.834 C80.421,304.834 77.332,302.97 72.384,301.015 L72.384,260.557 L97.011,330.986 L118.93,337.759 L118.93,212.102 L125.271,212.102 L125.271,192.675 L118.93,192.675" id="Fill-21" fill="#A32629"></path>
            <path d="M254.49,273.135 L254.49,300.765 C248.489,302.105 241.959,303.662 236.52,305.194 L236.52,212.127 L243.148,209.096 L243.148,192.675 L207.122,192.675 L207.122,209.096 L213.751,212.127 L213.751,314.275 C209.882,316.279 206.586,318.229 203.952,319.901 L203.952,342.105 C211.152,337.954 229.058,327.792 237.77,324.29 C254.49,317.565 272.469,315.979 272.469,315.979 L272.469,273.135 L254.49,273.135" id="Fill-22" fill="#A32629"></path>
        </g>
    </g>
</svg>